ply
format ascii 1.0
comment PCL generated
element vertex 1093
property float x
property float y
property float z
property uchar red
property uchar green
property uchar blue
property uchar alpha
element camera 1
property float view_px
property float view_py
property float view_pz
property float x_axisx
property float x_axisy
property float x_axisz
property float y_axisx
property float y_axisy
property float y_axisz
property float z_axisx
property float z_axisy
property float z_axisz
property float focal
property float scalex
property float scaley
property float centerx
property float centery
property int viewportx
property int viewporty
property float k1
property float k2
end_header
-0.23746 -0.31187144 1.149 166 86 40 255
-0.23527142 -0.31187144 1.149 166 86 40 255
-0.25674382 -0.31183907 1.1570001 166 86 40 255
-0.25454003 -0.31183907 1.1570001 166 86 40 255
-0.24183716 -0.30968288 1.149 166 86 40 255
-0.23964858 -0.30968288 1.149 166 86 40 255
-0.23746 -0.30968288 1.149 166 86 40 255
-0.23527142 -0.30968288 1.149 166 86 40 255
-0.23227145 -0.30860478 1.1450001 166 86 40 255
-0.23009048 -0.30860478 1.1450001 166 86 40 255
-0.22790955 -0.30860478 1.1450001 166 86 40 255
-0.26426572 -0.31070572 1.161 166 86 40 255
-0.26115143 -0.30963525 1.1570001 166 86 40 255
-0.25894764 -0.30963525 1.1570001 166 86 40 255
-0.25674382 -0.30963525 1.1570001 166 86 40 255
-0.25365999 -0.30856478 1.153 166 86 40 255
-0.2514638 -0.30856478 1.153 166 86 40 255
-0.24926761 -0.30856478 1.153 166 86 40 255
-0.24707142 -0.30856478 1.153 166 86 40 255
-0.24487522 -0.30856478 1.153 166 86 40 255
-0.24183716 -0.30749431 1.149 166 86 40 255
-0.23964858 -0.30749431 1.149 166 86 40 255
-0.23746 -0.30749431 1.149 166 86 40 255
-0.23527142 -0.30749431 1.149 166 86 40 255
-0.23227145 -0.30642384 1.1450001 166 86 40 255
-0.23009048 -0.30642384 1.1450001 166 86 40 255
-0.22790955 -0.30642384 1.1450001 166 86 40 255
-0.22651716 -0.30749431 1.149 166 86 40 255
-0.22432858 -0.30749431 1.149 166 86 40 255
-0.26555905 -0.30743143 1.1570001 166 86 40 255
-0.26335526 -0.30743143 1.1570001 166 86 40 255
-0.26024854 -0.30636859 1.153 166 86 40 255
-0.25805238 -0.30636859 1.153 166 86 40 255
-0.25585619 -0.30636859 1.153 166 86 40 255
-0.25365999 -0.30636859 1.153 166 86 40 255
-0.2514638 -0.30636859 1.153 166 86 40 255
-0.24926761 -0.30636859 1.153 166 86 40 255
-0.24707142 -0.30636859 1.153 166 86 40 255
-0.24402574 -0.30530572 1.149 166 86 40 255
-0.24183716 -0.30530572 1.149 166 86 40 255
-0.23964858 -0.30530572 1.149 166 86 40 255
-0.23746 -0.30530572 1.149 166 86 40 255
-0.23527142 -0.30530572 1.149 166 86 40 255
-0.23308288 -0.30530572 1.149 166 86 40 255
-0.2308943 -0.30530572 1.149 166 86 40 255
-0.22870572 -0.30530572 1.149 166 86 40 255
-0.22651716 -0.30530572 1.149 166 86 40 255
-0.22432858 -0.30530572 1.149 166 86 40 255
-0.22291334 -0.30636859 1.153 166 86 40 255
-0.22224857 -0.3084943 1.161 166 86 40 255
-0.22079526 -0.30955717 1.1650001 166 86 40 255
-0.21857621 -0.30955717 1.1650001 166 86 40 255
-0.26683712 -0.3041724 1.153 166 86 40 255
-0.26464093 -0.3041724 1.153 166 86 40 255
-0.26244473 -0.3041724 1.153 166 86 40 255
-0.26024854 -0.3041724 1.153 166 86 40 255
-0.25805238 -0.3041724 1.153 166 86 40 255
-0.25585619 -0.3041724 1.153 166 86 40 255
-0.25365999 -0.3041724 1.153 166 86 40 255
-0.2514638 -0.3041724 1.153 166 86 40 255
-0.24926761 -0.3041724 1.153 166 86 40 255
-0.2462143 -0.30311716 1.149 166 86 40 255
-0.24402574 -0.30311716 1.149 166 86 40 255
-0.24183716 -0.30311716 1.149 166 86 40 255
-0.23964858 -0.30311716 1.149 166 86 40 255
-0.23746 -0.30311716 1.149 166 86 40 255
-0.23527142 -0.30311716 1.149 166 86 40 255
-0.23308288 -0.30311716 1.149 166 86 40 255
-0.2308943 -0.30311716 1.149 166 86 40 255
-0.22870572 -0.30311716 1.149 166 86 40 255
-0.22651716 -0.30311716 1.149 166 86 40 255
-0.22432858 -0.30311716 1.149 166 86 40 255
-0.22291334 -0.3041724 1.153 166 86 40 255
-0.22224857 -0.30628288 1.161 166 86 40 255
-0.22079526 -0.30733812 1.1650001 166 86 40 255
-0.21857621 -0.30733812 1.1650001 166 86 40 255
-0.21635716 -0.30733812 1.1650001 166 86 40 255
-0.21413811 -0.30733812 1.1650001 166 86 40 255
-0.26683712 -0.3019762 1.153 166 86 40 255
-0.26464093 -0.3019762 1.153 166 86 40 255
-0.2615343 -0.30092856 1.149 166 86 40 255
-0.25934574 -0.30092856 1.149 166 86 40 255
-0.25715715 -0.30092856 1.149 166 86 40 255
-0.25496858 -0.30092856 1.149 166 86 40 255
-0.25277999 -0.30092856 1.149 166 86 40 255
-0.25059143 -0.30092856 1.149 166 86 40 255
-0.24840285 -0.30092856 1.149 166 86 40 255
-0.2462143 -0.30092856 1.149 166 86 40 255
-0.24402574 -0.30092856 1.149 166 86 40 255
-0.24099526 -0.29988098 1.1450001 166 86 40 255
-0.23881431 -0.29988098 1.1450001 166 86 40 255
-0.23746 -0.30092856 1.149 166 86 40 255
-0.23527142 -0.30092856 1.149 166 86 40 255
-0.23308288 -0.30092856 1.149 166 86 40 255
-0.2308943 -0.30092856 1.149 166 86 40 255
-0.22870572 -0.30092856 1.149 166 86 40 255
-0.22651716 -0.30092856 1.149 166 86 40 255
-0.22510953 -0.3019762 1.153 166 86 40 255
-0.22291334 -0.3019762 1.153 166 86 40 255
-0.22224857 -0.30407143 1.161 166 86 40 255
-0.22003715 -0.30407143 1.161 166 86 40 255
-0.21857621 -0.30511907 1.1650001 166 86 40 255
-0.21635716 -0.30511907 1.1650001 166 86 40 255
-0.21413811 -0.30511907 1.1650001 166 86 40 255
-0.26903331 -0.29978001 1.153 166 86 40 255
-0.26683712 -0.29978001 1.153 166 86 40 255
-0.26372284 -0.29874 1.149 166 86 40 255
-0.2615343 -0.29874 1.149 166 86 40 255
-0.25934574 -0.29874 1.149 166 86 40 255
-0.25715715 -0.29874 1.149 166 86 40 255
-0.25496858 -0.29874 1.149 166 86 40 255
-0.25277999 -0.29874 1.149 166 86 40 255
-0.24971907 -0.29770002 1.1450001 166 86 40 255
-0.2475381 -0.29770002 1.1450001 166 86 40 255
-0.24535717 -0.29770002 1.1450001 166 86 40 255
-0.24317621 -0.29770002 1.1450001 166 86 40 255
-0.24099526 -0.29770002 1.1450001 166 86 40 255
-0.23881431 -0.29770002 1.1450001 166 86 40 255
-0.23663336 -0.29770002 1.1450001 166 86 40 255
-0.2344524 -0.29770002 1.1450001 166 86 40 255
-0.23227145 -0.29770002 1.1450001 166 86 40 255
-0.2308943 -0.29874 1.149 166 86 40 255
-0.22870572 -0.29874 1.149 166 86 40 255
-0.22651716 -0.29874 1.149 166 86 40 255
-0.22432858 -0.29874 1.149 166 86 40 255
-0.22291334 -0.29978001 1.153 166 86 40 255
-0.22148286 -0.30082002 1.1570001 166 86 40 255
-0.22003715 -0.30186 1.161 166 86 40 255
-0.21782571 -0.30186 1.161 166 86 40 255
-0.21635716 -0.30290002 1.1650001 166 86 40 255
-0.21413811 -0.30290002 1.1650001 166 86 40 255
-0.21264668 -0.30394 1.169 166 86 40 255
-0.27370954 -0.29551905 1.1450001 166 86 40 255
-0.27152857 -0.29551905 1.1450001 166 86 40 255
-0.27028859 -0.29655147 1.149 166 86 40 255
-0.26809999 -0.29655147 1.149 166 86 40 255
-0.26591143 -0.29655147 1.149 166 86 40 255
-0.26372284 -0.29655147 1.149 166 86 40 255
-0.26062384 -0.29551905 1.1450001 166 86 40 255
-0.25844288 -0.29551905 1.1450001 166 86 40 255
-0.25626191 -0.29551905 1.1450001 166 86 40 255
-0.25408098 -0.29551905 1.1450001 166 86 40 255
-0.25190002 -0.29551905 1.1450001 166 86 40 255
-0.24884667 -0.29448667 1.141 166 86 40 255
-0.24602474 -0.29371238 1.138 166 86 40 255
-0.24385713 -0.29371238 1.138 166 86 40 255
-0.24232668 -0.29448667 1.141 166 86 40 255
-0.24015334 -0.29448667 1.141 166 86 40 255
-0.23798001 -0.29448667 1.141 166 86 40 255
-0.23580666 -0.29448667 1.141 166 86 40 255
-0.2344524 -0.29551905 1.1450001 166 86 40 255
-0.23227145 -0.29551905 1.1450001 166 86 40 255
-0.2308943 -0.29655147 1.149 166 86 40 255
-0.22870572 -0.29655147 1.149 166 86 40 255
-0.22651716 -0.29655147 1.149 166 86 40 255
-0.22432858 -0.29655147 1.149 166 86 40 255
-0.22291334 -0.29758382 1.153 166 86 40 255
-0.22148286 -0.2986162 1.1570001 166 86 40 255
-0.21927905 -0.2986162 1.1570001 166 86 40 255
-0.21782571 -0.29964858 1.161 166 86 40 255
-0.21635716 -0.30068097 1.1650001 166 86 40 255
-0.21413811 -0.30068097 1.1650001 166 86 40 255
-0.21191905 -0.30068097 1.1650001 166 86 40 255
-0.2097 -0.30068097 1.1650001 166 86 40 255
-0.27370954 -0.29333812 1.1450001 166 86 40 255
-0.27152857 -0.29333812 1.1450001 166 86 40 255
-0.27028859 -0.29436287 1.149 166 86 40 255
-0.26809999 -0.29436287 1.149 166 86 40 255
-0.26591143 -0.29436287 1.149 166 86 40 255
-0.26372284 -0.29436287 1.149 166 86 40 255
-0.26062384 -0.29333812 1.1450001 166 86 40 255
-0.25754002 -0.29231334 1.141 166 86 40 255
-0.25536668 -0.29231334 1.141 166 86 40 255
-0.25319332 -0.29231334 1.141 166 86 40 255
-0.25102001 -0.29231334 1.141 166 86 40 255
-0.24819237 -0.29154477 1.138 166 86 40 255
-0.24602474 -0.29154477 1.138 166 86 40 255
-0.24385713 -0.29154477 1.138 166 86 40 255
-0.24168952 -0.29154477 1.138 166 86 40 255
-0.23952191 -0.29154477 1.138 166 86 40 255
-0.23735428 -0.29154477 1.138 166 86 40 255
-0.23580666 -0.29231334 1.141 166 86 40 255
-0.2344524 -0.29333812 1.1450001 166 86 40 255
-0.23227145 -0.29333812 1.1450001 166 86 40 255
-0.23009048 -0.29333812 1.1450001 166 86 40 255
-0.22870572 -0.29436287 1.149 166 86 40 255
-0.22651716 -0.29436287 1.149 166 86 40 255
-0.22432858 -0.29436287 1.149 166 86 40 255
-0.22291334 -0.29538763 1.153 166 86 40 255
-0.22071715 -0.29538763 1.153 166 86 40 255
-0.21852095 -0.29538763 1.153 166 86 40 255
-0.21782571 -0.29743713 1.161 166 86 40 255
-0.21561429 -0.29743713 1.161 166 86 40 255
-0.21413811 -0.29846191 1.1650001 166 86 40 255
-0.21191905 -0.29846191 1.1650001 166 86 40 255
-0.2097 -0.29846191 1.1650001 166 86 40 255
-0.20748097 -0.29846191 1.1650001 166 86 40 255
-0.27012381 -0.28734285 1.13 166 86 40 255
-0.27247715 -0.29217431 1.149 166 86 40 255
-0.27028859 -0.29217431 1.149 166 86 40 255
-0.26809999 -0.29217431 1.149 166 86 40 255
-0.26591143 -0.29217431 1.149 166 86 40 255
-0.26372284 -0.29217431 1.149 166 86 40 255
-0.26062384 -0.29115716 1.1450001 166 86 40 255
-0.25754002 -0.29014 1.141 166 86 40 255
-0.25536668 -0.29014 1.141 166 86 40 255
-0.25319332 -0.29014 1.141 166 86 40 255
-0.25035998 -0.28937715 1.138 166 86 40 255
-0.24819237 -0.28937715 1.138 166 86 40 255
-0.24602474 -0.28937715 1.138 166 86 40 255
-0.24385713 -0.28937715 1.138 166 86 40 255
-0.24168952 -0.28937715 1.138 166 86 40 255
-0.23952191 -0.28937715 1.138 166 86 40 255
-0.23735428 -0.28937715 1.138 166 86 40 255
-0.23580666 -0.29014 1.141 166 86 40 255
-0.2344524 -0.29115716 1.1450001 166 86 40 255
-0.23227145 -0.29115716 1.1450001 166 86 40 255
-0.23009048 -0.29115716 1.1450001 166 86 40 255
-0.22870572 -0.29217431 1.149 166 86 40 255
-0.22651716 -0.29217431 1.149 166 86 40 255
-0.22432858 -0.29217431 1.149 166 86 40 255
-0.22214 -0.29217431 1.149 166 86 40 255
-0.22071715 -0.29319143 1.153 166 86 40 255
-0.21852095 -0.29319143 1.153 166 86 40 255
-0.21707526 -0.29420859 1.1570001 166 86 40 255
-0.21561429 -0.29522571 1.161 166 86 40 255
-0.21413811 -0.29624286 1.1650001 166 86 40 255
-0.21191905 -0.29624286 1.1650001 166 86 40 255
-0.2097 -0.29624286 1.1650001 166 86 40 255
-0.20748097 -0.29624286 1.1650001 166 86 40 255
-0.27012381 -0.28519049 1.13 166 86 40 255
-0.27247715 -0.28998572 1.149 166 86 40 255
-0.27028859 -0.28998572 1.149 166 86 40 255
-0.26809999 -0.28998572 1.149 166 86 40 255
-0.26591143 -0.28998572 1.149 166 86 40 255
-0.26372284 -0.28998572 1.149 166 86 40 255
-0.25971332 -0.28796667 1.141 166 86 40 255
-0.25686285 -0.28720954 1.138 166 86 40 255
-0.25469524 -0.28720954 1.138 166 86 40 255
-0.25252759 -0.28720954 1.138 166 86 40 255
-0.25035998 -0.28720954 1.138 166 86 40 255
-0.24819237 -0.28720954 1.138 166 86 40 255
-0.24516 -0.28620002 1.1340001 166 86 40 255
-0.243 -0.28620002 1.1340001 166 86 40 255
-0.24084002 -0.28620002 1.1340001 166 86 40 255
-0.23952191 -0.28720954 1.138 166 86 40 255
-0.23735428 -0.28720954 1.138 166 86 40 255
-0.23518667 -0.28720954 1.138 166 86 40 255
-0.23363334 -0.28796667 1.141 166 86 40 255
-0.23146001 -0.28796667 1.141 166 86 40 255
-0.23009048 -0.28897619 1.1450001 166 86 40 255
-0.22870572 -0.28998572 1.149 166 86 40 255
-0.22651716 -0.28998572 1.149 166 86 40 255
-0.22432858 -0.28998572 1.149 166 86 40 255
-0.22214 -0.28998572 1.149 166 86 40 255
-0.22071715 -0.29099524 1.153 166 86 40 255
-0.21852095 -0.29099524 1.153 166 86 40 255
-0.21632476 -0.29099524 1.153 166 86 40 255
-0.21561429 -0.29301429 1.161 166 86 40 255
-0.21413811 -0.29402384 1.1650001 166 86 40 255
-0.21191905 -0.29402384 1.1650001 166 86 40 255
-0.2097 -0.29402384 1.1650001 166 86 40 255
-0.20819335 -0.29503334 1.169 166 86 40 255
-0.20596667 -0.29503334 1.169 166 86 40 255
-0.27466571 -0.28779715 1.149 166 86 40 255
-0.27247715 -0.28779715 1.149 166 86 40 255
-0.27028859 -0.28779715 1.149 166 86 40 255
-0.26809999 -0.28779715 1.149 166 86 40 255
-0.26591143 -0.28779715 1.149 166 86 40 255
-0.26280481 -0.28679526 1.1450001 166 86 40 255
-0.25971332 -0.28579333 1.141 166 86 40 255
-0.25686285 -0.2850419 1.138 166 86 40 255
-0.25469524 -0.2850419 1.138 166 86 40 255
-0.25252759 -0.2850419 1.138 166 86 40 255
-0.25035998 -0.2850419 1.138 166 86 40 255
-0.24732 -0.28404 1.1340001 166 86 40 255
-0.24516 -0.28404 1.1340001 166 86 40 255
-0.243 -0.28404 1.1340001 166 86 40 255
-0.24084002 -0.28404 1.1340001 166 86 40 255
-0.23952191 -0.2850419 1.138 166 86 40 255
-0.23735428 -0.2850419 1.138 166 86 40 255
-0.23518667 -0.2850419 1.138 166 86 40 255
-0.23363334 -0.28579333 1.141 166 86 40 255
-0.23146001 -0.28579333 1.141 166 86 40 255
-0.23009048 -0.28679526 1.1450001 166 86 40 255
-0.22790955 -0.28679526 1.1450001 166 86 40 255
-0.22572859 -0.28679526 1.1450001 166 86 40 255
-0.22432858 -0.28779715 1.149 166 86 40 255
-0.22214 -0.28779715 1.149 166 86 40 255
-0.22071715 -0.28879905 1.153 166 86 40 255
-0.21852095 -0.28879905 1.153 166 86 40 255
-0.21632476 -0.28879905 1.153 166 86 40 255
-0.21561429 -0.29080287 1.161 166 86 40 255
-0.21340285 -0.29080287 1.161 166 86 40 255
-0.21191905 -0.29180479 1.1650001 166 86 40 255
-0.21042001 -0.29280668 1.169 166 86 40 255
-0.20819335 -0.29280668 1.169 166 86 40 255
-0.20596667 -0.29280668 1.169 166 86 40 255
-0.27466571 -0.28560859 1.149 166 86 40 255
-0.27247715 -0.28560859 1.149 166 86 40 255
-0.27028859 -0.28560859 1.149 166 86 40 255
-0.26809999 -0.28560859 1.149 166 86 40 255
-0.26591143 -0.28560859 1.149 166 86 40 255
-0.26280481 -0.28461432 1.1450001 166 86 40 255
-0.25971332 -0.28362 1.141 166 86 40 255
-0.25686285 -0.28287429 1.138 166 86 40 255
-0.25469524 -0.28287429 1.138 166 86 40 255
-0.25252759 -0.28287429 1.138 166 86 40 255
-0.25035998 -0.28287429 1.138 166 86 40 255
-0.24732 -0.28188002 1.1340001 166 86 40 255
-0.24516 -0.28188002 1.1340001 166 86 40 255
-0.243 -0.28188002 1.1340001 166 86 40 255
-0.24168952 -0.28287429 1.138 166 86 40 255
-0.23952191 -0.28287429 1.138 166 86 40 255
-0.23735428 -0.28287429 1.138 166 86 40 255
-0.23518667 -0.28287429 1.138 166 86 40 255
-0.23301904 -0.28287429 1.138 166 86 40 255
-0.23146001 -0.28362 1.141 166 86 40 255
-0.22928667 -0.28362 1.141 166 86 40 255
-0.22790955 -0.28461432 1.1450001 166 86 40 255
-0.22572859 -0.28461432 1.1450001 166 86 40 255
-0.22432858 -0.28560859 1.149 166 86 40 255
-0.22214 -0.28560859 1.149 166 86 40 255
-0.21995144 -0.28560859 1.149 166 86 40 255
-0.21776287 -0.28560859 1.149 166 86 40 255
-0.21632476 -0.28660285 1.153 166 86 40 255
-0.21412857 -0.28660285 1.153 166 86 40 255
-0.21266763 -0.28759715 1.1570001 166 86 40 255
-0.21119143 -0.28859141 1.161 166 86 40 255
-0.2097 -0.28958574 1.1650001 166 86 40 255
-0.20819335 -0.29058 1.169 166 86 40 255
-0.20596667 -0.29058 1.169 166 86 40 255
-0.27466571 -0.28342 1.149 166 86 40 255
-0.27247715 -0.28342 1.149 166 86 40 255
-0.27028859 -0.28342 1.149 166 86 40 255
-0.26809999 -0.28342 1.149 166 86 40 255
-0.26591143 -0.28342 1.149 166 86 40 255
-0.26280481 -0.28243336 1.1450001 166 86 40 255
-0.25903046 -0.28070667 1.138 166 86 40 255
-0.25686285 -0.28070667 1.138 166 86 40 255
-0.25469524 -0.28070667 1.138 166 86 40 255
-0.25252759 -0.28070667 1.138 166 86 40 255
-0.25035998 -0.28070667 1.138 166 86 40 255
-0.24819237 -0.28070667 1.138 166 86 40 255
-0.24516 -0.27972001 1.1340001 166 86 40 255
-0.243 -0.27972001 1.1340001 166 86 40 255
-0.24168952 -0.28070667 1.138 166 86 40 255
-0.23952191 -0.28070667 1.138 166 86 40 255
-0.23735428 -0.28070667 1.138 166 86 40 255
-0.23518667 -0.28070667 1.138 166 86 40 255
-0.23301904 -0.28070667 1.138 166 86 40 255
-0.23085143 -0.28070667 1.138 166 86 40 255
-0.2286838 -0.28070667 1.138 166 86 40 255
-0.22711334 -0.28144667 1.141 166 86 40 255
-0.22494 -0.28144667 1.141 166 86 40 255
-0.22354764 -0.28243336 1.1450001 166 86 40 255
-0.22136667 -0.28243336 1.1450001 166 86 40 255
-0.21995144 -0.28342 1.149 166 86 40 255
-0.21776287 -0.28342 1.149 166 86 40 255
-0.21557429 -0.28342 1.149 166 86 40 255
-0.21412857 -0.28440669 1.153 166 86 40 255
-0.21266763 -0.28539336 1.1570001 166 86 40 255
-0.21119143 -0.28637999 1.161 166 86 40 255
-0.2097 -0.28736669 1.1650001 166 86 40 255
-0.20748097 -0.28736669 1.1650001 166 86 40 255
-0.20526192 -0.28736669 1.1650001 166 86 40 255
-0.20304286 -0.28736669 1.1650001 166 86 40 255
-0.27562189 -0.2822105 1.153 166 86 40 255
-0.2734257 -0.2822105 1.153 166 86 40 255
-0.27122951 -0.2822105 1.153 166 86 40 255
-0.26809999 -0.28123143 1.149 166 86 40 255
-0.26591143 -0.28123143 1.149 166 86 40 255
-0.26280481 -0.2802524 1.1450001 166 86 40 255
-0.25903046 -0.27853906 1.138 166 86 40 255
-0.25686285 -0.27853906 1.138 166 86 40 255
-0.25469524 -0.27853906 1.138 166 86 40 255
-0.25252759 -0.27853906 1.138 166 86 40 255
-0.25035998 -0.27853906 1.138 166 86 40 255
-0.24819237 -0.27853906 1.138 166 86 40 255
-0.24602474 -0.27853906 1.138 166 86 40 255
-0.24385713 -0.27853906 1.138 166 86 40 255
-0.24168952 -0.27853906 1.138 166 86 40 255
-0.23952191 -0.27853906 1.138 166 86 40 255
-0.23735428 -0.27853906 1.138 166 86 40 255
-0.23518667 -0.27853906 1.138 166 86 40 255
-0.23301904 -0.27853906 1.138 166 86 40 255
-0.23085143 -0.27853906 1.138 166 86 40 255
-0.2286838 -0.27853906 1.138 166 86 40 255
-0.22711334 -0.27927333 1.141 166 86 40 255
-0.22494 -0.27927333 1.141 166 86 40 255
-0.22276668 -0.27927333 1.141 166 86 40 255
-0.22136667 -0.2802524 1.1450001 166 86 40 255
-0.21995144 -0.28123143 1.149 166 86 40 255
-0.21776287 -0.28123143 1.149 166 86 40 255
-0.21557429 -0.28123143 1.149 166 86 40 255
-0.21412857 -0.2822105 1.153 166 86 40 255
-0.21266763 -0.28318954 1.1570001 166 86 40 255
-0.21119143 -0.28416857 1.161 166 86 40 255
-0.2097 -0.28514764 1.1650001 166 86 40 255
-0.20748097 -0.28514764 1.1650001 166 86 40 255
-0.20526192 -0.28514764 1.1650001 166 86 40 255
-0.20304286 -0.28514764 1.1650001 166 86 40 255
-0.27562189 -0.28001428 1.153 166 86 40 255
-0.2734257 -0.28001428 1.153 166 86 40 255
-0.27122951 -0.28001428 1.153 166 86 40 255
-0.26809999 -0.27904287 1.149 166 86 40 255
-0.26498574 -0.27807146 1.1450001 166 86 40 255
-0.26188669 -0.27710003 1.141 166 86 40 255
-0.25903046 -0.27637142 1.138 166 86 40 255
-0.25686285 -0.27637142 1.138 166 86 40 255
-0.25469524 -0.27637142 1.138 166 86 40 255
-0.25252759 -0.27637142 1.138 166 86 40 255
-0.25035998 -0.27637142 1.138 166 86 40 255
-0.24819237 -0.27637142 1.138 166 86 40 255
-0.24602474 -0.27637142 1.138 166 86 40 255
-0.24385713 -0.27637142 1.138 166 86 40 255
-0.24168952 -0.27637142 1.138 166 86 40 255
-0.23952191 -0.27637142 1.138 166 86 40 255
-0.23735428 -0.27637142 1.138 166 86 40 255
-0.23518667 -0.27637142 1.138 166 86 40 255
-0.23301904 -0.27637142 1.138 166 86 40 255
-0.23085143 -0.27637142 1.138 166 86 40 255
-0.2286838 -0.27637142 1.138 166 86 40 255
-0.22711334 -0.27710003 1.141 166 86 40 255
-0.22494 -0.27710003 1.141 166 86 40 255
-0.22276668 -0.27710003 1.141 166 86 40 255
-0.22136667 -0.27807146 1.1450001 166 86 40 255
-0.21995144 -0.27904287 1.149 166 86 40 255
-0.21776287 -0.27904287 1.149 166 86 40 255
-0.21632476 -0.28001428 1.153 166 86 40 255
-0.21412857 -0.28001428 1.153 166 86 40 255
-0.21266763 -0.28098571 1.1570001 166 86 40 255
-0.21119143 -0.28195712 1.161 166 86 40 255
-0.2097 -0.28292859 1.1650001 166 86 40 255
-0.20748097 -0.28292859 1.1650001 166 86 40 255
-0.20526192 -0.28292859 1.1650001 166 86 40 255
-0.20304286 -0.28292859 1.1650001 166 86 40 255
-0.27562189 -0.27781808 1.153 166 86 40 255
-0.2734257 -0.27781808 1.153 166 86 40 255
-0.27122951 -0.27781808 1.153 166 86 40 255
-0.26809999 -0.27685431 1.149 166 86 40 255
-0.26498574 -0.2758905 1.1450001 166 86 40 255
-0.26188669 -0.27492666 1.141 166 86 40 255
-0.25903046 -0.27420381 1.138 166 86 40 255
-0.25686285 -0.27420381 1.138 166 86 40 255
-0.25469524 -0.27420381 1.138 166 86 40 255
-0.25252759 -0.27420381 1.138 166 86 40 255
-0.25035998 -0.27420381 1.138 166 86 40 255
-0.24819237 -0.27420381 1.138 166 86 40 255
-0.24602474 -0.27420381 1.138 166 86 40 255
-0.24385713 -0.27420381 1.138 166 86 40 255
-0.24168952 -0.27420381 1.138 166 86 40 255
-0.23952191 -0.27420381 1.138 166 86 40 255
-0.23735428 -0.27420381 1.138 166 86 40 255
-0.23518667 -0.27420381 1.138 166 86 40 255
-0.23301904 -0.27420381 1.138 166 86 40 255
-0.23085143 -0.27420381 1.138 166 86 40 255
-0.2286838 -0.27420381 1.138 166 86 40 255
-0.22651619 -0.27420381 1.138 166 86 40 255
-0.22434857 -0.27420381 1.138 166 86 40 255
-0.22276668 -0.27492666 1.141 166 86 40 255
-0.22214 -0.27685431 1.149 166 86 40 255
-0.21995144 -0.27685431 1.149 166 86 40 255
-0.21776287 -0.27685431 1.149 166 86 40 255
-0.21632476 -0.27781808 1.153 166 86 40 255
-0.21412857 -0.27781808 1.153 166 86 40 255
-0.21266763 -0.27878192 1.1570001 166 86 40 255
-0.21119143 -0.27974573 1.161 166 86 40 255
-0.2097 -0.28070953 1.1650001 166 86 40 255
-0.20748097 -0.28070953 1.1650001 166 86 40 255
-0.20526192 -0.28070953 1.1650001 166 86 40 255
-0.20304286 -0.28070953 1.1650001 166 86 40 255
-0.27562189 -0.27562189 1.153 166 86 40 255
-0.2734257 -0.27562189 1.153 166 86 40 255
-0.27122951 -0.27562189 1.153 166 86 40 255
-0.26809999 -0.27466571 1.149 166 86 40 255
-0.26498574 -0.27370954 1.1450001 166 86 40 255
-0.26280481 -0.27370954 1.1450001 166 86 40 255
-0.25903046 -0.27203619 1.138 166 86 40 255
-0.25686285 -0.27203619 1.138 166 86 40 255
-0.25469524 -0.27203619 1.138 166 86 40 255
-0.25252759 -0.27203619 1.138 166 86 40 255
-0.25035998 -0.27203619 1.138 166 86 40 255
-0.24819237 -0.27203619 1.138 166 86 40 255
-0.24602474 -0.27203619 1.138 166 86 40 255
-0.24385713 -0.27203619 1.138 166 86 40 255
-0.24168952 -0.27203619 1.138 166 86 40 255
-0.23952191 -0.27203619 1.138 166 86 40 255
-0.23735428 -0.27203619 1.138 166 86 40 255
-0.23518667 -0.27203619 1.138 166 86 40 255
-0.23301904 -0.27203619 1.138 166 86 40 255
-0.23085143 -0.27203619 1.138 166 86 40 255
-0.2286838 -0.27203619 1.138 166 86 40 255
-0.22651619 -0.27203619 1.138 166 86 40 255
-0.22434857 -0.27203619 1.138 166 86 40 255
-0.22276668 -0.27275336 1.141 166 86 40 255
-0.22214 -0.27466571 1.149 166 86 40 255
-0.21995144 -0.27466571 1.149 166 86 40 255
-0.21776287 -0.27466571 1.149 166 86 40 255
-0.21632476 -0.27562189 1.153 166 86 40 255
-0.21412857 -0.27562189 1.153 166 86 40 255
-0.21266763 -0.2765781 1.1570001 166 86 40 255
-0.21119143 -0.27753431 1.161 166 86 40 255
-0.2097 -0.27849048 1.1650001 166 86 40 255
-0.20748097 -0.27849048 1.1650001 166 86 40 255
-0.20526192 -0.27849048 1.1650001 166 86 40 255
-0.20304286 -0.27849048 1.1650001 166 86 40 255
-0.27878192 -0.27437431 1.1570001 166 86 40 255
-0.2765781 -0.27437431 1.1570001 166 86 40 255
-0.27532285 -0.27532285 1.161 166 86 40 255
-0.27122951 -0.2734257 1.153 166 86 40 255
-0.26903331 -0.2734257 1.153 166 86 40 255
-0.26591143 -0.27247715 1.149 166 86 40 255
-0.26280481 -0.27152857 1.1450001 166 86 40 255
-0.25971332 -0.27057999 1.141 166 86 40 255
-0.25686285 -0.26986858 1.138 166 86 40 255
-0.25469524 -0.26986858 1.138 166 86 40 255
-0.25252759 -0.26986858 1.138 166 86 40 255
-0.25035998 -0.26986858 1.138 166 86 40 255
-0.24819237 -0.26986858 1.138 166 86 40 255
-0.24602474 -0.26986858 1.138 166 86 40 255
-0.24385713 -0.26986858 1.138 166 86 40 255
-0.24232668 -0.27057999 1.141 166 86 40 255
-0.24015334 -0.27057999 1.141 166 86 40 255
-0.23798001 -0.27057999 1.141 166 86 40 255
-0.23580666 -0.27057999 1.141 166 86 40 255
-0.23363334 -0.27057999 1.141 166 86 40 255
-0.23146001 -0.27057999 1.141 166 86 40 255
-0.22928667 -0.27057999 1.141 166 86 40 255
-0.22711334 -0.27057999 1.141 166 86 40 255
-0.22572859 -0.27152857 1.1450001 166 86 40 255
-0.22354764 -0.27152857 1.1450001 166 86 40 255
-0.22214 -0.27247715 1.149 166 86 40 255
-0.21995144 -0.27247715 1.149 166 86 40 255
-0.21776287 -0.27247715 1.149 166 86 40 255
-0.21632476 -0.2734257 1.153 166 86 40 255
-0.21412857 -0.2734257 1.153 166 86 40 255
-0.21266763 -0.27437431 1.1570001 166 86 40 255
-0.21191905 -0.27627143 1.1650001 166 86 40 255
-0.21042001 -0.27721998 1.169 166 86 40 255
-0.20748097 -0.27627143 1.1650001 166 86 40 255
-0.20526192 -0.27627143 1.1650001 166 86 40 255
-0.20304286 -0.27627143 1.1650001 166 86 40 255
-0.28292859 -0.27405238 1.1650001 166 86 40 255
-0.27878192 -0.27217048 1.1570001 166 86 40 255
-0.2765781 -0.27217048 1.1570001 166 86 40 255
-0.27532285 -0.27311143 1.161 166 86 40 255
-0.27122951 -0.27122951 1.153 166 86 40 255
-0.26903331 -0.27122951 1.153 166 86 40 255
-0.26591143 -0.27028859 1.149 166 86 40 255
-0.26372284 -0.27028859 1.149 166 86 40 255
-0.26062384 -0.26934764 1.1450001 166 86 40 255
-0.25844288 -0.26934764 1.1450001 166 86 40 255
-0.25536668 -0.26840666 1.141 166 86 40 255
-0.25319332 -0.26840666 1.141 166 86 40 255
-0.25035998 -0.26770094 1.138 166 86 40 255
-0.24819237 -0.26770094 1.138 166 86 40 255
-0.24602474 -0.26770094 1.138 166 86 40 255
-0.2445 -0.26840666 1.141 166 86 40 255
-0.24232668 -0.26840666 1.141 166 86 40 255
-0.24015334 -0.26840666 1.141 166 86 40 255
-0.23881431 -0.26934764 1.1450001 166 86 40 255
-0.23663336 -0.26934764 1.1450001 166 86 40 255
-0.23363334 -0.26840666 1.141 166 86 40 255
-0.23146001 -0.26840666 1.141 166 86 40 255
-0.22928667 -0.26840666 1.141 166 86 40 255
-0.22711334 -0.26840666 1.141 166 86 40 255
-0.22572859 -0.26934764 1.1450001 166 86 40 255
-0.22432858 -0.27028859 1.149 166 86 40 255
-0.22214 -0.27028859 1.149 166 86 40 255
-0.21995144 -0.27028859 1.149 166 86 40 255
-0.21852095 -0.27122951 1.153 166 86 40 255
-0.21632476 -0.27122951 1.153 166 86 40 255
-0.21487144 -0.27217048 1.1570001 166 86 40 255
-0.21266763 -0.27217048 1.1570001 166 86 40 255
-0.21191905 -0.27405238 1.1650001 166 86 40 255
-0.21042001 -0.27499333 1.169 166 86 40 255
-0.20676857 -0.27311143 1.161 166 86 40 255
-0.20455715 -0.27311143 1.161 166 86 40 255
-0.20304286 -0.27405238 1.1650001 166 86 40 255
-0.28195712 -0.27090001 1.161 166 86 40 255
-0.27878192 -0.26996669 1.1570001 166 86 40 255
-0.2765781 -0.26996669 1.1570001 166 86 40 255
-0.27532285 -0.27090001 1.161 166 86 40 255
-0.27217048 -0.26996669 1.1570001 166 86 40 255
-0.26903331 -0.26903331 1.153 166 86 40 255
-0.26591143 -0.26809999 1.149 166 86 40 255
-0.26372284 -0.26809999 1.149 166 86 40 255
-0.2615343 -0.26809999 1.149 166 86 40 255
-0.25844288 -0.26716667 1.1450001 166 86 40 255
-0.25536668 -0.26623335 1.141 166 86 40 255
-0.25319332 -0.26623335 1.141 166 86 40 255
-0.25102001 -0.26623335 1.141 166 86 40 255
-0.24884667 -0.26623335 1.141 166 86 40 255
-0.24667335 -0.26623335 1.141 166 86 40 255
-0.2445 -0.26623335 1.141 166 86 40 255
-0.24232668 -0.26623335 1.141 166 86 40 255
-0.24015334 -0.26623335 1.141 166 86 40 255
-0.23881431 -0.26716667 1.1450001 166 86 40 255
-0.23663336 -0.26716667 1.1450001 166 86 40 255
-0.2344524 -0.26716667 1.1450001 166 86 40 255
-0.23227145 -0.26716667 1.1450001 166 86 40 255
-0.2308943 -0.26809999 1.149 166 86 40 255
-0.22870572 -0.26809999 1.149 166 86 40 255
-0.22651716 -0.26809999 1.149 166 86 40 255
-0.22432858 -0.26809999 1.149 166 86 40 255
-0.22214 -0.26809999 1.149 166 86 40 255
-0.21995144 -0.26809999 1.149 166 86 40 255
-0.21852095 -0.26903331 1.153 166 86 40 255
-0.21632476 -0.26903331 1.153 166 86 40 255
-0.21487144 -0.26996669 1.1570001 166 86 40 255
-0.21413811 -0.27183336 1.1650001 166 86 40 255
-0.21191905 -0.27183336 1.1650001 166 86 40 255
-0.2097 -0.27183336 1.1650001 166 86 40 255
-0.20676857 -0.27090001 1.161 166 86 40 255
-0.20455715 -0.27090001 1.161 166 86 40 255
-0.28195712 -0.26868859 1.161 166 86 40 255
-0.27878192 -0.26776287 1.1570001 166 86 40 255
-0.2765781 -0.26776287 1.1570001 166 86 40 255
-0.27532285 -0.26868859 1.161 166 86 40 255
-0.27217048 -0.26776287 1.1570001 166 86 40 255
-0.26903331 -0.26683712 1.153 166 86 40 255
-0.26683712 -0.26683712 1.153 166 86 40 255
-0.26372284 -0.26591143 1.149 166 86 40 255
-0.2615343 -0.26591143 1.149 166 86 40 255
-0.25844288 -0.26498574 1.1450001 166 86 40 255
-0.25626191 -0.26498574 1.1450001 166 86 40 255
-0.25408098 -0.26498574 1.1450001 166 86 40 255
-0.25102001 -0.26405999 1.141 166 86 40 255
-0.24884667 -0.26405999 1.141 166 86 40 255
-0.24667335 -0.26405999 1.141 166 86 40 255
-0.2445 -0.26405999 1.141 166 86 40 255
-0.24232668 -0.26405999 1.141 166 86 40 255
-0.24015334 -0.26405999 1.141 166 86 40 255
-0.23798001 -0.26405999 1.141 166 86 40 255
-0.23663336 -0.26498574 1.1450001 166 86 40 255
-0.2344524 -0.26498574 1.1450001 166 86 40 255
-0.23227145 -0.26498574 1.1450001 166 86 40 255
-0.2308943 -0.26591143 1.149 166 86 40 255
-0.22870572 -0.26591143 1.149 166 86 40 255
-0.22651716 -0.26591143 1.149 166 86 40 255
-0.22510953 -0.26683712 1.153 166 86 40 255
-0.22291334 -0.26683712 1.153 166 86 40 255
-0.22071715 -0.26683712 1.153 166 86 40 255
-0.21852095 -0.26683712 1.153 166 86 40 255
-0.21707526 -0.26776287 1.1570001 166 86 40 255
-0.21487144 -0.26776287 1.1570001 166 86 40 255
-0.21340285 -0.26868859 1.161 166 86 40 255
-0.21119143 -0.26868859 1.161 166 86 40 255
-0.2097 -0.26961431 1.1650001 166 86 40 255
-0.20748097 -0.26961431 1.1650001 166 86 40 255
-0.20526192 -0.26961431 1.1650001 166 86 40 255
-0.28195712 -0.26647714 1.161 166 86 40 255
-0.27974573 -0.26647714 1.161 166 86 40 255
-0.27753431 -0.26647714 1.161 166 86 40 255
-0.27532285 -0.26647714 1.161 166 86 40 255
-0.27217048 -0.26555905 1.1570001 166 86 40 255
-0.26996669 -0.26555905 1.1570001 166 86 40 255
-0.26683712 -0.26464093 1.153 166 86 40 255
-0.26372284 -0.26372284 1.149 166 86 40 255
-0.2615343 -0.26372284 1.149 166 86 40 255
-0.25934574 -0.26372284 1.149 166 86 40 255
-0.25626191 -0.26280481 1.1450001 166 86 40 255
-0.25408098 -0.26280481 1.1450001 166 86 40 255
-0.25190002 -0.26280481 1.1450001 166 86 40 255
-0.24884667 -0.26188669 1.141 166 86 40 255
-0.24667335 -0.26188669 1.141 166 86 40 255
-0.2445 -0.26188669 1.141 166 86 40 255
-0.24232668 -0.26188669 1.141 166 86 40 255
-0.24015334 -0.26188669 1.141 166 86 40 255
-0.23798001 -0.26188669 1.141 166 86 40 255
-0.23746 -0.26372284 1.149 166 86 40 255
-0.23527142 -0.26372284 1.149 166 86 40 255
-0.23308288 -0.26372284 1.149 166 86 40 255
-0.2308943 -0.26372284 1.149 166 86 40 255
-0.22870572 -0.26372284 1.149 166 86 40 255
-0.22651716 -0.26372284 1.149 166 86 40 255
-0.22510953 -0.26464093 1.153 166 86 40 255
-0.22291334 -0.26464093 1.153 166 86 40 255
-0.22071715 -0.26464093 1.153 166 86 40 255
-0.21852095 -0.26464093 1.153 166 86 40 255
-0.21707526 -0.26555905 1.1570001 166 86 40 255
-0.21487144 -0.26555905 1.1570001 166 86 40 255
-0.21340285 -0.26647714 1.161 166 86 40 255
-0.21119143 -0.26647714 1.161 166 86 40 255
-0.2097 -0.26739526 1.1650001 166 86 40 255
-0.20748097 -0.26739526 1.1650001 166 86 40 255
-0.20526192 -0.26739526 1.1650001 166 86 40 255
-0.28195712 -0.26426572 1.161 166 86 40 255
-0.27974573 -0.26426572 1.161 166 86 40 255
-0.27753431 -0.26426572 1.161 166 86 40 255
-0.27532285 -0.26426572 1.161 166 86 40 255
-0.27217048 -0.26335526 1.1570001 166 86 40 255
-0.26996669 -0.26335526 1.1570001 166 86 40 255
-0.26683712 -0.26244473 1.153 166 86 40 255
-0.26464093 -0.26244473 1.153 166 86 40 255
-0.26244473 -0.26244473 1.153 166 86 40 255
-0.25934574 -0.2615343 1.149 166 86 40 255
-0.25715715 -0.2615343 1.149 166 86 40 255
-0.25408098 -0.26062384 1.1450001 166 86 40 255
-0.25190002 -0.26062384 1.1450001 166 86 40 255
-0.24884667 -0.25971332 1.141 166 86 40 255
-0.24667335 -0.25971332 1.141 166 86 40 255
-0.2445 -0.25971332 1.141 166 86 40 255
-0.24232668 -0.25971332 1.141 166 86 40 255
-0.24015334 -0.25971332 1.141 166 86 40 255
-0.23881431 -0.26062384 1.1450001 166 86 40 255
-0.23746 -0.2615343 1.149 166 86 40 255
-0.23527142 -0.2615343 1.149 166 86 40 255
-0.23308288 -0.2615343 1.149 166 86 40 255
-0.2316981 -0.26244473 1.153 166 86 40 255
-0.2295019 -0.26244473 1.153 166 86 40 255
-0.22730571 -0.26244473 1.153 166 86 40 255
-0.22510953 -0.26244473 1.153 166 86 40 255
-0.22291334 -0.26244473 1.153 166 86 40 255
-0.22148286 -0.26335526 1.1570001 166 86 40 255
-0.21927905 -0.26335526 1.1570001 166 86 40 255
-0.21707526 -0.26335526 1.1570001 166 86 40 255
-0.21487144 -0.26335526 1.1570001 166 86 40 255
-0.21413811 -0.26517621 1.1650001 166 86 40 255
-0.21191905 -0.26517621 1.1650001 166 86 40 255
-0.21042001 -0.2660867 1.169 166 86 40 255
-0.20819335 -0.2660867 1.169 166 86 40 255
-0.20596667 -0.2660867 1.169 166 86 40 255
-0.28292859 -0.26295716 1.1650001 166 86 40 255
-0.28070953 -0.26295716 1.1650001 166 86 40 255
-0.27753431 -0.26205429 1.161 166 86 40 255
-0.27532285 -0.26205429 1.161 166 86 40 255
-0.27311143 -0.26205429 1.161 166 86 40 255
-0.26996669 -0.26115143 1.1570001 166 86 40 255
-0.26683712 -0.26024854 1.153 166 86 40 255
-0.26464093 -0.26024854 1.153 166 86 40 255
-0.26244473 -0.26024854 1.153 166 86 40 255
-0.25934574 -0.25934574 1.149 166 86 40 255
-0.25715715 -0.25934574 1.149 166 86 40 255
-0.25496858 -0.25934574 1.149 166 86 40 255
-0.25277999 -0.25934574 1.149 166 86 40 255
-0.24884667 -0.25754002 1.141 166 86 40 255
-0.24667335 -0.25754002 1.141 166 86 40 255
-0.2445 -0.25754002 1.141 166 86 40 255
-0.24232668 -0.25754002 1.141 166 86 40 255
-0.24099526 -0.25844288 1.1450001 166 86 40 255
-0.23964858 -0.25934574 1.149 166 86 40 255
-0.23746 -0.25934574 1.149 166 86 40 255
-0.23527142 -0.25934574 1.149 166 86 40 255
-0.23308288 -0.25934574 1.149 166 86 40 255
-0.2316981 -0.26024854 1.153 166 86 40 255
-0.2295019 -0.26024854 1.153 166 86 40 255
-0.22730571 -0.26024854 1.153 166 86 40 255
-0.22510953 -0.26024854 1.153 166 86 40 255
-0.22291334 -0.26024854 1.153 166 86 40 255
-0.22148286 -0.26115143 1.1570001 166 86 40 255
-0.21927905 -0.26115143 1.1570001 166 86 40 255
-0.21707526 -0.26115143 1.1570001 166 86 40 255
-0.21487144 -0.26115143 1.1570001 166 86 40 255
-0.21340285 -0.26205429 1.161 166 86 40 255
-0.21264668 -0.26386002 1.169 166 86 40 255
-0.21042001 -0.26386002 1.169 166 86 40 255
-0.20819335 -0.26386002 1.169 166 86 40 255
-0.20596667 -0.26386002 1.169 166 86 40 255
-0.27753431 -0.25984284 1.161 166 86 40 255
-0.27532285 -0.25984284 1.161 166 86 40 255
-0.27311143 -0.25984284 1.161 166 86 40 255
-0.27090001 -0.25984284 1.161 166 86 40 255
-0.26776287 -0.25894764 1.1570001 166 86 40 255
-0.26464093 -0.25805238 1.153 166 86 40 255
-0.26244473 -0.25805238 1.153 166 86 40 255
-0.26024854 -0.25805238 1.153 166 86 40 255
-0.25805238 -0.25805238 1.153 166 86 40 255
-0.25496858 -0.25715715 1.149 166 86 40 255
-0.25277999 -0.25715715 1.149 166 86 40 255
-0.24971907 -0.25626191 1.1450001 166 86 40 255
-0.2475381 -0.25626191 1.1450001 166 86 40 255
-0.2445 -0.25536668 1.141 166 86 40 255
-0.24232668 -0.25536668 1.141 166 86 40 255
-0.24099526 -0.25626191 1.1450001 166 86 40 255
-0.23964858 -0.25715715 1.149 166 86 40 255
-0.23746 -0.25715715 1.149 166 86 40 255
-0.23527142 -0.25715715 1.149 166 86 40 255
-0.23389429 -0.25805238 1.153 166 86 40 255
-0.2316981 -0.25805238 1.153 166 86 40 255
-0.2295019 -0.25805238 1.153 166 86 40 255
-0.22730571 -0.25805238 1.153 166 86 40 255
-0.22510953 -0.25805238 1.153 166 86 40 255
-0.22291334 -0.25805238 1.153 166 86 40 255
-0.22148286 -0.25894764 1.1570001 166 86 40 255
-0.21927905 -0.25894764 1.1570001 166 86 40 255
-0.21707526 -0.25894764 1.1570001 166 86 40 255
-0.21561429 -0.25984284 1.161 166 86 40 255
-0.21340285 -0.25984284 1.161 166 86 40 255
-0.21264668 -0.26163334 1.169 166 86 40 255
-0.21042001 -0.26163334 1.169 166 86 40 255
-0.20819335 -0.26163334 1.169 166 86 40 255
-0.27627143 -0.25851905 1.1650001 166 86 40 255
-0.27311143 -0.25763142 1.161 166 86 40 255
-0.27090001 -0.25763142 1.161 166 86 40 255
-0.26683712 -0.25585619 1.153 166 86 40 255
-0.26464093 -0.25585619 1.153 166 86 40 255
-0.26244473 -0.25585619 1.153 166 86 40 255
-0.26024854 -0.25585619 1.153 166 86 40 255
-0.25805238 -0.25585619 1.153 166 86 40 255
-0.25496858 -0.25496858 1.149 166 86 40 255
-0.25277999 -0.25496858 1.149 166 86 40 255
-0.25059143 -0.25496858 1.149 166 86 40 255
-0.2475381 -0.25408098 1.1450001 166 86 40 255
-0.24535717 -0.25408098 1.1450001 166 86 40 255
-0.24402574 -0.25496858 1.149 166 86 40 255
-0.24183716 -0.25496858 1.149 166 86 40 255
-0.23964858 -0.25496858 1.149 166 86 40 255
-0.23828667 -0.25585619 1.153 166 86 40 255
-0.23609048 -0.25585619 1.153 166 86 40 255
-0.23389429 -0.25585619 1.153 166 86 40 255
-0.2316981 -0.25585619 1.153 166 86 40 255
-0.2295019 -0.25585619 1.153 166 86 40 255
-0.22730571 -0.25585619 1.153 166 86 40 255
-0.22510953 -0.25585619 1.153 166 86 40 255
-0.22368668 -0.25674382 1.1570001 166 86 40 255
-0.22148286 -0.25674382 1.1570001 166 86 40 255
-0.22003715 -0.25763142 1.161 166 86 40 255
-0.21782571 -0.25763142 1.161 166 86 40 255
-0.21635716 -0.25851905 1.1650001 166 86 40 255
-0.21487333 -0.25940669 1.169 166 86 40 255
-0.21264668 -0.25940669 1.169 166 86 40 255
-0.21042001 -0.25940669 1.169 166 86 40 255
-0.20890573 -0.26029429 1.1730001 166 86 40 255
-0.27090001 -0.25542 1.161 166 86 40 255
-0.26683712 -0.25365999 1.153 166 86 40 255
-0.26464093 -0.25365999 1.153 166 86 40 255
-0.26244473 -0.25365999 1.153 166 86 40 255
-0.26024854 -0.25365999 1.153 166 86 40 255
-0.25805238 -0.25365999 1.153 166 86 40 255
-0.25585619 -0.25365999 1.153 166 86 40 255
-0.25365999 -0.25365999 1.153 166 86 40 255
-0.2514638 -0.25365999 1.153 166 86 40 255
-0.24840285 -0.25277999 1.149 166 86 40 255
-0.2462143 -0.25277999 1.149 166 86 40 255
-0.24487522 -0.25365999 1.153 166 86 40 255
-0.24267904 -0.25365999 1.153 166 86 40 255
-0.24048285 -0.25365999 1.153 166 86 40 255
-0.23828667 -0.25365999 1.153 166 86 40 255
-0.23609048 -0.25365999 1.153 166 86 40 255
-0.23389429 -0.25365999 1.153 166 86 40 255
-0.2316981 -0.25365999 1.153 166 86 40 255
-0.2295019 -0.25365999 1.153 166 86 40 255
-0.22730571 -0.25365999 1.153 166 86 40 255
-0.22589049 -0.25454003 1.1570001 166 86 40 255
-0.22368668 -0.25454003 1.1570001 166 86 40 255
-0.22224857 -0.25542 1.161 166 86 40 255
-0.22079526 -0.2563 1.1650001 166 86 40 255
-0.21857621 -0.2563 1.1650001 166 86 40 255
-0.21635716 -0.2563 1.1650001 166 86 40 255
-0.21487333 -0.25718001 1.169 166 86 40 255
-0.21264668 -0.25718001 1.169 166 86 40 255
-0.21114002 -0.25806001 1.1730001 166 86 40 255
-0.20890573 -0.25806001 1.1730001 166 86 40 255
-0.26683712 -0.2514638 1.153 166 86 40 255
-0.26464093 -0.2514638 1.153 166 86 40 255
-0.26244473 -0.2514638 1.153 166 86 40 255
-0.26024854 -0.2514638 1.153 166 86 40 255
-0.25805238 -0.2514638 1.153 166 86 40 255
-0.25585619 -0.2514638 1.153 166 86 40 255
-0.25365999 -0.2514638 1.153 166 86 40 255
-0.2514638 -0.2514638 1.153 166 86 40 255
-0.24926761 -0.2514638 1.153 166 86 40 255
-0.24707142 -0.2514638 1.153 166 86 40 255
-0.24572478 -0.2523362 1.1570001 166 86 40 255
-0.24352098 -0.2523362 1.1570001 166 86 40 255
-0.24048285 -0.2514638 1.153 166 86 40 255
-0.23828667 -0.2514638 1.153 166 86 40 255
-0.23690954 -0.2523362 1.1570001 166 86 40 255
-0.23470572 -0.2523362 1.1570001 166 86 40 255
-0.23250191 -0.2523362 1.1570001 166 86 40 255
-0.23029812 -0.2523362 1.1570001 166 86 40 255
-0.22809429 -0.2523362 1.1570001 166 86 40 255
-0.22589049 -0.2523362 1.1570001 166 86 40 255
-0.22445999 -0.25320855 1.161 166 86 40 255
-0.22224857 -0.25320855 1.161 166 86 40 255
-0.22079526 -0.25408095 1.1650001 166 86 40 255
-0.21857621 -0.25408095 1.1650001 166 86 40 255
-0.21635716 -0.25408095 1.1650001 166 86 40 255
-0.21487333 -0.25495335 1.169 166 86 40 255
-0.21264668 -0.25495335 1.169 166 86 40 255
-0.21114002 -0.25582576 1.1730001 166 86 40 255
-0.26555905 -0.25013238 1.1570001 166 86 40 255
-0.26335526 -0.25013238 1.1570001 166 86 40 255
-0.26115143 -0.25013238 1.1570001 166 86 40 255
-0.25894764 -0.25013238 1.1570001 166 86 40 255
-0.25674382 -0.25013238 1.1570001 166 86 40 255
-0.25542 -0.25099713 1.161 166 86 40 255
-0.25320855 -0.25099713 1.161 166 86 40 255
-0.25013238 -0.25013238 1.1570001 166 86 40 255
-0.24792857 -0.25013238 1.1570001 166 86 40 255
-0.2465743 -0.25099713 1.161 166 86 40 255
-0.24352098 -0.25013238 1.1570001 166 86 40 255
-0.24131715 -0.25013238 1.1570001 166 86 40 255
-0.23911335 -0.25013238 1.1570001 166 86 40 255
-0.23690954 -0.25013238 1.1570001 166 86 40 255
-0.23470572 -0.25013238 1.1570001 166 86 40 255
-0.23250191 -0.25013238 1.1570001 166 86 40 255
-0.23029812 -0.25013238 1.1570001 166 86 40 255
-0.22809429 -0.25013238 1.1570001 166 86 40 255
-0.22667143 -0.25099713 1.161 166 86 40 255
-0.22523335 -0.25186193 1.1650001 166 86 40 255
-0.22301431 -0.25186193 1.1650001 166 86 40 255
-0.22155334 -0.25272667 1.169 166 86 40 255
-0.21932666 -0.25272667 1.169 166 86 40 255
-0.21709999 -0.25272667 1.169 166 86 40 255
-0.2156086 -0.25359145 1.1730001 166 86 40 255
-0.2133743 -0.25359145 1.1730001 166 86 40 255
-0.21186 -0.25445619 1.177 166 86 40 255
-0.26739526 -0.24964288 1.1650001 166 86 40 255
-0.26517621 -0.24964288 1.1650001 166 86 40 255
-0.26295716 -0.24964288 1.1650001 166 86 40 255
-0.2607381 -0.24964288 1.1650001 166 86 40 255
-0.25763142 -0.24878572 1.161 166 86 40 255
-0.25542 -0.24878572 1.161 166 86 40 255
-0.25320855 -0.24878572 1.161 166 86 40 255
-0.25099713 -0.24878572 1.161 166 86 40 255
-0.24878572 -0.24878572 1.161 166 86 40 255
-0.2465743 -0.24878572 1.161 166 86 40 255
-0.24436285 -0.24878572 1.161 166 86 40 255
-0.24131715 -0.24792857 1.1570001 166 86 40 255
-0.23911335 -0.24792857 1.1570001 166 86 40 255
-0.23690954 -0.24792857 1.1570001 166 86 40 255
-0.23470572 -0.24792857 1.1570001 166 86 40 255
-0.23250191 -0.24792857 1.1570001 166 86 40 255
-0.23029812 -0.24792857 1.1570001 166 86 40 255
-0.22888285 -0.24878572 1.161 166 86 40 255
-0.2274524 -0.24964288 1.1650001 166 86 40 255
-0.22523335 -0.24964288 1.1650001 166 86 40 255
-0.22301431 -0.24964288 1.1650001 166 86 40 255
-0.22155334 -0.25049999 1.169 166 86 40 255
-0.21932666 -0.25049999 1.169 166 86 40 255
-0.21709999 -0.25049999 1.169 166 86 40 255
-0.2156086 -0.25135717 1.1730001 166 86 40 255
-0.21410191 -0.25221428 1.177 166 86 40 255
-0.21186 -0.25221428 1.177 166 86 40 255
-0.2660867 -0.24827334 1.169 166 86 40 255
-0.26386002 -0.24827334 1.169 166 86 40 255
-0.2607381 -0.24742381 1.1650001 166 86 40 255
-0.25851905 -0.24742381 1.1650001 166 86 40 255
-0.2563 -0.24742381 1.1650001 166 86 40 255
-0.25320855 -0.2465743 1.161 166 86 40 255
-0.25099713 -0.2465743 1.161 166 86 40 255
-0.24878572 -0.2465743 1.161 166 86 40 255
-0.2465743 -0.2465743 1.161 166 86 40 255
-0.24436285 -0.2465743 1.161 166 86 40 255
-0.24215142 -0.2465743 1.161 166 86 40 255
-0.23993999 -0.2465743 1.161 166 86 40 255
-0.23772858 -0.2465743 1.161 166 86 40 255
-0.23551714 -0.2465743 1.161 166 86 40 255
-0.23330572 -0.2465743 1.161 166 86 40 255
-0.23109429 -0.2465743 1.161 166 86 40 255
-0.22967143 -0.24742381 1.1650001 166 86 40 255
-0.2274524 -0.24742381 1.1650001 166 86 40 255
-0.22600667 -0.24827334 1.169 166 86 40 255
-0.22378001 -0.24827334 1.169 166 86 40 255
-0.22155334 -0.24827334 1.169 166 86 40 255
-0.21932666 -0.24827334 1.169 166 86 40 255
-0.21784288 -0.24912286 1.1730001 166 86 40 255
-0.2156086 -0.24912286 1.1730001 166 86 40 255
-0.21410191 -0.24997239 1.177 166 86 40 255
-0.21186 -0.24997239 1.177 166 86 40 255
-0.26386002 -0.24604666 1.169 166 86 40 255
-0.26163334 -0.24604666 1.169 166 86 40 255
-0.25851905 -0.24520479 1.1650001 166 86 40 255
-0.2563 -0.24520479 1.1650001 166 86 40 255
-0.25408095 -0.24520479 1.1650001 166 86 40 255
-0.25186193 -0.24520479 1.1650001 166 86 40 255
-0.24964288 -0.24520479 1.1650001 166 86 40 255
-0.24742381 -0.24520479 1.1650001 166 86 40 255
-0.24520479 -0.24520479 1.1650001 166 86 40 255
-0.24298574 -0.24520479 1.1650001 166 86 40 255
-0.24076669 -0.24520479 1.1650001 166 86 40 255
-0.23854764 -0.24520479 1.1650001 166 86 40 255
-0.23632859 -0.24520479 1.1650001 166 86 40 255
-0.23491335 -0.24604666 1.169 166 86 40 255
-0.23268667 -0.24604666 1.169 166 86 40 255
-0.23046 -0.24604666 1.169 166 86 40 255
-0.22823334 -0.24604666 1.169 166 86 40 255
-0.22678001 -0.24688859 1.1730001 166 86 40 255
-0.22454573 -0.24688859 1.1730001 166 86 40 255
-0.22231144 -0.24688859 1.1730001 166 86 40 255
-0.22007716 -0.24688859 1.1730001 166 86 40 255
-0.21784288 -0.24688859 1.1730001 166 86 40 255
-0.2156086 -0.24688859 1.1730001 166 86 40 255
-0.25851905 -0.24298574 1.1650001 166 86 40 255
-0.2563 -0.24298574 1.1650001 166 86 40 255
-0.25408095 -0.24298574 1.1650001 166 86 40 255
-0.25186193 -0.24298574 1.1650001 166 86 40 255
-0.24964288 -0.24298574 1.1650001 166 86 40 255
-0.24827334 -0.24382001 1.169 166 86 40 255
-0.24604666 -0.24382001 1.169 166 86 40 255
-0.24382001 -0.24382001 1.169 166 86 40 255
-0.24159333 -0.24382001 1.169 166 86 40 255
-0.23936667 -0.24382001 1.169 166 86 40 255
-0.23714 -0.24382001 1.169 166 86 40 255
-0.23571716 -0.24465431 1.1730001 166 86 40 255
-0.23348287 -0.24465431 1.1730001 166 86 40 255
-0.23203714 -0.24548857 1.177 166 86 40 255
-0.22979523 -0.24548857 1.177 166 86 40 255
-0.22755334 -0.24548857 1.177 166 86 40 255
-0.22531144 -0.24548857 1.177 166 86 40 255
-0.22306953 -0.24548857 1.177 166 86 40 255
-0.22157812 -0.24632289 1.1810001 166 86 40 255
-0.2193286 -0.24632289 1.1810001 166 86 40 255
-0.22167429 -0.25153714 1.2060001 166 86 40 255
-0.25718001 -0.24159333 1.169 166 86 40 255
-0.25495335 -0.24159333 1.169 166 86 40 255
-0.25272667 -0.24159333 1.169 166 86 40 255
-0.25049999 -0.24159333 1.169 166 86 40 255
-0.24912286 -0.24242002 1.1730001 166 86 40 255
-0.24688859 -0.24242002 1.1730001 166 86 40 255
-0.24465431 -0.24242002 1.1730001 166 86 40 255
-0.24324667 -0.24324667 1.177 166 86 40 255
-0.24182382 -0.24407336 1.1810001 166 86 40 255
-0.23957431 -0.24407336 1.1810001 166 86 40 255
-0.23812859 -0.24490002 1.1850001 166 86 40 255
-0.23507527 -0.24407336 1.1810001 166 86 40 255
-0.23282574 -0.24407336 1.1810001 166 86 40 255
-0.23135716 -0.24490002 1.1850001 166 86 40 255
-0.2291 -0.24490002 1.1850001 166 86 40 255
-0.22760856 -0.24572666 1.189 166 86 40 255
-0.22534381 -0.24572666 1.189 166 86 40 255
-0.22626859 -0.24924003 1.2060001 166 86 40 255
-0.22397144 -0.24924003 1.2060001 166 86 40 255
-0.22167429 -0.24924003 1.2060001 166 86 40 255
-0.25082195 -0.24182382 1.1810001 166 86 40 255
-0.24857241 -0.24182382 1.1810001 166 86 40 255
-0.24715716 -0.24264286 1.1850001 166 86 40 255
-0.24490002 -0.24264286 1.1850001 166 86 40 255
-0.24346191 -0.24346191 1.189 166 86 40 255
-0.24119714 -0.24346191 1.189 166 86 40 255
-0.23973621 -0.24428098 1.1930001 166 86 40 255
-0.23746383 -0.24428098 1.1930001 166 86 40 255
-0.23519145 -0.24428098 1.1930001 166 86 40 255
-0.23291907 -0.24428098 1.1930001 166 86 40 255
-0.23064668 -0.24428098 1.1930001 166 86 40 255
-0.2283743 -0.24428098 1.1930001 166 86 40 255
-0.22780761 -0.24612381 1.202 166 86 40 255
-0.22626859 -0.24694286 1.2060001 166 86 40 255
-0.22397144 -0.24694286 1.2060001 166 86 40 255
-0.22314477 -0.24858096 1.2140001 166 86 40 255
-0.2510981 -0.2420086 1.1930001 166 86 40 255
-0.24882574 -0.2420086 1.1930001 166 86 40 255
-0.24655335 -0.2420086 1.1930001 166 86 40 255
-0.24428098 -0.2420086 1.1930001 166 86 40 255
-0.2420086 -0.2420086 1.1930001 166 86 40 255
-0.24054 -0.24281999 1.197 166 86 40 255
-0.23826 -0.24281999 1.197 166 86 40 255
-0.23598 -0.24281999 1.197 166 86 40 255
-0.23370001 -0.24281999 1.197 166 86 40 255
-0.23142001 -0.24281999 1.197 166 86 40 255
-0.22914 -0.24281999 1.197 166 86 40 255
-0.22856572 -0.24464573 1.2060001 166 86 40 255
-0.22701906 -0.24545716 1.21 166 86 40 255
-0.22471429 -0.24545716 1.21 166 86 40 255
-0.22314477 -0.2462686 1.2140001 166 86 40 255
-0.25070286 -0.24154477 1.202 166 86 40 255
-0.24841334 -0.24154477 1.202 166 86 40 255
-0.24510001 -0.24054 1.197 166 86 40 255
-0.24281999 -0.24054 1.197 166 86 40 255
-0.24054 -0.24054 1.197 166 86 40 255
-0.23925523 -0.24154477 1.202 166 86 40 255
-0.23696572 -0.24154477 1.202 166 86 40 255
-0.2346762 -0.24154477 1.202 166 86 40 255
-0.23238668 -0.24154477 1.202 166 86 40 255
-0.23009714 -0.24154477 1.202 166 86 40 255
-0.22932382 -0.24315239 1.21 166 86 40 255
-0.22701906 -0.24315239 1.21 166 86 40 255
-0.22471429 -0.24315239 1.21 166 86 40 255
-0.22314477 -0.24395621 1.2140001 166 86 40 255
-0.24924003 -0.24005145 1.2060001 166 86 40 255
-0.24694286 -0.24005145 1.2060001 166 86 40 255
-0.2462686 -0.24164383 1.2140001 166 86 40 255
-0.24395621 -0.24164383 1.2140001 166 86 40 255
-0.24005145 -0.24005145 1.2060001 166 86 40 255
-0.2377543 -0.24005145 1.2060001 166 86 40 255
-0.23623809 -0.24084763 1.21 166 86 40 255
-0.23393333 -0.24084763 1.21 166 86 40 255
-0.23162858 -0.24084763 1.21 166 86 40 255
-0.23008192 -0.24164383 1.2140001 166 86 40 255
-0.22776954 -0.24164383 1.2140001 166 86 40 255
-0.22545716 -0.24164383 1.2140001 166 86 40 255
-0.24960478 -0.24031717 1.2190001 166 86 40 255
-0.24728289 -0.24031717 1.2190001 166 86 40 255
-0.24496096 -0.24031717 1.2190001 166 86 40 255
-0.24263906 -0.24031717 1.2190001 166 86 40 255
-0.24031717 -0.24031717 1.2190001 166 86 40 255
-0.23701908 -0.23933144 1.2140001 166 86 40 255
-0.23470668 -0.23933144 1.2140001 166 86 40 255
-0.23335145 -0.24031717 1.2190001 166 86 40 255
-0.23178764 -0.24110572 1.223 166 86 40 255
0 0 0 1 0 0 0 1 0 0 0 1 0 0 0 0 0 1093 1 0 0
