ply
format ascii 1.0
comment PCL generated
element vertex 1349
property float x
property float y
property float z
element camera 1
property float view_px
property float view_py
property float view_pz
property float x_axisx
property float x_axisy
property float x_axisz
property float y_axisx
property float y_axisy
property float y_axisz
property float z_axisx
property float z_axisy
property float z_axisz
property float focal
property float scalex
property float scaley
property float centerx
property float centery
property int viewportx
property int viewporty
property float k1
property float k2
end_header
-0.23696572 -0.3720476 1.202
-0.2346762 -0.3720476 1.202
-0.24612381 -0.3697581 1.202
-0.24383429 -0.3697581 1.202
-0.24154477 -0.3697581 1.202
-0.23925523 -0.3697581 1.202
-0.23696572 -0.3697581 1.202
-0.2346762 -0.3697581 1.202
-0.23238668 -0.3697581 1.202
-0.22914 -0.36822 1.197
-0.22686 -0.36822 1.197
-0.25986096 -0.36746857 1.202
-0.25757143 -0.36746857 1.202
-0.2552819 -0.36746857 1.202
-0.25194001 -0.36594 1.197
-0.24966 -0.36594 1.197
-0.24737999 -0.36594 1.197
-0.24510001 -0.36594 1.197
-0.24281999 -0.36594 1.197
-0.24054 -0.36594 1.197
-0.23925523 -0.36746857 1.202
-0.23696572 -0.36746857 1.202
-0.2346762 -0.36746857 1.202
-0.23238668 -0.36746857 1.202
-0.22914 -0.36594 1.197
-0.22686 -0.36594 1.197
-0.22551809 -0.36746857 1.202
-0.22322857 -0.36746857 1.202
-0.26672953 -0.36517906 1.202
-0.26334003 -0.36366001 1.197
-0.26106 -0.36366001 1.197
-0.25878 -0.36366001 1.197
-0.25757143 -0.36517906 1.202
-0.2552819 -0.36517906 1.202
-0.25194001 -0.36366001 1.197
-0.24966 -0.36366001 1.197
-0.24737999 -0.36366001 1.197
-0.24510001 -0.36366001 1.197
-0.24281999 -0.36366001 1.197
-0.24054 -0.36366001 1.197
-0.23925523 -0.36517906 1.202
-0.23696572 -0.36517906 1.202
-0.2346762 -0.36517906 1.202
-0.23238668 -0.36517906 1.202
-0.23009714 -0.36517906 1.202
-0.22780761 -0.36517906 1.202
-0.22551809 -0.36517906 1.202
-0.22322857 -0.36517906 1.202
-0.22093906 -0.36517906 1.202
-0.26672953 -0.36288953 1.202
-0.26334003 -0.36138001 1.197
-0.26106 -0.36138001 1.197
-0.25878 -0.36138001 1.197
-0.25650001 -0.36138001 1.197
-0.25422001 -0.36138001 1.197
-0.25194001 -0.36138001 1.197
-0.24966 -0.36138001 1.197
-0.24737999 -0.36138001 1.197
-0.24510001 -0.36138001 1.197
-0.24281999 -0.36138001 1.197
-0.24054 -0.36138001 1.197
-0.23925523 -0.36288953 1.202
-0.23696572 -0.36288953 1.202
-0.2346762 -0.36288953 1.202
-0.23238668 -0.36288953 1.202
-0.23009714 -0.36288953 1.202
-0.22780761 -0.36288953 1.202
-0.22551809 -0.36288953 1.202
-0.22322857 -0.36288953 1.202
-0.22093906 -0.36288953 1.202
-0.21774 -0.36138001 1.197
-0.21546 -0.36138001 1.197
-0.26561999 -0.35910001 1.197
-0.26334003 -0.35910001 1.197
-0.26106 -0.35910001 1.197
-0.25878 -0.35910001 1.197
-0.25650001 -0.35910001 1.197
-0.25422001 -0.35910001 1.197
-0.25194001 -0.35910001 1.197
-0.25070286 -0.36059999 1.202
-0.24737999 -0.35910001 1.197
-0.24510001 -0.35910001 1.197
-0.24281999 -0.35910001 1.197
-0.24054 -0.35910001 1.197
-0.23826 -0.35910001 1.197
-0.23696572 -0.36059999 1.202
-0.2346762 -0.36059999 1.202
-0.23238668 -0.36059999 1.202
-0.23009714 -0.36059999 1.202
-0.22780761 -0.36059999 1.202
-0.22551809 -0.36059999 1.202
-0.22322857 -0.36059999 1.202
-0.22093906 -0.36059999 1.202
-0.21774 -0.35910001 1.197
-0.21546 -0.35910001 1.197
-0.21318001 -0.35910001 1.197
-0.21090001 -0.35910001 1.197
-0.26561999 -0.35682002 1.197
-0.26334003 -0.35682002 1.197
-0.26106 -0.35682002 1.197
-0.25878 -0.35682002 1.197
-0.25757143 -0.35831049 1.202
-0.2552819 -0.35831049 1.202
-0.25299236 -0.35831049 1.202
-0.25070286 -0.35831049 1.202
-0.24737999 -0.35682002 1.197
-0.24510001 -0.35682002 1.197
-0.24281999 -0.35682002 1.197
-0.24054 -0.35682002 1.197
-0.23826 -0.35682002 1.197
-0.23598 -0.35682002 1.197
-0.23370001 -0.35682002 1.197
-0.23238668 -0.35831049 1.202
-0.23009714 -0.35831049 1.202
-0.22780761 -0.35831049 1.202
-0.22551809 -0.35831049 1.202
-0.22322857 -0.35831049 1.202
-0.22093906 -0.35831049 1.202
-0.21864952 -0.35831049 1.202
-0.21546 -0.35682002 1.197
-0.21318001 -0.35682002 1.197
-0.21090001 -0.35682002 1.197
-0.26561999 -0.35453999 1.197
-0.26334003 -0.35453999 1.197
-0.26106 -0.35453999 1.197
-0.25878 -0.35453999 1.197
-0.25650001 -0.35453999 1.197
-0.25422001 -0.35453999 1.197
-0.25194001 -0.35453999 1.197
-0.24966 -0.35453999 1.197
-0.24737999 -0.35453999 1.197
-0.24510001 -0.35453999 1.197
-0.24281999 -0.35453999 1.197
-0.24054 -0.35453999 1.197
-0.23826 -0.35453999 1.197
-0.23598 -0.35453999 1.197
-0.23370001 -0.35453999 1.197
-0.23238668 -0.35602096 1.202
-0.23009714 -0.35602096 1.202
-0.22780761 -0.35602096 1.202
-0.22551809 -0.35602096 1.202
-0.22322857 -0.35602096 1.202
-0.22093906 -0.35602096 1.202
-0.21864952 -0.35602096 1.202
-0.21546 -0.35453999 1.197
-0.21318001 -0.35453999 1.197
-0.21090001 -0.35453999 1.197
-0.20862001 -0.35453999 1.197
-0.26790002 -0.35226002 1.197
-0.26561999 -0.35226002 1.197
-0.26334003 -0.35226002 1.197
-0.26106 -0.35226002 1.197
-0.25878 -0.35226002 1.197
-0.25650001 -0.35226002 1.197
-0.25422001 -0.35226002 1.197
-0.25194001 -0.35226002 1.197
-0.24966 -0.35226002 1.197
-0.24737999 -0.35226002 1.197
-0.24510001 -0.35226002 1.197
-0.24281999 -0.35226002 1.197
-0.24054 -0.35226002 1.197
-0.23826 -0.35226002 1.197
-0.23598 -0.35226002 1.197
-0.23370001 -0.35226002 1.197
-0.23142001 -0.35226002 1.197
-0.23009714 -0.35373142 1.202
-0.22780761 -0.35373142 1.202
-0.22551809 -0.35373142 1.202
-0.22322857 -0.35373142 1.202
-0.22093906 -0.35373142 1.202
-0.21864952 -0.35373142 1.202
-0.21546 -0.35226002 1.197
-0.21318001 -0.35226002 1.197
-0.21090001 -0.35226002 1.197
-0.20862001 -0.35226002 1.197
-0.27017999 -0.34998 1.197
-0.26790002 -0.34998 1.197
-0.26561999 -0.34998 1.197
-0.26334003 -0.34998 1.197
-0.26106 -0.34998 1.197
-0.25878 -0.34998 1.197
-0.25650001 -0.34998 1.197
-0.25422001 -0.34998 1.197
-0.25194001 -0.34998 1.197
-0.24966 -0.34998 1.197
-0.24737999 -0.34998 1.197
-0.24510001 -0.34998 1.197
-0.24281999 -0.34998 1.197
-0.24054 -0.34998 1.197
-0.23826 -0.34998 1.197
-0.23598 -0.34998 1.197
-0.23370001 -0.34998 1.197
-0.23142001 -0.34998 1.197
-0.23009714 -0.35144192 1.202
-0.22780761 -0.35144192 1.202
-0.22551809 -0.35144192 1.202
-0.22322857 -0.35144192 1.202
-0.22093906 -0.35144192 1.202
-0.21864952 -0.35144192 1.202
-0.21546 -0.34998 1.197
-0.21318001 -0.34998 1.197
-0.21090001 -0.34998 1.197
-0.20862001 -0.34998 1.197
-0.20634 -0.34998 1.197
-0.27246001 -0.34770003 1.197
-0.27017999 -0.34770003 1.197
-0.26790002 -0.34770003 1.197
-0.26561999 -0.34770003 1.197
-0.26334003 -0.34770003 1.197
-0.26106 -0.34770003 1.197
-0.25878 -0.34770003 1.197
-0.25650001 -0.34770003 1.197
-0.25422001 -0.34770003 1.197
-0.25194001 -0.34770003 1.197
-0.24966 -0.34770003 1.197
-0.24737999 -0.34770003 1.197
-0.24510001 -0.34770003 1.197
-0.24281999 -0.34770003 1.197
-0.24054 -0.34770003 1.197
-0.23826 -0.34770003 1.197
-0.23598 -0.34770003 1.197
-0.23370001 -0.34770003 1.197
-0.23238668 -0.34915239 1.202
-0.23009714 -0.34915239 1.202
-0.22780761 -0.34915239 1.202
-0.22551809 -0.34915239 1.202
-0.22322857 -0.34915239 1.202
-0.22093906 -0.34915239 1.202
-0.21864952 -0.34915239 1.202
-0.21546 -0.34770003 1.197
-0.21318001 -0.34770003 1.197
-0.21090001 -0.34770003 1.197
-0.20862001 -0.34770003 1.197
-0.20634 -0.34770003 1.197
-0.20406 -0.34770003 1.197
-0.27588761 -0.34686285 1.202
-0.27246001 -0.34542 1.197
-0.27017999 -0.34542 1.197
-0.26790002 -0.34542 1.197
-0.26561999 -0.34542 1.197
-0.26334003 -0.34542 1.197
-0.26106 -0.34542 1.197
-0.25878 -0.34542 1.197
-0.25650001 -0.34542 1.197
-0.25422001 -0.34542 1.197
-0.25194001 -0.34542 1.197
-0.24966 -0.34542 1.197
-0.24737999 -0.34542 1.197
-0.24510001 -0.34542 1.197
-0.24281999 -0.34542 1.197
-0.24054 -0.34542 1.197
-0.23925523 -0.34686285 1.202
-0.23598 -0.34542 1.197
-0.23370001 -0.34542 1.197
-0.23142001 -0.34542 1.197
-0.22914 -0.34542 1.197
-0.22780761 -0.34686285 1.202
-0.22551809 -0.34686285 1.202
-0.22322857 -0.34686285 1.202
-0.22093906 -0.34686285 1.202
-0.21864952 -0.34686285 1.202
-0.21636 -0.34686285 1.202
-0.21318001 -0.34542 1.197
-0.21090001 -0.34542 1.197
-0.20862001 -0.34542 1.197
-0.20634 -0.34542 1.197
-0.20406 -0.34542 1.197
-0.20178001 -0.34542 1.197
-0.27588761 -0.34457332 1.202
-0.27246001 -0.34314001 1.197
-0.27017999 -0.34314001 1.197
-0.26790002 -0.34314001 1.197
-0.26561999 -0.34314001 1.197
-0.26334003 -0.34314001 1.197
-0.26106 -0.34314001 1.197
-0.25878 -0.34314001 1.197
-0.25650001 -0.34314001 1.197
-0.25422001 -0.34314001 1.197
-0.25194001 -0.34314001 1.197
-0.24966 -0.34314001 1.197
-0.24737999 -0.34314001 1.197
-0.24510001 -0.34314001 1.197
-0.24281999 -0.34314001 1.197
-0.24054 -0.34314001 1.197
-0.23826 -0.34314001 1.197
-0.23598 -0.34314001 1.197
-0.23370001 -0.34314001 1.197
-0.23142001 -0.34314001 1.197
-0.22914 -0.34314001 1.197
-0.22686 -0.34314001 1.197
-0.22458 -0.34314001 1.197
-0.22322857 -0.34457332 1.202
-0.22093906 -0.34457332 1.202
-0.21864952 -0.34457332 1.202
-0.21636 -0.34457332 1.202
-0.21407047 -0.34457332 1.202
-0.21090001 -0.34314001 1.197
-0.20862001 -0.34314001 1.197
-0.20634 -0.34314001 1.197
-0.20406 -0.34314001 1.197
-0.20178001 -0.34314001 1.197
-0.27588761 -0.34228382 1.202
-0.27246001 -0.34086001 1.197
-0.27017999 -0.34086001 1.197
-0.26790002 -0.34086001 1.197
-0.26561999 -0.34086001 1.197
-0.26334003 -0.34086001 1.197
-0.26106 -0.34086001 1.197
-0.25878 -0.34086001 1.197
-0.25650001 -0.34086001 1.197
-0.25422001 -0.34086001 1.197
-0.25194001 -0.34086001 1.197
-0.24966 -0.34086001 1.197
-0.24655335 -0.33972096 1.1930001
-0.24428098 -0.33972096 1.1930001
-0.24281999 -0.34086001 1.197
-0.24054 -0.34086001 1.197
-0.23826 -0.34086001 1.197
-0.23598 -0.34086001 1.197
-0.23370001 -0.34086001 1.197
-0.23142001 -0.34086001 1.197
-0.22914 -0.34086001 1.197
-0.22686 -0.34086001 1.197
-0.22458 -0.34086001 1.197
-0.22230001 -0.34086001 1.197
-0.22002001 -0.34086001 1.197
-0.21864952 -0.34228382 1.202
-0.21546 -0.34086001 1.197
-0.21318001 -0.34086001 1.197
-0.21090001 -0.34086001 1.197
-0.20862001 -0.34086001 1.197
-0.20634 -0.34086001 1.197
-0.20406 -0.34086001 1.197
-0.20178001 -0.34086001 1.197
-0.27702001 -0.33858001 1.197
-0.27474001 -0.33858001 1.197
-0.27246001 -0.33858001 1.197
-0.27017999 -0.33858001 1.197
-0.26790002 -0.33858001 1.197
-0.26561999 -0.33858001 1.197
-0.26334003 -0.33858001 1.197
-0.26106 -0.33858001 1.197
-0.25878 -0.33858001 1.197
-0.25564286 -0.33744857 1.1930001
-0.25337049 -0.33744857 1.1930001
-0.2510981 -0.33744857 1.1930001
-0.24882574 -0.33744857 1.1930001
-0.24655335 -0.33744857 1.1930001
-0.24428098 -0.33744857 1.1930001
-0.24281999 -0.33858001 1.197
-0.24054 -0.33858001 1.197
-0.23826 -0.33858001 1.197
-0.23598 -0.33858001 1.197
-0.23370001 -0.33858001 1.197
-0.23142001 -0.33858001 1.197
-0.22914 -0.33858001 1.197
-0.22686 -0.33858001 1.197
-0.22458 -0.33858001 1.197
-0.22230001 -0.33858001 1.197
-0.22002001 -0.33858001 1.197
-0.21774 -0.33858001 1.197
-0.21546 -0.33858001 1.197
-0.21318001 -0.33858001 1.197
-0.21090001 -0.33858001 1.197
-0.20862001 -0.33858001 1.197
-0.20634 -0.33858001 1.197
-0.20406 -0.33858001 1.197
-0.20178001 -0.33858001 1.197
-0.20033334 -0.33999431 1.202
-0.2793 -0.33630002 1.197
-0.27702001 -0.33630002 1.197
-0.27474001 -0.33630002 1.197
-0.27246001 -0.33630002 1.197
-0.27017999 -0.33630002 1.197
-0.26790002 -0.33630002 1.197
-0.26561999 -0.33630002 1.197
-0.26334003 -0.33630002 1.197
-0.26106 -0.33630002 1.197
-0.25878 -0.33630002 1.197
-0.25564286 -0.3351762 1.1930001
-0.25337049 -0.3351762 1.1930001
-0.2510981 -0.3351762 1.1930001
-0.24882574 -0.3351762 1.1930001
-0.24655335 -0.3351762 1.1930001
-0.24428098 -0.3351762 1.1930001
-0.24281999 -0.33630002 1.197
-0.24054 -0.33630002 1.197
-0.23826 -0.33630002 1.197
-0.23598 -0.33630002 1.197
-0.23370001 -0.33630002 1.197
-0.23142001 -0.33630002 1.197
-0.22914 -0.33630002 1.197
-0.22686 -0.33630002 1.197
-0.22458 -0.33630002 1.197
-0.22230001 -0.33630002 1.197
-0.22002001 -0.33630002 1.197
-0.21774 -0.33630002 1.197
-0.21546 -0.33630002 1.197
-0.21318001 -0.33630002 1.197
-0.21090001 -0.33630002 1.197
-0.20862001 -0.33630002 1.197
-0.20634 -0.33630002 1.197
-0.20406 -0.33630002 1.197
-0.20178001 -0.33630002 1.197
-0.19950001 -0.33630002 1.197
-0.2793 -0.33402002 1.197
-0.27702001 -0.33402002 1.197
-0.27474001 -0.33402002 1.197
-0.27246001 -0.33402002 1.197
-0.27017999 -0.33402002 1.197
-0.26790002 -0.33402002 1.197
-0.26561999 -0.33402002 1.197
-0.26334003 -0.33402002 1.197
-0.26106 -0.33402002 1.197
-0.25878 -0.33402002 1.197
-0.25564286 -0.3329038 1.1930001
-0.25337049 -0.3329038 1.1930001
-0.2510981 -0.3329038 1.1930001
-0.24882574 -0.3329038 1.1930001
-0.24655335 -0.3329038 1.1930001
-0.24428098 -0.3329038 1.1930001
-0.24281999 -0.33402002 1.197
-0.24054 -0.33402002 1.197
-0.23826 -0.33402002 1.197
-0.23598 -0.33402002 1.197
-0.23370001 -0.33402002 1.197
-0.23142001 -0.33402002 1.197
-0.22914 -0.33402002 1.197
-0.22686 -0.33402002 1.197
-0.22458 -0.33402002 1.197
-0.22230001 -0.33402002 1.197
-0.22002001 -0.33402002 1.197
-0.21774 -0.33402002 1.197
-0.21546 -0.33402002 1.197
-0.21318001 -0.33402002 1.197
-0.21090001 -0.33402002 1.197
-0.20862001 -0.33402002 1.197
-0.20634 -0.33402002 1.197
-0.20406 -0.33402002 1.197
-0.20178001 -0.33402002 1.197
-0.19950001 -0.33402002 1.197
-0.19722001 -0.33402002 1.197
-0.28158 -0.33173999 1.197
-0.2793 -0.33173999 1.197
-0.27702001 -0.33173999 1.197
-0.27474001 -0.33173999 1.197
-0.27246001 -0.33173999 1.197
-0.27017999 -0.33173999 1.197
-0.26790002 -0.33173999 1.197
-0.26561999 -0.33173999 1.197
-0.26334003 -0.33173999 1.197
-0.26106 -0.33173999 1.197
-0.25878 -0.33173999 1.197
-0.25564286 -0.33063143 1.1930001
-0.25337049 -0.33063143 1.1930001
-0.2510981 -0.33063143 1.1930001
-0.24882574 -0.33063143 1.1930001
-0.24655335 -0.33063143 1.1930001
-0.24428098 -0.33063143 1.1930001
-0.2420086 -0.33063143 1.1930001
-0.23973621 -0.33063143 1.1930001
-0.23826 -0.33173999 1.197
-0.23598 -0.33173999 1.197
-0.23370001 -0.33173999 1.197
-0.23142001 -0.33173999 1.197
-0.22914 -0.33173999 1.197
-0.22686 -0.33173999 1.197
-0.22458 -0.33173999 1.197
-0.22230001 -0.33173999 1.197
-0.22002001 -0.33173999 1.197
-0.21774 -0.33173999 1.197
-0.21546 -0.33173999 1.197
-0.21318001 -0.33173999 1.197
-0.21090001 -0.33173999 1.197
-0.20862001 -0.33173999 1.197
-0.20634 -0.33173999 1.197
-0.20406 -0.33173999 1.197
-0.20110573 -0.33063143 1.1930001
-0.19883335 -0.33063143 1.1930001
-0.19722001 -0.33173999 1.197
-0.30575716 -0.34652478 1.2590001
-0.30239525 -0.34542385 1.2550001
-0.30000478 -0.34542385 1.2550001
-0.29761431 -0.34542385 1.2550001
-0.28158 -0.32946 1.197
-0.2793 -0.32946 1.197
-0.27702001 -0.32946 1.197
-0.27382192 -0.32835904 1.1930001
-0.27154952 -0.32835904 1.1930001
-0.26927716 -0.32835904 1.1930001
-0.26700476 -0.32835904 1.1930001
-0.26561999 -0.32946 1.197
-0.26334003 -0.32946 1.197
-0.26106 -0.32946 1.197
-0.25791523 -0.32835904 1.1930001
-0.25564286 -0.32835904 1.1930001
-0.25337049 -0.32835904 1.1930001
-0.2510981 -0.32835904 1.1930001
-0.24799141 -0.32725808 1.189
-0.24572666 -0.32725808 1.189
-0.24346191 -0.32725808 1.189
-0.2420086 -0.32835904 1.1930001
-0.23973621 -0.32835904 1.1930001
-0.23826 -0.32946 1.197
-0.23598 -0.32946 1.197
-0.23370001 -0.32946 1.197
-0.23142001 -0.32946 1.197
-0.22914 -0.32946 1.197
-0.22686 -0.32946 1.197
-0.22458 -0.32946 1.197
-0.22230001 -0.32946 1.197
-0.22002001 -0.32946 1.197
-0.21774 -0.32946 1.197
-0.21546 -0.32946 1.197
-0.21318001 -0.32946 1.197
-0.21090001 -0.32946 1.197
-0.20862001 -0.32946 1.197
-0.20634 -0.32946 1.197
-0.20337811 -0.32835904 1.1930001
-0.20110573 -0.32835904 1.1930001
-0.19883335 -0.32835904 1.1930001
-0.30239525 -0.34303334 1.2550001
-0.30000478 -0.34303334 1.2550001
-0.29761431 -0.34303334 1.2550001
-0.28158 -0.32718 1.197
-0.2793 -0.32718 1.197
-0.27702001 -0.32718 1.197
-0.27382192 -0.32608667 1.1930001
-0.27154952 -0.32608667 1.1930001
-0.26927716 -0.32608667 1.1930001
-0.26700476 -0.32608667 1.1930001
-0.26473239 -0.32608667 1.1930001
-0.26245999 -0.32608667 1.1930001
-0.26018763 -0.32608667 1.1930001
-0.25791523 -0.32608667 1.1930001
-0.25564286 -0.32608667 1.1930001
-0.25337049 -0.32608667 1.1930001
-0.2510981 -0.32608667 1.1930001
-0.24799141 -0.32499334 1.189
-0.24572666 -0.32499334 1.189
-0.24346191 -0.32499334 1.189
-0.2420086 -0.32608667 1.1930001
-0.23973621 -0.32608667 1.1930001
-0.23746383 -0.32608667 1.1930001
-0.23519145 -0.32608667 1.1930001
-0.23370001 -0.32718 1.197
-0.23142001 -0.32718 1.197
-0.22914 -0.32718 1.197
-0.22686 -0.32718 1.197
-0.22458 -0.32718 1.197
-0.22230001 -0.32718 1.197
-0.22002001 -0.32718 1.197
-0.21774 -0.32718 1.197
-0.21546 -0.32718 1.197
-0.21318001 -0.32718 1.197
-0.21090001 -0.32718 1.197
-0.20862001 -0.32718 1.197
-0.20565049 -0.32608667 1.1930001
-0.20337811 -0.32608667 1.1930001
-0.20110573 -0.32608667 1.1930001
-0.19883335 -0.32608667 1.1930001
-0.30000478 -0.34064287 1.2550001
-0.29761431 -0.34064287 1.2550001
-0.29522383 -0.34064287 1.2550001
-0.2793 -0.3249 1.197
-0.27702001 -0.3249 1.197
-0.27382192 -0.3238143 1.1930001
-0.27154952 -0.3238143 1.1930001
-0.26927716 -0.3238143 1.1930001
-0.26700476 -0.3238143 1.1930001
-0.26473239 -0.3238143 1.1930001
-0.26245999 -0.3238143 1.1930001
-0.26018763 -0.3238143 1.1930001
-0.25791523 -0.3238143 1.1930001
-0.25478572 -0.32272854 1.189
-0.25252095 -0.32272854 1.189
-0.25025621 -0.32272854 1.189
-0.24799141 -0.32272854 1.189
-0.24572666 -0.32272854 1.189
-0.24346191 -0.32272854 1.189
-0.24119714 -0.32272854 1.189
-0.23893237 -0.32272854 1.189
-0.23746383 -0.3238143 1.1930001
-0.23519145 -0.3238143 1.1930001
-0.23370001 -0.3249 1.197
-0.23142001 -0.3249 1.197
-0.22914 -0.3249 1.197
-0.22686 -0.3249 1.197
-0.22382954 -0.3238143 1.1930001
-0.22155716 -0.3238143 1.1930001
-0.22002001 -0.3249 1.197
-0.21774 -0.3249 1.197
-0.21546 -0.3249 1.197
-0.21318001 -0.3249 1.197
-0.21090001 -0.3249 1.197
-0.20792288 -0.3238143 1.1930001
-0.20565049 -0.3238143 1.1930001
-0.2026962 -0.32272854 1.189
-0.20043144 -0.32272854 1.189
-0.19816667 -0.32272854 1.189
-0.30000478 -0.33825243 1.2550001
-0.29761431 -0.33825243 1.2550001
-0.29522383 -0.33825243 1.2550001
-0.29283336 -0.33825243 1.2550001
-0.27609429 -0.32154191 1.1930001
-0.27290383 -0.32046381 1.189
-0.27063903 -0.32046381 1.189
-0.26837429 -0.32046381 1.189
-0.26610953 -0.32046381 1.189
-0.26384476 -0.32046381 1.189
-0.26245999 -0.32154191 1.1930001
-0.26018763 -0.32154191 1.1930001
-0.25705048 -0.32046381 1.189
-0.25478572 -0.32046381 1.189
-0.25252095 -0.32046381 1.189
-0.25025621 -0.32046381 1.189
-0.24799141 -0.32046381 1.189
-0.24572666 -0.32046381 1.189
-0.24346191 -0.32046381 1.189
-0.24119714 -0.32046381 1.189
-0.23893237 -0.32046381 1.189
-0.23666762 -0.32046381 1.189
-0.23519145 -0.32154191 1.1930001
-0.23291907 -0.32154191 1.1930001
-0.23064668 -0.32154191 1.1930001
-0.2283743 -0.32154191 1.1930001
-0.22610192 -0.32154191 1.1930001
-0.22382954 -0.32154191 1.1930001
-0.22155716 -0.32154191 1.1930001
-0.21928477 -0.32154191 1.1930001
-0.21701241 -0.32154191 1.1930001
-0.21474002 -0.32154191 1.1930001
-0.21318001 -0.32262 1.197
-0.21090001 -0.32262 1.197
-0.20792288 -0.32154191 1.1930001
-0.20565049 -0.32154191 1.1930001
-0.2026962 -0.32046381 1.189
-0.20043144 -0.32046381 1.189
-0.19816667 -0.32046381 1.189
-0.30000478 -0.33586192 1.2550001
-0.29761431 -0.33586192 1.2550001
-0.29522383 -0.33586192 1.2550001
-0.29283336 -0.33586192 1.2550001
-0.27516857 -0.31819904 1.189
-0.27290383 -0.31819904 1.189
-0.27063903 -0.31819904 1.189
-0.26837429 -0.31819904 1.189
-0.26610953 -0.31819904 1.189
-0.26384476 -0.31819904 1.189
-0.26245999 -0.31926954 1.1930001
-0.26018763 -0.31926954 1.1930001
-0.25705048 -0.31819904 1.189
-0.25478572 -0.31819904 1.189
-0.25252095 -0.31819904 1.189
-0.25025621 -0.31819904 1.189
-0.24799141 -0.31819904 1.189
-0.24572666 -0.31819904 1.189
-0.24346191 -0.31819904 1.189
-0.24119714 -0.31819904 1.189
-0.23893237 -0.31819904 1.189
-0.23666762 -0.31819904 1.189
-0.23519145 -0.31926954 1.1930001
-0.23291907 -0.31926954 1.1930001
-0.23064668 -0.31926954 1.1930001
-0.2283743 -0.31926954 1.1930001
-0.22610192 -0.31926954 1.1930001
-0.22382954 -0.31926954 1.1930001
-0.22155716 -0.31926954 1.1930001
-0.21928477 -0.31926954 1.1930001
-0.21701241 -0.31926954 1.1930001
-0.21474002 -0.31926954 1.1930001
-0.21318001 -0.32033998 1.197
-0.21090001 -0.32033998 1.197
-0.20792288 -0.31926954 1.1930001
-0.20565049 -0.31926954 1.1930001
-0.20337811 -0.31926954 1.1930001
-0.20110573 -0.31926954 1.1930001
-0.19950001 -0.32033998 1.197
-0.30000478 -0.33347145 1.2550001
-0.29761431 -0.33347145 1.2550001
-0.29522383 -0.33347145 1.2550001
-0.29283336 -0.33347145 1.2550001
-0.27516857 -0.3159343 1.189
-0.27290383 -0.3159343 1.189
-0.27063903 -0.3159343 1.189
-0.26837429 -0.3159343 1.189
-0.26610953 -0.3159343 1.189
-0.26384476 -0.3159343 1.189
-0.26245999 -0.31699714 1.1930001
-0.26018763 -0.31699714 1.1930001
-0.25791523 -0.31699714 1.1930001
-0.25564286 -0.31699714 1.1930001
-0.25252095 -0.3159343 1.189
-0.25025621 -0.3159343 1.189
-0.24799141 -0.3159343 1.189
-0.24572666 -0.3159343 1.189
-0.24346191 -0.3159343 1.189
-0.24119714 -0.3159343 1.189
-0.23893237 -0.3159343 1.189
-0.23746383 -0.31699714 1.1930001
-0.23519145 -0.31699714 1.1930001
-0.23291907 -0.31699714 1.1930001
-0.23064668 -0.31699714 1.1930001
-0.2283743 -0.31699714 1.1930001
-0.22610192 -0.31699714 1.1930001
-0.22382954 -0.31699714 1.1930001
-0.22155716 -0.31699714 1.1930001
-0.21854952 -0.3159343 1.189
-0.21628475 -0.3159343 1.189
-0.21474002 -0.31699714 1.1930001
-0.21246764 -0.31699714 1.1930001
-0.21090001 -0.31806001 1.197
-0.20792288 -0.31699714 1.1930001
-0.20565049 -0.31699714 1.1930001
-0.20406 -0.31806001 1.197
-0.20178001 -0.31806001 1.197
-0.19950001 -0.31806001 1.197
-0.30000478 -0.33108097 1.2550001
-0.29761431 -0.33108097 1.2550001
-0.27516857 -0.3136695 1.189
-0.27290383 -0.3136695 1.189
-0.27063903 -0.3136695 1.189
-0.26837429 -0.3136695 1.189
-0.26610953 -0.3136695 1.189
-0.26473239 -0.31472477 1.1930001
-0.26245999 -0.31472477 1.1930001
-0.26018763 -0.31472477 1.1930001
-0.25791523 -0.31472477 1.1930001
-0.25564286 -0.31472477 1.1930001
-0.25337049 -0.31472477 1.1930001
-0.25025621 -0.3136695 1.189
-0.24799141 -0.3136695 1.189
-0.24572666 -0.3136695 1.189
-0.24346191 -0.3136695 1.189
-0.24119714 -0.3136695 1.189
-0.23893237 -0.3136695 1.189
-0.23666762 -0.3136695 1.189
-0.23440285 -0.3136695 1.189
-0.23213808 -0.3136695 1.189
-0.22987333 -0.3136695 1.189
-0.22760856 -0.3136695 1.189
-0.22534381 -0.3136695 1.189
-0.22307904 -0.3136695 1.189
-0.22081427 -0.3136695 1.189
-0.21854952 -0.3136695 1.189
-0.21628475 -0.3136695 1.189
-0.21474002 -0.31472477 1.1930001
-0.21246764 -0.31472477 1.1930001
-0.21090001 -0.31577998 1.197
-0.20862001 -0.31577998 1.197
-0.20634 -0.31577998 1.197
-0.20491238 -0.31709906 1.202
-0.20262285 -0.31709906 1.202
-0.20233335 -0.32026479 1.2140001
-0.30000478 -0.3286905 1.2550001
-0.29761431 -0.3286905 1.2550001
-0.27382192 -0.31245238 1.1930001
-0.27063903 -0.31140476 1.189
-0.26837429 -0.31140476 1.189
-0.26610953 -0.31140476 1.189
-0.26473239 -0.31245238 1.1930001
-0.26245999 -0.31245238 1.1930001
-0.26018763 -0.31245238 1.1930001
-0.25791523 -0.31245238 1.1930001
-0.25564286 -0.31245238 1.1930001
-0.25337049 -0.31245238 1.1930001
-0.25025621 -0.31140476 1.189
-0.24799141 -0.31140476 1.189
-0.24572666 -0.31140476 1.189
-0.24346191 -0.31140476 1.189
-0.24119714 -0.31140476 1.189
-0.23893237 -0.31140476 1.189
-0.23666762 -0.31140476 1.189
-0.23440285 -0.31140476 1.189
-0.23213808 -0.31140476 1.189
-0.22987333 -0.31140476 1.189
-0.22760856 -0.31140476 1.189
-0.22534381 -0.31140476 1.189
-0.22307904 -0.31140476 1.189
-0.22081427 -0.31140476 1.189
-0.21854952 -0.31140476 1.189
-0.21628475 -0.31140476 1.189
-0.21474002 -0.31245238 1.1930001
-0.21246764 -0.31245238 1.1930001
-0.21090001 -0.31350002 1.197
-0.20862001 -0.31350002 1.197
-0.20634 -0.31350002 1.197
-0.20491238 -0.31480953 1.202
-0.20329715 -0.31585717 1.2060001
-0.20233335 -0.31795242 1.2140001
-0.27382192 -0.31018001 1.1930001
-0.27063903 -0.30914 1.189
-0.26837429 -0.30914 1.189
-0.26610953 -0.30914 1.189
-0.26473239 -0.31018001 1.1930001
-0.26245999 -0.31018001 1.1930001
-0.26018763 -0.31018001 1.1930001
-0.25791523 -0.31018001 1.1930001
-0.25478572 -0.30914 1.189
-0.25252095 -0.30914 1.189
-0.25025621 -0.30914 1.189
-0.24799141 -0.30914 1.189
-0.24572666 -0.30914 1.189
-0.24346191 -0.30914 1.189
-0.24119714 -0.30914 1.189
-0.23893237 -0.30914 1.189
-0.23666762 -0.30914 1.189
-0.23440285 -0.30914 1.189
-0.23213808 -0.30914 1.189
-0.22987333 -0.30914 1.189
-0.22760856 -0.30914 1.189
-0.22534381 -0.30914 1.189
-0.22307904 -0.30914 1.189
-0.22081427 -0.30914 1.189
-0.21854952 -0.30914 1.189
-0.21628475 -0.30914 1.189
-0.21402 -0.30914 1.189
-0.21246764 -0.31018001 1.1930001
-0.21090001 -0.31121999 1.197
-0.20862001 -0.31121999 1.197
-0.2072019 -0.31252 1.202
-0.20491238 -0.31252 1.202
-0.20397145 -0.31460002 1.21
-0.20316668 -0.31694001 1.2190001
-0.29283336 -0.32390955 1.2550001
-0.29044288 -0.32390955 1.2550001
-0.27382192 -0.30790761 1.1930001
-0.27154952 -0.30790761 1.1930001
-0.26927716 -0.30790761 1.1930001
-0.26700476 -0.30790761 1.1930001
-0.26473239 -0.30790761 1.1930001
-0.26245999 -0.30790761 1.1930001
-0.26018763 -0.30790761 1.1930001
-0.25705048 -0.30687523 1.189
-0.25478572 -0.30687523 1.189
-0.25252095 -0.30687523 1.189
-0.25025621 -0.30687523 1.189
-0.24799141 -0.30687523 1.189
-0.24572666 -0.30687523 1.189
-0.24346191 -0.30687523 1.189
-0.24038573 -0.30584288 1.1850001
-0.23812859 -0.30584288 1.1850001
-0.23666762 -0.30687523 1.189
-0.23440285 -0.30687523 1.189
-0.23213808 -0.30687523 1.189
-0.22987333 -0.30687523 1.189
-0.22760856 -0.30687523 1.189
-0.22534381 -0.30687523 1.189
-0.22307904 -0.30687523 1.189
-0.22081427 -0.30687523 1.189
-0.21854952 -0.30687523 1.189
-0.21628475 -0.30687523 1.189
-0.21402 -0.30687523 1.189
-0.21246764 -0.30790761 1.1930001
-0.21090001 -0.30893999 1.197
-0.20949143 -0.31023046 1.202
-0.2072019 -0.31023046 1.202
-0.2055943 -0.31126288 1.2060001
-0.20464574 -0.31332764 1.2140001
-0.20316668 -0.31461811 1.2190001
-0.29283336 -0.32151908 1.2550001
-0.29044288 -0.32151908 1.2550001
-0.28805238 -0.32151908 1.2550001
-0.27154952 -0.30563524 1.1930001
-0.26927716 -0.30563524 1.1930001
-0.26700476 -0.30563524 1.1930001
-0.26473239 -0.30563524 1.1930001
-0.26245999 -0.30563524 1.1930001
-0.26018763 -0.30563524 1.1930001
-0.25705048 -0.30461049 1.189
-0.25478572 -0.30461049 1.189
-0.25252095 -0.30461049 1.189
-0.25025621 -0.30461049 1.189
-0.24799141 -0.30461049 1.189
-0.24572666 -0.30461049 1.189
-0.24346191 -0.30461049 1.189
-0.24038573 -0.30358574 1.1850001
-0.23812859 -0.30358574 1.1850001
-0.23666762 -0.30461049 1.189
-0.23440285 -0.30461049 1.189
-0.23213808 -0.30461049 1.189
-0.22987333 -0.30461049 1.189
-0.22760856 -0.30461049 1.189
-0.22534381 -0.30461049 1.189
-0.22307904 -0.30461049 1.189
-0.22081427 -0.30461049 1.189
-0.21854952 -0.30461049 1.189
-0.21628475 -0.30461049 1.189
-0.21474002 -0.30563524 1.1930001
-0.21246764 -0.30563524 1.1930001
-0.21090001 -0.30666 1.197
-0.20949143 -0.30794096 1.202
-0.20789143 -0.30896574 1.2060001
-0.20627619 -0.3099905 1.21
-0.20464574 -0.31101528 1.2140001
-0.20383334 -0.31332093 1.223
-0.29044288 -0.3191286 1.2550001
-0.28805238 -0.3191286 1.2550001
-0.28566194 -0.3191286 1.2550001
-0.27130857 -0.30565146 1.202
-0.26790002 -0.30438 1.197
-0.26561999 -0.30438 1.197
-0.26334003 -0.30438 1.197
-0.26106 -0.30438 1.197
-0.25791523 -0.30336285 1.1930001
-0.25564286 -0.30336285 1.1930001
-0.25337049 -0.30336285 1.1930001
-0.25025621 -0.30234572 1.189
-0.24799141 -0.30234572 1.189
-0.24572666 -0.30234572 1.189
-0.24346191 -0.30234572 1.189
-0.24038573 -0.3013286 1.1850001
-0.23812859 -0.3013286 1.1850001
-0.23666762 -0.30234572 1.189
-0.23440285 -0.30234572 1.189
-0.23213808 -0.30234572 1.189
-0.22987333 -0.30234572 1.189
-0.22760856 -0.30234572 1.189
-0.22534381 -0.30234572 1.189
-0.22382954 -0.30336285 1.1930001
-0.22081427 -0.30234572 1.189
-0.21854952 -0.30234572 1.189
-0.21628475 -0.30234572 1.189
-0.21474002 -0.30336285 1.1930001
-0.21318001 -0.30438 1.197
-0.21178097 -0.30565146 1.202
-0.21018858 -0.30666858 1.2060001
-0.20858096 -0.30768573 1.21
-0.2069581 -0.30870289 1.2140001
-0.20548858 -0.30997431 1.2190001
-0.20383334 -0.31099144 1.223
-0.27130857 -0.30336189 1.202
-0.26901904 -0.30336189 1.202
-0.26561999 -0.3021 1.197
-0.26334003 -0.3021 1.197
-0.26106 -0.3021 1.197
-0.25791523 -0.30109048 1.1930001
-0.25564286 -0.30109048 1.1930001
-0.25337049 -0.30109048 1.1930001
-0.25025621 -0.30008096 1.189
-0.24799141 -0.30008096 1.189
-0.24572666 -0.30008096 1.189
-0.24346191 -0.30008096 1.189
-0.24038573 -0.29907146 1.1850001
-0.23812859 -0.29907146 1.1850001
-0.23666762 -0.30008096 1.189
-0.23440285 -0.30008096 1.189
-0.23213808 -0.30008096 1.189
-0.22987333 -0.30008096 1.189
-0.22760856 -0.30008096 1.189
-0.22534381 -0.30008096 1.189
-0.22382954 -0.30109048 1.1930001
-0.22155716 -0.30109048 1.1930001
-0.21928477 -0.30109048 1.1930001
-0.21701241 -0.30109048 1.1930001
-0.21474002 -0.30109048 1.1930001
-0.21318001 -0.3021 1.197
-0.21178097 -0.30336189 1.202
-0.21018858 -0.30437145 1.2060001
-0.20858096 -0.30538097 1.21
-0.20781049 -0.30765241 1.2190001
-0.20548858 -0.30765241 1.2190001
-0.20683333 -0.31320477 1.2410001
-0.26901904 -0.30107239 1.202
-0.26672953 -0.30107239 1.202
-0.26444 -0.30107239 1.202
-0.26106 -0.29982001 1.197
-0.25791523 -0.29881811 1.1930001
-0.25564286 -0.29881811 1.1930001
-0.25337049 -0.29881811 1.1930001
-0.25025621 -0.29781619 1.189
-0.24799141 -0.29781619 1.189
-0.24572666 -0.29781619 1.189
-0.24346191 -0.29781619 1.189
-0.24038573 -0.29681432 1.1850001
-0.23812859 -0.29681432 1.1850001
-0.23666762 -0.29781619 1.189
-0.23440285 -0.29781619 1.189
-0.23213808 -0.29781619 1.189
-0.22987333 -0.29781619 1.189
-0.22760856 -0.29781619 1.189
-0.22534381 -0.29781619 1.189
-0.22382954 -0.29881811 1.1930001
-0.22155716 -0.29881811 1.1930001
-0.21928477 -0.29881811 1.1930001
-0.21701241 -0.29881811 1.1930001
-0.21474002 -0.29881811 1.1930001
-0.21318001 -0.29982001 1.197
-0.21248573 -0.30207428 1.2060001
-0.21088572 -0.30307621 1.21
-0.21013241 -0.30533049 1.2190001
-0.20849238 -0.30633238 1.223
-0.20616287 -0.30633238 1.223
-0.20683333 -0.31084096 1.2410001
-0.28452381 -0.31071427 1.25
-0.28214285 -0.31071427 1.25
-0.27080953 -0.30077142 1.21
-0.26761717 -0.29977715 1.2060001
-0.26444 -0.29878286 1.202
-0.26215047 -0.29878286 1.202
-0.25878 -0.29753998 1.197
-0.25650001 -0.29753998 1.197
-0.25337049 -0.29654571 1.1930001
-0.2510981 -0.29654571 1.1930001
-0.24799141 -0.29555145 1.189
-0.24572666 -0.29555145 1.189
-0.24346191 -0.29555145 1.189
-0.24119714 -0.29555145 1.189
-0.23893237 -0.29555145 1.189
-0.23666762 -0.29555145 1.189
-0.23440285 -0.29555145 1.189
-0.23291907 -0.29654571 1.1930001
-0.23064668 -0.29654571 1.1930001
-0.2283743 -0.29654571 1.1930001
-0.22610192 -0.29654571 1.1930001
-0.22458 -0.29753998 1.197
-0.22230001 -0.29753998 1.197
-0.22002001 -0.29753998 1.197
-0.21774 -0.29753998 1.197
-0.21546 -0.29753998 1.197
-0.21478288 -0.29977715 1.2060001
-0.21389526 -0.30176574 1.2140001
-0.21158287 -0.30176574 1.2140001
-0.21082191 -0.30400285 1.223
-0.20917431 -0.30499718 1.2270001
-0.20835428 -0.30723429 1.2360001
-0.2075 -0.30947143 1.245
-0.28452381 -0.30833334 1.25
-0.28101429 -0.3071 1.245
-0.27170479 -0.29945335 1.2140001
-0.26850477 -0.29846668 1.21
-0.26532003 -0.29748002 1.2060001
-0.26215047 -0.29649332 1.202
-0.25878 -0.29526001 1.197
-0.25650001 -0.29526001 1.197
-0.25422001 -0.29526001 1.197
-0.2510981 -0.29427335 1.1930001
-0.24799141 -0.29328665 1.189
-0.24572666 -0.29328665 1.189
-0.24346191 -0.29328665 1.189
-0.24119714 -0.29328665 1.189
-0.23893237 -0.29328665 1.189
-0.23666762 -0.29328665 1.189
-0.23440285 -0.29328665 1.189
-0.23291907 -0.29427335 1.1930001
-0.23064668 -0.29427335 1.1930001
-0.2283743 -0.29427335 1.1930001
-0.22610192 -0.29427335 1.1930001
-0.22458 -0.29526001 1.197
-0.22230001 -0.29526001 1.197
-0.22002001 -0.29526001 1.197
-0.21864952 -0.29649332 1.202
-0.21636 -0.29649332 1.202
-0.21620764 -0.29945335 1.2140001
-0.21548095 -0.30167335 1.223
-0.21315143 -0.30167335 1.223
-0.21237335 -0.30389336 1.2320001
-0.21002668 -0.30389336 1.2320001
-0.20919715 -0.30611333 1.2410001
-0.20833333 -0.30833334 1.25
-0.28452381 -0.30595237 1.25
-0.28101429 -0.30472857 1.245
-0.27573335 -0.30154669 1.2320001
-0.2693924 -0.29714096 1.2140001
-0.26620001 -0.29616189 1.21
-0.26302287 -0.29518288 1.2060001
-0.25986096 -0.29420382 1.202
-0.25757143 -0.29420382 1.202
-0.25422001 -0.29297999 1.197
-0.25194001 -0.29297999 1.197
-0.24882574 -0.29200095 1.1930001
-0.24655335 -0.29200095 1.1930001
-0.24428098 -0.29200095 1.1930001
-0.2420086 -0.29200095 1.1930001
-0.23973621 -0.29200095 1.1930001
-0.23746383 -0.29200095 1.1930001
-0.23519145 -0.29200095 1.1930001
-0.23291907 -0.29200095 1.1930001
-0.23142001 -0.29297999 1.197
-0.22914 -0.29297999 1.197
-0.22686 -0.29297999 1.197
-0.22458 -0.29297999 1.197
-0.22322857 -0.29420382 1.202
-0.22093906 -0.29420382 1.202
-0.21937716 -0.29518288 1.2060001
-0.21852002 -0.29714096 1.2140001
-0.21852288 -0.30032286 1.2270001
-0.21618573 -0.30032286 1.2270001
-0.21472003 -0.30154669 1.2320001
-0.21237335 -0.30154669 1.2320001
-0.21070859 -0.30252573 1.2360001
-0.20919715 -0.30374953 1.2410001
-0.20833333 -0.30595237 1.25
-0.28452381 -0.30357143 1.25
-0.28101429 -0.30235714 1.245
-0.27662858 -0.30017143 1.2360001
-0.27138954 -0.2970143 1.223
-0.26708001 -0.29482859 1.2140001
-0.26389524 -0.29385716 1.21
-0.26072574 -0.29288575 1.2060001
-0.25757143 -0.29191428 1.202
-0.2552819 -0.29191428 1.202
-0.25299236 -0.29191428 1.202
-0.24966 -0.29070002 1.197
-0.24737999 -0.29070002 1.197
-0.24510001 -0.29070002 1.197
-0.24281999 -0.29070002 1.197
-0.24054 -0.29070002 1.197
-0.23826 -0.29070002 1.197
-0.23598 -0.29070002 1.197
-0.23370001 -0.29070002 1.197
-0.23142001 -0.29070002 1.197
-0.22914 -0.29070002 1.197
-0.22686 -0.29070002 1.197
-0.22551809 -0.29191428 1.202
-0.22322857 -0.29191428 1.202
-0.22167429 -0.29288575 1.2060001
-0.22083241 -0.29482859 1.2140001
-0.22014 -0.2970143 1.223
-0.21852288 -0.29798576 1.2270001
-0.21706668 -0.29920003 1.2320001
-0.21472003 -0.29920003 1.2320001
-0.21306285 -0.30017143 1.2360001
-0.21070859 -0.30017143 1.2360001
-0.20835428 -0.30017143 1.2360001
-0.28452381 -0.30119047 1.25
-0.28214285 -0.30119047 1.25
-0.27864286 -0.29998574 1.245
-0.27338669 -0.29685333 1.2320001
-0.26905999 -0.29468477 1.223
-0.26389524 -0.29155239 1.21
-0.26159048 -0.29155239 1.21
-0.25842857 -0.29058859 1.2060001
-0.25613144 -0.29058859 1.2060001
-0.25383431 -0.29058859 1.2060001
-0.25153714 -0.29058859 1.2060001
-0.24924003 -0.29058859 1.2060001
-0.24694286 -0.29058859 1.2060001
-0.24464573 -0.29058859 1.2060001
-0.24234858 -0.29058859 1.2060001
-0.24005145 -0.29058859 1.2060001
-0.2377543 -0.29058859 1.2060001
-0.23545715 -0.29058859 1.2060001
-0.23238668 -0.28962478 1.202
-0.23009714 -0.28962478 1.202
-0.22780761 -0.28962478 1.202
-0.22626859 -0.29058859 1.2060001
-0.22397144 -0.29058859 1.2060001
-0.22314477 -0.2925162 1.2140001
-0.22319716 -0.2956486 1.2270001
-0.22086002 -0.2956486 1.2270001
-0.21941335 -0.29685333 1.2320001
-0.21706668 -0.29685333 1.2320001
-0.21472003 -0.29685333 1.2320001
-0.21306285 -0.29781714 1.2360001
-0.21070859 -0.29781714 1.2360001
-0.20835428 -0.29781714 1.2360001
-0.28452381 -0.29880953 1.25
-0.28214285 -0.29880953 1.25
-0.27864286 -0.29761428 1.245
-0.27538383 -0.29665813 1.2410001
-0.27104002 -0.2945067 1.2320001
-0.26760289 -0.29331145 1.2270001
-0.26353619 -0.29139906 1.2190001
-0.26014286 -0.29020384 1.2140001
-0.2578305 -0.29020384 1.2140001
-0.25551814 -0.29020384 1.2140001
-0.25320575 -0.29020384 1.2140001
-0.25089335 -0.29020384 1.2140001
-0.24858096 -0.29020384 1.2140001
-0.2462686 -0.29020384 1.2140001
-0.24395621 -0.29020384 1.2140001
-0.24164383 -0.29020384 1.2140001
-0.23854285 -0.28924763 1.21
-0.23623809 -0.28924763 1.21
-0.23316002 -0.28829145 1.2060001
-0.23086287 -0.28829145 1.2060001
-0.22856572 -0.28829145 1.2060001
-0.22776954 -0.29020384 1.2140001
-0.22638573 -0.29139906 1.2190001
-0.22406381 -0.29139906 1.2190001
-0.22319716 -0.29331145 1.2270001
-0.22176002 -0.2945067 1.2320001
-0.22012573 -0.29546288 1.2360001
-0.21777143 -0.29546288 1.2360001
-0.21541716 -0.29546288 1.2360001
-0.21306285 -0.29546288 1.2360001
-0.21156096 -0.29665813 1.2410001
-0.20987143 -0.29761428 1.245
-0.28452381 -0.29642856 1.25
-0.28214285 -0.29642856 1.25
-0.27976191 -0.29642856 1.25
-0.27738094 -0.29642856 1.25
-0.27302003 -0.2942943 1.2410001
-0.26869336 -0.29216003 1.2320001
-0.26526573 -0.29097432 1.2270001
-0.26207143 -0.29002571 1.223
-0.2597419 -0.29002571 1.223
-0.2574124 -0.29002571 1.223
-0.25508285 -0.29002571 1.223
-0.25275335 -0.29002571 1.223
-0.24960478 -0.28907716 1.2190001
-0.24728289 -0.28907716 1.2190001
-0.24496096 -0.28907716 1.2190001
-0.24164383 -0.28789148 1.2140001
-0.23933144 -0.28789148 1.2140001
-0.23701908 -0.28789148 1.2140001
-0.23393333 -0.28694287 1.21
-0.23162858 -0.28694287 1.21
-0.23008192 -0.28789148 1.2140001
-0.22870764 -0.28907716 1.2190001
-0.22787145 -0.29097432 1.2270001
-0.2255343 -0.29097432 1.2270001
-0.22410668 -0.29216003 1.2320001
-0.22176002 -0.29216003 1.2320001
-0.22012573 -0.29310858 1.2360001
-0.21777143 -0.29310858 1.2360001
-0.21628858 -0.2942943 1.2410001
-0.21392478 -0.2942943 1.2410001
-0.21224286 -0.29524285 1.245
-0.21071428 -0.29642856 1.25
-0.27976191 -0.29404762 1.25
-0.27738094 -0.29404762 1.25
-0.27500001 -0.29404762 1.25
-0.27152857 -0.29287145 1.245
-0.26829237 -0.29193047 1.2410001
-0.26485714 -0.29075432 1.2360001
-0.26059145 -0.28863716 1.2270001
-0.25825432 -0.28863716 1.2270001
-0.25591716 -0.28863716 1.2270001
-0.25358003 -0.28863716 1.2270001
-0.25042382 -0.28769621 1.223
-0.24809431 -0.28769621 1.223
-0.24576476 -0.28769621 1.223
-0.24263906 -0.28675526 1.2190001
-0.24031717 -0.28675526 1.2190001
-0.23877619 -0.28769621 1.223
-0.23644668 -0.28769621 1.223
-0.23488288 -0.28863716 1.2270001
-0.23254573 -0.28863716 1.2270001
-0.23020859 -0.28863716 1.2270001
-0.22880001 -0.28981334 1.2320001
-0.22645335 -0.28981334 1.2320001
-0.22483431 -0.29075432 1.2360001
-0.22248 -0.29075432 1.2360001
-0.2210162 -0.29193047 1.2410001
-0.21865238 -0.29193047 1.2410001
-0.21628858 -0.29193047 1.2410001
-0.21461429 -0.29287145 1.245
-0.21309523 -0.29404762 1.25
-0.27261904 -0.29166666 1.25
-0.2702381 -0.29166666 1.25
-0.26592857 -0.28956667 1.2410001
-0.26250288 -0.28839999 1.2360001
-0.26014858 -0.28839999 1.2360001
-0.25779429 -0.28839999 1.2360001
-0.25461334 -0.28746668 1.2320001
-0.25226671 -0.28746668 1.2320001
-0.24992001 -0.28746668 1.2320001
-0.24757336 -0.28746668 1.2320001
-0.2452267 -0.28746668 1.2320001
-0.2418943 -0.2863 1.2270001
-0.23955716 -0.2863 1.2270001
-0.23818669 -0.28746668 1.2320001
-0.23584002 -0.28746668 1.2320001
-0.23349336 -0.28746668 1.2320001
-0.23114669 -0.28746668 1.2320001
-0.22880001 -0.28746668 1.2320001
-0.22645335 -0.28746668 1.2320001
-0.22483431 -0.28839999 1.2360001
-0.22248 -0.28839999 1.2360001
-0.2210162 -0.28956667 1.2410001
-0.21865238 -0.28956667 1.2410001
-0.21698572 -0.29049999 1.245
-0.21547619 -0.29166666 1.25
-0.21394764 -0.29283336 1.2550001
-0.27261904 -0.28928572 1.25
-0.2702381 -0.28928572 1.25
-0.26592857 -0.28720286 1.2410001
-0.26356477 -0.28720286 1.2410001
-0.26014858 -0.28604573 1.2360001
-0.25779429 -0.28604573 1.2360001
-0.25544 -0.28604573 1.2360001
-0.25308573 -0.28604573 1.2360001
-0.25073144 -0.28604573 1.2360001
-0.24837716 -0.28604573 1.2360001
-0.24602287 -0.28604573 1.2360001
-0.24366859 -0.28604573 1.2360001
-0.24131429 -0.28604573 1.2360001
-0.23992667 -0.28720286 1.2410001
-0.23756287 -0.28720286 1.2410001
-0.23519906 -0.28720286 1.2410001
-0.23283523 -0.28720286 1.2410001
-0.23047143 -0.28720286 1.2410001
-0.22810763 -0.28720286 1.2410001
-0.22574382 -0.28720286 1.2410001
-0.22338001 -0.28720286 1.2410001
-0.22172858 -0.28812858 1.245
-0.21935713 -0.28812858 1.245
-0.21698572 -0.28812858 1.245
-0.26785713 -0.28690475 1.25
-0.2654762 -0.28690475 1.25
-0.26120096 -0.28483906 1.2410001
-0.25883716 -0.28483906 1.2410001
-0.25647333 -0.28483906 1.2410001
-0.25308573 -0.28369144 1.2360001
-0.25073144 -0.28369144 1.2360001
-0.24837716 -0.28369144 1.2360001
-0.24701811 -0.28483906 1.2410001
-0.24465431 -0.28483906 1.2410001
-0.24229048 -0.28483906 1.2410001
-0.24069999 -0.28575715 1.245
-0.23832856 -0.28575715 1.245
-0.23690476 -0.28690475 1.25
-0.2345238 -0.28690475 1.25
-0.23214285 -0.28690475 1.25
-0.2297619 -0.28690475 1.25
-0.22738095 -0.28690475 1.25
-0.2654762 -0.28452381 1.25
-0.26309523 -0.28452381 1.25
-0.25967142 -0.28338569 1.245
-0.25730002 -0.28338569 1.245
-0.25492856 -0.28338569 1.245
-0.25255713 -0.28338569 1.245
-0.25018573 -0.28338569 1.245
-0.24781427 -0.28338569 1.245
-0.24544285 -0.28338569 1.245
-0.24404761 -0.28452381 1.25
-0.24166666 -0.28452381 1.25
-0.23928571 -0.28452381 1.25
-0.23690476 -0.28452381 1.25
-0.2345238 -0.28452381 1.25
-0.23214285 -0.28452381 1.25
-0.2297619 -0.28452381 1.25
-0.25833333 -0.28214285 1.25
-0.25595239 -0.28214285 1.25
-0.25357142 -0.28214285 1.25
-0.25119048 -0.28214285 1.25
-0.24880952 -0.28214285 1.25
-0.24642856 -0.28214285 1.25
-0.24404761 -0.28214285 1.25
-0.24166666 -0.28214285 1.25
-0.23928571 -0.28214285 1.25
-0.25119048 -0.27976191 1.25
-0.24880952 -0.27976191 1.25
-0.24642856 -0.27976191 1.25
-0.24404761 -0.27976191 1.25
-0.28647229 -0.35407287 1.197239
-0.22697832 -0.37979218 1.2015548
0 0 0 1 0 0 0 1 0 0 0 1 0 0 0 0 0 1349 1 0 0
