ply
format ascii 1.0
comment PCL generated
element vertex 513
property float x
property float y
property float z
element camera 1
property float view_px
property float view_py
property float view_pz
property float x_axisx
property float x_axisy
property float x_axisz
property float y_axisx
property float y_axisy
property float y_axisz
property float z_axisx
property float z_axisy
property float z_axisz
property float focal
property float scalex
property float scaley
property float centerx
property float centery
property int viewportx
property int viewporty
property float k1
property float k2
end_header
0.24514666 -0.26205334 1.268
0.2475619 -0.26205334 1.268
0.23307048 -0.2596381 1.268
0.2354857 -0.2596381 1.268
0.23715049 -0.25881904 1.2640001
0.2395581 -0.25881904 1.2640001
0.24100858 -0.25779527 1.2590001
0.24340667 -0.25779527 1.2590001
0.24580476 -0.25779527 1.2590001
0.24741432 -0.25697619 1.2550001
0.24980476 -0.25697619 1.2550001
0.23307048 -0.25722286 1.268
0.23474286 -0.25641146 1.2640001
0.23546192 -0.25458574 1.2550001
0.23785241 -0.25458574 1.2550001
0.24024287 -0.25458574 1.2550001
0.24263336 -0.25458574 1.2550001
0.24502383 -0.25458574 1.2550001
0.24741432 -0.25458574 1.2550001
0.24980476 -0.25458574 1.2550001
0.25219527 -0.25458574 1.2550001
0.23307048 -0.25480762 1.268
0.23474286 -0.25400382 1.2640001
0.23546192 -0.25219527 1.2550001
0.23785241 -0.25219527 1.2550001
0.24024287 -0.25219527 1.2550001
0.24263336 -0.25219527 1.2550001
0.24404761 -0.25119048 1.25
0.24642856 -0.25119048 1.25
0.24880952 -0.25119048 1.25
0.25119048 -0.25119048 1.25
0.25357142 -0.25119048 1.25
0.25881904 -0.25400382 1.2640001
0.26122668 -0.25400382 1.2640001
0.26363429 -0.25400382 1.2640001
0.22992763 -0.25159621 1.2640001
0.2314162 -0.25060096 1.2590001
0.23381428 -0.25060096 1.2590001
0.23546192 -0.24980476 1.2550001
0.23785241 -0.24980476 1.2550001
0.24024287 -0.24980476 1.2550001
0.24263336 -0.24980476 1.2550001
0.24404761 -0.24880952 1.25
0.24642856 -0.24880952 1.25
0.24880952 -0.24880952 1.25
0.25119048 -0.24880952 1.25
0.25357142 -0.24880952 1.25
0.25697619 -0.24980476 1.2550001
0.25936669 -0.24980476 1.2550001
0.26175717 -0.24980476 1.2550001
0.26414764 -0.24980476 1.2550001
0.26653811 -0.24980476 1.2550001
0.26978573 -0.25060096 1.2590001
0.27326477 -0.25159621 1.2640001
0.22582476 -0.24997716 1.268
0.22824 -0.24997716 1.268
0.22992763 -0.24918857 1.2640001
0.2314162 -0.24820286 1.2590001
0.23381428 -0.24820286 1.2590001
0.23621239 -0.24820286 1.2590001
0.23785241 -0.24741432 1.2550001
0.24024287 -0.24741432 1.2550001
0.24263336 -0.24741432 1.2550001
0.24502383 -0.24741432 1.2550001
0.24741432 -0.24741432 1.2550001
0.24980476 -0.24741432 1.2550001
0.25219527 -0.24741432 1.2550001
0.25458574 -0.24741432 1.2550001
0.25697619 -0.24741432 1.2550001
0.25936669 -0.24741432 1.2550001
0.26175717 -0.24741432 1.2550001
0.26414764 -0.24741432 1.2550001
0.26653811 -0.24741432 1.2550001
0.26892859 -0.24741432 1.2550001
0.27218381 -0.24820286 1.2590001
0.22582476 -0.2475619 1.268
0.22752 -0.24678098 1.2640001
0.22901811 -0.24580476 1.2590001
0.2314162 -0.24580476 1.2590001
0.23381428 -0.24580476 1.2590001
0.23621239 -0.24580476 1.2590001
0.23785241 -0.24502383 1.2550001
0.24024287 -0.24502383 1.2550001
0.24263336 -0.24502383 1.2550001
0.24502383 -0.24502383 1.2550001
0.24741432 -0.24502383 1.2550001
0.24980476 -0.24502383 1.2550001
0.25219527 -0.24502383 1.2550001
0.25539717 -0.24580476 1.2590001
0.25779527 -0.24580476 1.2590001
0.25936669 -0.24502383 1.2550001
0.26175717 -0.24502383 1.2550001
0.26309523 -0.24404761 1.25
0.2654762 -0.24404761 1.25
0.26892859 -0.24502383 1.2550001
0.27131909 -0.24502383 1.2550001
0.22511239 -0.24437334 1.2640001
0.22752 -0.24437334 1.2640001
0.22901811 -0.24340667 1.2590001
0.2314162 -0.24340667 1.2590001
0.23381428 -0.24340667 1.2590001
0.23621239 -0.24340667 1.2590001
0.23861049 -0.24340667 1.2590001
0.24024287 -0.24263336 1.2550001
0.24263336 -0.24263336 1.2550001
0.24580476 -0.24340667 1.2590001
0.24820286 -0.24340667 1.2590001
0.25060096 -0.24340667 1.2590001
0.25299907 -0.24340667 1.2590001
0.25539717 -0.24340667 1.2590001
0.25779527 -0.24340667 1.2590001
0.25936669 -0.24263336 1.2550001
0.26175717 -0.24263336 1.2550001
0.26309523 -0.24166666 1.25
0.2654762 -0.24166666 1.25
0.26785713 -0.24166666 1.25
0.27131909 -0.24263336 1.2550001
0.21548191 -0.24196573 1.2640001
0.21702763 -0.24100858 1.2590001
0.21942572 -0.24100858 1.2590001
0.22182381 -0.24100858 1.2590001
0.22511239 -0.24196573 1.2640001
0.22752 -0.24196573 1.2640001
0.22901811 -0.24100858 1.2590001
0.2314162 -0.24100858 1.2590001
0.23381428 -0.24100858 1.2590001
0.23621239 -0.24100858 1.2590001
0.23861049 -0.24100858 1.2590001
0.24100858 -0.24100858 1.2590001
0.24340667 -0.24100858 1.2590001
0.24580476 -0.24100858 1.2590001
0.24820286 -0.24100858 1.2590001
0.25159621 -0.24196573 1.2640001
0.25400382 -0.24196573 1.2640001
0.25641146 -0.24196573 1.2640001
0.25881904 -0.24196573 1.2640001
0.25936669 -0.24024287 1.2550001
0.26175717 -0.24024287 1.2550001
0.26414764 -0.24024287 1.2550001
0.2654762 -0.23928571 1.25
0.26785713 -0.23928571 1.25
0.27131909 -0.24024287 1.2550001
0.27370954 -0.24024287 1.2550001
0.21394764 -0.23785241 1.2550001
0.21547619 -0.23690476 1.25
0.21785714 -0.23690476 1.25
0.22023809 -0.23690476 1.25
0.22350955 -0.23785241 1.2550001
0.22662002 -0.23861049 1.2590001
0.22901811 -0.23861049 1.2590001
0.2314162 -0.23861049 1.2590001
0.23381428 -0.23861049 1.2590001
0.23715049 -0.2395581 1.2640001
0.2395581 -0.2395581 1.2640001
0.24100858 -0.23861049 1.2590001
0.24340667 -0.23861049 1.2590001
0.24678098 -0.2395581 1.2640001
0.24918857 -0.2395581 1.2640001
0.25159621 -0.2395581 1.2640001
0.25400382 -0.2395581 1.2640001
0.25641146 -0.2395581 1.2640001
0.25881904 -0.2395581 1.2640001
0.26019335 -0.23861049 1.2590001
0.26259142 -0.23861049 1.2590001
0.26414764 -0.23785241 1.2550001
0.26653811 -0.23785241 1.2550001
0.26892859 -0.23785241 1.2550001
0.2702381 -0.23690476 1.25
0.27261904 -0.23690476 1.25
0.27500001 -0.23690476 1.25
0.21394764 -0.23546192 1.2550001
0.21547619 -0.2345238 1.25
0.21785714 -0.2345238 1.25
0.22023809 -0.2345238 1.25
0.22350955 -0.23546192 1.2550001
0.22662002 -0.23621239 1.2590001
0.22901811 -0.23621239 1.2590001
0.2314162 -0.23621239 1.2590001
0.23474286 -0.23715049 1.2640001
0.23715049 -0.23715049 1.2640001
0.2395581 -0.23715049 1.2640001
0.24196573 -0.23715049 1.2640001
0.24437334 -0.23715049 1.2640001
0.24678098 -0.23715049 1.2640001
0.25881904 -0.23715049 1.2640001
0.26122668 -0.23715049 1.2640001
0.26259142 -0.23621239 1.2590001
0.26414764 -0.23546192 1.2550001
0.26653811 -0.23546192 1.2550001
0.26892859 -0.23546192 1.2550001
0.2702381 -0.2345238 1.25
0.27261904 -0.2345238 1.25
0.27500001 -0.2345238 1.25
0.21462953 -0.23381428 1.2590001
0.21547619 -0.23214285 1.25
0.21785714 -0.23214285 1.25
0.22023809 -0.23214285 1.25
0.22350955 -0.23307145 1.2550001
0.22590002 -0.23307145 1.2550001
0.22901811 -0.23381428 1.2590001
0.2314162 -0.23381428 1.2590001
0.23474286 -0.23474286 1.2640001
0.23715049 -0.23474286 1.2640001
0.2395581 -0.23474286 1.2640001
0.24196573 -0.23474286 1.2640001
0.24437334 -0.23474286 1.2640001
0.25641146 -0.23474286 1.2640001
0.25881904 -0.23474286 1.2640001
0.26122668 -0.23474286 1.2640001
0.26259142 -0.23381428 1.2590001
0.26414764 -0.23307145 1.2550001
0.26653811 -0.23307145 1.2550001
0.26892859 -0.23307145 1.2550001
0.2702381 -0.23214285 1.25
0.27261904 -0.23214285 1.25
0.27610004 -0.23307145 1.2550001
0.21392478 -0.22810763 1.2410001
0.21628858 -0.22810763 1.2410001
0.21865238 -0.22810763 1.2410001
0.22261904 -0.2297619 1.25
0.22499999 -0.2297619 1.25
0.22901811 -0.2314162 1.2590001
0.2314162 -0.2314162 1.2590001
0.23474286 -0.23233524 1.2640001
0.23715049 -0.23233524 1.2640001
0.2395581 -0.23233524 1.2640001
0.25641146 -0.23233524 1.2640001
0.25881904 -0.23233524 1.2640001
0.26122668 -0.23233524 1.2640001
0.26259142 -0.2314162 1.2590001
0.26414764 -0.23068097 1.2550001
0.26653811 -0.23068097 1.2550001
0.26892859 -0.23068097 1.2550001
0.2702381 -0.2297619 1.25
0.27261904 -0.2297619 1.25
0.27610004 -0.23068097 1.2550001
0.2130743 -0.22992763 1.2640001
0.21394764 -0.22829048 1.2550001
0.21392478 -0.22574382 1.2410001
0.21628858 -0.22574382 1.2410001
0.21865238 -0.22574382 1.2410001
0.22172858 -0.22647142 1.245
0.22499999 -0.22738095 1.25
0.22829048 -0.22829048 1.2550001
0.2314162 -0.22901811 1.2590001
0.23474286 -0.22992763 1.2640001
0.23715049 -0.22992763 1.2640001
0.2395581 -0.22992763 1.2640001
0.25641146 -0.22992763 1.2640001
0.25881904 -0.22992763 1.2640001
0.26122668 -0.22992763 1.2640001
0.26259142 -0.22901811 1.2590001
0.26498953 -0.22901811 1.2590001
0.26653811 -0.22829048 1.2550001
0.26892859 -0.22829048 1.2550001
0.2702381 -0.22738095 1.25
0.27261904 -0.22738095 1.25
0.27500001 -0.22738095 1.25
0.27849051 -0.22829048 1.2550001
0.21223144 -0.22662002 1.2590001
0.21309523 -0.22499999 1.25
0.21461429 -0.22410001 1.245
0.21698572 -0.22410001 1.245
0.21865238 -0.22338001 1.2410001
0.2210162 -0.22338001 1.2410001
0.22410001 -0.22410001 1.245
0.22738095 -0.22499999 1.25
0.2314162 -0.22662002 1.2590001
0.23474286 -0.22752 1.2640001
0.25159621 -0.22752 1.2640001
0.25400382 -0.22752 1.2640001
0.25641146 -0.22752 1.2640001
0.25881904 -0.22752 1.2640001
0.26122668 -0.22752 1.2640001
0.26259142 -0.22662002 1.2590001
0.26414764 -0.22590002 1.2550001
0.26653811 -0.22590002 1.2550001
0.26892859 -0.22590002 1.2550001
0.2702381 -0.22499999 1.25
0.27261904 -0.22499999 1.25
0.27500001 -0.22499999 1.25
0.27849051 -0.22590002 1.2550001
0.21223144 -0.22422192 1.2590001
0.21309523 -0.22261904 1.25
0.21461429 -0.22172858 1.245
0.21698572 -0.22172858 1.245
0.21865238 -0.2210162 1.2410001
0.2210162 -0.2210162 1.2410001
0.22410001 -0.22172858 1.245
0.22738095 -0.22261904 1.25
0.2314162 -0.22422192 1.2590001
0.23474286 -0.22511239 1.2640001
0.25159621 -0.22511239 1.2640001
0.25400382 -0.22511239 1.2640001
0.25539717 -0.22422192 1.2590001
0.25779527 -0.22422192 1.2590001
0.26019335 -0.22422192 1.2590001
0.26259142 -0.22422192 1.2590001
0.26414764 -0.22350955 1.2550001
0.2654762 -0.22261904 1.25
0.26785713 -0.22261904 1.25
0.26915714 -0.22172858 1.245
0.27152857 -0.22172858 1.245
0.27500001 -0.22261904 1.25
0.27738094 -0.22261904 1.25
0.28177622 -0.22422192 1.2590001
0.28417429 -0.22422192 1.2590001
0.21394764 -0.22111906 1.2550001
0.21547619 -0.22023809 1.25
0.21785714 -0.22023809 1.25
0.21935713 -0.21935713 1.245
0.22172858 -0.21935713 1.245
0.22499999 -0.22023809 1.25
0.22829048 -0.22111906 1.2550001
0.23068097 -0.22111906 1.2550001
0.2395581 -0.22270477 1.2640001
0.24918857 -0.22270477 1.2640001
0.25159621 -0.22270477 1.2640001
0.25400382 -0.22270477 1.2640001
0.25539717 -0.22182381 1.2590001
0.25779527 -0.22182381 1.2590001
0.26019335 -0.22182381 1.2590001
0.26175717 -0.22111906 1.2550001
0.26414764 -0.22111906 1.2550001
0.2654762 -0.22023809 1.25
0.26785713 -0.22023809 1.25
0.26915714 -0.21935713 1.245
0.27152857 -0.21935713 1.245
0.2739 -0.21935713 1.245
0.2762714 -0.21935713 1.245
0.28177622 -0.22182381 1.2590001
0.28417429 -0.22182381 1.2590001
0.21462953 -0.21942572 1.2590001
0.21633811 -0.21872859 1.2550001
0.21785714 -0.21785714 1.25
0.22023809 -0.21785714 1.25
0.22261904 -0.21785714 1.25
0.22499999 -0.21785714 1.25
0.22829048 -0.21872859 1.2550001
0.23068097 -0.21872859 1.2550001
0.23381428 -0.21942572 1.2590001
0.25159621 -0.22029716 1.2640001
0.25400382 -0.22029716 1.2640001
0.25539717 -0.21942572 1.2590001
0.25779527 -0.21942572 1.2590001
0.26019335 -0.21942572 1.2590001
0.26175717 -0.21872859 1.2550001
0.26414764 -0.21872859 1.2550001
0.2654762 -0.21785714 1.25
0.26785713 -0.21785714 1.25
0.26915714 -0.21698572 1.245
0.27152857 -0.21698572 1.245
0.2739 -0.21698572 1.245
0.2762714 -0.21698572 1.245
0.21702763 -0.21702763 1.2590001
0.21872859 -0.21633811 1.2550001
0.22023809 -0.21547619 1.25
0.22261904 -0.21547619 1.25
0.22499999 -0.21547619 1.25
0.22829048 -0.21633811 1.2550001
0.23068097 -0.21633811 1.2550001
0.23307145 -0.21633811 1.2550001
0.23621239 -0.21702763 1.2590001
0.25060096 -0.21702763 1.2590001
0.25299907 -0.21702763 1.2590001
0.25539717 -0.21702763 1.2590001
0.25779527 -0.21702763 1.2590001
0.26019335 -0.21702763 1.2590001
0.26175717 -0.21633811 1.2550001
0.26309523 -0.21547619 1.25
0.2654762 -0.21547619 1.25
0.26678571 -0.21461429 1.245
0.26829237 -0.21392478 1.2410001
0.2706562 -0.21392478 1.2410001
0.27302003 -0.21392478 1.2410001
0.27538383 -0.21392478 1.2410001
0.21702763 -0.21462953 1.2590001
0.21942572 -0.21462953 1.2590001
0.22111906 -0.21394764 1.2550001
0.22350955 -0.21394764 1.2550001
0.22590002 -0.21394764 1.2550001
0.22829048 -0.21394764 1.2550001
0.23068097 -0.21394764 1.2550001
0.23307145 -0.21394764 1.2550001
0.23621239 -0.21462953 1.2590001
0.24340667 -0.21462953 1.2590001
0.24580476 -0.21462953 1.2590001
0.24820286 -0.21462953 1.2590001
0.25060096 -0.21462953 1.2590001
0.25299907 -0.21462953 1.2590001
0.25539717 -0.21462953 1.2590001
0.25779527 -0.21462953 1.2590001
0.25936669 -0.21394764 1.2550001
0.26175717 -0.21394764 1.2550001
0.26309523 -0.21309523 1.25
0.26441428 -0.21224286 1.245
0.26678571 -0.21224286 1.245
0.26829237 -0.21156096 1.2410001
0.2706562 -0.21156096 1.2410001
0.27302003 -0.21156096 1.2410001
0.27538383 -0.21156096 1.2410001
0.22111906 -0.21155716 1.2550001
0.22350955 -0.21155716 1.2550001
0.22590002 -0.21155716 1.2550001
0.22829048 -0.21155716 1.2550001
0.23068097 -0.21155716 1.2550001
0.23307145 -0.21155716 1.2550001
0.23546192 -0.21155716 1.2550001
0.23690476 -0.21071428 1.25
0.23928571 -0.21071428 1.25
0.24166666 -0.21071428 1.25
0.24404761 -0.21071428 1.25
0.24642856 -0.21071428 1.25
0.24880952 -0.21071428 1.25
0.25219527 -0.21155716 1.2550001
0.25458574 -0.21155716 1.2550001
0.25697619 -0.21155716 1.2550001
0.25936669 -0.21155716 1.2550001
0.26071429 -0.21071428 1.25
0.26309523 -0.21071428 1.25
0.26441428 -0.20987143 1.245
0.26678571 -0.20987143 1.245
0.26915714 -0.20987143 1.245
0.27152857 -0.20987143 1.245
0.2739 -0.20987143 1.245
0.27738094 -0.21071428 1.25
0.22662002 -0.20983334 1.2590001
0.22829048 -0.20916668 1.2550001
0.23068097 -0.20916668 1.2550001
0.23307145 -0.20916668 1.2550001
0.2345238 -0.20833333 1.25
0.23595715 -0.2075 1.245
0.23832856 -0.2075 1.245
0.24069999 -0.2075 1.245
0.24307144 -0.2075 1.245
0.24544285 -0.2075 1.245
0.24781427 -0.2075 1.245
0.25119048 -0.20833333 1.25
0.25458574 -0.20916668 1.2550001
0.25697619 -0.20916668 1.2550001
0.25936669 -0.20916668 1.2550001
0.25967142 -0.2075 1.245
0.26204285 -0.2075 1.245
0.26441428 -0.2075 1.245
0.26678571 -0.2075 1.245
0.26915714 -0.2075 1.245
0.27152857 -0.2075 1.245
0.27500001 -0.20833333 1.25
0.22662002 -0.20743524 1.2590001
0.22829048 -0.2067762 1.2550001
0.23068097 -0.2067762 1.2550001
0.23307145 -0.2067762 1.2550001
0.2345238 -0.20595238 1.25
0.23595715 -0.20512857 1.245
0.23832856 -0.20512857 1.245
0.24069999 -0.20512857 1.245
0.24307144 -0.20512857 1.245
0.24544285 -0.20512857 1.245
0.24781427 -0.20512857 1.245
0.25018573 -0.20512857 1.245
0.25458574 -0.2067762 1.2550001
0.25697619 -0.2067762 1.2550001
0.25936669 -0.2067762 1.2550001
0.25967142 -0.20512857 1.245
0.26204285 -0.20512857 1.245
0.26441428 -0.20512857 1.245
0.26678571 -0.20512857 1.245
0.2702381 -0.20595238 1.25
0.27261904 -0.20595238 1.25
0.27698001 -0.20743524 1.2590001
0.22662002 -0.20503716 1.2590001
0.22901811 -0.20503716 1.2590001
0.23068097 -0.20438574 1.2550001
0.23307145 -0.20438574 1.2550001
0.2345238 -0.20357142 1.25
0.23595715 -0.20275715 1.245
0.23832856 -0.20275715 1.245
0.24069999 -0.20275715 1.245
0.24307144 -0.20275715 1.245
0.24544285 -0.20275715 1.245
0.24781427 -0.20275715 1.245
0.25018573 -0.20275715 1.245
0.25458574 -0.20438574 1.2550001
0.25697619 -0.20438574 1.2550001
0.25936669 -0.20438574 1.2550001
0.26175717 -0.20438574 1.2550001
0.26414764 -0.20438574 1.2550001
0.26738763 -0.20503716 1.2590001
0.2314162 -0.20263906 1.2590001
0.23381428 -0.20263906 1.2590001
0.2345238 -0.20119047 1.25
0.23690476 -0.20119047 1.25
0.23928571 -0.20119047 1.25
0.24069999 -0.2003857 1.245
0.24307144 -0.2003857 1.245
0.24544285 -0.2003857 1.245
0.24781427 -0.2003857 1.245
0.25119048 -0.20119047 1.25
0.25458574 -0.20199525 1.2550001
0.23546192 -0.19960478 1.2550001
0.23785241 -0.19960478 1.2550001
0.23928571 -0.19880952 1.25
0.24069999 -0.19801427 1.245
0.24307144 -0.19801427 1.245
0.24642856 -0.19880952 1.25
0.24880952 -0.19880952 1.25
0.25119048 -0.19880952 1.25
0.23861049 -0.19784287 1.2590001
0.24100858 -0.19784287 1.2590001
0.24340667 -0.19784287 1.2590001
0.24820286 -0.19784287 1.2590001
0.25060096 -0.19784287 1.2590001
0.25627199 -0.19961374 1.2436997
0 0 0 1 0 0 0 1 0 0 0 1 0 0 0 0 0 513 1 0 0
