ply
format ascii 1.0
comment PCL generated
element vertex 928
property float x
property float y
property float z
property uchar red
property uchar green
property uchar blue
property uchar alpha
element camera 1
property float view_px
property float view_py
property float view_pz
property float x_axisx
property float x_axisy
property float x_axisz
property float y_axisx
property float y_axisy
property float y_axisz
property float z_axisx
property float z_axisy
property float z_axisz
property float focal
property float scalex
property float scaley
property float centerx
property float centery
property int viewportx
property int viewporty
property float k1
property float k2
end_header
-0.065476187 -0.21547619 1.25 0 255 248 255
-0.063095234 -0.21547619 1.25 0 255 248 255
-0.055952381 -0.21547619 1.25 0 255 248 255
-0.053357143 -0.21461429 1.245 0 255 248 255
-0.050985713 -0.21461429 1.245 0 255 248 255
-0.048614286 -0.21461429 1.245 0 255 248 255
-0.046242855 -0.21461429 1.245 0 255 248 255
-0.077380955 -0.21309523 1.25 0 255 248 255
-0.074999996 -0.21309523 1.25 0 255 248 255
-0.072619043 -0.21309523 1.25 0 255 248 255
-0.070238091 -0.21309523 1.25 0 255 248 255
-0.067857139 -0.21309523 1.25 0 255 248 255
-0.065004766 -0.21156096 1.2410001 0 255 248 255
-0.062640958 -0.21156096 1.2410001 0 255 248 255
-0.060471427 -0.21224286 1.245 0 255 248 255
-0.058333334 -0.21309523 1.25 0 255 248 255
-0.05572857 -0.21224286 1.245 0 255 248 255
-0.053185716 -0.21156096 1.2410001 0 255 248 255
-0.050821908 -0.21156096 1.2410001 0 255 248 255
-0.048458096 -0.21156096 1.2410001 0 255 248 255
-0.046094287 -0.21156096 1.2410001 0 255 248 255
-0.076823808 -0.20919715 1.2410001 0 255 248 255
-0.074460007 -0.20919715 1.2410001 0 255 248 255
-0.072096191 -0.20919715 1.2410001 0 255 248 255
-0.069957145 -0.20987143 1.245 0 255 248 255
-0.067368567 -0.20919715 1.2410001 0 255 248 255
-0.065004766 -0.20919715 1.2410001 0 255 248 255
-0.062640958 -0.20919715 1.2410001 0 255 248 255
-0.060277145 -0.20919715 1.2410001 0 255 248 255
-0.057913333 -0.20919715 1.2410001 0 255 248 255
-0.055549525 -0.20919715 1.2410001 0 255 248 255
-0.05297143 -0.20835428 1.2360001 0 255 248 255
-0.050617144 -0.20835428 1.2360001 0 255 248 255
-0.048262861 -0.20835428 1.2360001 0 255 248 255
-0.045908574 -0.20835428 1.2360001 0 255 248 255
-0.043730479 -0.20919715 1.2410001 0 255 248 255
-0.041499998 -0.20987143 1.245 0 255 248 255
-0.039285716 -0.21071428 1.25 0 255 248 255
-0.08214286 -0.20833333 1.25 0 255 248 255
-0.079187624 -0.20683333 1.2410001 0 255 248 255
-0.076514289 -0.20600002 1.2360001 0 255 248 255
-0.074160002 -0.20600002 1.2360001 0 255 248 255
-0.071805716 -0.20600002 1.2360001 0 255 248 255
-0.069451429 -0.20600002 1.2360001 0 255 248 255
-0.067097142 -0.20600002 1.2360001 0 255 248 255
-0.064742863 -0.20600002 1.2360001 0 255 248 255
-0.062388573 -0.20600002 1.2360001 0 255 248 255
-0.060034286 -0.20600002 1.2360001 0 255 248 255
-0.057680003 -0.20600002 1.2360001 0 255 248 255
-0.055325717 -0.20600002 1.2360001 0 255 248 255
-0.05297143 -0.20600002 1.2360001 0 255 248 255
-0.050617144 -0.20600002 1.2360001 0 255 248 255
-0.048262861 -0.20600002 1.2360001 0 255 248 255
-0.045908574 -0.20600002 1.2360001 0 255 248 255
-0.043554287 -0.20600002 1.2360001 0 255 248 255
-0.041200001 -0.20600002 1.2360001 0 255 248 255
-0.038845714 -0.20600002 1.2360001 0 255 248 255
-0.03663905 -0.20683333 1.2410001 0 255 248 255
-0.034385715 -0.2075 1.245 0 255 248 255
-0.08214286 -0.20595238 1.25 0 255 248 255
-0.079187624 -0.20446953 1.2410001 0 255 248 255
-0.076514289 -0.20364572 1.2360001 0 255 248 255
-0.074160002 -0.20364572 1.2360001 0 255 248 255
-0.071805716 -0.20364572 1.2360001 0 255 248 255
-0.069451429 -0.20364572 1.2360001 0 255 248 255
-0.067097142 -0.20364572 1.2360001 0 255 248 255
-0.064742863 -0.20364572 1.2360001 0 255 248 255
-0.062388573 -0.20364572 1.2360001 0 255 248 255
-0.060034286 -0.20364572 1.2360001 0 255 248 255
-0.057680003 -0.20364572 1.2360001 0 255 248 255
-0.055325717 -0.20364572 1.2360001 0 255 248 255
-0.05297143 -0.20364572 1.2360001 0 255 248 255
-0.050617144 -0.20364572 1.2360001 0 255 248 255
-0.048262861 -0.20364572 1.2360001 0 255 248 255
-0.045908574 -0.20364572 1.2360001 0 255 248 255
-0.043554287 -0.20364572 1.2360001 0 255 248 255
-0.041200001 -0.20364572 1.2360001 0 255 248 255
-0.038845714 -0.20364572 1.2360001 0 255 248 255
-0.03663905 -0.20446953 1.2410001 0 255 248 255
-0.034275241 -0.20446953 1.2410001 0 255 248 255
-0.032014288 -0.20512857 1.245 0 255 248 255
-0.029642858 -0.20512857 1.245 0 255 248 255
-0.027380953 -0.20595238 1.25 0 255 248 255
-0.084185712 -0.20275715 1.245 0 255 248 255
-0.081551433 -0.20210573 1.2410001 0 255 248 255
-0.078868575 -0.20129144 1.2360001 0 255 248 255
-0.076514289 -0.20129144 1.2360001 0 255 248 255
-0.074160002 -0.20129144 1.2360001 0 255 248 255
-0.071805716 -0.20129144 1.2360001 0 255 248 255
-0.069451429 -0.20129144 1.2360001 0 255 248 255
-0.067097142 -0.20129144 1.2360001 0 255 248 255
-0.064742863 -0.20129144 1.2360001 0 255 248 255
-0.062388573 -0.20129144 1.2360001 0 255 248 255
-0.060034286 -0.20129144 1.2360001 0 255 248 255
-0.057680003 -0.20129144 1.2360001 0 255 248 255
-0.055325717 -0.20129144 1.2360001 0 255 248 255
-0.05297143 -0.20129144 1.2360001 0 255 248 255
-0.050617144 -0.20129144 1.2360001 0 255 248 255
-0.048262861 -0.20129144 1.2360001 0 255 248 255
-0.045908574 -0.20129144 1.2360001 0 255 248 255
-0.043554287 -0.20129144 1.2360001 0 255 248 255
-0.041200001 -0.20129144 1.2360001 0 255 248 255
-0.038845714 -0.20129144 1.2360001 0 255 248 255
-0.036491431 -0.20129144 1.2360001 0 255 248 255
-0.034137145 -0.20129144 1.2360001 0 255 248 255
-0.031782858 -0.20129144 1.2360001 0 255 248 255
-0.029547621 -0.20210573 1.2410001 0 255 248 255
-0.02718381 -0.20210573 1.2410001 0 255 248 255
-0.02482 -0.20210573 1.2410001 0 255 248 255
-0.022619048 -0.20357142 1.25 0 255 248 255
-0.091299996 -0.2003857 1.245 0 255 248 255
-0.088642858 -0.1997419 1.2410001 0 255 248 255
-0.08627905 -0.1997419 1.2410001 0 255 248 255
-0.083577149 -0.19893715 1.2360001 0 255 248 255
-0.081222862 -0.19893715 1.2360001 0 255 248 255
-0.078868575 -0.19893715 1.2360001 0 255 248 255
-0.076514289 -0.19893715 1.2360001 0 255 248 255
-0.074160002 -0.19893715 1.2360001 0 255 248 255
-0.071805716 -0.19893715 1.2360001 0 255 248 255
-0.069451429 -0.19893715 1.2360001 0 255 248 255
-0.067097142 -0.19893715 1.2360001 0 255 248 255
-0.064742863 -0.19893715 1.2360001 0 255 248 255
-0.062388573 -0.19893715 1.2360001 0 255 248 255
-0.060034286 -0.19893715 1.2360001 0 255 248 255
-0.057680003 -0.19893715 1.2360001 0 255 248 255
-0.055325717 -0.19893715 1.2360001 0 255 248 255
-0.05297143 -0.19893715 1.2360001 0 255 248 255
-0.050617144 -0.19893715 1.2360001 0 255 248 255
-0.048262861 -0.19893715 1.2360001 0 255 248 255
-0.045908574 -0.19893715 1.2360001 0 255 248 255
-0.043554287 -0.19893715 1.2360001 0 255 248 255
-0.041200001 -0.19893715 1.2360001 0 255 248 255
-0.038845714 -0.19893715 1.2360001 0 255 248 255
-0.036491431 -0.19893715 1.2360001 0 255 248 255
-0.034137145 -0.19893715 1.2360001 0 255 248 255
-0.031782858 -0.19893715 1.2360001 0 255 248 255
-0.029428573 -0.19893715 1.2360001 0 255 248 255
-0.027074287 -0.19893715 1.2360001 0 255 248 255
-0.02472 -0.19893715 1.2360001 0 255 248 255
-0.022456191 -0.1997419 1.2410001 0 255 248 255
-0.020157143 -0.2003857 1.245 0 255 248 255
-0.017857142 -0.20119047 1.25 0 255 248 255
-0.096042857 -0.19801427 1.245 0 255 248 255
-0.093370475 -0.1973781 1.2410001 0 255 248 255
-0.090640001 -0.19658287 1.2360001 0 255 248 255
-0.088285714 -0.19658287 1.2360001 0 255 248 255
-0.085931435 -0.19658287 1.2360001 0 255 248 255
-0.083577149 -0.19658287 1.2360001 0 255 248 255
-0.081222862 -0.19658287 1.2360001 0 255 248 255
-0.078868575 -0.19658287 1.2360001 0 255 248 255
-0.076514289 -0.19658287 1.2360001 0 255 248 255
-0.074160002 -0.19658287 1.2360001 0 255 248 255
-0.071805716 -0.19658287 1.2360001 0 255 248 255
-0.069451429 -0.19658287 1.2360001 0 255 248 255
-0.067097142 -0.19658287 1.2360001 0 255 248 255
-0.064742863 -0.19658287 1.2360001 0 255 248 255
-0.062388573 -0.19658287 1.2360001 0 255 248 255
-0.060034286 -0.19658287 1.2360001 0 255 248 255
-0.057680003 -0.19658287 1.2360001 0 255 248 255
-0.055325717 -0.19658287 1.2360001 0 255 248 255
-0.05297143 -0.19658287 1.2360001 0 255 248 255
-0.050617144 -0.19658287 1.2360001 0 255 248 255
-0.048262861 -0.19658287 1.2360001 0 255 248 255
-0.045908574 -0.19658287 1.2360001 0 255 248 255
-0.043554287 -0.19658287 1.2360001 0 255 248 255
-0.041200001 -0.19658287 1.2360001 0 255 248 255
-0.038845714 -0.19658287 1.2360001 0 255 248 255
-0.036491431 -0.19658287 1.2360001 0 255 248 255
-0.034137145 -0.19658287 1.2360001 0 255 248 255
-0.031782858 -0.19658287 1.2360001 0 255 248 255
-0.029428573 -0.19658287 1.2360001 0 255 248 255
-0.027074287 -0.19658287 1.2360001 0 255 248 255
-0.02472 -0.19658287 1.2360001 0 255 248 255
-0.022456191 -0.1973781 1.2410001 0 255 248 255
-0.020092381 -0.1973781 1.2410001 0 255 248 255
-0.017785713 -0.19801427 1.245 0 255 248 255
-0.098414287 -0.19564286 1.245 0 255 248 255
-0.095734291 -0.1950143 1.2410001 0 255 248 255
-0.092994288 -0.19422857 1.2360001 0 255 248 255
-0.090640001 -0.19422857 1.2360001 0 255 248 255
-0.088000007 -0.19360001 1.2320001 0 255 248 255
-0.085653335 -0.19360001 1.2320001 0 255 248 255
-0.08330667 -0.19360001 1.2320001 0 255 248 255
-0.081222862 -0.19422857 1.2360001 0 255 248 255
-0.078868575 -0.19422857 1.2360001 0 255 248 255
-0.076514289 -0.19422857 1.2360001 0 255 248 255
-0.074160002 -0.19422857 1.2360001 0 255 248 255
-0.071805716 -0.19422857 1.2360001 0 255 248 255
-0.069451429 -0.19422857 1.2360001 0 255 248 255
-0.067097142 -0.19422857 1.2360001 0 255 248 255
-0.064742863 -0.19422857 1.2360001 0 255 248 255
-0.062388573 -0.19422857 1.2360001 0 255 248 255
-0.060034286 -0.19422857 1.2360001 0 255 248 255
-0.057913333 -0.1950143 1.2410001 0 255 248 255
-0.055549525 -0.1950143 1.2410001 0 255 248 255
-0.053185716 -0.1950143 1.2410001 0 255 248 255
-0.050821908 -0.1950143 1.2410001 0 255 248 255
-0.048458096 -0.1950143 1.2410001 0 255 248 255
-0.045908574 -0.19422857 1.2360001 0 255 248 255
-0.043554287 -0.19422857 1.2360001 0 255 248 255
-0.041200001 -0.19422857 1.2360001 0 255 248 255
-0.038845714 -0.19422857 1.2360001 0 255 248 255
-0.036491431 -0.19422857 1.2360001 0 255 248 255
-0.034137145 -0.19422857 1.2360001 0 255 248 255
-0.031782858 -0.19422857 1.2360001 0 255 248 255
-0.029428573 -0.19422857 1.2360001 0 255 248 255
-0.027074287 -0.19422857 1.2360001 0 255 248 255
-0.02472 -0.19422857 1.2360001 0 255 248 255
-0.022365715 -0.19422857 1.2360001 0 255 248 255
-0.020011429 -0.19422857 1.2360001 0 255 248 255
-0.017728573 -0.1950143 1.2410001 0 255 248 255
-0.015414285 -0.19564286 1.245 0 255 248 255
-0.098098099 -0.19265048 1.2410001 0 255 248 255
-0.095348574 -0.1918743 1.2360001 0 255 248 255
-0.092994288 -0.1918743 1.2360001 0 255 248 255
-0.090640001 -0.1918743 1.2360001 0 255 248 255
-0.088000007 -0.19125335 1.2320001 0 255 248 255
-0.085653335 -0.19125335 1.2320001 0 255 248 255
-0.08330667 -0.19125335 1.2320001 0 255 248 255
-0.081222862 -0.1918743 1.2360001 0 255 248 255
-0.078868575 -0.1918743 1.2360001 0 255 248 255
-0.076514289 -0.1918743 1.2360001 0 255 248 255
-0.074160002 -0.1918743 1.2360001 0 255 248 255
-0.071805716 -0.1918743 1.2360001 0 255 248 255
-0.069451429 -0.1918743 1.2360001 0 255 248 255
-0.067097142 -0.1918743 1.2360001 0 255 248 255
-0.064742863 -0.1918743 1.2360001 0 255 248 255
-0.062388573 -0.1918743 1.2360001 0 255 248 255
-0.060277145 -0.19265048 1.2410001 0 255 248 255
-0.057913333 -0.19265048 1.2410001 0 255 248 255
-0.055549525 -0.19265048 1.2410001 0 255 248 255
-0.053357143 -0.19327143 1.245 0 255 248 255
-0.050821908 -0.19265048 1.2410001 0 255 248 255
-0.048458096 -0.19265048 1.2410001 0 255 248 255
-0.046094287 -0.19265048 1.2410001 0 255 248 255
-0.043554287 -0.1918743 1.2360001 0 255 248 255
-0.041200001 -0.1918743 1.2360001 0 255 248 255
-0.038845714 -0.1918743 1.2360001 0 255 248 255
-0.036491431 -0.1918743 1.2360001 0 255 248 255
-0.034137145 -0.1918743 1.2360001 0 255 248 255
-0.031782858 -0.1918743 1.2360001 0 255 248 255
-0.029428573 -0.1918743 1.2360001 0 255 248 255
-0.026986668 -0.19125335 1.2320001 0 255 248 255
-0.024640001 -0.19125335 1.2320001 0 255 248 255
-0.022365715 -0.1918743 1.2360001 0 255 248 255
-0.020011429 -0.1918743 1.2360001 0 255 248 255
-0.017657144 -0.1918743 1.2360001 0 255 248 255
-0.015364763 -0.19265048 1.2410001 0 255 248 255
-0.013095238 -0.19404761 1.25 0 255 248 255
-0.10078571 -0.1909 1.245 0 255 248 255
-0.097702861 -0.18952 1.2360001 0 255 248 255
-0.095348574 -0.18952 1.2360001 0 255 248 255
-0.092693344 -0.18890668 1.2320001 0 255 248 255
-0.090346672 -0.18890668 1.2320001 0 255 248 255
-0.088000007 -0.18890668 1.2320001 0 255 248 255
-0.085653335 -0.18890668 1.2320001 0 255 248 255
-0.08330667 -0.18890668 1.2320001 0 255 248 255
-0.080960013 -0.18890668 1.2320001 0 255 248 255
-0.078868575 -0.18952 1.2360001 0 255 248 255
-0.076514289 -0.18952 1.2360001 0 255 248 255
-0.074160002 -0.18952 1.2360001 0 255 248 255
-0.071805716 -0.18952 1.2360001 0 255 248 255
-0.069451429 -0.18952 1.2360001 0 255 248 255
-0.067368567 -0.19028668 1.2410001 0 255 248 255
-0.065004766 -0.19028668 1.2410001 0 255 248 255
-0.062640958 -0.19028668 1.2410001 0 255 248 255
-0.060277145 -0.19028668 1.2410001 0 255 248 255
-0.057913333 -0.19028668 1.2410001 0 255 248 255
-0.055549525 -0.19028668 1.2410001 0 255 248 255
-0.053357143 -0.1909 1.245 0 255 248 255
-0.050985713 -0.1909 1.245 0 255 248 255
-0.048458096 -0.19028668 1.2410001 0 255 248 255
-0.046094287 -0.19028668 1.2410001 0 255 248 255
-0.043730479 -0.19028668 1.2410001 0 255 248 255
-0.041200001 -0.18952 1.2360001 0 255 248 255
-0.038845714 -0.18952 1.2360001 0 255 248 255
-0.036491431 -0.18952 1.2360001 0 255 248 255
-0.034137145 -0.18952 1.2360001 0 255 248 255
-0.031782858 -0.18952 1.2360001 0 255 248 255
-0.029333336 -0.18890668 1.2320001 0 255 248 255
-0.026986668 -0.18890668 1.2320001 0 255 248 255
-0.024640001 -0.18890668 1.2320001 0 255 248 255
-0.022293337 -0.18890668 1.2320001 0 255 248 255
-0.020011429 -0.18952 1.2360001 0 255 248 255
-0.017657144 -0.18952 1.2360001 0 255 248 255
-0.015364763 -0.19028668 1.2410001 0 255 248 255
-0.10046192 -0.18792287 1.2410001 0 255 248 255
-0.097702861 -0.18716572 1.2360001 0 255 248 255
-0.095348574 -0.18716572 1.2360001 0 255 248 255
-0.092693344 -0.18656002 1.2320001 0 255 248 255
-0.090346672 -0.18656002 1.2320001 0 255 248 255
-0.088000007 -0.18656002 1.2320001 0 255 248 255
-0.085653335 -0.18656002 1.2320001 0 255 248 255
-0.08330667 -0.18656002 1.2320001 0 255 248 255
-0.080960013 -0.18656002 1.2320001 0 255 248 255
-0.078613341 -0.18656002 1.2320001 0 255 248 255
-0.076514289 -0.18716572 1.2360001 0 255 248 255
-0.074160002 -0.18716572 1.2360001 0 255 248 255
-0.072096191 -0.18792287 1.2410001 0 255 248 255
-0.069732383 -0.18792287 1.2410001 0 255 248 255
-0.067585714 -0.18852857 1.245 0 255 248 255
-0.065214284 -0.18852857 1.245 0 255 248 255
-0.043871425 -0.18852857 1.245 0 255 248 255
-0.041499998 -0.18852857 1.245 0 255 248 255
-0.038845714 -0.18716572 1.2360001 0 255 248 255
-0.036491431 -0.18716572 1.2360001 0 255 248 255
-0.034137145 -0.18716572 1.2360001 0 255 248 255
-0.031782858 -0.18716572 1.2360001 0 255 248 255
-0.029333336 -0.18656002 1.2320001 0 255 248 255
-0.026986668 -0.18656002 1.2320001 0 255 248 255
-0.024640001 -0.18656002 1.2320001 0 255 248 255
-0.022293337 -0.18656002 1.2320001 0 255 248 255
-0.020011429 -0.18716572 1.2360001 0 255 248 255
-0.017657144 -0.18716572 1.2360001 0 255 248 255
-0.015364763 -0.18792287 1.2410001 0 255 248 255
-0.10315715 -0.18615714 1.245 0 255 248 255
-0.10046192 -0.18555905 1.2410001 0 255 248 255
-0.097702861 -0.18481143 1.2360001 0 255 248 255
-0.095040008 -0.18421334 1.2320001 0 255 248 255
-0.092693344 -0.18421334 1.2320001 0 255 248 255
-0.090346672 -0.18421334 1.2320001 0 255 248 255
-0.088000007 -0.18421334 1.2320001 0 255 248 255
-0.085653335 -0.18421334 1.2320001 0 255 248 255
-0.08330667 -0.18421334 1.2320001 0 255 248 255
-0.080960013 -0.18421334 1.2320001 0 255 248 255
-0.078613341 -0.18421334 1.2320001 0 255 248 255
-0.076514289 -0.18481143 1.2360001 0 255 248 255
-0.074160002 -0.18481143 1.2360001 0 255 248 255
-0.072096191 -0.18555905 1.2410001 0 255 248 255
-0.069957145 -0.18615714 1.245 0 255 248 255
-0.041499998 -0.18615714 1.245 0 255 248 255
-0.039002858 -0.18555905 1.2410001 0 255 248 255
-0.036491431 -0.18481143 1.2360001 0 255 248 255
-0.034137145 -0.18481143 1.2360001 0 255 248 255
-0.031782858 -0.18481143 1.2360001 0 255 248 255
-0.029428573 -0.18481143 1.2360001 0 255 248 255
-0.026986668 -0.18421334 1.2320001 0 255 248 255
-0.024640001 -0.18421334 1.2320001 0 255 248 255
-0.022293337 -0.18421334 1.2320001 0 255 248 255
-0.020011429 -0.18481143 1.2360001 0 255 248 255
-0.017728573 -0.18555905 1.2410001 0 255 248 255
-0.015414285 -0.18615714 1.245 0 255 248 255
-0.10046192 -0.18319525 1.2410001 0 255 248 255
-0.097702861 -0.18245716 1.2360001 0 255 248 255
-0.095040008 -0.18186669 1.2320001 0 255 248 255
-0.092693344 -0.18186669 1.2320001 0 255 248 255
-0.090346672 -0.18186669 1.2320001 0 255 248 255
-0.088000007 -0.18186669 1.2320001 0 255 248 255
-0.085653335 -0.18186669 1.2320001 0 255 248 255
-0.08330667 -0.18186669 1.2320001 0 255 248 255
-0.080960013 -0.18186669 1.2320001 0 255 248 255
-0.078613341 -0.18186669 1.2320001 0 255 248 255
-0.076514289 -0.18245716 1.2360001 0 255 248 255
-0.074160002 -0.18245716 1.2360001 0 255 248 255
-0.072328568 -0.18378572 1.245 0 255 248 255
-0.069957145 -0.18378572 1.245 0 255 248 255
-0.039002858 -0.18319525 1.2410001 0 255 248 255
-0.03663905 -0.18319525 1.2410001 0 255 248 255
-0.034137145 -0.18245716 1.2360001 0 255 248 255
-0.031782858 -0.18245716 1.2360001 0 255 248 255
-0.029333336 -0.18186669 1.2320001 0 255 248 255
-0.026986668 -0.18186669 1.2320001 0 255 248 255
-0.024640001 -0.18186669 1.2320001 0 255 248 255
-0.022293337 -0.18186669 1.2320001 0 255 248 255
-0.020011429 -0.18245716 1.2360001 0 255 248 255
-0.017728573 -0.18319525 1.2410001 0 255 248 255
-0.015414285 -0.18378572 1.245 0 255 248 255
-0.10282572 -0.18083143 1.2410001 0 255 248 255
-0.10005715 -0.18010285 1.2360001 0 255 248 255
-0.097386681 -0.17952001 1.2320001 0 255 248 255
-0.095040008 -0.17952001 1.2320001 0 255 248 255
-0.092693344 -0.17952001 1.2320001 0 255 248 255
-0.090346672 -0.17952001 1.2320001 0 255 248 255
-0.088000007 -0.17952001 1.2320001 0 255 248 255
-0.085653335 -0.17952001 1.2320001 0 255 248 255
-0.08330667 -0.17952001 1.2320001 0 255 248 255
-0.080960013 -0.17952001 1.2320001 0 255 248 255
-0.078613341 -0.17952001 1.2320001 0 255 248 255
-0.076514289 -0.18010285 1.2360001 0 255 248 255
-0.074160002 -0.18010285 1.2360001 0 255 248 255
-0.072328568 -0.18141429 1.245 0 255 248 255
-0.069957145 -0.18141429 1.245 0 255 248 255
-0.036757145 -0.18141429 1.245 0 255 248 255
-0.034275241 -0.18083143 1.2410001 0 255 248 255
-0.031782858 -0.18010285 1.2360001 0 255 248 255
-0.029333336 -0.17952001 1.2320001 0 255 248 255
-0.026986668 -0.17952001 1.2320001 0 255 248 255
-0.024640001 -0.17952001 1.2320001 0 255 248 255
-0.022293337 -0.17952001 1.2320001 0 255 248 255
-0.020011429 -0.18010285 1.2360001 0 255 248 255
-0.017728573 -0.18083143 1.2410001 0 255 248 255
-0.015364763 -0.18083143 1.2410001 0 255 248 255
-0.10282572 -0.17846762 1.2410001 0 255 248 255
-0.10005715 -0.17774859 1.2360001 0 255 248 255
-0.097386681 -0.17717335 1.2320001 0 255 248 255
-0.095040008 -0.17717335 1.2320001 0 255 248 255
-0.092693344 -0.17717335 1.2320001 0 255 248 255
-0.090346672 -0.17717335 1.2320001 0 255 248 255
-0.087642863 -0.17645431 1.2270001 0 255 248 255
-0.085305721 -0.17645431 1.2270001 0 255 248 255
-0.08330667 -0.17717335 1.2320001 0 255 248 255
-0.080960013 -0.17717335 1.2320001 0 255 248 255
-0.078868575 -0.17774859 1.2360001 0 255 248 255
-0.076514289 -0.17774859 1.2360001 0 255 248 255
-0.036757145 -0.17904285 1.245 0 255 248 255
-0.034275241 -0.17846762 1.2410001 0 255 248 255
-0.031782858 -0.17774859 1.2360001 0 255 248 255
-0.029333336 -0.17717335 1.2320001 0 255 248 255
-0.026986668 -0.17717335 1.2320001 0 255 248 255
-0.024640001 -0.17717335 1.2320001 0 255 248 255
-0.022293337 -0.17717335 1.2320001 0 255 248 255
-0.020011429 -0.17774859 1.2360001 0 255 248 255
-0.017728573 -0.17846762 1.2410001 0 255 248 255
-0.015364763 -0.17846762 1.2410001 0 255 248 255
-0.10241143 -0.17539428 1.2360001 0 255 248 255
-0.099733338 -0.17482668 1.2320001 0 255 248 255
-0.097386681 -0.17482668 1.2320001 0 255 248 255
-0.095040008 -0.17482668 1.2320001 0 255 248 255
-0.092693344 -0.17482668 1.2320001 0 255 248 255
-0.090346672 -0.17482668 1.2320001 0 255 248 255
-0.087642863 -0.17411715 1.2270001 0 255 248 255
-0.085305721 -0.17411715 1.2270001 0 255 248 255
-0.08330667 -0.17482668 1.2320001 0 255 248 255
-0.080960013 -0.17482668 1.2320001 0 255 248 255
-0.078613341 -0.17482668 1.2320001 0 255 248 255
-0.076514289 -0.17539428 1.2360001 0 255 248 255
-0.036757145 -0.17667143 1.245 0 255 248 255
-0.034137145 -0.17539428 1.2360001 0 255 248 255
-0.031782858 -0.17539428 1.2360001 0 255 248 255
-0.029333336 -0.17482668 1.2320001 0 255 248 255
-0.026986668 -0.17482668 1.2320001 0 255 248 255
-0.024640001 -0.17482668 1.2320001 0 255 248 255
-0.022293337 -0.17482668 1.2320001 0 255 248 255
-0.020011429 -0.17539428 1.2360001 0 255 248 255
-0.017728573 -0.17610382 1.2410001 0 255 248 255
-0.015364763 -0.17610382 1.2410001 0 255 248 255
-0.10518952 -0.17374 1.2410001 0 255 248 255
-0.10241143 -0.17304002 1.2360001 0 255 248 255
-0.099733338 -0.17248002 1.2320001 0 255 248 255
-0.097386681 -0.17248002 1.2320001 0 255 248 255
-0.095040008 -0.17248002 1.2320001 0 255 248 255
-0.092693344 -0.17248002 1.2320001 0 255 248 255
-0.089980014 -0.17178002 1.2270001 0 255 248 255
-0.087642863 -0.17178002 1.2270001 0 255 248 255
-0.085305721 -0.17178002 1.2270001 0 255 248 255
-0.082968585 -0.17178002 1.2270001 0 255 248 255
-0.080960013 -0.17248002 1.2320001 0 255 248 255
-0.078613341 -0.17248002 1.2320001 0 255 248 255
-0.076514289 -0.17304002 1.2360001 0 255 248 255
-0.036757145 -0.1743 1.245 0 255 248 255
-0.034137145 -0.17304002 1.2360001 0 255 248 255
-0.031680003 -0.17248002 1.2320001 0 255 248 255
-0.029333336 -0.17248002 1.2320001 0 255 248 255
-0.026986668 -0.17248002 1.2320001 0 255 248 255
-0.024640001 -0.17248002 1.2320001 0 255 248 255
-0.022293337 -0.17248002 1.2320001 0 255 248 255
-0.019946668 -0.17248002 1.2320001 0 255 248 255
-0.017657144 -0.17304002 1.2360001 0 255 248 255
-0.015302857 -0.17304002 1.2360001 0 255 248 255
-0.013042857 -0.1743 1.245 0 255 248 255
-0.10518952 -0.1713762 1.2410001 0 255 248 255
-0.10241143 -0.17068571 1.2360001 0 255 248 255
-0.099733338 -0.17013335 1.2320001 0 255 248 255
-0.097386681 -0.17013335 1.2320001 0 255 248 255
-0.095040008 -0.17013335 1.2320001 0 255 248 255
-0.092693344 -0.17013335 1.2320001 0 255 248 255
-0.089980014 -0.16944288 1.2270001 0 255 248 255
-0.087642863 -0.16944288 1.2270001 0 255 248 255
-0.085305721 -0.16944288 1.2270001 0 255 248 255
-0.082968585 -0.16944288 1.2270001 0 255 248 255
-0.080960013 -0.17013335 1.2320001 0 255 248 255
-0.078613341 -0.17013335 1.2320001 0 255 248 255
-0.076823808 -0.1713762 1.2410001 0 255 248 255
-0.034137145 -0.17068571 1.2360001 0 255 248 255
-0.031680003 -0.17013335 1.2320001 0 255 248 255
-0.029214289 -0.16944288 1.2270001 0 255 248 255
-0.026877144 -0.16944288 1.2270001 0 255 248 255
-0.024540002 -0.16944288 1.2270001 0 255 248 255
-0.022202859 -0.16944288 1.2270001 0 255 248 255
-0.019946668 -0.17013335 1.2320001 0 255 248 255
-0.017657144 -0.17068571 1.2360001 0 255 248 255
-0.015302857 -0.17068571 1.2360001 0 255 248 255
-0.013042857 -0.17192857 1.245 0 255 248 255
-0.10518952 -0.1690124 1.2410001 0 255 248 255
-0.10241143 -0.16833144 1.2360001 0 255 248 255
-0.099733338 -0.16778667 1.2320001 0 255 248 255
-0.097386681 -0.16778667 1.2320001 0 255 248 255
-0.095040008 -0.16778667 1.2320001 0 255 248 255
-0.092693344 -0.16778667 1.2320001 0 255 248 255
-0.090346672 -0.16778667 1.2320001 0 255 248 255
-0.087642863 -0.16710572 1.2270001 0 255 248 255
-0.085305721 -0.16710572 1.2270001 0 255 248 255
-0.08330667 -0.16778667 1.2320001 0 255 248 255
-0.080960013 -0.16778667 1.2320001 0 255 248 255
-0.078868575 -0.16833144 1.2360001 0 255 248 255
-0.034137145 -0.16833144 1.2360001 0 255 248 255
-0.031680003 -0.16778667 1.2320001 0 255 248 255
-0.029214289 -0.16710572 1.2270001 0 255 248 255
-0.026877144 -0.16710572 1.2270001 0 255 248 255
-0.024540002 -0.16710572 1.2270001 0 255 248 255
-0.022202859 -0.16710572 1.2270001 0 255 248 255
-0.019946668 -0.16778667 1.2320001 0 255 248 255
-0.017600002 -0.16778667 1.2320001 0 255 248 255
-0.015253334 -0.16778667 1.2320001 0 255 248 255
-0.013042857 -0.16955714 1.245 0 255 248 255
-0.010671428 -0.16955714 1.245 0 255 248 255
-0.10518952 -0.16664857 1.2410001 0 255 248 255
-0.10241143 -0.16597714 1.2360001 0 255 248 255
-0.099733338 -0.16544002 1.2320001 0 255 248 255
-0.097386681 -0.16544002 1.2320001 0 255 248 255
-0.095040008 -0.16544002 1.2320001 0 255 248 255
-0.092693344 -0.16544002 1.2320001 0 255 248 255
-0.090346672 -0.16544002 1.2320001 0 255 248 255
-0.087642863 -0.16476859 1.2270001 0 255 248 255
-0.085305721 -0.16476859 1.2270001 0 255 248 255
-0.08330667 -0.16544002 1.2320001 0 255 248 255
-0.080960013 -0.16544002 1.2320001 0 255 248 255
-0.078868575 -0.16597714 1.2360001 0 255 248 255
-0.034026671 -0.16544002 1.2320001 0 255 248 255
-0.031448569 -0.16423143 1.223 0 255 248 255
-0.029119048 -0.16423143 1.223 0 255 248 255
-0.026789526 -0.16423143 1.223 0 255 248 255
-0.024460001 -0.16423143 1.223 0 255 248 255
-0.022202859 -0.16476859 1.2270001 0 255 248 255
-0.019865716 -0.16476859 1.2270001 0 255 248 255
-0.017600002 -0.16544002 1.2320001 0 255 248 255
-0.015253334 -0.16544002 1.2320001 0 255 248 255
-0.10241143 -0.16362287 1.2360001 0 255 248 255
-0.099733338 -0.16309334 1.2320001 0 255 248 255
-0.097386681 -0.16309334 1.2320001 0 255 248 255
-0.095040008 -0.16309334 1.2320001 0 255 248 255
-0.092693344 -0.16309334 1.2320001 0 255 248 255
-0.089980014 -0.16243143 1.2270001 0 255 248 255
-0.087642863 -0.16243143 1.2270001 0 255 248 255
-0.085305721 -0.16243143 1.2270001 0 255 248 255
-0.08330667 -0.16309334 1.2320001 0 255 248 255
-0.080960013 -0.16309334 1.2320001 0 255 248 255
-0.078868575 -0.16362287 1.2360001 0 255 248 255
-0.033778097 -0.16190191 1.223 0 255 248 255
-0.031345718 -0.16137239 1.2190001 0 255 248 255
-0.029023811 -0.16137239 1.2190001 0 255 248 255
-0.026789526 -0.16190191 1.223 0 255 248 255
-0.024460001 -0.16190191 1.223 0 255 248 255
-0.022202859 -0.16243143 1.2270001 0 255 248 255
-0.019865716 -0.16243143 1.2270001 0 255 248 255
-0.017657144 -0.16362287 1.2360001 0 255 248 255
-0.015302857 -0.16362287 1.2360001 0 255 248 255
-0.10241143 -0.16126858 1.2360001 0 255 248 255
-0.099733338 -0.16074668 1.2320001 0 255 248 255
-0.097386681 -0.16074668 1.2320001 0 255 248 255
-0.095040008 -0.16074668 1.2320001 0 255 248 255
-0.092317149 -0.16009429 1.2270001 0 255 248 255
-0.089980014 -0.16009429 1.2270001 0 255 248 255
-0.087642863 -0.16009429 1.2270001 0 255 248 255
-0.085305721 -0.16009429 1.2270001 0 255 248 255
-0.08330667 -0.16074668 1.2320001 0 255 248 255
-0.080960013 -0.16074668 1.2320001 0 255 248 255
-0.078613341 -0.16074668 1.2320001 0 255 248 255
-0.038845714 -0.16126858 1.2360001 0 255 248 255
-0.035989527 -0.15905049 1.2190001 0 255 248 255
-0.03366762 -0.15905049 1.2190001 0 255 248 255
-0.031345718 -0.15905049 1.2190001 0 255 248 255
-0.029023811 -0.15905049 1.2190001 0 255 248 255
-0.026701907 -0.15905049 1.2190001 0 255 248 255
-0.024380002 -0.15905049 1.2190001 0 255 248 255
-0.022130478 -0.15957239 1.223 0 255 248 255
-0.020011429 -0.16126858 1.2360001 0 255 248 255
-0.017657144 -0.16126858 1.2360001 0 255 248 255
-0.015302857 -0.16126858 1.2360001 0 255 248 255
-0.10241143 -0.1589143 1.2360001 0 255 248 255
-0.099733338 -0.15840001 1.2320001 0 255 248 255
-0.097386681 -0.15840001 1.2320001 0 255 248 255
-0.095040008 -0.15840001 1.2320001 0 255 248 255
-0.092317149 -0.15775716 1.2270001 0 255 248 255
-0.089980014 -0.15775716 1.2270001 0 255 248 255
-0.087642863 -0.15775716 1.2270001 0 255 248 255
-0.085305721 -0.15775716 1.2270001 0 255 248 255
-0.08330667 -0.15840001 1.2320001 0 255 248 255
-0.080960013 -0.15840001 1.2320001 0 255 248 255
-0.078613341 -0.15840001 1.2320001 0 255 248 255
-0.041200001 -0.1589143 1.2360001 0 255 248 255
-0.03856286 -0.15775716 1.2270001 0 255 248 255
-0.035989527 -0.15672858 1.2190001 0 255 248 255
-0.03366762 -0.15672858 1.2190001 0 255 248 255
-0.031345718 -0.15672858 1.2190001 0 255 248 255
-0.029023811 -0.15672858 1.2190001 0 255 248 255
-0.026701907 -0.15672858 1.2190001 0 255 248 255
-0.024380002 -0.15672858 1.2190001 0 255 248 255
-0.022130478 -0.15724286 1.223 0 255 248 255
-0.019800952 -0.15724286 1.223 0 255 248 255
-0.017657144 -0.1589143 1.2360001 0 255 248 255
-0.015302857 -0.1589143 1.2360001 0 255 248 255
-0.10005715 -0.15656 1.2360001 0 255 248 255
-0.097386681 -0.15605335 1.2320001 0 255 248 255
-0.095040008 -0.15605335 1.2320001 0 255 248 255
-0.092693344 -0.15605335 1.2320001 0 255 248 255
-0.089980014 -0.15542001 1.2270001 0 255 248 255
-0.087642863 -0.15542001 1.2270001 0 255 248 255
-0.085305721 -0.15542001 1.2270001 0 255 248 255
-0.082968585 -0.15542001 1.2270001 0 255 248 255
-0.080631435 -0.15542001 1.2270001 0 255 248 255
-0.078294292 -0.15542001 1.2270001 0 255 248 255
-0.041066669 -0.15605335 1.2320001 0 255 248 255
-0.03856286 -0.15542001 1.2270001 0 255 248 255
-0.036107622 -0.15491334 1.223 0 255 248 255
-0.033778097 -0.15491334 1.223 0 255 248 255
-0.031345718 -0.15440668 1.2190001 0 255 248 255
-0.029023811 -0.15440668 1.2190001 0 255 248 255
-0.026701907 -0.15440668 1.2190001 0 255 248 255
-0.024460001 -0.15491334 1.223 0 255 248 255
-0.022130478 -0.15491334 1.223 0 255 248 255
-0.019800952 -0.15491334 1.223 0 255 248 255
-0.017657144 -0.15656 1.2360001 0 255 248 255
-0.015364763 -0.15719333 1.2410001 0 255 248 255
-0.10005715 -0.15420572 1.2360001 0 255 248 255
-0.097702861 -0.15420572 1.2360001 0 255 248 255
-0.095040008 -0.15370668 1.2320001 0 255 248 255
-0.092693344 -0.15370668 1.2320001 0 255 248 255
-0.089980014 -0.15308286 1.2270001 0 255 248 255
-0.087642863 -0.15308286 1.2270001 0 255 248 255
-0.085305721 -0.15308286 1.2270001 0 255 248 255
-0.082968585 -0.15308286 1.2270001 0 255 248 255
-0.080631435 -0.15308286 1.2270001 0 255 248 255
-0.078294292 -0.15308286 1.2270001 0 255 248 255
-0.076514289 -0.15420572 1.2360001 0 255 248 255
-0.043554287 -0.15420572 1.2360001 0 255 248 255
-0.040900003 -0.15308286 1.2270001 0 255 248 255
-0.038437143 -0.15258382 1.223 0 255 248 255
-0.036107622 -0.15258382 1.223 0 255 248 255
-0.033778097 -0.15258382 1.223 0 255 248 255
-0.031345718 -0.15208477 1.2190001 0 255 248 255
-0.029023811 -0.15208477 1.2190001 0 255 248 255
-0.026789526 -0.15258382 1.223 0 255 248 255
-0.024460001 -0.15258382 1.223 0 255 248 255
-0.022130478 -0.15258382 1.223 0 255 248 255
-0.019800952 -0.15258382 1.223 0 255 248 255
-0.017657144 -0.15420572 1.2360001 0 255 248 255
-0.015364763 -0.15482953 1.2410001 0 255 248 255
-0.095348574 -0.15185143 1.2360001 0 255 248 255
-0.092693344 -0.15136001 1.2320001 0 255 248 255
-0.089980014 -0.15074573 1.2270001 0 255 248 255
-0.087642863 -0.15074573 1.2270001 0 255 248 255
-0.085305721 -0.15074573 1.2270001 0 255 248 255
-0.082968585 -0.15074573 1.2270001 0 255 248 255
-0.080631435 -0.15074573 1.2270001 0 255 248 255
-0.078294292 -0.15074573 1.2270001 0 255 248 255
-0.076514289 -0.15185143 1.2360001 0 255 248 255
-0.05297143 -0.15185143 1.2360001 0 255 248 255
-0.050617144 -0.15185143 1.2360001 0 255 248 255
-0.04810667 -0.15136001 1.2320001 0 255 248 255
-0.045574289 -0.15074573 1.2270001 0 255 248 255
-0.043096192 -0.15025429 1.223 0 255 248 255
-0.040766668 -0.15025429 1.223 0 255 248 255
-0.038311433 -0.14976287 1.2190001 0 255 248 255
-0.035989527 -0.14976287 1.2190001 0 255 248 255
-0.03366762 -0.14976287 1.2190001 0 255 248 255
-0.031345718 -0.14976287 1.2190001 0 255 248 255
-0.029023811 -0.14976287 1.2190001 0 255 248 255
-0.026789526 -0.15025429 1.223 0 255 248 255
-0.024460001 -0.15025429 1.223 0 255 248 255
-0.022130478 -0.15025429 1.223 0 255 248 255
-0.019865716 -0.15074573 1.2270001 0 255 248 255
-0.017728573 -0.15246572 1.2410001 0 255 248 255
-0.095348574 -0.14949715 1.2360001 0 255 248 255
-0.092693344 -0.14901336 1.2320001 0 255 248 255
-0.090346672 -0.14901336 1.2320001 0 255 248 255
-0.088000007 -0.14901336 1.2320001 0 255 248 255
-0.085653335 -0.14901336 1.2320001 0 255 248 255
-0.082968585 -0.14840858 1.2270001 0 255 248 255
-0.080631435 -0.14840858 1.2270001 0 255 248 255
-0.078613341 -0.14901336 1.2320001 0 255 248 255
-0.076514289 -0.14949715 1.2360001 0 255 248 255
-0.074160002 -0.14949715 1.2360001 0 255 248 255
-0.071805716 -0.14949715 1.2360001 0 255 248 255
-0.069451429 -0.14949715 1.2360001 0 255 248 255
-0.066880003 -0.14901336 1.2320001 0 255 248 255
-0.064533345 -0.14901336 1.2320001 0 255 248 255
-0.06218667 -0.14901336 1.2320001 0 255 248 255
-0.059840005 -0.14901336 1.2320001 0 255 248 255
-0.057493336 -0.14901336 1.2320001 0 255 248 255
-0.055146672 -0.14901336 1.2320001 0 255 248 255
-0.052800007 -0.14901336 1.2320001 0 255 248 255
-0.050453339 -0.14901336 1.2320001 0 255 248 255
-0.04810667 -0.14901336 1.2320001 0 255 248 255
-0.045574289 -0.14840858 1.2270001 0 255 248 255
-0.043096192 -0.14792477 1.223 0 255 248 255
-0.040766668 -0.14792477 1.223 0 255 248 255
-0.038311433 -0.14744097 1.2190001 0 255 248 255
-0.035989527 -0.14744097 1.2190001 0 255 248 255
-0.03366762 -0.14744097 1.2190001 0 255 248 255
-0.031345718 -0.14744097 1.2190001 0 255 248 255
-0.029023811 -0.14744097 1.2190001 0 255 248 255
-0.026789526 -0.14792477 1.223 0 255 248 255
-0.024460001 -0.14792477 1.223 0 255 248 255
-0.022130478 -0.14792477 1.223 0 255 248 255
-0.019946668 -0.14901336 1.2320001 0 255 248 255
-0.092994288 -0.14714286 1.2360001 0 255 248 255
-0.090346672 -0.14666668 1.2320001 0 255 248 255
-0.088000007 -0.14666668 1.2320001 0 255 248 255
-0.085653335 -0.14666668 1.2320001 0 255 248 255
-0.082968585 -0.14607145 1.2270001 0 255 248 255
-0.080631435 -0.14607145 1.2270001 0 255 248 255
-0.078613341 -0.14666668 1.2320001 0 255 248 255
-0.076514289 -0.14714286 1.2360001 0 255 248 255
-0.073920004 -0.14666668 1.2320001 0 255 248 255
-0.071573339 -0.14666668 1.2320001 0 255 248 255
-0.068945721 -0.14607145 1.2270001 0 255 248 255
-0.066608571 -0.14607145 1.2270001 0 255 248 255
-0.064061902 -0.14559524 1.223 0 255 248 255
-0.061732382 -0.14559524 1.223 0 255 248 255
-0.059402857 -0.14559524 1.223 0 255 248 255
-0.057073336 -0.14559524 1.223 0 255 248 255
-0.054743811 -0.14559524 1.223 0 255 248 255
-0.052585717 -0.14607145 1.2270001 0 255 248 255
-0.050248574 -0.14607145 1.2270001 0 255 248 255
-0.047755238 -0.14559524 1.223 0 255 248 255
-0.045425717 -0.14559524 1.223 0 255 248 255
-0.043096192 -0.14559524 1.223 0 255 248 255
-0.040633336 -0.14511906 1.2190001 0 255 248 255
-0.038311433 -0.14511906 1.2190001 0 255 248 255
-0.035989527 -0.14511906 1.2190001 0 255 248 255
-0.03366762 -0.14511906 1.2190001 0 255 248 255
-0.031448569 -0.14559524 1.223 0 255 248 255
-0.029119048 -0.14559524 1.223 0 255 248 255
-0.026789526 -0.14559524 1.223 0 255 248 255
-0.024460001 -0.14559524 1.223 0 255 248 255
-0.022202859 -0.14607145 1.2270001 0 255 248 255
-0.090640001 -0.14478858 1.2360001 0 255 248 255
-0.088000007 -0.14432001 1.2320001 0 255 248 255
-0.085653335 -0.14432001 1.2320001 0 255 248 255
-0.08330667 -0.14432001 1.2320001 0 255 248 255
-0.080960013 -0.14432001 1.2320001 0 255 248 255
-0.078613341 -0.14432001 1.2320001 0 255 248 255
-0.076266676 -0.14432001 1.2320001 0 255 248 255
-0.073920004 -0.14432001 1.2320001 0 255 248 255
-0.071282864 -0.14373431 1.2270001 0 255 248 255
-0.068720959 -0.14326571 1.223 0 255 248 255
-0.066391431 -0.14326571 1.223 0 255 248 255
-0.064061902 -0.14326571 1.223 0 255 248 255
-0.061530478 -0.14279716 1.2190001 0 255 248 255
-0.059208576 -0.14279716 1.2190001 0 255 248 255
-0.056886673 -0.14279716 1.2190001 0 255 248 255
-0.054743811 -0.14326571 1.223 0 255 248 255
-0.052414287 -0.14326571 1.223 0 255 248 255
-0.050084762 -0.14326571 1.223 0 255 248 255
-0.047755238 -0.14326571 1.223 0 255 248 255
-0.045425717 -0.14326571 1.223 0 255 248 255
-0.043096192 -0.14326571 1.223 0 255 248 255
-0.040633336 -0.14279716 1.2190001 0 255 248 255
-0.038311433 -0.14279716 1.2190001 0 255 248 255
-0.035989527 -0.14279716 1.2190001 0 255 248 255
-0.033778097 -0.14326571 1.223 0 255 248 255
-0.031551428 -0.14373431 1.2270001 0 255 248 255
-0.029214289 -0.14373431 1.2270001 0 255 248 255
-0.026877144 -0.14373431 1.2270001 0 255 248 255
-0.024640001 -0.14432001 1.2320001 0 255 248 255
-0.022365715 -0.14478858 1.2360001 0 255 248 255
-0.090640001 -0.14243428 1.2360001 0 255 248 255
-0.088285714 -0.14243428 1.2360001 0 255 248 255
-0.085931435 -0.14243428 1.2360001 0 255 248 255
-0.083577149 -0.14243428 1.2360001 0 255 248 255
-0.081222862 -0.14243428 1.2360001 0 255 248 255
-0.078613341 -0.14197333 1.2320001 0 255 248 255
-0.076266676 -0.14197333 1.2320001 0 255 248 255
-0.073920004 -0.14197333 1.2320001 0 255 248 255
-0.071282864 -0.14139715 1.2270001 0 255 248 255
-0.068720959 -0.1409362 1.223 0 255 248 255
-0.066391431 -0.1409362 1.223 0 255 248 255
-0.063852385 -0.14047524 1.2190001 0 255 248 255
-0.061530478 -0.14047524 1.2190001 0 255 248 255
-0.059208576 -0.14047524 1.2190001 0 255 248 255
-0.056886673 -0.14047524 1.2190001 0 255 248 255
-0.054564763 -0.14047524 1.2190001 0 255 248 255
-0.05224286 -0.14047524 1.2190001 0 255 248 255
-0.049920954 -0.14047524 1.2190001 0 255 248 255
-0.047599051 -0.14047524 1.2190001 0 255 248 255
-0.045425717 -0.1409362 1.223 0 255 248 255
-0.043096192 -0.1409362 1.223 0 255 248 255
-0.040766668 -0.1409362 1.223 0 255 248 255
-0.038437143 -0.1409362 1.223 0 255 248 255
-0.036107622 -0.1409362 1.223 0 255 248 255
-0.033778097 -0.1409362 1.223 0 255 248 255
-0.031551428 -0.14139715 1.2270001 0 255 248 255
-0.029214289 -0.14139715 1.2270001 0 255 248 255
-0.026877144 -0.14139715 1.2270001 0 255 248 255
-0.024640001 -0.14197333 1.2320001 0 255 248 255
-0.022365715 -0.14243428 1.2360001 0 255 248 255
-0.088285714 -0.14008002 1.2360001 0 255 248 255
-0.085931435 -0.14008002 1.2360001 0 255 248 255
-0.083577149 -0.14008002 1.2360001 0 255 248 255
-0.081222862 -0.14008002 1.2360001 0 255 248 255
-0.078613341 -0.13962668 1.2320001 0 255 248 255
-0.076266676 -0.13962668 1.2320001 0 255 248 255
-0.073920004 -0.13962668 1.2320001 0 255 248 255
-0.071282864 -0.13906002 1.2270001 0 255 248 255
-0.068720959 -0.13860667 1.223 0 255 248 255
-0.066391431 -0.13860667 1.223 0 255 248 255
-0.063852385 -0.13815333 1.2190001 0 255 248 255
-0.061530478 -0.13815333 1.2190001 0 255 248 255
-0.059208576 -0.13815333 1.2190001 0 255 248 255
-0.056886673 -0.13815333 1.2190001 0 255 248 255
-0.054564763 -0.13815333 1.2190001 0 255 248 255
-0.05224286 -0.13815333 1.2190001 0 255 248 255
-0.049920954 -0.13815333 1.2190001 0 255 248 255
-0.047599051 -0.13815333 1.2190001 0 255 248 255
-0.045425717 -0.13860667 1.223 0 255 248 255
-0.043096192 -0.13860667 1.223 0 255 248 255
-0.040766668 -0.13860667 1.223 0 255 248 255
-0.03856286 -0.13906002 1.2270001 0 255 248 255
-0.036225718 -0.13906002 1.2270001 0 255 248 255
-0.033888575 -0.13906002 1.2270001 0 255 248 255
-0.031680003 -0.13962668 1.2320001 0 255 248 255
-0.029333336 -0.13962668 1.2320001 0 255 248 255
-0.026986668 -0.13962668 1.2320001 0 255 248 255
-0.02472 -0.14008002 1.2360001 0 255 248 255
-0.022365715 -0.14008002 1.2360001 0 255 248 255
-0.088285714 -0.13772571 1.2360001 0 255 248 255
-0.085931435 -0.13772571 1.2360001 0 255 248 255
-0.083577149 -0.13772571 1.2360001 0 255 248 255
-0.080960013 -0.13728002 1.2320001 0 255 248 255
-0.078613341 -0.13728002 1.2320001 0 255 248 255
-0.076266676 -0.13728002 1.2320001 0 255 248 255
-0.073620006 -0.13672288 1.2270001 0 255 248 255
-0.071282864 -0.13672288 1.2270001 0 255 248 255
-0.068720959 -0.13627714 1.223 0 255 248 255
-0.066391431 -0.13627714 1.223 0 255 248 255
-0.064061902 -0.13627714 1.223 0 255 248 255
-0.061530478 -0.13583145 1.2190001 0 255 248 255
-0.059208576 -0.13583145 1.2190001 0 255 248 255
-0.056886673 -0.13583145 1.2190001 0 255 248 255
-0.054564763 -0.13583145 1.2190001 0 255 248 255
-0.05224286 -0.13583145 1.2190001 0 255 248 255
-0.050084762 -0.13627714 1.223 0 255 248 255
-0.047755238 -0.13627714 1.223 0 255 248 255
-0.045425717 -0.13627714 1.223 0 255 248 255
-0.043096192 -0.13627714 1.223 0 255 248 255
-0.040766668 -0.13627714 1.223 0 255 248 255
-0.03856286 -0.13672288 1.2270001 0 255 248 255
-0.036225718 -0.13672288 1.2270001 0 255 248 255
-0.033888575 -0.13672288 1.2270001 0 255 248 255
-0.031680003 -0.13728002 1.2320001 0 255 248 255
-0.029333336 -0.13728002 1.2320001 0 255 248 255
-0.026986668 -0.13728002 1.2320001 0 255 248 255
-0.02472 -0.13772571 1.2360001 0 255 248 255
-0.080960013 -0.13493334 1.2320001 0 255 248 255
-0.078613341 -0.13493334 1.2320001 0 255 248 255
-0.076266676 -0.13493334 1.2320001 0 255 248 255
-0.073620006 -0.13438572 1.2270001 0 255 248 255
-0.071282864 -0.13438572 1.2270001 0 255 248 255
-0.068720959 -0.13394763 1.223 0 255 248 255
-0.066391431 -0.13394763 1.223 0 255 248 255
-0.064061902 -0.13394763 1.223 0 255 248 255
-0.061732382 -0.13394763 1.223 0 255 248 255
-0.059402857 -0.13394763 1.223 0 255 248 255
-0.057073336 -0.13394763 1.223 0 255 248 255
-0.054743811 -0.13394763 1.223 0 255 248 255
-0.052414287 -0.13394763 1.223 0 255 248 255
-0.050084762 -0.13394763 1.223 0 255 248 255
-0.047755238 -0.13394763 1.223 0 255 248 255
-0.045425717 -0.13394763 1.223 0 255 248 255
-0.043096192 -0.13394763 1.223 0 255 248 255
-0.040766668 -0.13394763 1.223 0 255 248 255
-0.03856286 -0.13438572 1.2270001 0 255 248 255
-0.036225718 -0.13438572 1.2270001 0 255 248 255
-0.034026671 -0.13493334 1.2320001 0 255 248 255
-0.031680003 -0.13493334 1.2320001 0 255 248 255
-0.029333336 -0.13493334 1.2320001 0 255 248 255
-0.027074287 -0.13537145 1.2360001 0 255 248 255
-0.02472 -0.13537145 1.2360001 0 255 248 255
-0.078613341 -0.13258669 1.2320001 0 255 248 255
-0.076266676 -0.13258669 1.2320001 0 255 248 255
-0.073920004 -0.13258669 1.2320001 0 255 248 255
-0.071282864 -0.13204859 1.2270001 0 255 248 255
-0.068720959 -0.1316181 1.223 0 255 248 255
-0.066391431 -0.1316181 1.223 0 255 248 255
-0.064061902 -0.1316181 1.223 0 255 248 255
-0.061732382 -0.1316181 1.223 0 255 248 255
-0.059402857 -0.1316181 1.223 0 255 248 255
-0.057073336 -0.1316181 1.223 0 255 248 255
-0.054922864 -0.13204859 1.2270001 0 255 248 255
-0.052414287 -0.1316181 1.223 0 255 248 255
-0.050084762 -0.1316181 1.223 0 255 248 255
-0.047755238 -0.1316181 1.223 0 255 248 255
-0.045425717 -0.1316181 1.223 0 255 248 255
-0.043096192 -0.1316181 1.223 0 255 248 255
-0.040766668 -0.1316181 1.223 0 255 248 255
-0.038720001 -0.13258669 1.2320001 0 255 248 255
-0.03637334 -0.13258669 1.2320001 0 255 248 255
-0.034026671 -0.13258669 1.2320001 0 255 248 255
-0.031782858 -0.13301714 1.2360001 0 255 248 255
-0.029428573 -0.13301714 1.2360001 0 255 248 255
-0.027074287 -0.13301714 1.2360001 0 255 248 255
-0.02472 -0.13301714 1.2360001 0 255 248 255
-0.078613341 -0.13024001 1.2320001 0 255 248 255
-0.076266676 -0.13024001 1.2320001 0 255 248 255
-0.073920004 -0.13024001 1.2320001 0 255 248 255
-0.071282864 -0.12971143 1.2270001 0 255 248 255
-0.068945721 -0.12971143 1.2270001 0 255 248 255
-0.066608571 -0.12971143 1.2270001 0 255 248 255
-0.064271435 -0.12971143 1.2270001 0 255 248 255
-0.061934292 -0.12971143 1.2270001 0 255 248 255
-0.059597149 -0.12971143 1.2270001 0 255 248 255
-0.057260003 -0.12971143 1.2270001 0 255 248 255
-0.055146672 -0.13024001 1.2320001 0 255 248 255
-0.052800007 -0.13024001 1.2320001 0 255 248 255
-0.050453339 -0.13024001 1.2320001 0 255 248 255
-0.04810667 -0.13024001 1.2320001 0 255 248 255
-0.045760002 -0.13024001 1.2320001 0 255 248 255
-0.043413337 -0.13024001 1.2320001 0 255 248 255
-0.041066669 -0.13024001 1.2320001 0 255 248 255
-0.038845714 -0.13066287 1.2360001 0 255 248 255
-0.036491431 -0.13066287 1.2360001 0 255 248 255
-0.076266676 -0.12789334 1.2320001 0 255 248 255
-0.073920004 -0.12789334 1.2320001 0 255 248 255
-0.071282864 -0.12737429 1.2270001 0 255 248 255
-0.068945721 -0.12737429 1.2270001 0 255 248 255
-0.066608571 -0.12737429 1.2270001 0 255 248 255
-0.064271435 -0.12737429 1.2270001 0 255 248 255
-0.061934292 -0.12737429 1.2270001 0 255 248 255
-0.059840005 -0.12789334 1.2320001 0 255 248 255
-0.057493336 -0.12789334 1.2320001 0 255 248 255
-0.076266676 -0.12554666 1.2320001 0 255 248 255
-0.073920004 -0.12554666 1.2320001 0 255 248 255
-0.071573339 -0.12554666 1.2320001 0 255 248 255
-0.069226667 -0.12554666 1.2320001 0 255 248 255
-0.066880003 -0.12554666 1.2320001 0 255 248 255
-0.064533345 -0.12554666 1.2320001 0 255 248 255
-0.06218667 -0.12554666 1.2320001 0 255 248 255
0 0 0 1 0 0 0 1 0 0 0 1 0 0 0 0 0 928 1 0 0
