ply
format ascii 1.0
comment PCL generated
element vertex 649
property float x
property float y
property float z
element camera 1
property float view_px
property float view_py
property float view_pz
property float x_axisx
property float x_axisy
property float x_axisz
property float y_axisx
property float y_axisy
property float y_axisz
property float z_axisx
property float z_axisy
property float z_axisz
property float focal
property float scalex
property float scaley
property float centerx
property float centery
property int viewportx
property int viewporty
property float k1
property float k2
end_header
-0.10637619 -0.23785241 1.2550001
-0.10398573 -0.23785241 1.2550001
-0.10876667 -0.23546192 1.2550001
-0.10595238 -0.2345238 1.25
-0.10357143 -0.2345238 1.25
-0.10119048 -0.2345238 1.25
-0.099204771 -0.23546192 1.2550001
-0.09681429 -0.23546192 1.2550001
-0.10755334 -0.23047143 1.2410001
-0.10518952 -0.23047143 1.2410001
-0.10282572 -0.23047143 1.2410001
-0.10005715 -0.22954287 1.2360001
-0.097702861 -0.22954287 1.2360001
-0.095734291 -0.23047143 1.2410001
-0.093671434 -0.23121427 1.245
-0.091666669 -0.23214285 1.25
-0.10991714 -0.22810763 1.2410001
-0.10755334 -0.22810763 1.2410001
-0.10476572 -0.22718857 1.2360001
-0.10241143 -0.22718857 1.2360001
-0.10005715 -0.22718857 1.2360001
-0.097702861 -0.22718857 1.2360001
-0.095348574 -0.22718857 1.2360001
-0.092994288 -0.22718857 1.2360001
-0.090640001 -0.22718857 1.2360001
-0.088285714 -0.22718857 1.2360001
-0.085931435 -0.22718857 1.2360001
-0.10991714 -0.22574382 1.2410001
-0.10755334 -0.22574382 1.2410001
-0.10476572 -0.22483431 1.2360001
-0.10241143 -0.22483431 1.2360001
-0.099733338 -0.22410668 1.2320001
-0.097386681 -0.22410668 1.2320001
-0.095040008 -0.22410668 1.2320001
-0.092693344 -0.22410668 1.2320001
-0.090346672 -0.22410668 1.2320001
-0.087642863 -0.22319716 1.2270001
-0.085305721 -0.22319716 1.2270001
-0.08330667 -0.22410668 1.2320001
-0.081222862 -0.22483431 1.2360001
-0.10755334 -0.22338001 1.2410001
-0.10476572 -0.22248 1.2360001
-0.10241143 -0.22248 1.2360001
-0.099733338 -0.22176002 1.2320001
-0.097386681 -0.22176002 1.2320001
-0.095040008 -0.22176002 1.2320001
-0.092693344 -0.22176002 1.2320001
-0.090346672 -0.22176002 1.2320001
-0.087642863 -0.22086002 1.2270001
-0.085305721 -0.22086002 1.2270001
-0.08330667 -0.22176002 1.2320001
-0.080960013 -0.22176002 1.2320001
-0.078868575 -0.22248 1.2360001
-0.10755334 -0.2210162 1.2410001
-0.10476572 -0.22012573 1.2360001
-0.10241143 -0.22012573 1.2360001
-0.10005715 -0.22012573 1.2360001
-0.097702861 -0.22012573 1.2360001
-0.095040008 -0.21941335 1.2320001
-0.092693344 -0.21941335 1.2320001
-0.090346672 -0.21941335 1.2320001
-0.087642863 -0.21852288 1.2270001
-0.085305721 -0.21852288 1.2270001
-0.08330667 -0.21941335 1.2320001
-0.080960013 -0.21941335 1.2320001
-0.078868575 -0.22012573 1.2360001
-0.076823808 -0.2210162 1.2410001
-0.10518952 -0.21865238 1.2410001
-0.10282572 -0.21865238 1.2410001
-0.10005715 -0.21777143 1.2360001
-0.097702861 -0.21777143 1.2360001
-0.095348574 -0.21777143 1.2360001
-0.092994288 -0.21777143 1.2360001
-0.090346672 -0.21706668 1.2320001
-0.088000007 -0.21706668 1.2320001
-0.085653335 -0.21706668 1.2320001
-0.08330667 -0.21706668 1.2320001
-0.080960013 -0.21706668 1.2320001
-0.078868575 -0.21777143 1.2360001
-0.076823808 -0.21865238 1.2410001
-0.074999996 -0.22023809 1.25
-0.10595238 -0.21785714 1.25
-0.10357143 -0.21785714 1.25
-0.10078571 -0.21698572 1.245
-0.098414287 -0.21698572 1.245
-0.096042857 -0.21698572 1.245
-0.093370475 -0.21628858 1.2410001
-0.091006674 -0.21628858 1.2410001
-0.088285714 -0.21541716 1.2360001
-0.085931435 -0.21541716 1.2360001
-0.083577149 -0.21541716 1.2360001
-0.081222862 -0.21541716 1.2360001
-0.078868575 -0.21541716 1.2360001
-0.076823808 -0.21628858 1.2410001
-0.074999996 -0.21785714 1.25
-0.072619043 -0.21785714 1.25
-0.096428573 -0.21547619 1.25
-0.094047621 -0.21547619 1.25
-0.091666669 -0.21547619 1.25
-0.088928573 -0.21461429 1.245
-0.08627905 -0.21392478 1.2410001
-0.083577149 -0.21306285 1.2360001
-0.081222862 -0.21306285 1.2360001
-0.078868575 -0.21306285 1.2360001
-0.077071428 -0.21461429 1.245
-0.074999996 -0.21547619 1.25
-0.072619043 -0.21547619 1.25
-0.070238091 -0.21547619 1.25
-0.067857139 -0.21547619 1.25
-0.086904764 -0.21309523 1.25
-0.084185712 -0.21224286 1.245
-0.081814282 -0.21224286 1.245
-0.079442859 -0.21224286 1.245
-0.077380955 -0.21309523 1.25
-0.074699998 -0.21224286 1.245
-0.072096191 -0.21156096 1.2410001
-0.069732383 -0.21156096 1.2410001
-0.067857139 -0.21309523 1.25
-0.065476187 -0.21309523 1.25
-0.084523812 -0.21071428 1.25
-0.08214286 -0.21071428 1.25
-0.079761907 -0.21071428 1.25
-0.077380955 -0.21071428 1.25
-0.074699998 -0.20987143 1.245
-0.072096191 -0.20919715 1.2410001
-0.069732383 -0.20919715 1.2410001
-0.067368567 -0.20919715 1.2410001
-0.065214284 -0.20987143 1.245
-0.062842853 -0.20987143 1.245
-0.079761907 -0.20833333 1.25
-0.077380955 -0.20833333 1.25
-0.074999996 -0.20833333 1.25
-0.072096191 -0.20683333 1.2410001
-0.069732383 -0.20683333 1.2410001
-0.067368567 -0.20683333 1.2410001
-0.065214284 -0.2075 1.245
-0.062842853 -0.2075 1.245
-0.060714286 -0.20833333 1.25
-0.077380955 -0.20595238 1.25
-0.074999996 -0.20595238 1.25
-0.072096191 -0.20446953 1.2410001
-0.069451429 -0.20364572 1.2360001
-0.067097142 -0.20364572 1.2360001
-0.064742863 -0.20364572 1.2360001
-0.062388573 -0.20364572 1.2360001
-0.060277145 -0.20446953 1.2410001
-0.057913333 -0.20446953 1.2410001
-0.055952381 -0.20595238 1.25
-0.074460007 -0.20210573 1.2410001
-0.071805716 -0.20129144 1.2360001
-0.069451429 -0.20129144 1.2360001
-0.067097142 -0.20129144 1.2360001
-0.064742863 -0.20129144 1.2360001
-0.062388573 -0.20129144 1.2360001
-0.060034286 -0.20129144 1.2360001
-0.057680003 -0.20129144 1.2360001
-0.05572857 -0.20275715 1.245
-0.053571429 -0.20357142 1.25
-0.074460007 -0.1997419 1.2410001
-0.071805716 -0.19893715 1.2360001
-0.069451429 -0.19893715 1.2360001
-0.067097142 -0.19893715 1.2360001
-0.064533345 -0.19829336 1.2320001
-0.06218667 -0.19829336 1.2320001
-0.059840005 -0.19829336 1.2320001
-0.057493336 -0.19829336 1.2320001
-0.055325717 -0.19893715 1.2360001
-0.053185716 -0.1997419 1.2410001
-0.050985713 -0.2003857 1.245
-0.048614286 -0.2003857 1.245
-0.046428572 -0.20119047 1.25
-0.074460007 -0.1973781 1.2410001
-0.071805716 -0.19658287 1.2360001
-0.069226667 -0.19594668 1.2320001
-0.066880003 -0.19594668 1.2320001
-0.064533345 -0.19594668 1.2320001
-0.06218667 -0.19594668 1.2320001
-0.059840005 -0.19594668 1.2320001
-0.057493336 -0.19594668 1.2320001
-0.055146672 -0.19594668 1.2320001
-0.052800007 -0.19594668 1.2320001
-0.050617144 -0.19658287 1.2360001
-0.048262861 -0.19658287 1.2360001
-0.045908574 -0.19658287 1.2360001
-0.043730479 -0.1973781 1.2410001
-0.041666668 -0.19880952 1.25
-0.039285716 -0.19880952 1.25
-0.03690476 -0.19880952 1.25
-0.074460007 -0.1950143 1.2410001
-0.071805716 -0.19422857 1.2360001
-0.069226667 -0.19360001 1.2320001
-0.066880003 -0.19360001 1.2320001
-0.064533345 -0.19360001 1.2320001
-0.06218667 -0.19360001 1.2320001
-0.059840005 -0.19360001 1.2320001
-0.057493336 -0.19360001 1.2320001
-0.055146672 -0.19360001 1.2320001
-0.052800007 -0.19360001 1.2320001
-0.050453339 -0.19360001 1.2320001
-0.047911432 -0.19281431 1.2270001
-0.045574289 -0.19281431 1.2270001
-0.043413337 -0.19360001 1.2320001
-0.041200001 -0.19422857 1.2360001
-0.039128572 -0.19564286 1.245
-0.036757145 -0.19564286 1.245
-0.022619048 -0.19642857 1.25
-0.020238096 -0.19642857 1.25
-0.017785713 -0.19564286 1.245
-0.015414285 -0.19564286 1.245
-0.013042857 -0.19564286 1.245
-0.010671428 -0.19564286 1.245
-0.0083333328 -0.19642857 1.25
-0.074460007 -0.19265048 1.2410001
-0.071805716 -0.1918743 1.2360001
-0.069226667 -0.19125335 1.2320001
-0.066880003 -0.19125335 1.2320001
-0.064533345 -0.19125335 1.2320001
-0.06218667 -0.19125335 1.2320001
-0.059840005 -0.19125335 1.2320001
-0.057493336 -0.19125335 1.2320001
-0.054922864 -0.19047716 1.2270001
-0.052585717 -0.19047716 1.2270001
-0.050248574 -0.19047716 1.2270001
-0.047755238 -0.1898562 1.223
-0.045425717 -0.1898562 1.223
-0.043096192 -0.1898562 1.223
-0.040766668 -0.1898562 1.223
-0.03856286 -0.19047716 1.2270001
-0.036225718 -0.19047716 1.2270001
-0.034385715 -0.19327143 1.245
-0.022528572 -0.19327143 1.245
-0.020092381 -0.19265048 1.2410001
-0.017657144 -0.1918743 1.2360001
-0.015302857 -0.1918743 1.2360001
-0.013000953 -0.19265048 1.2410001
-0.010637144 -0.19265048 1.2410001
-0.0082733333 -0.19265048 1.2410001
-0.0059523811 -0.19404761 1.25
-0.076823808 -0.19028668 1.2410001
-0.074160002 -0.18952 1.2360001
-0.071805716 -0.18952 1.2360001
-0.069226667 -0.18890668 1.2320001
-0.066880003 -0.18890668 1.2320001
-0.064533345 -0.18890668 1.2320001
-0.06218667 -0.18890668 1.2320001
-0.059597149 -0.18814 1.2270001
-0.057260003 -0.18814 1.2270001
-0.054922864 -0.18814 1.2270001
-0.052414287 -0.18752667 1.223
-0.050084762 -0.18752667 1.223
-0.047755238 -0.18752667 1.223
-0.045277145 -0.18691334 1.2190001
-0.042955242 -0.18691334 1.2190001
-0.040633336 -0.18691334 1.2190001
-0.038437143 -0.18752667 1.223
-0.036107622 -0.18752667 1.223
-0.033888575 -0.18814 1.2270001
-0.031782858 -0.18952 1.2360001
-0.029642858 -0.1909 1.245
-0.02718381 -0.19028668 1.2410001
-0.02472 -0.18952 1.2360001
-0.022365715 -0.18952 1.2360001
-0.020011429 -0.18952 1.2360001
-0.017657144 -0.18952 1.2360001
-0.015302857 -0.18952 1.2360001
-0.012948572 -0.18952 1.2360001
-0.010594286 -0.18952 1.2360001
-0.0082400003 -0.18952 1.2360001
-0.0059285713 -0.1909 1.245
-0.079187624 -0.18792287 1.2410001
-0.076823808 -0.18792287 1.2410001
-0.074160002 -0.18716572 1.2360001
-0.071573339 -0.18656002 1.2320001
-0.069226667 -0.18656002 1.2320001
-0.066880003 -0.18656002 1.2320001
-0.064533345 -0.18656002 1.2320001
-0.061934292 -0.18580288 1.2270001
-0.059597149 -0.18580288 1.2270001
-0.057260003 -0.18580288 1.2270001
-0.054743811 -0.18519714 1.223
-0.052414287 -0.18519714 1.223
-0.050084762 -0.18519714 1.223
-0.047599051 -0.18459144 1.2190001
-0.045277145 -0.18459144 1.2190001
-0.042955242 -0.18459144 1.2190001
-0.040633336 -0.18459144 1.2190001
-0.038311433 -0.18459144 1.2190001
-0.035989527 -0.18459144 1.2190001
-0.033778097 -0.18519714 1.223
-0.031448569 -0.18519714 1.223
-0.029119048 -0.18519714 1.223
-0.026986668 -0.18656002 1.2320001
-0.024640001 -0.18656002 1.2320001
-0.022293337 -0.18656002 1.2320001
-0.019946668 -0.18656002 1.2320001
-0.017600002 -0.18656002 1.2320001
-0.015253334 -0.18656002 1.2320001
-0.012948572 -0.18716572 1.2360001
-0.010594286 -0.18716572 1.2360001
-0.0082400003 -0.18716572 1.2360001
-0.0059095239 -0.18792287 1.2410001
-0.079187624 -0.18555905 1.2410001
-0.076823808 -0.18555905 1.2410001
-0.074160002 -0.18481143 1.2360001
-0.071573339 -0.18421334 1.2320001
-0.068945721 -0.18346573 1.2270001
-0.066608571 -0.18346573 1.2270001
-0.064271435 -0.18346573 1.2270001
-0.061934292 -0.18346573 1.2270001
-0.059597149 -0.18346573 1.2270001
-0.057260003 -0.18346573 1.2270001
-0.054743811 -0.18286762 1.223
-0.052414287 -0.18286762 1.223
-0.050084762 -0.18286762 1.223
-0.047599051 -0.18226953 1.2190001
-0.045277145 -0.18226953 1.2190001
-0.042955242 -0.18226953 1.2190001
-0.040633336 -0.18226953 1.2190001
-0.038311433 -0.18226953 1.2190001
-0.035989527 -0.18226953 1.2190001
-0.03366762 -0.18226953 1.2190001
-0.031345718 -0.18226953 1.2190001
-0.029119048 -0.18286762 1.223
-0.026789526 -0.18286762 1.223
-0.024540002 -0.18346573 1.2270001
-0.022202859 -0.18346573 1.2270001
-0.019865716 -0.18346573 1.2270001
-0.017528573 -0.18346573 1.2270001
-0.015253334 -0.18421334 1.2320001
-0.012906668 -0.18421334 1.2320001
-0.010560001 -0.18421334 1.2320001
-0.0082400003 -0.18481143 1.2360001
-0.0059095239 -0.18555905 1.2410001
-0.003557143 -0.18615714 1.245
-0.079187624 -0.18319525 1.2410001
-0.076514289 -0.18245716 1.2360001
-0.074160002 -0.18245716 1.2360001
-0.071573339 -0.18186669 1.2320001
-0.068945721 -0.18112858 1.2270001
-0.066608571 -0.18112858 1.2270001
-0.064271435 -0.18112858 1.2270001
-0.061934292 -0.18112858 1.2270001
-0.059597149 -0.18112858 1.2270001
-0.057260003 -0.18112858 1.2270001
-0.054743811 -0.1805381 1.223
-0.052414287 -0.1805381 1.223
-0.050084762 -0.1805381 1.223
-0.047599051 -0.17994764 1.2190001
-0.045277145 -0.17994764 1.2190001
-0.042955242 -0.17994764 1.2190001
-0.040633336 -0.17994764 1.2190001
-0.038311433 -0.17994764 1.2190001
-0.035989527 -0.17994764 1.2190001
-0.03366762 -0.17994764 1.2190001
-0.031345718 -0.17994764 1.2190001
-0.029023811 -0.17994764 1.2190001
-0.026789526 -0.1805381 1.223
-0.024460001 -0.1805381 1.223
-0.022130478 -0.1805381 1.223
-0.019865716 -0.18112858 1.2270001
-0.017528573 -0.18112858 1.2270001
-0.015191429 -0.18112858 1.2270001
-0.012854287 -0.18112858 1.2270001
-0.010560001 -0.18186669 1.2320001
-0.0082133338 -0.18186669 1.2320001
-0.0058857147 -0.18245716 1.2360001
-0.003557143 -0.18378572 1.245
-0.078868575 -0.18010285 1.2360001
-0.076266676 -0.17952001 1.2320001
-0.073920004 -0.17952001 1.2320001
-0.071282864 -0.17879145 1.2270001
-0.068720959 -0.17820857 1.223
-0.066391431 -0.17820857 1.223
-0.064061902 -0.17820857 1.223
-0.061732382 -0.17820857 1.223
-0.059402857 -0.17820857 1.223
-0.057073336 -0.17820857 1.223
-0.054564763 -0.17762573 1.2190001
-0.05224286 -0.17762573 1.2190001
-0.049920954 -0.17762573 1.2190001
-0.047599051 -0.17762573 1.2190001
-0.045277145 -0.17762573 1.2190001
-0.042955242 -0.17762573 1.2190001
-0.040633336 -0.17762573 1.2190001
-0.038311433 -0.17762573 1.2190001
-0.035989527 -0.17762573 1.2190001
-0.03366762 -0.17762573 1.2190001
-0.031345718 -0.17762573 1.2190001
-0.029023811 -0.17762573 1.2190001
-0.026789526 -0.17820857 1.223
-0.024460001 -0.17820857 1.223
-0.022130478 -0.17820857 1.223
-0.019800952 -0.17820857 1.223
-0.017528573 -0.17879145 1.2270001
-0.015191429 -0.17879145 1.2270001
-0.012854287 -0.17879145 1.2270001
-0.010560001 -0.17952001 1.2320001
-0.0082133338 -0.17952001 1.2320001
-0.0058857147 -0.18010285 1.2360001
-0.003557143 -0.18141429 1.245
-0.078868575 -0.17774859 1.2360001
-0.075957149 -0.17645431 1.2270001
-0.073620006 -0.17645431 1.2270001
-0.071282864 -0.17645431 1.2270001
-0.068720959 -0.17587905 1.223
-0.066391431 -0.17587905 1.223
-0.064061902 -0.17587905 1.223
-0.061732382 -0.17587905 1.223
-0.059402857 -0.17587905 1.223
-0.057073336 -0.17587905 1.223
-0.054564763 -0.17530382 1.2190001
-0.05224286 -0.17530382 1.2190001
-0.049920954 -0.17530382 1.2190001
-0.047599051 -0.17530382 1.2190001
-0.045277145 -0.17530382 1.2190001
-0.042955242 -0.17530382 1.2190001
-0.040633336 -0.17530382 1.2190001
-0.038437143 -0.17587905 1.223
-0.036107622 -0.17587905 1.223
-0.033778097 -0.17587905 1.223
-0.031448569 -0.17587905 1.223
-0.029119048 -0.17587905 1.223
-0.026789526 -0.17587905 1.223
-0.024540002 -0.17645431 1.2270001
-0.022130478 -0.17587905 1.223
-0.019800952 -0.17587905 1.223
-0.017528573 -0.17645431 1.2270001
-0.015191429 -0.17645431 1.2270001
-0.012906668 -0.17717335 1.2320001
-0.010560001 -0.17717335 1.2320001
-0.0082400003 -0.17774859 1.2360001
-0.0059095239 -0.17846762 1.2410001
-0.081222862 -0.17539428 1.2360001
-0.078294292 -0.17411715 1.2270001
-0.075709529 -0.17354953 1.223
-0.073380001 -0.17354953 1.223
-0.071282864 -0.17411715 1.2270001
-0.068720959 -0.17354953 1.223
-0.066391431 -0.17354953 1.223
-0.064061902 -0.17354953 1.223
-0.061732382 -0.17354953 1.223
-0.059402857 -0.17354953 1.223
-0.057073336 -0.17354953 1.223
-0.054564763 -0.17298192 1.2190001
-0.05224286 -0.17298192 1.2190001
-0.049920954 -0.17298192 1.2190001
-0.047755238 -0.17354953 1.223
-0.045425717 -0.17354953 1.223
-0.043096192 -0.17354953 1.223
-0.040766668 -0.17354953 1.223
-0.038437143 -0.17354953 1.223
-0.036107622 -0.17354953 1.223
-0.033778097 -0.17354953 1.223
-0.031448569 -0.17354953 1.223
-0.029214289 -0.17411715 1.2270001
-0.026986668 -0.17482668 1.2320001
-0.024540002 -0.17411715 1.2270001
-0.022202859 -0.17411715 1.2270001
-0.019865716 -0.17411715 1.2270001
-0.017600002 -0.17482668 1.2320001
-0.015302857 -0.17539428 1.2360001
-0.013000953 -0.17610382 1.2410001
-0.010671428 -0.17667143 1.245
-0.083577149 -0.17304002 1.2360001
-0.080960013 -0.17248002 1.2320001
-0.078294292 -0.17178002 1.2270001
-0.075709529 -0.17122 1.223
-0.073380001 -0.17122 1.223
-0.071282864 -0.17178002 1.2270001
-0.068720959 -0.17122 1.223
-0.066391431 -0.17122 1.223
-0.064061902 -0.17122 1.223
-0.061732382 -0.17122 1.223
-0.059402857 -0.17122 1.223
-0.057073336 -0.17122 1.223
-0.054743811 -0.17122 1.223
-0.052414287 -0.17122 1.223
-0.050084762 -0.17122 1.223
-0.047755238 -0.17122 1.223
-0.045425717 -0.17122 1.223
-0.043096192 -0.17122 1.223
-0.040766668 -0.17122 1.223
-0.03856286 -0.17178002 1.2270001
-0.036225718 -0.17178002 1.2270001
-0.033778097 -0.17122 1.223
-0.031448569 -0.17122 1.223
-0.029428573 -0.17304002 1.2360001
-0.02718381 -0.17374 1.2410001
-0.02472 -0.17304002 1.2360001
-0.022365715 -0.17304002 1.2360001
-0.020011429 -0.17304002 1.2360001
-0.017785713 -0.1743 1.245
-0.015414285 -0.1743 1.245
-0.098098099 -0.1713762 1.2410001
-0.095348574 -0.17068571 1.2360001
-0.092994288 -0.17068571 1.2360001
-0.090640001 -0.17068571 1.2360001
-0.088285714 -0.17068571 1.2360001
-0.085653335 -0.17013335 1.2320001
-0.08330667 -0.17013335 1.2320001
-0.080631435 -0.16944288 1.2270001
-0.078294292 -0.16944288 1.2270001
-0.075957149 -0.16944288 1.2270001
-0.073620006 -0.16944288 1.2270001
-0.071282864 -0.16944288 1.2270001
-0.068720959 -0.16889048 1.223
-0.066391431 -0.16889048 1.223
-0.064061902 -0.16889048 1.223
-0.061732382 -0.16889048 1.223
-0.059402857 -0.16889048 1.223
-0.057073336 -0.16889048 1.223
-0.054743811 -0.16889048 1.223
-0.052414287 -0.16889048 1.223
-0.050248574 -0.16944288 1.2270001
-0.04810667 -0.17013335 1.2320001
-0.046094287 -0.1713762 1.2410001
-0.029642858 -0.17192857 1.245
-0.027271429 -0.17192857 1.245
-0.024900001 -0.17192857 1.245
-0.022528572 -0.17192857 1.245
-0.10518952 -0.1690124 1.2410001
-0.10241143 -0.16833144 1.2360001
-0.10005715 -0.16833144 1.2360001
-0.096991435 -0.16710572 1.2270001
-0.094654292 -0.16710572 1.2270001
-0.09201619 -0.16656096 1.223
-0.089686669 -0.16656096 1.223
-0.087357149 -0.16656096 1.223
-0.085027628 -0.16656096 1.223
-0.082698092 -0.16656096 1.223
-0.080368571 -0.16656096 1.223
-0.07803905 -0.16656096 1.223
-0.075709529 -0.16656096 1.223
-0.073620006 -0.16710572 1.2270001
-0.071282864 -0.16710572 1.2270001
-0.068945721 -0.16710572 1.2270001
-0.066608571 -0.16710572 1.2270001
-0.064271435 -0.16710572 1.2270001
-0.06218667 -0.16778667 1.2320001
-0.059840005 -0.16778667 1.2320001
-0.057493336 -0.16778667 1.2320001
-0.055325717 -0.16833144 1.2360001
-0.1172562 -0.16369429 1.2190001
-0.11493429 -0.16369429 1.2190001
-0.11464477 -0.16664857 1.2410001
-0.11182857 -0.16597714 1.2360001
-0.10947429 -0.16597714 1.2360001
-0.10677334 -0.16544002 1.2320001
-0.10400286 -0.16476859 1.2270001
-0.10166572 -0.16476859 1.2270001
-0.099328585 -0.16476859 1.2270001
-0.09667524 -0.16423143 1.223
-0.094345719 -0.16423143 1.223
-0.091715246 -0.16369429 1.2190001
-0.08939334 -0.16369429 1.2190001
-0.087071441 -0.16369429 1.2190001
-0.084749527 -0.16369429 1.2190001
-0.082698092 -0.16423143 1.223
-0.080368571 -0.16423143 1.223
-0.07803905 -0.16423143 1.223
-0.075709529 -0.16423143 1.223
-0.073920004 -0.16544002 1.2320001
-0.071573339 -0.16544002 1.2320001
-0.069451429 -0.16597714 1.2360001
-0.067097142 -0.16597714 1.2360001
-0.064742863 -0.16597714 1.2360001
-0.062640958 -0.16664857 1.2410001
-0.060277145 -0.16664857 1.2410001
-0.057913333 -0.16664857 1.2410001
-0.1172562 -0.16137239 1.2190001
-0.11493429 -0.16137239 1.2190001
-0.11418286 -0.16362287 1.2360001
-0.11182857 -0.16362287 1.2360001
-0.10947429 -0.16362287 1.2360001
-0.10677334 -0.16309334 1.2320001
-0.10400286 -0.16243143 1.2270001
-0.10166572 -0.16243143 1.2270001
-0.099328585 -0.16243143 1.2270001
-0.096359059 -0.16137239 1.2190001
-0.094037145 -0.16137239 1.2190001
-0.091715246 -0.16137239 1.2190001
-0.08939334 -0.16137239 1.2190001
-0.087071441 -0.16137239 1.2190001
-0.084749527 -0.16137239 1.2190001
-0.082427621 -0.16137239 1.2190001
-0.080368571 -0.16190191 1.223
-0.07803905 -0.16190191 1.223
-0.075957149 -0.16243143 1.2270001
-0.074460007 -0.16428477 1.2410001
-0.12124572 -0.16126858 1.2360001
-0.11764096 -0.15957239 1.223
-0.11531143 -0.15957239 1.223
-0.11335144 -0.16009429 1.2270001
-0.11101429 -0.16009429 1.2270001
-0.10867715 -0.16009429 1.2270001
-0.10677334 -0.16074668 1.2320001
-0.10366382 -0.15957239 1.223
-0.10133429 -0.15957239 1.223
-0.098680958 -0.15905049 1.2190001
-0.096359059 -0.15905049 1.2190001
-0.094037145 -0.15905049 1.2190001
-0.091715246 -0.15905049 1.2190001
-0.08939334 -0.15905049 1.2190001
-0.087071441 -0.15905049 1.2190001
-0.084749527 -0.15905049 1.2190001
-0.082427621 -0.15905049 1.2190001
-0.080368571 -0.15957239 1.223
-0.07803905 -0.15957239 1.223
-0.076514289 -0.16126858 1.2360001
-0.12124572 -0.1589143 1.2360001
-0.11802572 -0.15775716 1.2270001
-0.11568858 -0.15775716 1.2270001
-0.11335144 -0.15775716 1.2270001
-0.11101429 -0.15775716 1.2270001
-0.10867715 -0.15775716 1.2270001
-0.10677334 -0.15840001 1.2320001
-0.10366382 -0.15724286 1.223
-0.10133429 -0.15724286 1.223
-0.098680958 -0.15672858 1.2190001
-0.096359059 -0.15672858 1.2190001
-0.094037145 -0.15672858 1.2190001
-0.091715246 -0.15672858 1.2190001
-0.08939334 -0.15672858 1.2190001
-0.087071441 -0.15672858 1.2190001
-0.084749527 -0.15672858 1.2190001
-0.082427621 -0.15672858 1.2190001
-0.11850668 -0.15605335 1.2320001
-0.11616001 -0.15605335 1.2320001
-0.11381335 -0.15605335 1.2320001
-0.11146668 -0.15605335 1.2320001
-0.10912001 -0.15605335 1.2320001
-0.10677334 -0.15605335 1.2320001
-0.10400286 -0.15542001 1.2270001
-0.10133429 -0.15491334 1.223
-0.09900476 -0.15491334 1.223
-0.096359059 -0.15440668 1.2190001
-0.094037145 -0.15440668 1.2190001
-0.091715246 -0.15440668 1.2190001
-0.08939334 -0.15440668 1.2190001
-0.087071441 -0.15440668 1.2190001
-0.084749527 -0.15440668 1.2190001
-0.10241143 -0.15420572 1.2360001
-0.099733338 -0.15370668 1.2320001
-0.09667524 -0.15258382 1.223
-0.094345719 -0.15258382 1.223
-0.092693344 -0.15370668 1.2320001
-0.089686669 -0.15258382 1.223
-0.087357149 -0.15258382 1.223
-0.034494691 -0.15891182 1.212777
0 0 0 1 0 0 0 1 0 0 0 1 0 0 0 0 0 649 1 0 0
