ply
format ascii 1.0
comment PCL generated
element vertex 1074
property float x
property float y
property float z
property uchar red
property uchar green
property uchar blue
property uchar alpha
element camera 1
property float view_px
property float view_py
property float view_pz
property float x_axisx
property float x_axisy
property float x_axisz
property float y_axisx
property float y_axisy
property float y_axisz
property float z_axisx
property float z_axisy
property float z_axisz
property float focal
property float scalex
property float scaley
property float centerx
property float centery
property int viewportx
property int viewporty
property float k1
property float k2
end_header
0.39820668 -0.23567335 1.2190001 0 255 248 255
0.40052858 -0.23567335 1.2190001 0 255 248 255
0.40119812 -0.23470668 1.2140001 0 255 248 255
0.40351051 -0.23470668 1.2140001 0 255 248 255
0.40448573 -0.23393333 1.21 0 255 248 255
0.40679047 -0.23393333 1.21 0 255 248 255
0.37221906 -0.23162858 1.21 0 255 248 255
0.37452382 -0.23162858 1.21 0 255 248 255
0.37807432 -0.23239431 1.2140001 0 255 248 255
0.38038671 -0.23239431 1.2140001 0 255 248 255
0.38269907 -0.23239431 1.2140001 0 255 248 255
0.38501143 -0.23239431 1.2140001 0 255 248 255
0.38732383 -0.23239431 1.2140001 0 255 248 255
0.38963622 -0.23239431 1.2140001 0 255 248 255
0.39194861 -0.23239431 1.2140001 0 255 248 255
0.39426097 -0.23239431 1.2140001 0 255 248 255
0.39657336 -0.23239431 1.2140001 0 255 248 255
0.39888576 -0.23239431 1.2140001 0 255 248 255
0.39987621 -0.23162858 1.21 0 255 248 255
0.40218097 -0.23162858 1.21 0 255 248 255
0.40448573 -0.23162858 1.21 0 255 248 255
0.40544572 -0.23086287 1.2060001 0 255 248 255
0.40774289 -0.23086287 1.2060001 0 255 248 255
0.36760953 -0.22932382 1.21 0 255 248 255
0.36991429 -0.22932382 1.21 0 255 248 255
0.37221906 -0.22932382 1.21 0 255 248 255
0.37452382 -0.22932382 1.21 0 255 248 255
0.37807432 -0.23008192 1.2140001 0 255 248 255
0.38038671 -0.23008192 1.2140001 0 255 248 255
0.38269907 -0.23008192 1.2140001 0 255 248 255
0.38501143 -0.23008192 1.2140001 0 255 248 255
0.38732383 -0.23008192 1.2140001 0 255 248 255
0.38963622 -0.23008192 1.2140001 0 255 248 255
0.39194861 -0.23008192 1.2140001 0 255 248 255
0.39426097 -0.23008192 1.2140001 0 255 248 255
0.39657336 -0.23008192 1.2140001 0 255 248 255
0.39888576 -0.23008192 1.2140001 0 255 248 255
0.39987621 -0.22932382 1.21 0 255 248 255
0.40218097 -0.22932382 1.21 0 255 248 255
0.40448573 -0.22932382 1.21 0 255 248 255
0.40544572 -0.22856572 1.2060001 0 255 248 255
0.40639049 -0.22780761 1.202 0 255 248 255
0.40868002 -0.22780761 1.202 0 255 248 255
0.36760953 -0.22701906 1.21 0 255 248 255
0.36991429 -0.22701906 1.21 0 255 248 255
0.37221906 -0.22701906 1.21 0 255 248 255
0.37730953 -0.22870764 1.2190001 0 255 248 255
0.37963146 -0.22870764 1.2190001 0 255 248 255
0.38195336 -0.22870764 1.2190001 0 255 248 255
0.38427529 -0.22870764 1.2190001 0 255 248 255
0.38659716 -0.22870764 1.2190001 0 255 248 255
0.38891906 -0.22870764 1.2190001 0 255 248 255
0.38963622 -0.22776954 1.2140001 0 255 248 255
0.39194861 -0.22776954 1.2140001 0 255 248 255
0.39426097 -0.22776954 1.2140001 0 255 248 255
0.39657336 -0.22776954 1.2140001 0 255 248 255
0.39888576 -0.22776954 1.2140001 0 255 248 255
0.39987621 -0.22701906 1.21 0 255 248 255
0.40218097 -0.22701906 1.21 0 255 248 255
0.40448573 -0.22701906 1.21 0 255 248 255
0.40544572 -0.22626859 1.2060001 0 255 248 255
0.40639049 -0.22551809 1.202 0 255 248 255
0.40868002 -0.22551809 1.202 0 255 248 255
0.41096953 -0.22551809 1.202 0 255 248 255
0.41325903 -0.22551809 1.202 0 255 248 255
0.36420003 -0.22545716 1.2140001 0 255 248 255
0.36651242 -0.22545716 1.2140001 0 255 248 255
0.36882478 -0.22545716 1.2140001 0 255 248 255
0.37113717 -0.22545716 1.2140001 0 255 248 255
0.37498763 -0.22638573 1.2190001 0 255 248 255
0.37854761 -0.22712858 1.223 0 255 248 255
0.38087717 -0.22712858 1.223 0 255 248 255
0.38195336 -0.22638573 1.2190001 0 255 248 255
0.38427529 -0.22638573 1.2190001 0 255 248 255
0.38659716 -0.22638573 1.2190001 0 255 248 255
0.38891906 -0.22638573 1.2190001 0 255 248 255
0.39124098 -0.22638573 1.2190001 0 255 248 255
0.39356288 -0.22638573 1.2190001 0 255 248 255
0.39588481 -0.22638573 1.2190001 0 255 248 255
0.39820668 -0.22638573 1.2190001 0 255 248 255
0.39888576 -0.22545716 1.2140001 0 255 248 255
0.39987621 -0.22471429 1.21 0 255 248 255
0.40218097 -0.22471429 1.21 0 255 248 255
0.40448573 -0.22471429 1.21 0 255 248 255
0.40544572 -0.22397144 1.2060001 0 255 248 255
0.40774289 -0.22397144 1.2060001 0 255 248 255
0.40868002 -0.22322857 1.202 0 255 248 255
0.41096953 -0.22322857 1.202 0 255 248 255
0.41325903 -0.22322857 1.202 0 255 248 255
0.41554859 -0.22322857 1.202 0 255 248 255
0.36420003 -0.22314477 1.2140001 0 255 248 255
0.36651242 -0.22314477 1.2140001 0 255 248 255
0.37034383 -0.22406381 1.2190001 0 255 248 255
0.37266576 -0.22406381 1.2190001 0 255 248 255
0.37498763 -0.22406381 1.2190001 0 255 248 255
0.37854761 -0.22479907 1.223 0 255 248 255
0.38212287 -0.2255343 1.2270001 0 255 248 255
0.38320667 -0.22479907 1.223 0 255 248 255
0.38553619 -0.22479907 1.223 0 255 248 255
0.38786572 -0.22479907 1.223 0 255 248 255
0.39019525 -0.22479907 1.223 0 255 248 255
0.39252478 -0.22479907 1.223 0 255 248 255
0.39356288 -0.22406381 1.2190001 0 255 248 255
0.39588481 -0.22406381 1.2190001 0 255 248 255
0.39820668 -0.22406381 1.2190001 0 255 248 255
0.40052858 -0.22406381 1.2190001 0 255 248 255
0.40119812 -0.22314477 1.2140001 0 255 248 255
0.40351051 -0.22314477 1.2140001 0 255 248 255
0.4058229 -0.22314477 1.2140001 0 255 248 255
0.40544572 -0.22167429 1.2060001 0 255 248 255
0.40774289 -0.22167429 1.2060001 0 255 248 255
0.41004002 -0.22167429 1.2060001 0 255 248 255
0.41096953 -0.22093906 1.202 0 255 248 255
0.41325903 -0.22093906 1.202 0 255 248 255
0.41554859 -0.22093906 1.202 0 255 248 255
0.36337811 -0.22174193 1.2190001 0 255 248 255
0.36570004 -0.22174193 1.2190001 0 255 248 255
0.36802194 -0.22174193 1.2190001 0 255 248 255
0.37034383 -0.22174193 1.2190001 0 255 248 255
0.37388858 -0.22246952 1.223 0 255 248 255
0.37744862 -0.22319716 1.2270001 0 255 248 255
0.37978575 -0.22319716 1.2270001 0 255 248 255
0.38212287 -0.22319716 1.2270001 0 255 248 255
0.38446003 -0.22319716 1.2270001 0 255 248 255
0.38679716 -0.22319716 1.2270001 0 255 248 255
0.38913432 -0.22319716 1.2270001 0 255 248 255
0.39147148 -0.22319716 1.2270001 0 255 248 255
0.39380863 -0.22319716 1.2270001 0 255 248 255
0.39485431 -0.22246952 1.223 0 255 248 255
0.39718384 -0.22246952 1.223 0 255 248 255
0.39951333 -0.22246952 1.223 0 255 248 255
0.40052858 -0.22174193 1.2190001 0 255 248 255
0.40119812 -0.22083241 1.2140001 0 255 248 255
0.40351051 -0.22083241 1.2140001 0 255 248 255
0.4058229 -0.22083241 1.2140001 0 255 248 255
0.40679047 -0.22010475 1.21 0 255 248 255
0.40909526 -0.22010475 1.21 0 255 248 255
0.41139999 -0.22010475 1.21 0 255 248 255
0.41233718 -0.21937716 1.2060001 0 255 248 255
0.41463432 -0.21937716 1.2060001 0 255 248 255
0.41693148 -0.21937716 1.2060001 0 255 248 255
0.3649067 -0.22176002 1.2320001 0 255 248 255
0.36576289 -0.22086002 1.2270001 0 255 248 255
0.36810002 -0.22086002 1.2270001 0 255 248 255
0.36922953 -0.22014 1.223 0 255 248 255
0.37155905 -0.22014 1.223 0 255 248 255
0.37664005 -0.22176002 1.2320001 0 255 248 255
0.37898669 -0.22176002 1.2320001 0 255 248 255
0.38133335 -0.22176002 1.2320001 0 255 248 255
0.38368005 -0.22176002 1.2320001 0 255 248 255
0.38602668 -0.22176002 1.2320001 0 255 248 255
0.38679716 -0.22086002 1.2270001 0 255 248 255
0.38913432 -0.22086002 1.2270001 0 255 248 255
0.3930667 -0.22176002 1.2320001 0 255 248 255
0.39380863 -0.22086002 1.2270001 0 255 248 255
0.39614573 -0.22086002 1.2270001 0 255 248 255
0.39848289 -0.22086002 1.2270001 0 255 248 255
0.39951333 -0.22014 1.223 0 255 248 255
0.40052858 -0.21942002 1.2190001 0 255 248 255
0.40285051 -0.21942002 1.2190001 0 255 248 255
0.40517241 -0.21942002 1.2190001 0 255 248 255
0.40749434 -0.21942002 1.2190001 0 255 248 255
0.40813527 -0.21852002 1.2140001 0 255 248 255
0.41044766 -0.21852002 1.2140001 0 255 248 255
0.41276005 -0.21852002 1.2140001 0 255 248 255
0.41370478 -0.21780001 1.21 0 255 248 255
0.41600955 -0.21780001 1.21 0 255 248 255
0.41831428 -0.21780001 1.21 0 255 248 255
0.42061907 -0.21780001 1.21 0 255 248 255
0.3649067 -0.21941335 1.2320001 0 255 248 255
0.36725336 -0.21941335 1.2320001 0 255 248 255
0.36960003 -0.21941335 1.2320001 0 255 248 255
0.37194669 -0.21941335 1.2320001 0 255 248 255
0.37429336 -0.21941335 1.2320001 0 255 248 255
0.37786287 -0.22012573 1.2360001 0 255 248 255
0.38021716 -0.22012573 1.2360001 0 255 248 255
0.38257143 -0.22012573 1.2360001 0 255 248 255
0.38368005 -0.21941335 1.2320001 0 255 248 255
0.38602668 -0.21941335 1.2320001 0 255 248 255
0.38837335 -0.21941335 1.2320001 0 255 248 255
0.39072004 -0.21941335 1.2320001 0 255 248 255
0.3930667 -0.21941335 1.2320001 0 255 248 255
0.39541337 -0.21941335 1.2320001 0 255 248 255
0.39776003 -0.21941335 1.2320001 0 255 248 255
0.4001067 -0.21941335 1.2320001 0 255 248 255
0.40082005 -0.21852288 1.2270001 0 255 248 255
0.40184289 -0.21781048 1.223 0 255 248 255
0.40285051 -0.21709812 1.2190001 0 255 248 255
0.40517241 -0.21709812 1.2190001 0 255 248 255
0.40749434 -0.21709812 1.2190001 0 255 248 255
0.40813527 -0.21620764 1.2140001 0 255 248 255
0.41044766 -0.21620764 1.2140001 0 255 248 255
0.41276005 -0.21620764 1.2140001 0 255 248 255
0.41507241 -0.21620764 1.2140001 0 255 248 255
0.41738477 -0.21620764 1.2140001 0 255 248 255
0.41831428 -0.21549524 1.21 0 255 248 255
0.4178381 -0.21407047 1.202 0 255 248 255
0.42012763 -0.21407047 1.202 0 255 248 255
0.3649067 -0.21706668 1.2320001 0 255 248 255
0.36725336 -0.21706668 1.2320001 0 255 248 255
0.36960003 -0.21706668 1.2320001 0 255 248 255
0.37194669 -0.21706668 1.2320001 0 255 248 255
0.37550861 -0.21777143 1.2360001 0 255 248 255
0.37939143 -0.21865238 1.2410001 0 255 248 255
0.38175526 -0.21865238 1.2410001 0 255 248 255
0.38257143 -0.21777143 1.2360001 0 255 248 255
0.38492572 -0.21777143 1.2360001 0 255 248 255
0.38728002 -0.21777143 1.2360001 0 255 248 255
0.38963431 -0.21777143 1.2360001 0 255 248 255
0.39198858 -0.21777143 1.2360001 0 255 248 255
0.39434287 -0.21777143 1.2360001 0 255 248 255
0.39669716 -0.21777143 1.2360001 0 255 248 255
0.39905146 -0.21777143 1.2360001 0 255 248 255
0.4001067 -0.21706668 1.2320001 0 255 248 255
0.40245336 -0.21706668 1.2320001 0 255 248 255
0.40315717 -0.21618573 1.2270001 0 255 248 255
0.40417239 -0.21548095 1.223 0 255 248 255
0.40517241 -0.2147762 1.2190001 0 255 248 255
0.40749434 -0.2147762 1.2190001 0 255 248 255
0.40981624 -0.2147762 1.2190001 0 255 248 255
0.4121381 -0.2147762 1.2190001 0 255 248 255
0.41276005 -0.21389526 1.2140001 0 255 248 255
0.41507241 -0.21389526 1.2140001 0 255 248 255
0.41738477 -0.21389526 1.2140001 0 255 248 255
0.41831428 -0.21319048 1.21 0 255 248 255
0.4178381 -0.21178097 1.202 0 255 248 255
0.42012763 -0.21178097 1.202 0 255 248 255
0.36256003 -0.21472003 1.2320001 0 255 248 255
0.3649067 -0.21472003 1.2320001 0 255 248 255
0.36725336 -0.21472003 1.2320001 0 255 248 255
0.36960003 -0.21472003 1.2320001 0 255 248 255
0.37315428 -0.21541716 1.2360001 0 255 248 255
0.37550861 -0.21541716 1.2360001 0 255 248 255
0.37939143 -0.21628858 1.2410001 0 255 248 255
0.38175526 -0.21628858 1.2410001 0 255 248 255
0.38411906 -0.21628858 1.2410001 0 255 248 255
0.38492572 -0.21541716 1.2360001 0 255 248 255
0.38728002 -0.21541716 1.2360001 0 255 248 255
0.38963431 -0.21541716 1.2360001 0 255 248 255
0.39198858 -0.21541716 1.2360001 0 255 248 255
0.39434287 -0.21541716 1.2360001 0 255 248 255
0.39669716 -0.21541716 1.2360001 0 255 248 255
0.39905146 -0.21541716 1.2360001 0 255 248 255
0.40140572 -0.21541716 1.2360001 0 255 248 255
0.40376002 -0.21541716 1.2360001 0 255 248 255
0.40315717 -0.21384859 1.2270001 0 255 248 255
0.40417239 -0.21315143 1.223 0 255 248 255
0.40650192 -0.21315143 1.223 0 255 248 255
0.40883145 -0.21315143 1.223 0 255 248 255
0.40981624 -0.21245429 1.2190001 0 255 248 255
0.4121381 -0.21245429 1.2190001 0 255 248 255
0.41446003 -0.21245429 1.2190001 0 255 248 255
0.41507241 -0.21158287 1.2140001 0 255 248 255
0.41738477 -0.21158287 1.2140001 0 255 248 255
0.41831428 -0.21088572 1.21 0 255 248 255
0.42061907 -0.21088572 1.21 0 255 248 255
0.4229238 -0.21088572 1.21 0 255 248 255
0.4252286 -0.21088572 1.21 0 255 248 255
0.36021337 -0.21237335 1.2320001 0 255 248 255
0.36256003 -0.21237335 1.2320001 0 255 248 255
0.3649067 -0.21237335 1.2320001 0 255 248 255
0.36844572 -0.21306285 1.2360001 0 255 248 255
0.37080002 -0.21306285 1.2360001 0 255 248 255
0.37315428 -0.21306285 1.2360001 0 255 248 255
0.37702763 -0.21392478 1.2410001 0 255 248 255
0.37939143 -0.21392478 1.2410001 0 255 248 255
0.38175526 -0.21392478 1.2410001 0 255 248 255
0.38411906 -0.21392478 1.2410001 0 255 248 255
0.38648286 -0.21392478 1.2410001 0 255 248 255
0.3888467 -0.21392478 1.2410001 0 255 248 255
0.3912105 -0.21392478 1.2410001 0 255 248 255
0.3935743 -0.21392478 1.2410001 0 255 248 255
0.39434287 -0.21306285 1.2360001 0 255 248 255
0.39669716 -0.21306285 1.2360001 0 255 248 255
0.39905146 -0.21306285 1.2360001 0 255 248 255
0.40140572 -0.21306285 1.2360001 0 255 248 255
0.40376002 -0.21306285 1.2360001 0 255 248 255
0.40480003 -0.21237335 1.2320001 0 255 248 255
0.40549433 -0.21151145 1.2270001 0 255 248 255
0.40650192 -0.21082191 1.223 0 255 248 255
0.40883145 -0.21082191 1.223 0 255 248 255
0.40981624 -0.21013241 1.2190001 0 255 248 255
0.4121381 -0.21013241 1.2190001 0 255 248 255
0.41446003 -0.21013241 1.2190001 0 255 248 255
0.41507241 -0.20927049 1.2140001 0 255 248 255
0.41738477 -0.20927049 1.2140001 0 255 248 255
0.41831428 -0.20858096 1.21 0 255 248 255
0.42061907 -0.20858096 1.21 0 255 248 255
0.4229238 -0.20858096 1.21 0 255 248 255
0.4252286 -0.20858096 1.21 0 255 248 255
0.42753333 -0.20858096 1.21 0 255 248 255
0.3578667 -0.21002668 1.2320001 0 255 248 255
0.36021337 -0.21002668 1.2320001 0 255 248 255
0.36256003 -0.21002668 1.2320001 0 255 248 255
0.3649067 -0.21002668 1.2320001 0 255 248 255
0.3699362 -0.21156096 1.2410001 0 255 248 255
0.3723 -0.21156096 1.2410001 0 255 248 255
0.3746638 -0.21156096 1.2410001 0 255 248 255
0.37702763 -0.21156096 1.2410001 0 255 248 255
0.37939143 -0.21156096 1.2410001 0 255 248 255
0.38175526 -0.21156096 1.2410001 0 255 248 255
0.38411906 -0.21156096 1.2410001 0 255 248 255
0.38648286 -0.21156096 1.2410001 0 255 248 255
0.3888467 -0.21156096 1.2410001 0 255 248 255
0.3912105 -0.21156096 1.2410001 0 255 248 255
0.39642856 -0.21309523 1.25 0 255 248 255
0.39721429 -0.21224286 1.245 0 255 248 255
0.39958572 -0.21224286 1.245 0 255 248 255
0.40195712 -0.21224286 1.245 0 255 248 255
0.40302956 -0.21156096 1.2410001 0 255 248 255
0.40539336 -0.21156096 1.2410001 0 255 248 255
0.40480003 -0.21002668 1.2320001 0 255 248 255
0.40714669 -0.21002668 1.2320001 0 255 248 255
0.40783146 -0.20917431 1.2270001 0 255 248 255
0.41016859 -0.20917431 1.2270001 0 255 248 255
0.41116098 -0.20849238 1.223 0 255 248 255
0.4121381 -0.20781049 1.2190001 0 255 248 255
0.41446003 -0.20781049 1.2190001 0 255 248 255
0.41678193 -0.20781049 1.2190001 0 255 248 255
0.41738477 -0.2069581 1.2140001 0 255 248 255
0.41969717 -0.2069581 1.2140001 0 255 248 255
0.42061907 -0.20627619 1.21 0 255 248 255
0.4229238 -0.20627619 1.21 0 255 248 255
0.4252286 -0.20627619 1.21 0 255 248 255
0.42753333 -0.20627619 1.21 0 255 248 255
0.42983812 -0.20627619 1.21 0 255 248 255
0.36401427 -0.20987143 1.245 0 255 248 255
0.3663857 -0.20987143 1.245 0 255 248 255
0.36875716 -0.20987143 1.245 0 255 248 255
0.37112856 -0.20987143 1.245 0 255 248 255
0.37349999 -0.20987143 1.245 0 255 248 255
0.37738094 -0.21071428 1.25 0 255 248 255
0.3797619 -0.21071428 1.25 0 255 248 255
0.38214284 -0.21071428 1.25 0 255 248 255
0.38452381 -0.21071428 1.25 0 255 248 255
0.38690475 -0.21071428 1.25 0 255 248 255
0.38928571 -0.21071428 1.25 0 255 248 255
0.3901 -0.20987143 1.245 0 255 248 255
0.39247143 -0.20987143 1.245 0 255 248 255
0.39642856 -0.21071428 1.25 0 255 248 255
0.39880952 -0.21071428 1.25 0 255 248 255
0.40119046 -0.21071428 1.25 0 255 248 255
0.40357143 -0.21071428 1.25 0 255 248 255
0.40432858 -0.20987143 1.245 0 255 248 255
0.40669999 -0.20987143 1.245 0 255 248 255
0.40775716 -0.20919715 1.2410001 0 255 248 255
0.40714669 -0.20768002 1.2320001 0 255 248 255
0.40949339 -0.20768002 1.2320001 0 255 248 255
0.41016859 -0.20683716 1.2270001 0 255 248 255
0.41116098 -0.20616287 1.223 0 255 248 255
0.41349047 -0.20616287 1.223 0 255 248 255
0.41446003 -0.20548858 1.2190001 0 255 248 255
0.41678193 -0.20548858 1.2190001 0 255 248 255
0.41738477 -0.20464574 1.2140001 0 255 248 255
0.41969717 -0.20464574 1.2140001 0 255 248 255
0.42200956 -0.20464574 1.2140001 0 255 248 255
0.4229238 -0.20397145 1.21 0 255 248 255
0.4252286 -0.20397145 1.21 0 255 248 255
0.42612001 -0.20329715 1.2060001 0 255 248 255
0.4269962 -0.20262285 1.202 0 255 248 255
0.42928571 -0.20262285 1.202 0 255 248 255
0.36977619 -0.21216665 1.273 0 255 248 255
0.37220097 -0.21216665 1.273 0 255 248 255
0.36932862 -0.20916668 1.2550001 0 255 248 255
0.37171906 -0.20916668 1.2550001 0 255 248 255
0.37410954 -0.20916668 1.2550001 0 255 248 255
0.37650004 -0.20916668 1.2550001 0 255 248 255
0.37889048 -0.20916668 1.2550001 0 255 248 255
0.38128099 -0.20916668 1.2550001 0 255 248 255
0.38367146 -0.20916668 1.2550001 0 255 248 255
0.38606194 -0.20916668 1.2550001 0 255 248 255
0.38845241 -0.20916668 1.2550001 0 255 248 255
0.39084288 -0.20916668 1.2550001 0 255 248 255
0.39323339 -0.20916668 1.2550001 0 255 248 255
0.39562383 -0.20916668 1.2550001 0 255 248 255
0.39801431 -0.20916668 1.2550001 0 255 248 255
0.39880952 -0.20833333 1.25 0 255 248 255
0.40119046 -0.20833333 1.25 0 255 248 255
0.40357143 -0.20833333 1.25 0 255 248 255
0.40595236 -0.20833333 1.25 0 255 248 255
0.40833333 -0.20833333 1.25 0 255 248 255
0.40775716 -0.20683333 1.2410001 0 255 248 255
0.4084686 -0.20600002 1.2360001 0 255 248 255
0.41082287 -0.20600002 1.2360001 0 255 248 255
0.41184002 -0.20533335 1.2320001 0 255 248 255
0.41250575 -0.20450002 1.2270001 0 255 248 255
0.41349047 -0.20383334 1.223 0 255 248 255
0.41446003 -0.20316668 1.2190001 0 255 248 255
0.41678193 -0.20316668 1.2190001 0 255 248 255
0.41910386 -0.20316668 1.2190001 0 255 248 255
0.41969717 -0.20233335 1.2140001 0 255 248 255
0.42200956 -0.20233335 1.2140001 0 255 248 255
0.4229238 -0.20166667 1.21 0 255 248 255
0.4252286 -0.20166667 1.21 0 255 248 255
0.42612001 -0.20100002 1.2060001 0 255 248 255
0.4269962 -0.20033334 1.202 0 255 248 255
0.42928571 -0.20033334 1.202 0 255 248 255
0.43157527 -0.20033334 1.202 0 255 248 255
0.36977619 -0.20974191 1.273 0 255 248 255
0.37220097 -0.20974191 1.273 0 255 248 255
0.37462571 -0.20974191 1.273 0 255 248 255
0.37438476 -0.20825906 1.2640001 0 255 248 255
0.3767924 -0.20825906 1.2640001 0 255 248 255
0.37920001 -0.20825906 1.2640001 0 255 248 255
0.3800981 -0.20743524 1.2590001 0 255 248 255
0.38249621 -0.20743524 1.2590001 0 255 248 255
0.38489428 -0.20743524 1.2590001 0 255 248 255
0.38729239 -0.20743524 1.2590001 0 255 248 255
0.38969049 -0.20743524 1.2590001 0 255 248 255
0.39208859 -0.20743524 1.2590001 0 255 248 255
0.3944867 -0.20743524 1.2590001 0 255 248 255
0.3968848 -0.20743524 1.2590001 0 255 248 255
0.39801431 -0.2067762 1.2550001 0 255 248 255
0.40040481 -0.2067762 1.2550001 0 255 248 255
0.40279526 -0.2067762 1.2550001 0 255 248 255
0.40357143 -0.20595238 1.25 0 255 248 255
0.40595236 -0.20595238 1.25 0 255 248 255
0.40833333 -0.20595238 1.25 0 255 248 255
0.40907142 -0.20512857 1.245 0 255 248 255
0.41012096 -0.20446953 1.2410001 0 255 248 255
0.41248477 -0.20446953 1.2410001 0 255 248 255
0.41317716 -0.20364572 1.2360001 0 255 248 255
0.41250575 -0.20216288 1.2270001 0 255 248 255
0.41349047 -0.20150381 1.223 0 255 248 255
0.41446003 -0.20084478 1.2190001 0 255 248 255
0.41678193 -0.20084478 1.2190001 0 255 248 255
0.41738477 -0.20002097 1.2140001 0 255 248 255
0.41969717 -0.20002097 1.2140001 0 255 248 255
0.42200956 -0.20002097 1.2140001 0 255 248 255
0.4229238 -0.19936191 1.21 0 255 248 255
0.4252286 -0.19936191 1.21 0 255 248 255
0.42612001 -0.19870287 1.2060001 0 255 248 255
0.4269962 -0.19804381 1.202 0 255 248 255
0.42750001 -0.19722001 1.197 0 255 248 255
0.42978001 -0.19722001 1.197 0 255 248 255
0.36492667 -0.20731714 1.273 0 255 248 255
0.36590856 -0.20650285 1.268 0 255 248 255
0.36716193 -0.20585144 1.2640001 0 255 248 255
0.36956951 -0.20585144 1.2640001 0 255 248 255
0.37315428 -0.20650285 1.268 0 255 248 255
0.37705049 -0.20731714 1.273 0 255 248 255
0.37947524 -0.20731714 1.273 0 255 248 255
0.38189998 -0.20731714 1.273 0 255 248 255
0.38281524 -0.20650285 1.268 0 255 248 255
0.38523048 -0.20650285 1.268 0 255 248 255
0.38764572 -0.20650285 1.268 0 255 248 255
0.39006093 -0.20650285 1.268 0 255 248 255
0.39123812 -0.20585144 1.2640001 0 255 248 255
0.39364573 -0.20585144 1.2640001 0 255 248 255
0.39605334 -0.20585144 1.2640001 0 255 248 255
0.3968848 -0.20503716 1.2590001 0 255 248 255
0.39928287 -0.20503716 1.2590001 0 255 248 255
0.40040481 -0.20438574 1.2550001 0 255 248 255
0.40279526 -0.20438574 1.2550001 0 255 248 255
0.40357143 -0.20357142 1.25 0 255 248 255
0.40595236 -0.20357142 1.25 0 255 248 255
0.40833333 -0.20357142 1.25 0 255 248 255
0.40907142 -0.20275715 1.245 0 255 248 255
0.41144288 -0.20275715 1.245 0 255 248 255
0.41248477 -0.20210573 1.2410001 0 255 248 255
0.41317716 -0.20129144 1.2360001 0 255 248 255
0.41418669 -0.20064001 1.2320001 0 255 248 255
0.41349047 -0.1991743 1.223 0 255 248 255
0.41446003 -0.19852288 1.2190001 0 255 248 255
0.41678193 -0.19852288 1.2190001 0 255 248 255
0.41738477 -0.19770859 1.2140001 0 255 248 255
0.41969717 -0.19770859 1.2140001 0 255 248 255
0.42061907 -0.19705714 1.21 0 255 248 255
0.42152572 -0.19640572 1.2060001 0 255 248 255
0.42382288 -0.19640572 1.2060001 0 255 248 255
0.42470667 -0.19575429 1.202 0 255 248 255
0.42522001 -0.19494002 1.197 0 255 248 255
0.42750001 -0.19494002 1.197 0 255 248 255
0.42978001 -0.19494002 1.197 0 255 248 255
0.36492667 -0.20489237 1.273 0 255 248 255
0.36590856 -0.20408763 1.268 0 255 248 255
0.36716193 -0.20344383 1.2640001 0 255 248 255
0.36956951 -0.20344383 1.2640001 0 255 248 255
0.37315428 -0.20408763 1.268 0 255 248 255
0.37705049 -0.20489237 1.273 0 255 248 255
0.37947524 -0.20489237 1.273 0 255 248 255
0.38189998 -0.20489237 1.273 0 255 248 255
0.38432476 -0.20489237 1.273 0 255 248 255
0.38826859 -0.20569716 1.2780001 0 255 248 255
0.39070287 -0.20569716 1.2780001 0 255 248 255
0.39313719 -0.20569716 1.2780001 0 255 248 255
0.39557147 -0.20569716 1.2780001 0 255 248 255
0.39489144 -0.20408763 1.268 0 255 248 255
0.39730665 -0.20408763 1.268 0 255 248 255
0.39972192 -0.20408763 1.268 0 255 248 255
0.40213713 -0.20408763 1.268 0 255 248 255
0.40327621 -0.20344383 1.2640001 0 255 248 255
0.40407905 -0.20263906 1.2590001 0 255 248 255
0.40518576 -0.20199525 1.2550001 0 255 248 255
0.40595236 -0.20119047 1.25 0 255 248 255
0.40833333 -0.20119047 1.25 0 255 248 255
0.41071427 -0.20119047 1.25 0 255 248 255
0.41144288 -0.2003857 1.245 0 255 248 255
0.41248477 -0.1997419 1.2410001 0 255 248 255
0.41317716 -0.19893715 1.2360001 0 255 248 255
0.41418669 -0.19829336 1.2320001 0 255 248 255
0.4148429 -0.19748859 1.2270001 0 255 248 255
0.41582 -0.19684477 1.223 0 255 248 255
0.41678193 -0.19620097 1.2190001 0 255 248 255
0.41738477 -0.1953962 1.2140001 0 255 248 255
0.41969717 -0.1953962 1.2140001 0 255 248 255
0.42061907 -0.19475238 1.21 0 255 248 255
0.42152572 -0.19410858 1.2060001 0 255 248 255
0.42382288 -0.19410858 1.2060001 0 255 248 255
0.42470667 -0.19346476 1.202 0 255 248 255
0.42522001 -0.19266 1.197 0 255 248 255
0.42750001 -0.19266 1.197 0 255 248 255
0.42978001 -0.19266 1.197 0 255 248 255
0.36590856 -0.20167238 1.268 0 255 248 255
0.3683238 -0.20167238 1.268 0 255 248 255
0.37073904 -0.20167238 1.268 0 255 248 255
0.37315428 -0.20167238 1.268 0 255 248 255
0.37705049 -0.20246762 1.273 0 255 248 255
0.37947524 -0.20246762 1.273 0 255 248 255
0.38189998 -0.20246762 1.273 0 255 248 255
0.38432476 -0.20246762 1.273 0 255 248 255
0.39557147 -0.20326288 1.2780001 0 255 248 255
0.39644855 -0.20246762 1.273 0 255 248 255
0.39887333 -0.20246762 1.273 0 255 248 255
0.40129811 -0.20246762 1.273 0 255 248 255
0.40372285 -0.20246762 1.273 0 255 248 255
0.40455237 -0.20167238 1.268 0 255 248 255
0.40568382 -0.2010362 1.2640001 0 255 248 255
0.40647715 -0.20024095 1.2590001 0 255 248 255
0.40757623 -0.19960478 1.2550001 0 255 248 255
0.40996668 -0.19960478 1.2550001 0 255 248 255
0.41071427 -0.19880952 1.25 0 255 248 255
0.41309524 -0.19880952 1.25 0 255 248 255
0.41381428 -0.19801427 1.245 0 255 248 255
0.4148486 -0.1973781 1.2410001 0 255 248 255
0.41553143 -0.19658287 1.2360001 0 255 248 255
0.41653338 -0.19594668 1.2320001 0 255 248 255
0.41582 -0.19451524 1.223 0 255 248 255
0.41678193 -0.19387905 1.2190001 0 255 248 255
0.41738477 -0.19308382 1.2140001 0 255 248 255
0.41969717 -0.19308382 1.2140001 0 255 248 255
0.42061907 -0.19244762 1.21 0 255 248 255
0.42152572 -0.19181143 1.2060001 0 255 248 255
0.42382288 -0.19181143 1.2060001 0 255 248 255
0.42470667 -0.19117524 1.202 0 255 248 255
0.42522001 -0.19038001 1.197 0 255 248 255
0.42750001 -0.19038001 1.197 0 255 248 255
0.42978001 -0.19038001 1.197 0 255 248 255
0.36977619 -0.20004286 1.273 0 255 248 255
0.37220097 -0.20004286 1.273 0 255 248 255
0.37462571 -0.20004286 1.273 0 255 248 255
0.37705049 -0.20004286 1.273 0 255 248 255
0.40129811 -0.20004286 1.273 0 255 248 255
0.40372285 -0.20004286 1.273 0 255 248 255
0.4061476 -0.20004286 1.273 0 255 248 255
0.40696761 -0.19925714 1.268 0 255 248 255
0.40809146 -0.19862857 1.2640001 0 255 248 255
0.40887526 -0.19784287 1.2590001 0 255 248 255
0.40996668 -0.19721429 1.2550001 0 255 248 255
0.41071427 -0.19642857 1.25 0 255 248 255
0.41309524 -0.19642857 1.25 0 255 248 255
0.41381428 -0.19564286 1.245 0 255 248 255
0.41618571 -0.19564286 1.245 0 255 248 255
0.4172124 -0.1950143 1.2410001 0 255 248 255
0.41788575 -0.19422857 1.2360001 0 255 248 255
0.41718003 -0.19281431 1.2270001 0 255 248 255
0.41814953 -0.19218573 1.223 0 255 248 255
0.41910386 -0.19155715 1.2190001 0 255 248 255
0.41831428 -0.19014287 1.21 0 255 248 255
0.42061907 -0.19014287 1.21 0 255 248 255
0.42152572 -0.18951431 1.2060001 0 255 248 255
0.42241713 -0.18888572 1.202 0 255 248 255
0.42470667 -0.18888572 1.202 0 255 248 255
0.42522001 -0.1881 1.197 0 255 248 255
0.42750001 -0.1881 1.197 0 255 248 255
0.42978001 -0.1881 1.197 0 255 248 255
0.40372285 -0.19761808 1.273 0 255 248 255
0.4061476 -0.19761808 1.273 0 255 248 255
0.40696761 -0.19684191 1.268 0 255 248 255
0.40809146 -0.19622096 1.2640001 0 255 248 255
0.40887526 -0.19544476 1.2590001 0 255 248 255
0.40996668 -0.19482383 1.2550001 0 255 248 255
0.41071427 -0.19404761 1.25 0 255 248 255
0.41309524 -0.19404761 1.25 0 255 248 255
0.41381428 -0.19327143 1.245 0 255 248 255
0.41618571 -0.19327143 1.245 0 255 248 255
0.4172124 -0.19265048 1.2410001 0 255 248 255
0.41788575 -0.1918743 1.2360001 0 255 248 255
0.41888002 -0.19125335 1.2320001 0 255 248 255
0.41951719 -0.19047716 1.2270001 0 255 248 255
0.42047906 -0.1898562 1.223 0 255 248 255
0.41831428 -0.18783811 1.21 0 255 248 255
0.42061907 -0.18783811 1.21 0 255 248 255
0.42152572 -0.18721716 1.2060001 0 255 248 255
0.42241713 -0.1865962 1.202 0 255 248 255
0.42293999 -0.18582 1.197 0 255 248 255
0.42522001 -0.18582 1.197 0 255 248 255
0.42750001 -0.18582 1.197 0 255 248 255
0.40129811 -0.19519334 1.273 0 255 248 255
0.40372285 -0.19519334 1.273 0 255 248 255
0.4061476 -0.19519334 1.273 0 255 248 255
0.40857238 -0.19519334 1.273 0 255 248 255
0.40938285 -0.19442666 1.268 0 255 248 255
0.40887526 -0.19304667 1.2590001 0 255 248 255
0.40996668 -0.19243336 1.2550001 0 255 248 255
0.41071427 -0.19166666 1.25 0 255 248 255
0.41309524 -0.19166666 1.25 0 255 248 255
0.41547617 -0.19166666 1.25 0 255 248 255
0.41618571 -0.1909 1.245 0 255 248 255
0.41855717 -0.1909 1.245 0 255 248 255
0.41788575 -0.18952 1.2360001 0 255 248 255
0.41888002 -0.18890668 1.2320001 0 255 248 255
0.41951719 -0.18814 1.2270001 0 255 248 255
0.42047906 -0.18752667 1.223 0 255 248 255
0.42280856 -0.18752667 1.223 0 255 248 255
0.42200956 -0.18614668 1.2140001 0 255 248 255
0.4229238 -0.18553334 1.21 0 255 248 255
0.42241713 -0.18430667 1.202 0 255 248 255
0.42293999 -0.18354 1.197 0 255 248 255
0.42522001 -0.18354 1.197 0 255 248 255
0.42750001 -0.18354 1.197 0 255 248 255
0.35522762 -0.19276857 1.273 0 255 248 255
0.35765237 -0.19276857 1.273 0 255 248 255
0.36007714 -0.19276857 1.273 0 255 248 255
0.36250192 -0.19276857 1.273 0 255 248 255
0.40129811 -0.19276857 1.273 0 255 248 255
0.40372285 -0.19276857 1.273 0 255 248 255
0.4061476 -0.19276857 1.273 0 255 248 255
0.40857238 -0.19276857 1.273 0 255 248 255
0.40938285 -0.19201143 1.268 0 255 248 255
0.40887526 -0.19064859 1.2590001 0 255 248 255
0.40996668 -0.19004287 1.2550001 0 255 248 255
0.41235718 -0.19004287 1.2550001 0 255 248 255
0.41474766 -0.19004287 1.2550001 0 255 248 255
0.41547617 -0.18928571 1.25 0 255 248 255
0.41785714 -0.18928571 1.25 0 255 248 255
0.41855717 -0.18852857 1.245 0 255 248 255
0.4195762 -0.18792287 1.2410001 0 255 248 255
0.42024001 -0.18716572 1.2360001 0 255 248 255
0.42122671 -0.18656002 1.2320001 0 255 248 255
0.42047906 -0.18519714 1.223 0 255 248 255
0.42280856 -0.18519714 1.223 0 255 248 255
0.42200956 -0.1838343 1.2140001 0 255 248 255
0.4229238 -0.18322857 1.21 0 255 248 255
0.42241713 -0.18201713 1.202 0 255 248 255
0.42293999 -0.18125999 1.197 0 255 248 255
0.42522001 -0.18125999 1.197 0 255 248 255
0.42750001 -0.18125999 1.197 0 255 248 255
0.35765237 -0.19034381 1.273 0 255 248 255
0.36007714 -0.19034381 1.273 0 255 248 255
0.3494029 -0.18346573 1.2270001 0 255 248 255
0.40857238 -0.19034381 1.273 0 255 248 255
0.40938285 -0.18959619 1.268 0 255 248 255
0.41049907 -0.1889981 1.2640001 0 255 248 255
0.41127336 -0.18825048 1.2590001 0 255 248 255
0.41235718 -0.18765239 1.2550001 0 255 248 255
0.41474766 -0.18765239 1.2550001 0 255 248 255
0.41547617 -0.18690476 1.25 0 255 248 255
0.41785714 -0.18690476 1.25 0 255 248 255
0.41855717 -0.18615714 1.245 0 255 248 255
0.4195762 -0.18555905 1.2410001 0 255 248 255
0.42024001 -0.18481143 1.2360001 0 255 248 255
0.42122671 -0.18421334 1.2320001 0 255 248 255
0.42047906 -0.18286762 1.223 0 255 248 255
0.42280856 -0.18286762 1.223 0 255 248 255
0.42200956 -0.18152192 1.2140001 0 255 248 255
0.4229238 -0.1809238 1.21 0 255 248 255
0.42241713 -0.17972763 1.202 0 255 248 255
0.42470667 -0.17972763 1.202 0 255 248 255
0.42522001 -0.17897999 1.197 0 255 248 255
0.42750001 -0.17897999 1.197 0 255 248 255
0.34504285 -0.18378572 1.245 0 255 248 255
0.3462981 -0.18319525 1.2410001 0 255 248 255
0.34725717 -0.18245716 1.2360001 0 255 248 255
0.34961143 -0.18245716 1.2360001 0 255 248 255
0.3494029 -0.18112858 1.2270001 0 255 248 255
0.35174003 -0.18112858 1.2270001 0 255 248 255
0.40129811 -0.18791905 1.273 0 255 248 255
0.40372285 -0.18791905 1.273 0 255 248 255
0.4061476 -0.18791905 1.273 0 255 248 255
0.40857238 -0.18791905 1.273 0 255 248 255
0.40938285 -0.18718095 1.268 0 255 248 255
0.41049907 -0.18659049 1.2640001 0 255 248 255
0.41127336 -0.18585238 1.2590001 0 255 248 255
0.41367143 -0.18585238 1.2590001 0 255 248 255
0.41474766 -0.18526192 1.2550001 0 255 248 255
0.41547617 -0.18452381 1.25 0 255 248 255
0.41618571 -0.18378572 1.245 0 255 248 255
0.4172124 -0.18319525 1.2410001 0 255 248 255
0.41788575 -0.18245716 1.2360001 0 255 248 255
0.42024001 -0.18245716 1.2360001 0 255 248 255
0.42122671 -0.18186669 1.2320001 0 255 248 255
0.42047906 -0.1805381 1.223 0 255 248 255
0.41969717 -0.17920953 1.2140001 0 255 248 255
0.42200956 -0.17920953 1.2140001 0 255 248 255
0.4229238 -0.17861904 1.21 0 255 248 255
0.42241713 -0.1774381 1.202 0 255 248 255
0.42470667 -0.1774381 1.202 0 255 248 255
0.4269962 -0.1774381 1.202 0 255 248 255
0.34652478 -0.18345429 1.2590001 0 255 248 255
0.34504285 -0.18141429 1.245 0 255 248 255
0.3462981 -0.18083143 1.2410001 0 255 248 255
0.34725717 -0.18010285 1.2360001 0 255 248 255
0.34961143 -0.18010285 1.2360001 0 255 248 255
0.3482638 -0.17820857 1.223 0 255 248 255
0.34801337 -0.17689715 1.2140001 0 255 248 255
0.35032576 -0.17689715 1.2140001 0 255 248 255
0.39887333 -0.18549427 1.273 0 255 248 255
0.40129811 -0.18549427 1.273 0 255 248 255
0.40372285 -0.18549427 1.273 0 255 248 255
0.4061476 -0.18549427 1.273 0 255 248 255
0.40857238 -0.18549427 1.273 0 255 248 255
0.40938285 -0.18476571 1.268 0 255 248 255
0.41179809 -0.18476571 1.268 0 255 248 255
0.41127336 -0.18345429 1.2590001 0 255 248 255
0.41367143 -0.18345429 1.2590001 0 255 248 255
0.41474766 -0.18287145 1.2550001 0 255 248 255
0.41547617 -0.18214285 1.25 0 255 248 255
0.41618571 -0.18141429 1.245 0 255 248 255
0.4172124 -0.18083143 1.2410001 0 255 248 255
0.41788575 -0.18010285 1.2360001 0 255 248 255
0.41888002 -0.17952001 1.2320001 0 255 248 255
0.42122671 -0.17952001 1.2320001 0 255 248 255
0.42185432 -0.17879145 1.2270001 0 255 248 255
0.41969717 -0.17689715 1.2140001 0 255 248 255
0.42061907 -0.17631429 1.21 0 255 248 255
0.42152572 -0.17573145 1.2060001 0 255 248 255
0.42241713 -0.17514858 1.202 0 255 248 255
0.42470667 -0.17514858 1.202 0 255 248 255
0.34658667 -0.18235047 1.268 0 255 248 255
0.34652478 -0.1810562 1.2590001 0 255 248 255
0.34504285 -0.17904285 1.245 0 255 248 255
0.3462981 -0.17846762 1.2410001 0 255 248 255
0.34725717 -0.17774859 1.2360001 0 255 248 255
0.34961143 -0.17774859 1.2360001 0 255 248 255
0.3482638 -0.17587905 1.223 0 255 248 255
0.34801337 -0.17458478 1.2140001 0 255 248 255
0.34542 -0.17214 1.197 0 255 248 255
0.34770003 -0.17214 1.197 0 255 248 255
0.34998 -0.17214 1.197 0 255 248 255
0.39887333 -0.18306953 1.273 0 255 248 255
0.40129811 -0.18306953 1.273 0 255 248 255
0.40372285 -0.18306953 1.273 0 255 248 255
0.4061476 -0.18306953 1.273 0 255 248 255
0.40857238 -0.18306953 1.273 0 255 248 255
0.40938285 -0.18235047 1.268 0 255 248 255
0.41179809 -0.18235047 1.268 0 255 248 255
0.41127336 -0.1810562 1.2590001 0 255 248 255
0.41235718 -0.18048097 1.2550001 0 255 248 255
0.41474766 -0.18048097 1.2550001 0 255 248 255
0.41547617 -0.1797619 1.25 0 255 248 255
0.41618571 -0.17904285 1.245 0 255 248 255
0.4172124 -0.17846762 1.2410001 0 255 248 255
0.41788575 -0.17774859 1.2360001 0 255 248 255
0.41888002 -0.17717335 1.2320001 0 255 248 255
0.42122671 -0.17717335 1.2320001 0 255 248 255
0.41738477 -0.17458478 1.2140001 0 255 248 255
0.41693148 -0.1734343 1.2060001 0 255 248 255
0.41922858 -0.1734343 1.2060001 0 255 248 255
0.42012763 -0.17285904 1.202 0 255 248 255
0.42241713 -0.17285904 1.202 0 255 248 255
0.34658667 -0.17993525 1.268 0 255 248 255
0.34652478 -0.1786581 1.2590001 0 255 248 255
0.34504285 -0.17667143 1.245 0 255 248 255
0.3462981 -0.17610382 1.2410001 0 255 248 255
0.34725717 -0.17539428 1.2360001 0 255 248 255
0.34706575 -0.17411715 1.2270001 0 255 248 255
0.3482638 -0.17354953 1.223 0 255 248 255
0.34801337 -0.1722724 1.2140001 0 255 248 255
0.34542 -0.16985999 1.197 0 255 248 255
0.34770003 -0.16985999 1.197 0 255 248 255
0.34998 -0.16985999 1.197 0 255 248 255
0.35373142 -0.17056952 1.202 0 255 248 255
0.40857238 -0.18064477 1.273 0 255 248 255
0.41099712 -0.18064477 1.273 0 255 248 255
0.41179809 -0.17993525 1.268 0 255 248 255
0.41127336 -0.1786581 1.2590001 0 255 248 255
0.41235718 -0.17809048 1.2550001 0 255 248 255
0.41474766 -0.17809048 1.2550001 0 255 248 255
0.41547617 -0.17738095 1.25 0 255 248 255
0.41618571 -0.17667143 1.245 0 255 248 255
0.4172124 -0.17610382 1.2410001 0 255 248 255
0.41788575 -0.17539428 1.2360001 0 255 248 255
0.41888002 -0.17482668 1.2320001 0 255 248 255
0.42122671 -0.17482668 1.2320001 0 255 248 255
0.41600955 -0.17170477 1.21 0 255 248 255
0.41554859 -0.17056952 1.202 0 255 248 255
0.4178381 -0.17056952 1.202 0 255 248 255
0.42012763 -0.17056952 1.202 0 255 248 255
0.42241713 -0.17056952 1.202 0 255 248 255
0.34658667 -0.17751999 1.268 0 255 248 255
0.34652478 -0.17626001 1.2590001 0 255 248 255
0.34642857 -0.175 1.25 0 255 248 255
0.3462981 -0.17374 1.2410001 0 255 248 255
0.34866193 -0.17374 1.2410001 0 255 248 255
0.34706575 -0.17178002 1.2270001 0 255 248 255
0.3482638 -0.17122 1.223 0 255 248 255
0.34801337 -0.16996002 1.2140001 0 255 248 255
0.34917143 -0.16940001 1.21 0 255 248 255
0.35031429 -0.16884001 1.2060001 0 255 248 255
0.35144192 -0.16828001 1.202 0 255 248 255
0.35373142 -0.16828001 1.202 0 255 248 255
0.35335526 -0.16702001 1.1930001 0 255 248 255
0.35562763 -0.16702001 1.1930001 0 255 248 255
0.39402381 -0.17821999 1.273 0 255 248 255
0.40372285 -0.17821999 1.273 0 255 248 255
0.4061476 -0.17821999 1.273 0 255 248 255
0.40857238 -0.17821999 1.273 0 255 248 255
0.41099712 -0.17821999 1.273 0 255 248 255
0.41179809 -0.17751999 1.268 0 255 248 255
0.41127336 -0.17626001 1.2590001 0 255 248 255
0.41235718 -0.17570001 1.2550001 0 255 248 255
0.41309524 -0.175 1.25 0 255 248 255
0.41381428 -0.1743 1.245 0 255 248 255
0.41618571 -0.1743 1.245 0 255 248 255
0.41553143 -0.17304002 1.2360001 0 255 248 255
0.41788575 -0.17304002 1.2360001 0 255 248 255
0.41888002 -0.17248002 1.2320001 0 255 248 255
0.41814953 -0.17122 1.223 0 255 248 255
0.41463432 -0.16884001 1.2060001 0 255 248 255
0.41554859 -0.16828001 1.202 0 255 248 255
0.4178381 -0.16828001 1.202 0 255 248 255
0.34658667 -0.17510477 1.268 0 255 248 255
0.34652478 -0.17386191 1.2590001 0 255 248 255
0.34642857 -0.17261904 1.25 0 255 248 255
0.3462981 -0.1713762 1.2410001 0 255 248 255
0.34866193 -0.1713762 1.2410001 0 255 248 255
0.34706575 -0.16944288 1.2270001 0 255 248 255
0.3482638 -0.16889048 1.223 0 255 248 255
0.34944668 -0.16833812 1.2190001 0 255 248 255
0.35032576 -0.16764763 1.2140001 0 255 248 255
0.35147619 -0.16709524 1.21 0 255 248 255
0.35261145 -0.16654286 1.2060001 0 255 248 255
0.35373142 -0.16599049 1.202 0 255 248 255
0.35335526 -0.16474763 1.1930001 0 255 248 255
0.35562763 -0.16474763 1.1930001 0 255 248 255
0.40372285 -0.17579524 1.273 0 255 248 255
0.4061476 -0.17579524 1.273 0 255 248 255
0.40857238 -0.17579524 1.273 0 255 248 255
0.41099712 -0.17579524 1.273 0 255 248 255
0.41179809 -0.17510477 1.268 0 255 248 255
0.41127336 -0.17386191 1.2590001 0 255 248 255
0.41235718 -0.17330955 1.2550001 0 255 248 255
0.41309524 -0.17261904 1.25 0 255 248 255
0.41381428 -0.17192857 1.245 0 255 248 255
0.4148486 -0.1713762 1.2410001 0 255 248 255
0.41553143 -0.17068571 1.2360001 0 255 248 255
0.41653338 -0.17013335 1.2320001 0 255 248 255
0.41888002 -0.17013335 1.2320001 0 255 248 255
0.41814953 -0.16889048 1.223 0 255 248 255
0.41463432 -0.16654286 1.2060001 0 255 248 255
0.41554859 -0.16599049 1.202 0 255 248 255
0.4178381 -0.16599049 1.202 0 255 248 255
0.34658667 -0.17268953 1.268 0 255 248 255
0.34652478 -0.17146382 1.2590001 0 255 248 255
0.34781432 -0.17091906 1.2550001 0 255 248 255
0.34880951 -0.17023809 1.25 0 255 248 255
0.34978572 -0.16955714 1.245 0 255 248 255
0.34706575 -0.16710572 1.2270001 0 255 248 255
0.3482638 -0.16656096 1.223 0 255 248 255
0.34944668 -0.16601621 1.2190001 0 255 248 255
0.35032576 -0.16533525 1.2140001 0 255 248 255
0.35147619 -0.16479047 1.21 0 255 248 255
0.35261145 -0.16424572 1.2060001 0 255 248 255
0.35373142 -0.16370095 1.202 0 255 248 255
0.35335526 -0.16247524 1.1930001 0 255 248 255
0.35562763 -0.16247524 1.1930001 0 255 248 255
0.35790002 -0.16247524 1.1930001 0 255 248 255
0.40857238 -0.17337048 1.273 0 255 248 255
0.41099712 -0.17337048 1.273 0 255 248 255
0.41179809 -0.17268953 1.268 0 255 248 255
0.41127336 -0.17146382 1.2590001 0 255 248 255
0.41235718 -0.17091906 1.2550001 0 255 248 255
0.41309524 -0.17023809 1.25 0 255 248 255
0.41381428 -0.16955714 1.245 0 255 248 255
0.4148486 -0.1690124 1.2410001 0 255 248 255
0.41553143 -0.16833144 1.2360001 0 255 248 255
0.41653338 -0.16778667 1.2320001 0 255 248 255
0.41718003 -0.16710572 1.2270001 0 255 248 255
0.41678193 -0.16601621 1.2190001 0 255 248 255
0.41910386 -0.16601621 1.2190001 0 255 248 255
0.42142576 -0.16601621 1.2190001 0 255 248 255
0.34900188 -0.17027427 1.268 0 255 248 255
0.35030857 -0.16973716 1.2640001 0 255 248 255
0.3502048 -0.16852859 1.2550001 0 255 248 255
0.35119048 -0.16785714 1.25 0 255 248 255
0.34706575 -0.16476859 1.2270001 0 255 248 255
0.3482638 -0.16423143 1.223 0 255 248 255
0.34944668 -0.16369429 1.2190001 0 255 248 255
0.35032576 -0.16302286 1.2140001 0 255 248 255
0.35147619 -0.16248572 1.21 0 255 248 255
0.35261145 -0.16194858 1.2060001 0 255 248 255
0.35373142 -0.16141143 1.202 0 255 248 255
0.35453999 -0.16074 1.197 0 255 248 255
0.35562763 -0.16020286 1.1930001 0 255 248 255
0.35790002 -0.16020286 1.1930001 0 255 248 255
0.36017242 -0.16020286 1.1930001 0 255 248 255
0.41179809 -0.17027427 1.268 0 255 248 255
0.41290671 -0.16973716 1.2640001 0 255 248 255
0.41235718 -0.16852859 1.2550001 0 255 248 255
0.41309524 -0.16785714 1.25 0 255 248 255
0.41381428 -0.16718571 1.245 0 255 248 255
0.4148486 -0.16664857 1.2410001 0 255 248 255
0.41553143 -0.16597714 1.2360001 0 255 248 255
0.41653338 -0.16544002 1.2320001 0 255 248 255
0.41582 -0.16423143 1.223 0 255 248 255
0.41678193 -0.16369429 1.2190001 0 255 248 255
0.41910386 -0.16369429 1.2190001 0 255 248 255
0.35141715 -0.16785905 1.268 0 255 248 255
0.3502048 -0.16613811 1.2550001 0 255 248 255
0.35119048 -0.16547619 1.25 0 255 248 255
0.34706575 -0.16243143 1.2270001 0 255 248 255
0.3482638 -0.16190191 1.223 0 255 248 255
0.34944668 -0.16137239 1.2190001 0 255 248 255
0.35032576 -0.16071048 1.2140001 0 255 248 255
0.35147619 -0.16018096 1.21 0 255 248 255
0.35261145 -0.15965144 1.2060001 0 255 248 255
0.35373142 -0.1591219 1.202 0 255 248 255
0.35453999 -0.15846001 1.197 0 255 248 255
0.35682002 -0.15846001 1.197 0 255 248 255
0.35790002 -0.15793048 1.1930001 0 255 248 255
0.36017242 -0.15793048 1.1930001 0 255 248 255
0.41049907 -0.16732953 1.2640001 0 255 248 255
0.41290671 -0.16732953 1.2640001 0 255 248 255
0.41235718 -0.16613811 1.2550001 0 255 248 255
0.41309524 -0.16547619 1.25 0 255 248 255
0.41381428 -0.16481429 1.245 0 255 248 255
0.41618571 -0.16481429 1.245 0 255 248 255
0.4172124 -0.16428477 1.2410001 0 255 248 255
0.41788575 -0.16362287 1.2360001 0 255 248 255
0.41582 -0.16190191 1.223 0 255 248 255
0.41678193 -0.16137239 1.2190001 0 255 248 255
0.41910386 -0.16137239 1.2190001 0 255 248 255
0.35119048 -0.16309524 1.25 0 255 248 255
0.34706575 -0.16009429 1.2270001 0 255 248 255
0.3482638 -0.15957239 1.223 0 255 248 255
0.34944668 -0.15905049 1.2190001 0 255 248 255
0.35176858 -0.15905049 1.2190001 0 255 248 255
0.3526381 -0.15839811 1.2140001 0 255 248 255
0.35378096 -0.15787619 1.21 0 255 248 255
0.35490859 -0.1573543 1.2060001 0 255 248 255
0.35602096 -0.15683238 1.202 0 255 248 255
0.35682002 -0.15617999 1.197 0 255 248 255
0.35790002 -0.1556581 1.1930001 0 255 248 255
0.36017242 -0.1556581 1.1930001 0 255 248 255
0.41049907 -0.16492191 1.2640001 0 255 248 255
0.41290671 -0.16492191 1.2640001 0 255 248 255
0.41235718 -0.16374762 1.2550001 0 255 248 255
0.41474766 -0.16374762 1.2550001 0 255 248 255
0.41713813 -0.16374762 1.2550001 0 255 248 255
0.41785714 -0.16309524 1.25 0 255 248 255
0.41855717 -0.16244286 1.245 0 255 248 255
0.4195762 -0.16192096 1.2410001 0 255 248 255
0.42194 -0.16192096 1.2410001 0 255 248 255
0.35371909 -0.16187143 1.2590001 0 255 248 255
0.34848002 -0.15840001 1.2320001 0 255 248 255
0.3494029 -0.15775716 1.2270001 0 255 248 255
0.35059336 -0.15724286 1.223 0 255 248 255
0.35176858 -0.15672858 1.2190001 0 255 248 255
0.35409051 -0.15672858 1.2190001 0 255 248 255
0.35495049 -0.15608573 1.2140001 0 255 248 255
0.35608572 -0.15557143 1.21 0 255 248 255
0.35720575 -0.15505715 1.2060001 0 255 248 255
0.35831049 -0.15454286 1.202 0 255 248 255
0.35910001 -0.1539 1.197 0 255 248 255
0.36138001 -0.1539 1.197 0 255 248 255
0.36639431 -0.15505715 1.2060001 0 255 248 255
0.36869147 -0.15505715 1.2060001 0 255 248 255
0.37098858 -0.15505715 1.2060001 0 255 248 255
0.37328574 -0.15505715 1.2060001 0 255 248 255
0.37433717 -0.15454286 1.202 0 255 248 255
0.37506002 -0.1539 1.197 0 255 248 255
0.37733999 -0.1539 1.197 0 255 248 255
0.37835145 -0.15338571 1.1930001 0 255 248 255
0.38062385 -0.15338571 1.1930001 0 255 248 255
0.38418001 -0.1539 1.197 0 255 248 255
0.41421333 -0.16302858 1.268 0 255 248 255
0.41367143 -0.16187143 1.2590001 0 255 248 255
0.41474766 -0.16135716 1.2550001 0 255 248 255
0.41713813 -0.16135716 1.2550001 0 255 248 255
0.4195286 -0.16135716 1.2550001 0 255 248 255
0.42191908 -0.16135716 1.2550001 0 255 248 255
0.42430958 -0.16135716 1.2550001 0 255 248 255
0.35512382 -0.16010667 1.2640001 0 255 248 255
0.35753146 -0.16010667 1.2640001 0 255 248 255
0.35196573 -0.15656 1.2360001 0 255 248 255
0.35317335 -0.15605335 1.2320001 0 255 248 255
0.35407716 -0.15542001 1.2270001 0 255 248 255
0.35641432 -0.15542001 1.2270001 0 255 248 255
0.35875145 -0.15542001 1.2270001 0 255 248 255
0.35873431 -0.15440668 1.2190001 0 255 248 255
0.35957527 -0.15377335 1.2140001 0 255 248 255
0.35950288 -0.15276001 1.2060001 0 255 248 255
0.36180001 -0.15276001 1.2060001 0 255 248 255
0.36409718 -0.15276001 1.2060001 0 255 248 255
0.36639431 -0.15276001 1.2060001 0 255 248 255
0.36869147 -0.15276001 1.2060001 0 255 248 255
0.37098858 -0.15276001 1.2060001 0 255 248 255
0.37328574 -0.15276001 1.2060001 0 255 248 255
0.37433717 -0.15225333 1.202 0 255 248 255
0.37506002 -0.15162 1.197 0 255 248 255
0.37733999 -0.15162 1.197 0 255 248 255
0.37835145 -0.15111333 1.1930001 0 255 248 255
0.38062385 -0.15111333 1.1930001 0 255 248 255
0.38418001 -0.15162 1.197 0 255 248 255
0.41421333 -0.16061333 1.268 0 255 248 255
0.41662857 -0.16061333 1.268 0 255 248 255
0.41772193 -0.16010667 1.2640001 0 255 248 255
0.42012954 -0.16010667 1.2640001 0 255 248 255
0.42387429 -0.16061333 1.268 0 255 248 255
0.42628953 -0.16061333 1.268 0 255 248 255
0.35753146 -0.15769906 1.2640001 0 255 248 255
0.35737622 -0.1565762 1.2550001 0 255 248 255
0.35976669 -0.1565762 1.2550001 0 255 248 255
0.35552001 -0.15370668 1.2320001 0 255 248 255
0.3578667 -0.15370668 1.2320001 0 255 248 255
0.36021337 -0.15370668 1.2320001 0 255 248 255
0.35873431 -0.15208477 1.2190001 0 255 248 255
0.35957527 -0.15146096 1.2140001 0 255 248 255
0.36069524 -0.15096191 1.21 0 255 248 255
0.36300001 -0.15096191 1.21 0 255 248 255
0.36530477 -0.15096191 1.21 0 255 248 255
0.36882478 -0.15146096 1.2140001 0 255 248 255
0.36869147 -0.15046287 1.2060001 0 255 248 255
0.37098858 -0.15046287 1.2060001 0 255 248 255
0.37328574 -0.15046287 1.2060001 0 255 248 255
0.37433717 -0.14996381 1.202 0 255 248 255
0.37662667 -0.14996381 1.202 0 255 248 255
0.37891617 -0.14996381 1.202 0 255 248 255
0.37962002 -0.14934 1.197 0 255 248 255
0.38189998 -0.14934 1.197 0 255 248 255
0.38418001 -0.14934 1.197 0 255 248 255
0.35993904 -0.15529144 1.2640001 0 255 248 255
0.36234668 -0.15529144 1.2640001 0 255 248 255
0.36048096 -0.15246572 1.2410001 0 255 248 255
0.36138287 -0.15185143 1.2360001 0 255 248 255
0.36373714 -0.15185143 1.2360001 0 255 248 255
0.36105624 -0.14976287 1.2190001 0 255 248 255
0.36188763 -0.14914858 1.2140001 0 255 248 255
0.36420003 -0.14914858 1.2140001 0 255 248 255
0.36651242 -0.14914858 1.2140001 0 255 248 255
0.36882478 -0.14914858 1.2140001 0 255 248 255
0.36869147 -0.14816572 1.2060001 0 255 248 255
0.37098858 -0.14816572 1.2060001 0 255 248 255
0.37328574 -0.14816572 1.2060001 0 255 248 255
0.37558287 -0.14816572 1.2060001 0 255 248 255
0.37662667 -0.14767428 1.202 0 255 248 255
0.37891617 -0.14767428 1.202 0 255 248 255
0.38120574 -0.14767428 1.202 0 255 248 255
0.38189998 -0.14706001 1.197 0 255 248 255
0.38418001 -0.14706001 1.197 0 255 248 255
0.36164287 -0.15058571 1.245 0 255 248 255
0.36284479 -0.15010192 1.2410001 0 255 248 255
0.36373714 -0.14949715 1.2360001 0 255 248 255
0.36609146 -0.14949715 1.2360001 0 255 248 255
0.36420003 -0.14683619 1.2140001 0 255 248 255
0.36651242 -0.14683619 1.2140001 0 255 248 255
0.36882478 -0.14683619 1.2140001 0 255 248 255
0.36991429 -0.14635238 1.21 0 255 248 255
0.37221906 -0.14635238 1.21 0 255 248 255
0.37452382 -0.14635238 1.21 0 255 248 255
0.37682858 -0.14635238 1.21 0 255 248 255
0.37913334 -0.14635238 1.21 0 255 248 255
0.38143811 -0.14635238 1.21 0 255 248 255
0.38120574 -0.14538477 1.202 0 255 248 255
0.38349524 -0.14538477 1.202 0 255 248 255
0.36716193 -0.15047619 1.2640001 0 255 248 255
0.36810765 -0.14988096 1.2590001 0 255 248 255
0.37050572 -0.14988096 1.2590001 0 255 248 255
0.37438476 -0.15047619 1.2640001 0 255 248 255
0.37730953 -0.14511906 1.2190001 0 255 248 255
0.37963146 -0.14511906 1.2190001 0 255 248 255
0.38195336 -0.14511906 1.2190001 0 255 248 255
0.40213713 -0.15095238 1.268 0 255 248 255
0 0 0 1 0 0 0 1 0 0 0 1 0 0 0 0 0 1074 1 0 0
