ply
format ascii 1.0
comment PCL generated
element vertex 642
property float x
property float y
property float z
property uchar red
property uchar green
property uchar blue
property uchar alpha
element camera 1
property float view_px
property float view_py
property float view_pz
property float x_axisx
property float x_axisy
property float x_axisz
property float y_axisx
property float y_axisy
property float y_axisz
property float z_axisx
property float z_axisy
property float z_axisz
property float focal
property float scalex
property float scaley
property float centerx
property float centery
property int viewportx
property int viewporty
property float k1
property float k2
end_header
0.012906668 -0.11616001 1.2320001 153 153 153 255
0.017600002 -0.11616001 1.2320001 153 153 153 255
0.019946668 -0.11616001 1.2320001 153 153 153 255
0.022293337 -0.11616001 1.2320001 153 153 153 255
0.024640001 -0.11616001 1.2320001 153 153 153 255
0.026986668 -0.11616001 1.2320001 153 153 153 255
0.029333336 -0.11616001 1.2320001 153 153 153 255
0.031680003 -0.11616001 1.2320001 153 153 153 255
0.034026671 -0.11616001 1.2320001 153 153 153 255
-0.045574289 -0.11335144 1.2270001 153 153 153 255
-0.04323715 -0.11335144 1.2270001 153 153 153 255
-0.040766668 -0.11298191 1.223 153 153 153 255
-0.038437143 -0.11298191 1.223 153 153 153 255
-0.035989527 -0.11261239 1.2190001 153 153 153 255
-0.03366762 -0.11261239 1.2190001 153 153 153 255
-0.031448569 -0.11298191 1.223 153 153 153 255
-0.029119048 -0.11298191 1.223 153 153 153 255
-0.010517144 -0.11335144 1.2270001 153 153 153 255
-0.0081800008 -0.11335144 1.2270001 153 153 153 255
-0.0058428575 -0.11335144 1.2270001 153 153 153 255
0.019946668 -0.11381335 1.2320001 153 153 153 255
0.022293337 -0.11381335 1.2320001 153 153 153 255
0.024640001 -0.11381335 1.2320001 153 153 153 255
0.026986668 -0.11381335 1.2320001 153 153 153 255
0.029333336 -0.11381335 1.2320001 153 153 153 255
0.031680003 -0.11381335 1.2320001 153 153 153 255
0.034026671 -0.11381335 1.2320001 153 153 153 255
0.03637334 -0.11381335 1.2320001 153 153 153 255
0.038720001 -0.11381335 1.2320001 153 153 153 255
-0.045425717 -0.11065239 1.223 153 153 153 255
-0.043096192 -0.11065239 1.223 153 153 153 255
-0.040766668 -0.11065239 1.223 153 153 153 255
-0.038437143 -0.11065239 1.223 153 153 153 255
-0.035989527 -0.11029048 1.2190001 153 153 153 255
-0.03366762 -0.11029048 1.2190001 153 153 153 255
-0.031345718 -0.11029048 1.2190001 153 153 153 255
-0.029023811 -0.11029048 1.2190001 153 153 153 255
-0.026789526 -0.11065239 1.223 153 153 153 255
-0.024380002 -0.11029048 1.2190001 153 153 153 255
-0.022058096 -0.11029048 1.2190001 153 153 153 255
-0.019800952 -0.11065239 1.223 153 153 153 255
-0.017471429 -0.11065239 1.223 153 153 153 255
-0.015141904 -0.11065239 1.223 153 153 153 255
-0.012812382 -0.11065239 1.223 153 153 153 255
-0.010482857 -0.11065239 1.223 153 153 153 255
-0.0081533343 -0.11065239 1.223 153 153 153 255
-0.0058238097 -0.11065239 1.223 153 153 153 255
-0.0034942857 -0.11065239 1.223 153 153 153 255
-0.0011685715 -0.11101429 1.2270001 153 153 153 255
0.0011685715 -0.11101429 1.2270001 153 153 153 255
0.0035057145 -0.11101429 1.2270001 153 153 153 255
0.0058428575 -0.11101429 1.2270001 153 153 153 255
0.0081800008 -0.11101429 1.2270001 153 153 153 255
0.010517144 -0.11101429 1.2270001 153 153 153 255
0.012854287 -0.11101429 1.2270001 153 153 153 255
0.029333336 -0.11146668 1.2320001 153 153 153 255
0.031680003 -0.11146668 1.2320001 153 153 153 255
0.034026671 -0.11146668 1.2320001 153 153 153 255
0.03637334 -0.11146668 1.2320001 153 153 153 255
0.038720001 -0.11146668 1.2320001 153 153 153 255
0.041066669 -0.11146668 1.2320001 153 153 153 255
-0.052585717 -0.10867715 1.2270001 153 153 153 255
-0.050248574 -0.10867715 1.2270001 153 153 153 255
-0.047911432 -0.10867715 1.2270001 153 153 153 255
-0.045277145 -0.10796858 1.2190001 153 153 153 255
-0.042955242 -0.10796858 1.2190001 153 153 153 255
-0.040633336 -0.10796858 1.2190001 153 153 153 255
-0.038311433 -0.10796858 1.2190001 153 153 153 255
-0.035989527 -0.10796858 1.2190001 153 153 153 255
-0.03366762 -0.10796858 1.2190001 153 153 153 255
-0.031345718 -0.10796858 1.2190001 153 153 153 255
-0.029023811 -0.10796858 1.2190001 153 153 153 255
-0.026701907 -0.10796858 1.2190001 153 153 153 255
-0.024380002 -0.10796858 1.2190001 153 153 153 255
-0.022058096 -0.10796858 1.2190001 153 153 153 255
-0.019736191 -0.10796858 1.2190001 153 153 153 255
-0.017471429 -0.10832286 1.223 153 153 153 255
-0.015141904 -0.10832286 1.223 153 153 153 255
-0.012812382 -0.10832286 1.223 153 153 153 255
-0.010482857 -0.10832286 1.223 153 153 153 255
-0.0081533343 -0.10832286 1.223 153 153 153 255
-0.0058238097 -0.10832286 1.223 153 153 153 255
-0.0034942857 -0.10832286 1.223 153 153 153 255
-0.001164762 -0.10832286 1.223 153 153 153 255
0.001164762 -0.10832286 1.223 153 153 153 255
0.0034942857 -0.10832286 1.223 153 153 153 255
0.0058238097 -0.10832286 1.223 153 153 153 255
0.0081533343 -0.10832286 1.223 153 153 153 255
0.010517144 -0.10867715 1.2270001 153 153 153 255
0.012854287 -0.10867715 1.2270001 153 153 153 255
0.015191429 -0.10867715 1.2270001 153 153 153 255
0.017528573 -0.10867715 1.2270001 153 153 153 255
0.019865716 -0.10867715 1.2270001 153 153 153 255
0.022202859 -0.10867715 1.2270001 153 153 153 255
0.024540002 -0.10867715 1.2270001 153 153 153 255
0.026877144 -0.10867715 1.2270001 153 153 153 255
0.03637334 -0.10912001 1.2320001 153 153 153 255
0.038720001 -0.10912001 1.2320001 153 153 153 255
0.041066669 -0.10912001 1.2320001 153 153 153 255
-0.050084762 -0.10599334 1.223 153 153 153 255
-0.047755238 -0.10599334 1.223 153 153 153 255
-0.045277145 -0.10564668 1.2190001 153 153 153 255
-0.042955242 -0.10564668 1.2190001 153 153 153 255
-0.040633336 -0.10564668 1.2190001 153 153 153 255
-0.038311433 -0.10564668 1.2190001 153 153 153 255
-0.035989527 -0.10564668 1.2190001 153 153 153 255
-0.03366762 -0.10564668 1.2190001 153 153 153 255
-0.031345718 -0.10564668 1.2190001 153 153 153 255
-0.029023811 -0.10564668 1.2190001 153 153 153 255
-0.026701907 -0.10564668 1.2190001 153 153 153 255
-0.024380002 -0.10564668 1.2190001 153 153 153 255
-0.022058096 -0.10564668 1.2190001 153 153 153 255
-0.019736191 -0.10564668 1.2190001 153 153 153 255
-0.017471429 -0.10599334 1.223 153 153 153 255
-0.015141904 -0.10599334 1.223 153 153 153 255
-0.012812382 -0.10599334 1.223 153 153 153 255
-0.010482857 -0.10599334 1.223 153 153 153 255
-0.0081533343 -0.10599334 1.223 153 153 153 255
-0.0058047622 -0.10564668 1.2190001 153 153 153 255
-0.0034828575 -0.10564668 1.2190001 153 153 153 255
-0.001164762 -0.10599334 1.223 153 153 153 255
0.0011609525 -0.10564668 1.2190001 153 153 153 255
0.0034828575 -0.10564668 1.2190001 153 153 153 255
0.0058238097 -0.10599334 1.223 153 153 153 255
0.0081533343 -0.10599334 1.223 153 153 153 255
0.010482857 -0.10599334 1.223 153 153 153 255
0.012812382 -0.10599334 1.223 153 153 153 255
0.015191429 -0.10634001 1.2270001 153 153 153 255
0.017528573 -0.10634001 1.2270001 153 153 153 255
0.019865716 -0.10634001 1.2270001 153 153 153 255
0.022202859 -0.10634001 1.2270001 153 153 153 255
0.024540002 -0.10634001 1.2270001 153 153 153 255
0.026877144 -0.10634001 1.2270001 153 153 153 255
0.029214289 -0.10634001 1.2270001 153 153 153 255
0.031448569 -0.10599334 1.223 153 153 153 255
0.033778097 -0.10599334 1.223 153 153 153 255
0.036225718 -0.10634001 1.2270001 153 153 153 255
0.03856286 -0.10634001 1.2270001 153 153 153 255
0.040900003 -0.10634001 1.2270001 153 153 153 255
0.04323715 -0.10634001 1.2270001 153 153 153 255
0.045574289 -0.10634001 1.2270001 153 153 153 255
0.04810667 -0.10677334 1.2320001 153 153 153 255
0.050453339 -0.10677334 1.2320001 153 153 153 255
-0.050084762 -0.10366382 1.223 153 153 153 255
-0.047755238 -0.10366382 1.223 153 153 153 255
-0.045277145 -0.10332477 1.2190001 153 153 153 255
-0.042955242 -0.10332477 1.2190001 153 153 153 255
-0.040633336 -0.10332477 1.2190001 153 153 153 255
-0.038311433 -0.10332477 1.2190001 153 153 153 255
-0.035989527 -0.10332477 1.2190001 153 153 153 255
-0.03366762 -0.10332477 1.2190001 153 153 153 255
-0.031345718 -0.10332477 1.2190001 153 153 153 255
-0.029023811 -0.10332477 1.2190001 153 153 153 255
-0.026701907 -0.10332477 1.2190001 153 153 153 255
-0.024380002 -0.10332477 1.2190001 153 153 153 255
-0.022058096 -0.10332477 1.2190001 153 153 153 255
-0.019736191 -0.10332477 1.2190001 153 153 153 255
-0.017414287 -0.10332477 1.2190001 153 153 153 255
-0.015141904 -0.10366382 1.223 153 153 153 255
-0.012812382 -0.10366382 1.223 153 153 153 255
-0.010482857 -0.10366382 1.223 153 153 153 255
-0.0081266677 -0.10332477 1.2190001 153 153 153 255
-0.0058047622 -0.10332477 1.2190001 153 153 153 255
-0.0034828575 -0.10332477 1.2190001 153 153 153 255
-0.0011609525 -0.10332477 1.2190001 153 153 153 255
0.0011609525 -0.10332477 1.2190001 153 153 153 255
0.0034828575 -0.10332477 1.2190001 153 153 153 255
0.0058047622 -0.10332477 1.2190001 153 153 153 255
0.0081266677 -0.10332477 1.2190001 153 153 153 255
0.010482857 -0.10366382 1.223 153 153 153 255
0.012812382 -0.10366382 1.223 153 153 153 255
0.015141904 -0.10366382 1.223 153 153 153 255
0.017471429 -0.10366382 1.223 153 153 153 255
0.019865716 -0.10400286 1.2270001 153 153 153 255
0.022202859 -0.10400286 1.2270001 153 153 153 255
0.024540002 -0.10400286 1.2270001 153 153 153 255
0.026877144 -0.10400286 1.2270001 153 153 153 255
0.029119048 -0.10366382 1.223 153 153 153 255
0.031448569 -0.10366382 1.223 153 153 153 255
0.033778097 -0.10366382 1.223 153 153 153 255
0.036107622 -0.10366382 1.223 153 153 153 255
0.038437143 -0.10366382 1.223 153 153 153 255
0.040766668 -0.10366382 1.223 153 153 153 255
0.043096192 -0.10366382 1.223 153 153 153 255
0.045574289 -0.10400286 1.2270001 153 153 153 255
0.047911432 -0.10400286 1.2270001 153 153 153 255
-0.050084762 -0.10133429 1.223 153 153 153 255
-0.047755238 -0.10133429 1.223 153 153 153 255
-0.045277145 -0.10100286 1.2190001 153 153 153 255
-0.042955242 -0.10100286 1.2190001 153 153 153 255
-0.040633336 -0.10100286 1.2190001 153 153 153 255
-0.038311433 -0.10100286 1.2190001 153 153 153 255
-0.035989527 -0.10100286 1.2190001 153 153 153 255
-0.03366762 -0.10100286 1.2190001 153 153 153 255
-0.031345718 -0.10100286 1.2190001 153 153 153 255
-0.029023811 -0.10100286 1.2190001 153 153 153 255
-0.026701907 -0.10100286 1.2190001 153 153 153 255
-0.024380002 -0.10100286 1.2190001 153 153 153 255
-0.022058096 -0.10100286 1.2190001 153 153 153 255
-0.019736191 -0.10100286 1.2190001 153 153 153 255
-0.017414287 -0.10100286 1.2190001 153 153 153 255
-0.015141904 -0.10133429 1.223 153 153 153 255
-0.012812382 -0.10133429 1.223 153 153 153 255
-0.010448572 -0.10100286 1.2190001 153 153 153 255
-0.0081266677 -0.10100286 1.2190001 153 153 153 255
-0.0058047622 -0.10100286 1.2190001 153 153 153 255
-0.0034828575 -0.10100286 1.2190001 153 153 153 255
-0.0011609525 -0.10100286 1.2190001 153 153 153 255
0.0011609525 -0.10100286 1.2190001 153 153 153 255
0.0034828575 -0.10100286 1.2190001 153 153 153 255
0.0058047622 -0.10100286 1.2190001 153 153 153 255
0.0081266677 -0.10100286 1.2190001 153 153 153 255
0.010448572 -0.10100286 1.2190001 153 153 153 255
0.012812382 -0.10133429 1.223 153 153 153 255
0.015141904 -0.10133429 1.223 153 153 153 255
0.017471429 -0.10133429 1.223 153 153 153 255
0.019800952 -0.10133429 1.223 153 153 153 255
0.022130478 -0.10133429 1.223 153 153 153 255
0.024460001 -0.10133429 1.223 153 153 153 255
0.026789526 -0.10133429 1.223 153 153 153 255
0.029119048 -0.10133429 1.223 153 153 153 255
0.031345718 -0.10100286 1.2190001 153 153 153 255
0.03366762 -0.10100286 1.2190001 153 153 153 255
0.035989527 -0.10100286 1.2190001 153 153 153 255
0.038311433 -0.10100286 1.2190001 153 153 153 255
0.040633336 -0.10100286 1.2190001 153 153 153 255
0.043096192 -0.10133429 1.223 153 153 153 255
0.045425717 -0.10133429 1.223 153 153 153 255
0.047911432 -0.10166572 1.2270001 153 153 153 255
-0.052414287 -0.09900476 1.223 153 153 153 255
-0.050084762 -0.09900476 1.223 153 153 153 255
-0.047599051 -0.098680958 1.2190001 153 153 153 255
-0.045277145 -0.098680958 1.2190001 153 153 153 255
-0.042955242 -0.098680958 1.2190001 153 153 153 255
-0.040633336 -0.098680958 1.2190001 153 153 153 255
-0.038311433 -0.098680958 1.2190001 153 153 153 255
-0.035989527 -0.098680958 1.2190001 153 153 153 255
-0.03366762 -0.098680958 1.2190001 153 153 153 255
-0.031345718 -0.098680958 1.2190001 153 153 153 255
-0.029023811 -0.098680958 1.2190001 153 153 153 255
-0.026701907 -0.098680958 1.2190001 153 153 153 255
-0.024380002 -0.098680958 1.2190001 153 153 153 255
-0.022058096 -0.098680958 1.2190001 153 153 153 255
-0.019736191 -0.098680958 1.2190001 153 153 153 255
-0.017414287 -0.098680958 1.2190001 153 153 153 255
-0.015092382 -0.098680958 1.2190001 153 153 153 255
-0.012812382 -0.09900476 1.223 153 153 153 255
-0.010448572 -0.098680958 1.2190001 153 153 153 255
-0.0081266677 -0.098680958 1.2190001 153 153 153 255
-0.0058047622 -0.098680958 1.2190001 153 153 153 255
-0.0034828575 -0.098680958 1.2190001 153 153 153 255
-0.0011609525 -0.098680958 1.2190001 153 153 153 255
0.0011609525 -0.098680958 1.2190001 153 153 153 255
0.0034828575 -0.098680958 1.2190001 153 153 153 255
0.0058047622 -0.098680958 1.2190001 153 153 153 255
0.0081266677 -0.098680958 1.2190001 153 153 153 255
0.010448572 -0.098680958 1.2190001 153 153 153 255
0.012770478 -0.098680958 1.2190001 153 153 153 255
0.015141904 -0.09900476 1.223 153 153 153 255
0.017471429 -0.09900476 1.223 153 153 153 255
0.019800952 -0.09900476 1.223 153 153 153 255
0.022130478 -0.09900476 1.223 153 153 153 255
0.024460001 -0.09900476 1.223 153 153 153 255
0.026789526 -0.09900476 1.223 153 153 153 255
0.029023811 -0.098680958 1.2190001 153 153 153 255
0.031345718 -0.098680958 1.2190001 153 153 153 255
0.03366762 -0.098680958 1.2190001 153 153 153 255
0.035989527 -0.098680958 1.2190001 153 153 153 255
0.038311433 -0.098680958 1.2190001 153 153 153 255
0.040633336 -0.098680958 1.2190001 153 153 153 255
0.043096192 -0.09900476 1.223 153 153 153 255
0.045425717 -0.09900476 1.223 153 153 153 255
0.047911432 -0.099328585 1.2270001 153 153 153 255
-0.052414287 -0.09667524 1.223 153 153 153 255
-0.049920954 -0.096359059 1.2190001 153 153 153 255
-0.047599051 -0.096359059 1.2190001 153 153 153 255
-0.045277145 -0.096359059 1.2190001 153 153 153 255
-0.042955242 -0.096359059 1.2190001 153 153 153 255
-0.040633336 -0.096359059 1.2190001 153 153 153 255
-0.038311433 -0.096359059 1.2190001 153 153 153 255
-0.035989527 -0.096359059 1.2190001 153 153 153 255
-0.03366762 -0.096359059 1.2190001 153 153 153 255
-0.031345718 -0.096359059 1.2190001 153 153 153 255
-0.029023811 -0.096359059 1.2190001 153 153 153 255
-0.026701907 -0.096359059 1.2190001 153 153 153 255
-0.024380002 -0.096359059 1.2190001 153 153 153 255
-0.022058096 -0.096359059 1.2190001 153 153 153 255
-0.019736191 -0.096359059 1.2190001 153 153 153 255
-0.017414287 -0.096359059 1.2190001 153 153 153 255
-0.015092382 -0.096359059 1.2190001 153 153 153 255
-0.012770478 -0.096359059 1.2190001 153 153 153 255
-0.010448572 -0.096359059 1.2190001 153 153 153 255
-0.0081266677 -0.096359059 1.2190001 153 153 153 255
-0.0058047622 -0.096359059 1.2190001 153 153 153 255
-0.0034828575 -0.096359059 1.2190001 153 153 153 255
-0.0011609525 -0.096359059 1.2190001 153 153 153 255
0.0011609525 -0.096359059 1.2190001 153 153 153 255
0.0034828575 -0.096359059 1.2190001 153 153 153 255
0.0058047622 -0.096359059 1.2190001 153 153 153 255
0.0081266677 -0.096359059 1.2190001 153 153 153 255
0.010448572 -0.096359059 1.2190001 153 153 153 255
0.012770478 -0.096359059 1.2190001 153 153 153 255
0.015092382 -0.096359059 1.2190001 153 153 153 255
0.017414287 -0.096359059 1.2190001 153 153 153 255
0.019736191 -0.096359059 1.2190001 153 153 153 255
0.022058096 -0.096359059 1.2190001 153 153 153 255
0.024380002 -0.096359059 1.2190001 153 153 153 255
0.026701907 -0.096359059 1.2190001 153 153 153 255
0.029023811 -0.096359059 1.2190001 153 153 153 255
0.031345718 -0.096359059 1.2190001 153 153 153 255
0.03366762 -0.096359059 1.2190001 153 153 153 255
0.035989527 -0.096359059 1.2190001 153 153 153 255
0.038311433 -0.096359059 1.2190001 153 153 153 255
0.040633336 -0.096359059 1.2190001 153 153 153 255
0.043096192 -0.09667524 1.223 153 153 153 255
0.045425717 -0.09667524 1.223 153 153 153 255
0.047911432 -0.096991435 1.2270001 153 153 153 255
-0.052414287 -0.094345719 1.223 153 153 153 255
-0.049920954 -0.094037145 1.2190001 153 153 153 255
-0.047599051 -0.094037145 1.2190001 153 153 153 255
-0.045277145 -0.094037145 1.2190001 153 153 153 255
-0.042955242 -0.094037145 1.2190001 153 153 153 255
-0.040633336 -0.094037145 1.2190001 153 153 153 255
-0.038311433 -0.094037145 1.2190001 153 153 153 255
-0.035989527 -0.094037145 1.2190001 153 153 153 255
-0.03366762 -0.094037145 1.2190001 153 153 153 255
-0.031345718 -0.094037145 1.2190001 153 153 153 255
-0.029023811 -0.094037145 1.2190001 153 153 153 255
-0.026701907 -0.094037145 1.2190001 153 153 153 255
-0.024380002 -0.094037145 1.2190001 153 153 153 255
-0.022058096 -0.094037145 1.2190001 153 153 153 255
-0.019736191 -0.094037145 1.2190001 153 153 153 255
-0.017414287 -0.094037145 1.2190001 153 153 153 255
-0.015092382 -0.094037145 1.2190001 153 153 153 255
-0.012770478 -0.094037145 1.2190001 153 153 153 255
-0.010448572 -0.094037145 1.2190001 153 153 153 255
-0.0081266677 -0.094037145 1.2190001 153 153 153 255
-0.0058047622 -0.094037145 1.2190001 153 153 153 255
-0.0034828575 -0.094037145 1.2190001 153 153 153 255
-0.0011609525 -0.094037145 1.2190001 153 153 153 255
0.0011609525 -0.094037145 1.2190001 153 153 153 255
0.0034828575 -0.094037145 1.2190001 153 153 153 255
0.0058047622 -0.094037145 1.2190001 153 153 153 255
0.0081266677 -0.094037145 1.2190001 153 153 153 255
0.010448572 -0.094037145 1.2190001 153 153 153 255
0.012770478 -0.094037145 1.2190001 153 153 153 255
0.015092382 -0.094037145 1.2190001 153 153 153 255
0.017414287 -0.094037145 1.2190001 153 153 153 255
0.019736191 -0.094037145 1.2190001 153 153 153 255
0.022058096 -0.094037145 1.2190001 153 153 153 255
0.024380002 -0.094037145 1.2190001 153 153 153 255
0.026701907 -0.094037145 1.2190001 153 153 153 255
0.029023811 -0.094037145 1.2190001 153 153 153 255
0.031345718 -0.094037145 1.2190001 153 153 153 255
0.03366762 -0.094037145 1.2190001 153 153 153 255
0.035989527 -0.094037145 1.2190001 153 153 153 255
0.038311433 -0.094037145 1.2190001 153 153 153 255
0.040633336 -0.094037145 1.2190001 153 153 153 255
0.043096192 -0.094345719 1.223 153 153 153 255
0.045425717 -0.094345719 1.223 153 153 153 255
0.047911432 -0.094654292 1.2270001 153 153 153 255
-0.052414287 -0.09201619 1.223 153 153 153 255
-0.049920954 -0.091715246 1.2190001 153 153 153 255
-0.047599051 -0.091715246 1.2190001 153 153 153 255
-0.045277145 -0.091715246 1.2190001 153 153 153 255
-0.042955242 -0.091715246 1.2190001 153 153 153 255
-0.040633336 -0.091715246 1.2190001 153 153 153 255
-0.038311433 -0.091715246 1.2190001 153 153 153 255
-0.035989527 -0.091715246 1.2190001 153 153 153 255
-0.03366762 -0.091715246 1.2190001 153 153 153 255
-0.031345718 -0.091715246 1.2190001 153 153 153 255
-0.029023811 -0.091715246 1.2190001 153 153 153 255
-0.026701907 -0.091715246 1.2190001 153 153 153 255
-0.024380002 -0.091715246 1.2190001 153 153 153 255
-0.022058096 -0.091715246 1.2190001 153 153 153 255
-0.019736191 -0.091715246 1.2190001 153 153 153 255
-0.017414287 -0.091715246 1.2190001 153 153 153 255
-0.015092382 -0.091715246 1.2190001 153 153 153 255
-0.012770478 -0.091715246 1.2190001 153 153 153 255
-0.010448572 -0.091715246 1.2190001 153 153 153 255
-0.0081266677 -0.091715246 1.2190001 153 153 153 255
-0.0058047622 -0.091715246 1.2190001 153 153 153 255
-0.0034828575 -0.091715246 1.2190001 153 153 153 255
-0.0011609525 -0.091715246 1.2190001 153 153 153 255
0.0011609525 -0.091715246 1.2190001 153 153 153 255
0.0034828575 -0.091715246 1.2190001 153 153 153 255
0.0058047622 -0.091715246 1.2190001 153 153 153 255
0.0081266677 -0.091715246 1.2190001 153 153 153 255
0.010448572 -0.091715246 1.2190001 153 153 153 255
0.012770478 -0.091715246 1.2190001 153 153 153 255
0.015092382 -0.091715246 1.2190001 153 153 153 255
0.017414287 -0.091715246 1.2190001 153 153 153 255
0.019736191 -0.091715246 1.2190001 153 153 153 255
0.022058096 -0.091715246 1.2190001 153 153 153 255
0.024380002 -0.091715246 1.2190001 153 153 153 255
0.026701907 -0.091715246 1.2190001 153 153 153 255
0.029023811 -0.091715246 1.2190001 153 153 153 255
0.031345718 -0.091715246 1.2190001 153 153 153 255
0.03366762 -0.091715246 1.2190001 153 153 153 255
0.035989527 -0.091715246 1.2190001 153 153 153 255
0.038311433 -0.091715246 1.2190001 153 153 153 255
0.040633336 -0.091715246 1.2190001 153 153 153 255
0.043096192 -0.09201619 1.223 153 153 153 255
0.045425717 -0.09201619 1.223 153 153 153 255
0.047911432 -0.092317149 1.2270001 153 153 153 255
-0.050084762 -0.089686669 1.223 153 153 153 255
-0.047599051 -0.08939334 1.2190001 153 153 153 255
-0.045277145 -0.08939334 1.2190001 153 153 153 255
-0.042955242 -0.08939334 1.2190001 153 153 153 255
-0.040633336 -0.08939334 1.2190001 153 153 153 255
-0.038311433 -0.08939334 1.2190001 153 153 153 255
-0.035989527 -0.08939334 1.2190001 153 153 153 255
-0.03366762 -0.08939334 1.2190001 153 153 153 255
-0.031345718 -0.08939334 1.2190001 153 153 153 255
-0.029023811 -0.08939334 1.2190001 153 153 153 255
-0.026701907 -0.08939334 1.2190001 153 153 153 255
-0.024380002 -0.08939334 1.2190001 153 153 153 255
-0.022058096 -0.08939334 1.2190001 153 153 153 255
-0.019736191 -0.08939334 1.2190001 153 153 153 255
-0.017414287 -0.08939334 1.2190001 153 153 153 255
-0.015092382 -0.08939334 1.2190001 153 153 153 255
-0.012770478 -0.08939334 1.2190001 153 153 153 255
-0.010448572 -0.08939334 1.2190001 153 153 153 255
-0.0081266677 -0.08939334 1.2190001 153 153 153 255
-0.0058047622 -0.08939334 1.2190001 153 153 153 255
-0.0034685717 -0.089026667 1.2140001 153 153 153 255
-0.0011561905 -0.089026667 1.2140001 153 153 153 255
0.0011561905 -0.089026667 1.2140001 153 153 153 255
0.0034828575 -0.08939334 1.2190001 153 153 153 255
0.0058047622 -0.08939334 1.2190001 153 153 153 255
0.0081266677 -0.08939334 1.2190001 153 153 153 255
0.010448572 -0.08939334 1.2190001 153 153 153 255
0.012770478 -0.08939334 1.2190001 153 153 153 255
0.015092382 -0.08939334 1.2190001 153 153 153 255
0.017414287 -0.08939334 1.2190001 153 153 153 255
0.019736191 -0.08939334 1.2190001 153 153 153 255
0.022058096 -0.08939334 1.2190001 153 153 153 255
0.024380002 -0.08939334 1.2190001 153 153 153 255
0.026701907 -0.08939334 1.2190001 153 153 153 255
0.029023811 -0.08939334 1.2190001 153 153 153 255
0.031345718 -0.08939334 1.2190001 153 153 153 255
0.03366762 -0.08939334 1.2190001 153 153 153 255
0.035989527 -0.08939334 1.2190001 153 153 153 255
0.038311433 -0.08939334 1.2190001 153 153 153 255
0.040633336 -0.08939334 1.2190001 153 153 153 255
0.043096192 -0.089686669 1.223 153 153 153 255
0.045425717 -0.089686669 1.223 153 153 153 255
0.047911432 -0.089980014 1.2270001 153 153 153 255
-0.050084762 -0.087357149 1.223 153 153 153 255
-0.047599051 -0.087071441 1.2190001 153 153 153 255
-0.045277145 -0.087071441 1.2190001 153 153 153 255
-0.042955242 -0.087071441 1.2190001 153 153 153 255
-0.040633336 -0.087071441 1.2190001 153 153 153 255
-0.038311433 -0.087071441 1.2190001 153 153 153 255
-0.035989527 -0.087071441 1.2190001 153 153 153 255
-0.03366762 -0.087071441 1.2190001 153 153 153 255
-0.031345718 -0.087071441 1.2190001 153 153 153 255
-0.029023811 -0.087071441 1.2190001 153 153 153 255
-0.026701907 -0.087071441 1.2190001 153 153 153 255
-0.024380002 -0.087071441 1.2190001 153 153 153 255
-0.022058096 -0.087071441 1.2190001 153 153 153 255
-0.019736191 -0.087071441 1.2190001 153 153 153 255
-0.017414287 -0.087071441 1.2190001 153 153 153 255
-0.015092382 -0.087071441 1.2190001 153 153 153 255
-0.012770478 -0.087071441 1.2190001 153 153 153 255
-0.010448572 -0.087071441 1.2190001 153 153 153 255
-0.0081266677 -0.087071441 1.2190001 153 153 153 255
-0.005780953 -0.086714298 1.2140001 153 153 153 255
-0.0034685717 -0.086714298 1.2140001 153 153 153 255
-0.0011561905 -0.086714298 1.2140001 153 153 153 255
0.0011561905 -0.086714298 1.2140001 153 153 153 255
0.0034828575 -0.087071441 1.2190001 153 153 153 255
0.0058047622 -0.087071441 1.2190001 153 153 153 255
0.0081266677 -0.087071441 1.2190001 153 153 153 255
0.010448572 -0.087071441 1.2190001 153 153 153 255
0.012770478 -0.087071441 1.2190001 153 153 153 255
0.015092382 -0.087071441 1.2190001 153 153 153 255
0.017414287 -0.087071441 1.2190001 153 153 153 255
0.019736191 -0.087071441 1.2190001 153 153 153 255
0.022058096 -0.087071441 1.2190001 153 153 153 255
0.024380002 -0.087071441 1.2190001 153 153 153 255
0.026701907 -0.087071441 1.2190001 153 153 153 255
0.029023811 -0.087071441 1.2190001 153 153 153 255
0.031345718 -0.087071441 1.2190001 153 153 153 255
0.03366762 -0.087071441 1.2190001 153 153 153 255
0.035989527 -0.087071441 1.2190001 153 153 153 255
0.038311433 -0.087071441 1.2190001 153 153 153 255
0.040633336 -0.087071441 1.2190001 153 153 153 255
0.043096192 -0.087357149 1.223 153 153 153 255
0.045425717 -0.087357149 1.223 153 153 153 255
0.047911432 -0.087642863 1.2270001 153 153 153 255
-0.050084762 -0.085027628 1.223 153 153 153 255
-0.047599051 -0.084749527 1.2190001 153 153 153 255
-0.045277145 -0.084749527 1.2190001 153 153 153 255
-0.042955242 -0.084749527 1.2190001 153 153 153 255
-0.040633336 -0.084749527 1.2190001 153 153 153 255
-0.038311433 -0.084749527 1.2190001 153 153 153 255
-0.035989527 -0.084749527 1.2190001 153 153 153 255
-0.03366762 -0.084749527 1.2190001 153 153 153 255
-0.031345718 -0.084749527 1.2190001 153 153 153 255
-0.029023811 -0.084749527 1.2190001 153 153 153 255
-0.026701907 -0.084749527 1.2190001 153 153 153 255
-0.024380002 -0.084749527 1.2190001 153 153 153 255
-0.022058096 -0.084749527 1.2190001 153 153 153 255
-0.019736191 -0.084749527 1.2190001 153 153 153 255
-0.017414287 -0.084749527 1.2190001 153 153 153 255
-0.015092382 -0.084749527 1.2190001 153 153 153 255
-0.012770478 -0.084749527 1.2190001 153 153 153 255
-0.010405715 -0.084401913 1.2140001 153 153 153 255
-0.0080933347 -0.084401913 1.2140001 153 153 153 255
-0.005780953 -0.084401913 1.2140001 153 153 153 255
-0.0034685717 -0.084401913 1.2140001 153 153 153 255
-0.0011561905 -0.084401913 1.2140001 153 153 153 255
0.0011561905 -0.084401913 1.2140001 153 153 153 255
0.0034828575 -0.084749527 1.2190001 153 153 153 255
0.0058047622 -0.084749527 1.2190001 153 153 153 255
0.0081266677 -0.084749527 1.2190001 153 153 153 255
0.010448572 -0.084749527 1.2190001 153 153 153 255
0.012770478 -0.084749527 1.2190001 153 153 153 255
0.015092382 -0.084749527 1.2190001 153 153 153 255
0.017414287 -0.084749527 1.2190001 153 153 153 255
0.019736191 -0.084749527 1.2190001 153 153 153 255
0.022058096 -0.084749527 1.2190001 153 153 153 255
0.024380002 -0.084749527 1.2190001 153 153 153 255
0.026701907 -0.084749527 1.2190001 153 153 153 255
0.029023811 -0.084749527 1.2190001 153 153 153 255
0.031345718 -0.084749527 1.2190001 153 153 153 255
0.03366762 -0.084749527 1.2190001 153 153 153 255
0.035989527 -0.084749527 1.2190001 153 153 153 255
0.038311433 -0.084749527 1.2190001 153 153 153 255
0.040633336 -0.084749527 1.2190001 153 153 153 255
0.043096192 -0.085027628 1.223 153 153 153 255
0.045574289 -0.085305721 1.2270001 153 153 153 255
0.047911432 -0.085305721 1.2270001 153 153 153 255
-0.047599051 -0.082427621 1.2190001 153 153 153 255
-0.045277145 -0.082427621 1.2190001 153 153 153 255
-0.042955242 -0.082427621 1.2190001 153 153 153 255
-0.040633336 -0.082427621 1.2190001 153 153 153 255
-0.038311433 -0.082427621 1.2190001 153 153 153 255
-0.035989527 -0.082427621 1.2190001 153 153 153 255
-0.033778097 -0.082698092 1.223 153 153 153 255
-0.031345718 -0.082427621 1.2190001 153 153 153 255
-0.029023811 -0.082427621 1.2190001 153 153 153 255
-0.026701907 -0.082427621 1.2190001 153 153 153 255
-0.024380002 -0.082427621 1.2190001 153 153 153 255
-0.022058096 -0.082427621 1.2190001 153 153 153 255
-0.019736191 -0.082427621 1.2190001 153 153 153 255
-0.017414287 -0.082427621 1.2190001 153 153 153 255
-0.015092382 -0.082427621 1.2190001 153 153 153 255
-0.012770478 -0.082427621 1.2190001 153 153 153 255
-0.010405715 -0.082089528 1.2140001 153 153 153 255
-0.0080933347 -0.082089528 1.2140001 153 153 153 255
-0.0058047622 -0.082427621 1.2190001 153 153 153 255
-0.0034685717 -0.082089528 1.2140001 153 153 153 255
-0.0011561905 -0.082089528 1.2140001 153 153 153 255
0.0011609525 -0.082427621 1.2190001 153 153 153 255
0.0034828575 -0.082427621 1.2190001 153 153 153 255
0.0058047622 -0.082427621 1.2190001 153 153 153 255
0.0081266677 -0.082427621 1.2190001 153 153 153 255
0.010448572 -0.082427621 1.2190001 153 153 153 255
0.012770478 -0.082427621 1.2190001 153 153 153 255
0.015092382 -0.082427621 1.2190001 153 153 153 255
0.017471429 -0.082698092 1.223 153 153 153 255
0.019800952 -0.082698092 1.223 153 153 153 255
0.022058096 -0.082427621 1.2190001 153 153 153 255
0.024380002 -0.082427621 1.2190001 153 153 153 255
0.026701907 -0.082427621 1.2190001 153 153 153 255
0.029023811 -0.082427621 1.2190001 153 153 153 255
0.031345718 -0.082427621 1.2190001 153 153 153 255
0.03366762 -0.082427621 1.2190001 153 153 153 255
0.035989527 -0.082427621 1.2190001 153 153 153 255
0.038311433 -0.082427621 1.2190001 153 153 153 255
0.040766668 -0.082698092 1.223 153 153 153 255
0.043096192 -0.082698092 1.223 153 153 153 255
0.045574289 -0.082968585 1.2270001 153 153 153 255
-0.033778097 -0.080368571 1.223 153 153 153 255
-0.031448569 -0.080368571 1.223 153 153 153 255
-0.029119048 -0.080368571 1.223 153 153 153 255
-0.026789526 -0.080368571 1.223 153 153 153 255
-0.024460001 -0.080368571 1.223 153 153 153 255
-0.022058096 -0.080105722 1.2190001 153 153 153 255
-0.019736191 -0.080105722 1.2190001 153 153 153 255
-0.017414287 -0.080105722 1.2190001 153 153 153 255
-0.015092382 -0.080105722 1.2190001 153 153 153 255
-0.012770478 -0.080105722 1.2190001 153 153 153 255
-0.010448572 -0.080105722 1.2190001 153 153 153 255
-0.0081266677 -0.080105722 1.2190001 153 153 153 255
-0.0058047622 -0.080105722 1.2190001 153 153 153 255
-0.0034828575 -0.080105722 1.2190001 153 153 153 255
-0.0011609525 -0.080105722 1.2190001 153 153 153 255
0.0011609525 -0.080105722 1.2190001 153 153 153 255
0.0034828575 -0.080105722 1.2190001 153 153 153 255
0.0058047622 -0.080105722 1.2190001 153 153 153 255
0.0081266677 -0.080105722 1.2190001 153 153 153 255
0.010448572 -0.080105722 1.2190001 153 153 153 255
0.012770478 -0.080105722 1.2190001 153 153 153 255
0.015141904 -0.080368571 1.223 153 153 153 255
0.017471429 -0.080368571 1.223 153 153 153 255
0.024460001 -0.080368571 1.223 153 153 153 255
0.026789526 -0.080368571 1.223 153 153 153 255
0.029119048 -0.080368571 1.223 153 153 153 255
0.031448569 -0.080368571 1.223 153 153 153 255
0.033778097 -0.080368571 1.223 153 153 153 255
0.036107622 -0.080368571 1.223 153 153 153 255
0.038437143 -0.080368571 1.223 153 153 153 255
0.040766668 -0.080368571 1.223 153 153 153 255
0.04323715 -0.080631435 1.2270001 153 153 153 255
0.045574289 -0.080631435 1.2270001 153 153 153 255
-0.026789526 -0.07803905 1.223 153 153 153 255
-0.024460001 -0.07803905 1.223 153 153 153 255
-0.022130478 -0.07803905 1.223 153 153 153 255
-0.019800952 -0.07803905 1.223 153 153 153 255
-0.017414287 -0.077783816 1.2190001 153 153 153 255
-0.015092382 -0.077783816 1.2190001 153 153 153 255
-0.012770478 -0.077783816 1.2190001 153 153 153 255
-0.010448572 -0.077783816 1.2190001 153 153 153 255
-0.0081266677 -0.077783816 1.2190001 153 153 153 255
-0.0058047622 -0.077783816 1.2190001 153 153 153 255
-0.0034828575 -0.077783816 1.2190001 153 153 153 255
-0.0011609525 -0.077783816 1.2190001 153 153 153 255
0.0011609525 -0.077783816 1.2190001 153 153 153 255
0.0034942857 -0.07803905 1.223 153 153 153 255
0.0058238097 -0.07803905 1.223 153 153 153 255
0.0081533343 -0.07803905 1.223 153 153 153 255
0.010482857 -0.07803905 1.223 153 153 153 255
0.012812382 -0.07803905 1.223 153 153 153 255
0.015141904 -0.07803905 1.223 153 153 153 255
-0.017471429 -0.075709529 1.223 153 153 153 255
-0.015092382 -0.075461909 1.2190001 153 153 153 255
-0.012770478 -0.075461909 1.2190001 153 153 153 255
-0.010448572 -0.075461909 1.2190001 153 153 153 255
-0.0081266677 -0.075461909 1.2190001 153 153 153 255
-0.0058238097 -0.075709529 1.223 153 153 153 255
-0.0034942857 -0.075709529 1.223 153 153 153 255
-0.001164762 -0.075709529 1.223 153 153 153 255
0.001164762 -0.075709529 1.223 153 153 153 255
0.0034942857 -0.075709529 1.223 153 153 153 255
-0.010482857 -0.073380001 1.223 153 153 153 255
-0.0081533343 -0.073380001 1.223 153 153 153 255
-0.0058238097 -0.073380001 1.223 153 153 153 255
-0.0034942857 -0.073380001 1.223 153 153 153 255
-0.001164762 -0.073380001 1.223 153 153 153 255
0 0 0 1 0 0 0 1 0 0 0 1 0 0 0 0 0 642 1 0 0
