ply
format ascii 1.0
comment PCL generated
element vertex 904
property float x
property float y
property float z
property uchar red
property uchar green
property uchar blue
property uchar alpha
element camera 1
property float view_px
property float view_py
property float view_pz
property float x_axisx
property float x_axisy
property float x_axisz
property float y_axisx
property float y_axisy
property float y_axisz
property float z_axisx
property float z_axisy
property float z_axisz
property float focal
property float scalex
property float scaley
property float centerx
property float centery
property int viewportx
property int viewporty
property float k1
property float k2
end_header
0.012770478 -0.28211144 1.2190001 247 129 191 255
0.015092382 -0.28211144 1.2190001 247 129 191 255
0.017414287 -0.28211144 1.2190001 247 129 191 255
0.019736191 -0.28211144 1.2190001 247 129 191 255
0.022058096 -0.28211144 1.2190001 247 129 191 255
0.024380002 -0.28211144 1.2190001 247 129 191 255
0.0058666673 -0.28277335 1.2320001 247 129 191 255
0.0081266677 -0.27978954 1.2190001 247 129 191 255
0.010448572 -0.27978954 1.2190001 247 129 191 255
0.012770478 -0.27978954 1.2190001 247 129 191 255
0.015092382 -0.27978954 1.2190001 247 129 191 255
0.017414287 -0.27978954 1.2190001 247 129 191 255
0.019736191 -0.27978954 1.2190001 247 129 191 255
0.022058096 -0.27978954 1.2190001 247 129 191 255
0.024380002 -0.27978954 1.2190001 247 129 191 255
0.026789526 -0.28070763 1.223 247 129 191 255
0.029214289 -0.28162575 1.2270001 247 129 191 255
0.0035057145 -0.27928859 1.2270001 247 129 191 255
0.0058047622 -0.27746764 1.2190001 247 129 191 255
0.0081266677 -0.27746764 1.2190001 247 129 191 255
0.010448572 -0.27746764 1.2190001 247 129 191 255
0.012770478 -0.27746764 1.2190001 247 129 191 255
0.015092382 -0.27746764 1.2190001 247 129 191 255
0.017414287 -0.27746764 1.2190001 247 129 191 255
0.019736191 -0.27746764 1.2190001 247 129 191 255
0.022058096 -0.27746764 1.2190001 247 129 191 255
0.024380002 -0.27746764 1.2190001 247 129 191 255
0.026701907 -0.27746764 1.2190001 247 129 191 255
0.029119048 -0.2783781 1.223 247 129 191 255
0.031551428 -0.27928859 1.2270001 247 129 191 255
0.034137145 -0.28133717 1.2360001 247 129 191 255
-0.0082733333 -0.28011143 1.2410001 247 129 191 255
-0.0059095239 -0.28011143 1.2410001 247 129 191 255
-0.0035314288 -0.27898285 1.2360001 247 129 191 255
-0.001177143 -0.27898285 1.2360001 247 129 191 255
0.0011733334 -0.27808005 1.2320001 247 129 191 255
0.0035057145 -0.27695146 1.2270001 247 129 191 255
0.0058047622 -0.27514574 1.2190001 247 129 191 255
0.0081266677 -0.27514574 1.2190001 247 129 191 255
0.010448572 -0.27514574 1.2190001 247 129 191 255
0.012770478 -0.27514574 1.2190001 247 129 191 255
0.015092382 -0.27514574 1.2190001 247 129 191 255
0.017414287 -0.27514574 1.2190001 247 129 191 255
0.019736191 -0.27514574 1.2190001 247 129 191 255
0.022058096 -0.27514574 1.2190001 247 129 191 255
0.024380002 -0.27514574 1.2190001 247 129 191 255
0.026701907 -0.27514574 1.2190001 247 129 191 255
0.029119048 -0.27604857 1.223 247 129 191 255
0.031551428 -0.27695146 1.2270001 247 129 191 255
0.034026671 -0.27808005 1.2320001 247 129 191 255
0.036491431 -0.27898285 1.2360001 247 129 191 255
0.038845714 -0.27898285 1.2360001 247 129 191 255
-0.01314762 -0.28088096 1.2550001 247 129 191 255
-0.010714286 -0.27976191 1.25 247 129 191 255
-0.0082733333 -0.27774763 1.2410001 247 129 191 255
-0.0058857147 -0.27662858 1.2360001 247 129 191 255
-0.0035314288 -0.27662858 1.2360001 247 129 191 255
-0.0011733334 -0.27573335 1.2320001 247 129 191 255
0.0011733334 -0.27573335 1.2320001 247 129 191 255
0.0035057145 -0.2746143 1.2270001 247 129 191 255
0.0058238097 -0.27371904 1.223 247 129 191 255
0.0081266677 -0.27282384 1.2190001 247 129 191 255
0.010448572 -0.27282384 1.2190001 247 129 191 255
0.012770478 -0.27282384 1.2190001 247 129 191 255
0.015092382 -0.27282384 1.2190001 247 129 191 255
0.017414287 -0.27282384 1.2190001 247 129 191 255
0.019736191 -0.27282384 1.2190001 247 129 191 255
0.022058096 -0.27282384 1.2190001 247 129 191 255
0.024380002 -0.27282384 1.2190001 247 129 191 255
0.026701907 -0.27282384 1.2190001 247 129 191 255
0.029119048 -0.27371904 1.223 247 129 191 255
0.031551428 -0.2746143 1.2270001 247 129 191 255
0.034026671 -0.27573335 1.2320001 247 129 191 255
0.036491431 -0.27662858 1.2360001 247 129 191 255
0.038845714 -0.27662858 1.2360001 247 129 191 255
0.041200001 -0.27662858 1.2360001 247 129 191 255
0.046762858 -0.28177622 1.2590001 247 129 191 255
-0.013042857 -0.2762714 1.245 247 129 191 255
-0.010637144 -0.27538383 1.2410001 247 129 191 255
-0.0082400003 -0.27427429 1.2360001 247 129 191 255
-0.0058857147 -0.27427429 1.2360001 247 129 191 255
-0.0035200003 -0.27338669 1.2320001 247 129 191 255
-0.0011733334 -0.27338669 1.2320001 247 129 191 255
0.0011685715 -0.27227715 1.2270001 247 129 191 255
0.0035057145 -0.27227715 1.2270001 247 129 191 255
0.0058047622 -0.27050194 1.2190001 247 129 191 255
0.0081266677 -0.27050194 1.2190001 247 129 191 255
0.010405715 -0.2693924 1.2140001 247 129 191 255
0.012718096 -0.2693924 1.2140001 247 129 191 255
0.015030477 -0.2693924 1.2140001 247 129 191 255
0.017342858 -0.2693924 1.2140001 247 129 191 255
0.019655241 -0.2693924 1.2140001 247 129 191 255
0.022058096 -0.27050194 1.2190001 247 129 191 255
0.024380002 -0.27050194 1.2190001 247 129 191 255
0.026701907 -0.27050194 1.2190001 247 129 191 255
0.029119048 -0.27138954 1.223 247 129 191 255
0.031551428 -0.27227715 1.2270001 247 129 191 255
0.034026671 -0.27338669 1.2320001 247 129 191 255
0.03637334 -0.27338669 1.2320001 247 129 191 255
0.038845714 -0.27427429 1.2360001 247 129 191 255
0.041200001 -0.27427429 1.2360001 247 129 191 255
0.043730479 -0.27538383 1.2410001 247 129 191 255
0.046428572 -0.27738094 1.25 247 129 191 255
-0.020383811 -0.27698001 1.2590001 247 129 191 255
-0.017928572 -0.27610004 1.2550001 247 129 191 255
-0.01547619 -0.27500001 1.25 247 129 191 255
-0.013000953 -0.27302003 1.2410001 247 129 191 255
-0.010594286 -0.27192003 1.2360001 247 129 191 255
-0.0082400003 -0.27192003 1.2360001 247 129 191 255
-0.0058666673 -0.27104002 1.2320001 247 129 191 255
-0.0035200003 -0.27104002 1.2320001 247 129 191 255
-0.0011685715 -0.26994005 1.2270001 247 129 191 255
0.0011685715 -0.26994005 1.2270001 247 129 191 255
0.0034942857 -0.26905999 1.223 247 129 191 255
0.0058047622 -0.26818001 1.2190001 247 129 191 255
0.0080933347 -0.26708001 1.2140001 247 129 191 255
0.010405715 -0.26708001 1.2140001 247 129 191 255
0.012718096 -0.26708001 1.2140001 247 129 191 255
0.015030477 -0.26708001 1.2140001 247 129 191 255
0.017342858 -0.26708001 1.2140001 247 129 191 255
0.019655241 -0.26708001 1.2140001 247 129 191 255
0.021967622 -0.26708001 1.2140001 247 129 191 255
0.024380002 -0.26818001 1.2190001 247 129 191 255
0.026701907 -0.26818001 1.2190001 247 129 191 255
0.029023811 -0.26818001 1.2190001 247 129 191 255
0.031551428 -0.26994005 1.2270001 247 129 191 255
0.033888575 -0.26994005 1.2270001 247 129 191 255
0.03637334 -0.27104002 1.2320001 247 129 191 255
0.038845714 -0.27192003 1.2360001 247 129 191 255
0.041200001 -0.27192003 1.2360001 247 129 191 255
0.043730479 -0.27302003 1.2410001 247 129 191 255
0.046094287 -0.27302003 1.2410001 247 129 191 255
0.048809525 -0.27500001 1.25 247 129 191 255
0.05155905 -0.27698001 1.2590001 247 129 191 255
-0.027578095 -0.27458191 1.2590001 247 129 191 255
-0.025180001 -0.27458191 1.2590001 247 129 191 255
-0.022709524 -0.27370954 1.2550001 247 129 191 255
-0.020238096 -0.27261904 1.25 247 129 191 255
-0.017857142 -0.27261904 1.25 247 129 191 255
-0.015364763 -0.2706562 1.2410001 247 129 191 255
-0.012948572 -0.26956573 1.2360001 247 129 191 255
-0.010594286 -0.26956573 1.2360001 247 129 191 255
-0.0082400003 -0.26956573 1.2360001 247 129 191 255
-0.0058666673 -0.26869336 1.2320001 247 129 191 255
-0.0035200003 -0.26869336 1.2320001 247 129 191 255
-0.0011685715 -0.26760289 1.2270001 247 129 191 255
0.0011685715 -0.26760289 1.2270001 247 129 191 255
0.0034942857 -0.26673049 1.223 247 129 191 255
0.0058047622 -0.26585811 1.2190001 247 129 191 255
0.0080933347 -0.26476762 1.2140001 247 129 191 255
0.010405715 -0.26476762 1.2140001 247 129 191 255
0.012718096 -0.26476762 1.2140001 247 129 191 255
0.015030477 -0.26476762 1.2140001 247 129 191 255
0.017342858 -0.26476762 1.2140001 247 129 191 255
0.019655241 -0.26476762 1.2140001 247 129 191 255
0.021967622 -0.26476762 1.2140001 247 129 191 255
0.024380002 -0.26585811 1.2190001 247 129 191 255
0.026701907 -0.26585811 1.2190001 247 129 191 255
0.029023811 -0.26585811 1.2190001 247 129 191 255
0.031448569 -0.26673049 1.223 247 129 191 255
0.033888575 -0.26760289 1.2270001 247 129 191 255
0.03637334 -0.26869336 1.2320001 247 129 191 255
0.038720001 -0.26869336 1.2320001 247 129 191 255
0.041200001 -0.26956573 1.2360001 247 129 191 255
0.043554287 -0.26956573 1.2360001 247 129 191 255
0.046094287 -0.2706562 1.2410001 247 129 191 255
0.048614286 -0.27152857 1.245 247 129 191 255
0.051395241 -0.27370954 1.2550001 247 129 191 255
0.053957146 -0.27458191 1.2590001 247 129 191 255
0.056355242 -0.27458191 1.2590001 247 129 191 255
-0.032374285 -0.27218381 1.2590001 247 129 191 255
-0.029976193 -0.27218381 1.2590001 247 129 191 255
-0.027490478 -0.27131909 1.2550001 247 129 191 255
-0.025100002 -0.27131909 1.2550001 247 129 191 255
-0.022619048 -0.2702381 1.25 247 129 191 255
-0.020157143 -0.26915714 1.245 247 129 191 255
-0.017728573 -0.26829237 1.2410001 247 129 191 255
-0.015302857 -0.26721144 1.2360001 247 129 191 255
-0.012948572 -0.26721144 1.2360001 247 129 191 255
-0.010594286 -0.26721144 1.2360001 247 129 191 255
-0.0082133338 -0.26634669 1.2320001 247 129 191 255
-0.0058666673 -0.26634669 1.2320001 247 129 191 255
-0.0035200003 -0.26634669 1.2320001 247 129 191 255
-0.0011685715 -0.26526573 1.2270001 247 129 191 255
0.001164762 -0.26440096 1.223 247 129 191 255
0.0034942857 -0.26440096 1.223 247 129 191 255
0.005780953 -0.26245525 1.2140001 247 129 191 255
0.0080933347 -0.26245525 1.2140001 247 129 191 255
0.010405715 -0.26245525 1.2140001 247 129 191 255
0.012676191 -0.26159048 1.21 247 129 191 255
0.014980952 -0.26159048 1.21 247 129 191 255
0.017285716 -0.26159048 1.21 247 129 191 255
0.019590477 -0.26159048 1.21 247 129 191 255
0.021967622 -0.26245525 1.2140001 247 129 191 255
0.02428 -0.26245525 1.2140001 247 129 191 255
0.026701907 -0.26353619 1.2190001 247 129 191 255
0.029023811 -0.26353619 1.2190001 247 129 191 255
0.031448569 -0.26440096 1.223 247 129 191 255
0.033888575 -0.26526573 1.2270001 247 129 191 255
0.036225718 -0.26526573 1.2270001 247 129 191 255
0.038720001 -0.26634669 1.2320001 247 129 191 255
0.041066669 -0.26634669 1.2320001 247 129 191 255
0.043554287 -0.26721144 1.2360001 247 129 191 255
0.045908574 -0.26721144 1.2360001 247 129 191 255
0.048614286 -0.26915714 1.245 247 129 191 255
0.051190477 -0.2702381 1.25 247 129 191 255
0.053785719 -0.27131909 1.2550001 247 129 191 255
0.056176193 -0.27131909 1.2550001 247 129 191 255
0.058753334 -0.27218381 1.2590001 247 129 191 255
-0.029880956 -0.26892859 1.2550001 247 129 191 255
-0.027490478 -0.26892859 1.2550001 247 129 191 255
-0.025100002 -0.26892859 1.2550001 247 129 191 255
-0.022619048 -0.26785713 1.25 247 129 191 255
-0.020157143 -0.26678571 1.245 247 129 191 255
-0.017728573 -0.26592857 1.2410001 247 129 191 255
-0.015302857 -0.26485714 1.2360001 247 129 191 255
-0.012948572 -0.26485714 1.2360001 247 129 191 255
-0.010594286 -0.26485714 1.2360001 247 129 191 255
-0.0082133338 -0.264 1.2320001 247 129 191 255
-0.0058666673 -0.264 1.2320001 247 129 191 255
-0.0035200003 -0.264 1.2320001 247 129 191 255
-0.0011685715 -0.26292858 1.2270001 247 129 191 255
0.001164762 -0.26207143 1.223 247 129 191 255
0.0034828575 -0.26121432 1.2190001 247 129 191 255
0.005780953 -0.26014286 1.2140001 247 129 191 255
0.0080933347 -0.26014286 1.2140001 247 129 191 255
0.010371429 -0.25928572 1.21 247 129 191 255
0.012676191 -0.25928572 1.21 247 129 191 255
0.014980952 -0.25928572 1.21 247 129 191 255
0.017285716 -0.25928572 1.21 247 129 191 255
0.019590477 -0.25928572 1.21 247 129 191 255
0.021967622 -0.26014286 1.2140001 247 129 191 255
0.02428 -0.26014286 1.2140001 247 129 191 255
0.026701907 -0.26121432 1.2190001 247 129 191 255
0.029023811 -0.26121432 1.2190001 247 129 191 255
0.031448569 -0.26207143 1.223 247 129 191 255
0.033778097 -0.26207143 1.223 247 129 191 255
0.036225718 -0.26292858 1.2270001 247 129 191 255
0.038720001 -0.264 1.2320001 247 129 191 255
0.041066669 -0.264 1.2320001 247 129 191 255
0.043554287 -0.26485714 1.2360001 247 129 191 255
0.045908574 -0.26485714 1.2360001 247 129 191 255
0.048614286 -0.26678571 1.245 247 129 191 255
0.050985713 -0.26678571 1.245 247 129 191 255
0.053571429 -0.26785713 1.25 247 129 191 255
0.055952381 -0.26785713 1.25 247 129 191 255
0.058566671 -0.26892859 1.2550001 247 129 191 255
0.061151426 -0.26978573 1.2590001 247 129 191 255
-0.03227143 -0.26653811 1.2550001 247 129 191 255
-0.029880956 -0.26653811 1.2550001 247 129 191 255
-0.027490478 -0.26653811 1.2550001 247 129 191 255
-0.025 -0.2654762 1.25 247 129 191 255
-0.022528572 -0.26441428 1.245 247 129 191 255
-0.020157143 -0.26441428 1.245 247 129 191 255
-0.017728573 -0.26356477 1.2410001 247 129 191 255
-0.015302857 -0.26250288 1.2360001 247 129 191 255
-0.012948572 -0.26250288 1.2360001 247 129 191 255
-0.010560001 -0.26165336 1.2320001 247 129 191 255
-0.0082133338 -0.26165336 1.2320001 247 129 191 255
-0.0058666673 -0.26165336 1.2320001 247 129 191 255
-0.0035200003 -0.26165336 1.2320001 247 129 191 255
-0.0011685715 -0.26059145 1.2270001 247 129 191 255
0.001164762 -0.2597419 1.223 247 129 191 255
0.0034828575 -0.25889242 1.2190001 247 129 191 255
0.005780953 -0.2578305 1.2140001 247 129 191 255
0.0080666672 -0.25698096 1.21 247 129 191 255
0.010371429 -0.25698096 1.21 247 129 191 255
0.012676191 -0.25698096 1.21 247 129 191 255
0.01493143 -0.25613144 1.2060001 247 129 191 255
0.017228574 -0.25613144 1.2060001 247 129 191 255
0.019590477 -0.25698096 1.21 247 129 191 255
0.021967622 -0.2578305 1.2140001 247 129 191 255
0.02428 -0.2578305 1.2140001 247 129 191 255
0.026592383 -0.2578305 1.2140001 247 129 191 255
0.029023811 -0.25889242 1.2190001 247 129 191 255
0.031345718 -0.25889242 1.2190001 247 129 191 255
0.033778097 -0.2597419 1.223 247 129 191 255
0.036225718 -0.26059145 1.2270001 247 129 191 255
0.03856286 -0.26059145 1.2270001 247 129 191 255
0.041066669 -0.26165336 1.2320001 247 129 191 255
0.043413337 -0.26165336 1.2320001 247 129 191 255
0.045908574 -0.26250288 1.2360001 247 129 191 255
0.048614286 -0.26441428 1.245 247 129 191 255
0.050985713 -0.26441428 1.245 247 129 191 255
0.053571429 -0.2654762 1.25 247 129 191 255
0.055952381 -0.2654762 1.25 247 129 191 255
0.058566671 -0.26653811 1.2550001 247 129 191 255
0.061151426 -0.26738763 1.2590001 247 129 191 255
0.063549526 -0.26738763 1.2590001 247 129 191 255
-0.03227143 -0.26414764 1.2550001 247 129 191 255
-0.029880956 -0.26414764 1.2550001 247 129 191 255
-0.027380953 -0.26309523 1.25 247 129 191 255
-0.025 -0.26309523 1.25 247 129 191 255
-0.022528572 -0.26204285 1.245 247 129 191 255
-0.020157143 -0.26204285 1.245 247 129 191 255
-0.017728573 -0.26120096 1.2410001 247 129 191 255
-0.015302857 -0.26014858 1.2360001 247 129 191 255
-0.012948572 -0.26014858 1.2360001 247 129 191 255
-0.010560001 -0.2593067 1.2320001 247 129 191 255
-0.0082133338 -0.2593067 1.2320001 247 129 191 255
-0.0058666673 -0.2593067 1.2320001 247 129 191 255
-0.0035057145 -0.25825432 1.2270001 247 129 191 255
-0.001164762 -0.2574124 1.223 247 129 191 255
0.001164762 -0.2574124 1.223 247 129 191 255
0.0034828575 -0.25657049 1.2190001 247 129 191 255
0.005780953 -0.25551814 1.2140001 247 129 191 255
0.0080666672 -0.25467619 1.21 247 129 191 255
0.010371429 -0.25467619 1.21 247 129 191 255
0.012634287 -0.25383431 1.2060001 247 129 191 255
0.01493143 -0.25383431 1.2060001 247 129 191 255
0.017228574 -0.25383431 1.2060001 247 129 191 255
0.019525714 -0.25383431 1.2060001 247 129 191 255
0.021895239 -0.25467619 1.21 247 129 191 255
0.02428 -0.25551814 1.2140001 247 129 191 255
0.026592383 -0.25551814 1.2140001 247 129 191 255
0.029023811 -0.25657049 1.2190001 247 129 191 255
0.031345718 -0.25657049 1.2190001 247 129 191 255
0.033778097 -0.2574124 1.223 247 129 191 255
0.036107622 -0.2574124 1.223 247 129 191 255
0.03856286 -0.25825432 1.2270001 247 129 191 255
0.041066669 -0.2593067 1.2320001 247 129 191 255
0.043413337 -0.2593067 1.2320001 247 129 191 255
0.045908574 -0.26014858 1.2360001 247 129 191 255
0.048614286 -0.26204285 1.245 247 129 191 255
0.050985713 -0.26204285 1.245 247 129 191 255
0.053571429 -0.26309523 1.25 247 129 191 255
0.055952381 -0.26309523 1.25 247 129 191 255
0.058566671 -0.26414764 1.2550001 247 129 191 255
0.061151426 -0.26498953 1.2590001 247 129 191 255
0.063549526 -0.26498953 1.2590001 247 129 191 255
-0.034661908 -0.26175717 1.2550001 247 129 191 255
-0.03227143 -0.26175717 1.2550001 247 129 191 255
-0.029880956 -0.26175717 1.2550001 247 129 191 255
-0.027380953 -0.26071429 1.25 247 129 191 255
-0.025 -0.26071429 1.25 247 129 191 255
-0.022528572 -0.25967142 1.245 247 129 191 255
-0.020157143 -0.25967142 1.245 247 129 191 255
-0.017728573 -0.25883716 1.2410001 247 129 191 255
-0.015302857 -0.25779429 1.2360001 247 129 191 255
-0.012948572 -0.25779429 1.2360001 247 129 191 255
-0.010560001 -0.25696 1.2320001 247 129 191 255
-0.0082133338 -0.25696 1.2320001 247 129 191 255
-0.0058666673 -0.25696 1.2320001 247 129 191 255
-0.0035057145 -0.25591716 1.2270001 247 129 191 255
-0.001164762 -0.25508285 1.223 247 129 191 255
0.001164762 -0.25508285 1.223 247 129 191 255
0.0034828575 -0.25424859 1.2190001 247 129 191 255
0.005780953 -0.25320575 1.2140001 247 129 191 255
0.0080666672 -0.25237146 1.21 247 129 191 255
0.010371429 -0.25237146 1.21 247 129 191 255
0.012634287 -0.25153714 1.2060001 247 129 191 255
0.01493143 -0.25153714 1.2060001 247 129 191 255
0.017228574 -0.25153714 1.2060001 247 129 191 255
0.019525714 -0.25153714 1.2060001 247 129 191 255
0.021895239 -0.25237146 1.21 247 129 191 255
0.02428 -0.25320575 1.2140001 247 129 191 255
0.026592383 -0.25320575 1.2140001 247 129 191 255
0.029023811 -0.25424859 1.2190001 247 129 191 255
0.031345718 -0.25424859 1.2190001 247 129 191 255
0.033778097 -0.25508285 1.223 247 129 191 255
0.036107622 -0.25508285 1.223 247 129 191 255
0.03856286 -0.25591716 1.2270001 247 129 191 255
0.041066669 -0.25696 1.2320001 247 129 191 255
0.043413337 -0.25696 1.2320001 247 129 191 255
0.045908574 -0.25779429 1.2360001 247 129 191 255
0.048614286 -0.25967142 1.245 247 129 191 255
0.050985713 -0.25967142 1.245 247 129 191 255
0.053571429 -0.26071429 1.25 247 129 191 255
0.055952381 -0.26071429 1.25 247 129 191 255
0.058566671 -0.26175717 1.2550001 247 129 191 255
0.060957149 -0.26175717 1.2550001 247 129 191 255
0.063549526 -0.26259142 1.2590001 247 129 191 255
-0.037052382 -0.25936669 1.2550001 247 129 191 255
-0.034661908 -0.25936669 1.2550001 247 129 191 255
-0.03227143 -0.25936669 1.2550001 247 129 191 255
-0.029880956 -0.25936669 1.2550001 247 129 191 255
-0.027380953 -0.25833333 1.25 247 129 191 255
-0.025 -0.25833333 1.25 247 129 191 255
-0.022528572 -0.25730002 1.245 247 129 191 255
-0.020092381 -0.25647333 1.2410001 247 129 191 255
-0.017657144 -0.25544 1.2360001 247 129 191 255
-0.015302857 -0.25544 1.2360001 247 129 191 255
-0.012948572 -0.25544 1.2360001 247 129 191 255
-0.010560001 -0.25461334 1.2320001 247 129 191 255
-0.0082133338 -0.25461334 1.2320001 247 129 191 255
-0.0058428575 -0.25358003 1.2270001 247 129 191 255
-0.0035057145 -0.25358003 1.2270001 247 129 191 255
-0.001164762 -0.25275335 1.223 247 129 191 255
0.0011609525 -0.25192666 1.2190001 247 129 191 255
0.0034828575 -0.25192666 1.2190001 247 129 191 255
0.005780953 -0.25089335 1.2140001 247 129 191 255
0.0080933347 -0.25089335 1.2140001 247 129 191 255
0.010371429 -0.25006667 1.21 247 129 191 255
0.012676191 -0.25006667 1.21 247 129 191 255
0.014980952 -0.25006667 1.21 247 129 191 255
0.017285716 -0.25006667 1.21 247 129 191 255
0.019590477 -0.25006667 1.21 247 129 191 255
0.021895239 -0.25006667 1.21 247 129 191 255
0.02428 -0.25089335 1.2140001 247 129 191 255
0.026592383 -0.25089335 1.2140001 247 129 191 255
0.029023811 -0.25192666 1.2190001 247 129 191 255
0.031345718 -0.25192666 1.2190001 247 129 191 255
0.033778097 -0.25275335 1.223 247 129 191 255
0.036107622 -0.25275335 1.223 247 129 191 255
0.03856286 -0.25358003 1.2270001 247 129 191 255
0.041066669 -0.25461334 1.2320001 247 129 191 255
0.043413337 -0.25461334 1.2320001 247 129 191 255
0.045908574 -0.25544 1.2360001 247 129 191 255
0.048458096 -0.25647333 1.2410001 247 129 191 255
0.050985713 -0.25730002 1.245 247 129 191 255
0.053357143 -0.25730002 1.245 247 129 191 255
0.055952381 -0.25833333 1.25 247 129 191 255
0.058566671 -0.25936669 1.2550001 247 129 191 255
0.060957149 -0.25936669 1.2550001 247 129 191 255
0.063549526 -0.26019335 1.2590001 247 129 191 255
-0.037052382 -0.25697619 1.2550001 247 129 191 255
-0.034661908 -0.25697619 1.2550001 247 129 191 255
-0.03227143 -0.25697619 1.2550001 247 129 191 255
-0.029761905 -0.25595239 1.25 247 129 191 255
-0.027380953 -0.25595239 1.25 247 129 191 255
-0.024900001 -0.25492856 1.245 247 129 191 255
-0.022528572 -0.25492856 1.245 247 129 191 255
-0.020092381 -0.25410953 1.2410001 247 129 191 255
-0.017657144 -0.25308573 1.2360001 247 129 191 255
-0.015302857 -0.25308573 1.2360001 247 129 191 255
-0.012948572 -0.25308573 1.2360001 247 129 191 255
-0.010560001 -0.25226671 1.2320001 247 129 191 255
-0.0082133338 -0.25226671 1.2320001 247 129 191 255
-0.0058428575 -0.25124288 1.2270001 247 129 191 255
-0.0035057145 -0.25124288 1.2270001 247 129 191 255
-0.001164762 -0.25042382 1.223 247 129 191 255
0.0011609525 -0.24960478 1.2190001 247 129 191 255
0.0034828575 -0.24960478 1.2190001 247 129 191 255
0.005780953 -0.24858096 1.2140001 247 129 191 255
0.0080933347 -0.24858096 1.2140001 247 129 191 255
0.010371429 -0.24776189 1.21 247 129 191 255
0.012676191 -0.24776189 1.21 247 129 191 255
0.014980952 -0.24776189 1.21 247 129 191 255
0.017285716 -0.24776189 1.21 247 129 191 255
0.019590477 -0.24776189 1.21 247 129 191 255
0.021895239 -0.24776189 1.21 247 129 191 255
0.02428 -0.24858096 1.2140001 247 129 191 255
0.026592383 -0.24858096 1.2140001 247 129 191 255
0.029023811 -0.24960478 1.2190001 247 129 191 255
0.031345718 -0.24960478 1.2190001 247 129 191 255
0.033778097 -0.25042382 1.223 247 129 191 255
0.036107622 -0.25042382 1.223 247 129 191 255
0.03856286 -0.25124288 1.2270001 247 129 191 255
0.040900003 -0.25124288 1.2270001 247 129 191 255
0.043413337 -0.25226671 1.2320001 247 129 191 255
0.045760002 -0.25226671 1.2320001 247 129 191 255
0.048458096 -0.25410953 1.2410001 247 129 191 255
0.050985713 -0.25492856 1.245 247 129 191 255
0.053357143 -0.25492856 1.245 247 129 191 255
0.055952381 -0.25595239 1.25 247 129 191 255
0.058566671 -0.25697619 1.2550001 247 129 191 255
0.060957149 -0.25697619 1.2550001 247 129 191 255
0.063549526 -0.25779527 1.2590001 247 129 191 255
-0.037052382 -0.25458574 1.2550001 247 129 191 255
-0.034661908 -0.25458574 1.2550001 247 129 191 255
-0.03227143 -0.25458574 1.2550001 247 129 191 255
-0.029761905 -0.25357142 1.25 247 129 191 255
-0.027380953 -0.25357142 1.25 247 129 191 255
-0.024900001 -0.25255713 1.245 247 129 191 255
-0.022528572 -0.25255713 1.245 247 129 191 255
-0.020092381 -0.25174573 1.2410001 247 129 191 255
-0.017657144 -0.25073144 1.2360001 247 129 191 255
-0.015302857 -0.25073144 1.2360001 247 129 191 255
-0.012948572 -0.25073144 1.2360001 247 129 191 255
-0.010560001 -0.24992001 1.2320001 247 129 191 255
-0.0082133338 -0.24992001 1.2320001 247 129 191 255
-0.0058428575 -0.24890572 1.2270001 247 129 191 255
-0.0035057145 -0.24890572 1.2270001 247 129 191 255
-0.001164762 -0.24809431 1.223 247 129 191 255
0.0011609525 -0.24728289 1.2190001 247 129 191 255
0.0034828575 -0.24728289 1.2190001 247 129 191 255
0.005780953 -0.2462686 1.2140001 247 129 191 255
0.0080933347 -0.2462686 1.2140001 247 129 191 255
0.010405715 -0.2462686 1.2140001 247 129 191 255
0.012676191 -0.24545716 1.21 247 129 191 255
0.014980952 -0.24545716 1.21 247 129 191 255
0.017285716 -0.24545716 1.21 247 129 191 255
0.019590477 -0.24545716 1.21 247 129 191 255
0.021967622 -0.2462686 1.2140001 247 129 191 255
0.02428 -0.2462686 1.2140001 247 129 191 255
0.026592383 -0.2462686 1.2140001 247 129 191 255
0.029023811 -0.24728289 1.2190001 247 129 191 255
0.031345718 -0.24728289 1.2190001 247 129 191 255
0.033778097 -0.24809431 1.223 247 129 191 255
0.036107622 -0.24809431 1.223 247 129 191 255
0.03856286 -0.24890572 1.2270001 247 129 191 255
0.040900003 -0.24890572 1.2270001 247 129 191 255
0.043413337 -0.24992001 1.2320001 247 129 191 255
0.045760002 -0.24992001 1.2320001 247 129 191 255
0.048458096 -0.25174573 1.2410001 247 129 191 255
0.050985713 -0.25255713 1.245 247 129 191 255
0.053357143 -0.25255713 1.245 247 129 191 255
0.055952381 -0.25357142 1.25 247 129 191 255
0.058566671 -0.25458574 1.2550001 247 129 191 255
0.060957149 -0.25458574 1.2550001 247 129 191 255
0.063549526 -0.25539717 1.2590001 247 129 191 255
-0.037052382 -0.25219527 1.2550001 247 129 191 255
-0.034661908 -0.25219527 1.2550001 247 129 191 255
-0.03227143 -0.25219527 1.2550001 247 129 191 255
-0.029761905 -0.25119048 1.25 247 129 191 255
-0.027380953 -0.25119048 1.25 247 129 191 255
-0.024900001 -0.25018573 1.245 247 129 191 255
-0.022528572 -0.25018573 1.245 247 129 191 255
-0.020092381 -0.24938191 1.2410001 247 129 191 255
-0.017657144 -0.24837716 1.2360001 247 129 191 255
-0.015302857 -0.24837716 1.2360001 247 129 191 255
-0.012948572 -0.24837716 1.2360001 247 129 191 255
-0.010560001 -0.24757336 1.2320001 247 129 191 255
-0.0082133338 -0.24757336 1.2320001 247 129 191 255
-0.0058428575 -0.24656861 1.2270001 247 129 191 255
-0.0035057145 -0.24656861 1.2270001 247 129 191 255
-0.001164762 -0.24576476 1.223 247 129 191 255
0.0011609525 -0.24496096 1.2190001 247 129 191 255
0.0034828575 -0.24496096 1.2190001 247 129 191 255
0.0058047622 -0.24496096 1.2190001 247 129 191 255
0.0080933347 -0.24395621 1.2140001 247 129 191 255
0.010405715 -0.24395621 1.2140001 247 129 191 255
0.012718096 -0.24395621 1.2140001 247 129 191 255
0.015030477 -0.24395621 1.2140001 247 129 191 255
0.017342858 -0.24395621 1.2140001 247 129 191 255
0.019655241 -0.24395621 1.2140001 247 129 191 255
0.021967622 -0.24395621 1.2140001 247 129 191 255
0.02428 -0.24395621 1.2140001 247 129 191 255
0.026701907 -0.24496096 1.2190001 247 129 191 255
0.029023811 -0.24496096 1.2190001 247 129 191 255
0.031345718 -0.24496096 1.2190001 247 129 191 255
0.033778097 -0.24576476 1.223 247 129 191 255
0.036225718 -0.24656861 1.2270001 247 129 191 255
0.03856286 -0.24656861 1.2270001 247 129 191 255
0.040900003 -0.24656861 1.2270001 247 129 191 255
0.043413337 -0.24757336 1.2320001 247 129 191 255
0.045760002 -0.24757336 1.2320001 247 129 191 255
0.048262861 -0.24837716 1.2360001 247 129 191 255
0.050821908 -0.24938191 1.2410001 247 129 191 255
0.053357143 -0.25018573 1.245 247 129 191 255
0.055952381 -0.25119048 1.25 247 129 191 255
0.058333334 -0.25119048 1.25 247 129 191 255
0.060957149 -0.25219527 1.2550001 247 129 191 255
0.063347623 -0.25219527 1.2550001 247 129 191 255
0.065947622 -0.25299907 1.2590001 247 129 191 255
-0.034661908 -0.24980476 1.2550001 247 129 191 255
-0.03227143 -0.24980476 1.2550001 247 129 191 255
-0.029761905 -0.24880952 1.25 247 129 191 255
-0.027380953 -0.24880952 1.25 247 129 191 255
-0.024900001 -0.24781427 1.245 247 129 191 255
-0.022456191 -0.24701811 1.2410001 247 129 191 255
-0.020092381 -0.24701811 1.2410001 247 129 191 255
-0.017657144 -0.24602287 1.2360001 247 129 191 255
-0.015302857 -0.24602287 1.2360001 247 129 191 255
-0.012948572 -0.24602287 1.2360001 247 129 191 255
-0.010560001 -0.2452267 1.2320001 247 129 191 255
-0.0082133338 -0.2452267 1.2320001 247 129 191 255
-0.0058428575 -0.24423145 1.2270001 247 129 191 255
-0.0035057145 -0.24423145 1.2270001 247 129 191 255
-0.001164762 -0.24343525 1.223 247 129 191 255
0.0011609525 -0.24263906 1.2190001 247 129 191 255
0.0034828575 -0.24263906 1.2190001 247 129 191 255
0.0058047622 -0.24263906 1.2190001 247 129 191 255
0.0081266677 -0.24263906 1.2190001 247 129 191 255
0.010448572 -0.24263906 1.2190001 247 129 191 255
0.012718096 -0.24164383 1.2140001 247 129 191 255
0.015030477 -0.24164383 1.2140001 247 129 191 255
0.017342858 -0.24164383 1.2140001 247 129 191 255
0.019655241 -0.24164383 1.2140001 247 129 191 255
0.021967622 -0.24164383 1.2140001 247 129 191 255
0.02428 -0.24164383 1.2140001 247 129 191 255
0.026701907 -0.24263906 1.2190001 247 129 191 255
0.029023811 -0.24263906 1.2190001 247 129 191 255
0.031345718 -0.24263906 1.2190001 247 129 191 255
0.033778097 -0.24343525 1.223 247 129 191 255
0.036225718 -0.24423145 1.2270001 247 129 191 255
0.03856286 -0.24423145 1.2270001 247 129 191 255
0.040900003 -0.24423145 1.2270001 247 129 191 255
0.043413337 -0.2452267 1.2320001 247 129 191 255
0.045760002 -0.2452267 1.2320001 247 129 191 255
0.048262861 -0.24602287 1.2360001 247 129 191 255
0.050821908 -0.24701811 1.2410001 247 129 191 255
0.053571429 -0.24880952 1.25 247 129 191 255
0.055952381 -0.24880952 1.25 247 129 191 255
0.058333334 -0.24880952 1.25 247 129 191 255
0.060957149 -0.24980476 1.2550001 247 129 191 255
0.063347623 -0.24980476 1.2550001 247 129 191 255
-0.032142855 -0.24642856 1.25 247 129 191 255
-0.029761905 -0.24642856 1.25 247 129 191 255
-0.027380953 -0.24642856 1.25 247 129 191 255
-0.024900001 -0.24544285 1.245 247 129 191 255
-0.022456191 -0.24465431 1.2410001 247 129 191 255
-0.020092381 -0.24465431 1.2410001 247 129 191 255
-0.017657144 -0.24366859 1.2360001 247 129 191 255
-0.015302857 -0.24366859 1.2360001 247 129 191 255
-0.012948572 -0.24366859 1.2360001 247 129 191 255
-0.010560001 -0.24288002 1.2320001 247 129 191 255
-0.0082133338 -0.24288002 1.2320001 247 129 191 255
-0.0058666673 -0.24288002 1.2320001 247 129 191 255
-0.0035057145 -0.2418943 1.2270001 247 129 191 255
-0.0011685715 -0.2418943 1.2270001 247 129 191 255
0.001164762 -0.24110572 1.223 247 129 191 255
0.0034942857 -0.24110572 1.223 247 129 191 255
0.0058047622 -0.24031717 1.2190001 247 129 191 255
0.0081266677 -0.24031717 1.2190001 247 129 191 255
0.010448572 -0.24031717 1.2190001 247 129 191 255
0.012770478 -0.24031717 1.2190001 247 129 191 255
0.015092382 -0.24031717 1.2190001 247 129 191 255
0.017414287 -0.24031717 1.2190001 247 129 191 255
0.019736191 -0.24031717 1.2190001 247 129 191 255
0.022058096 -0.24031717 1.2190001 247 129 191 255
0.024380002 -0.24031717 1.2190001 247 129 191 255
0.026701907 -0.24031717 1.2190001 247 129 191 255
0.029119048 -0.24110572 1.223 247 129 191 255
0.031448569 -0.24110572 1.223 247 129 191 255
0.033778097 -0.24110572 1.223 247 129 191 255
0.036225718 -0.2418943 1.2270001 247 129 191 255
0.03856286 -0.2418943 1.2270001 247 129 191 255
0.041066669 -0.24288002 1.2320001 247 129 191 255
0.043413337 -0.24288002 1.2320001 247 129 191 255
0.045760002 -0.24288002 1.2320001 247 129 191 255
0.048262861 -0.24366859 1.2360001 247 129 191 255
0.050821908 -0.24465431 1.2410001 247 129 191 255
0.053357143 -0.24544285 1.245 247 129 191 255
0.05572857 -0.24544285 1.245 247 129 191 255
0.058333334 -0.24642856 1.25 247 129 191 255
0.060957149 -0.24741432 1.2550001 247 129 191 255
0.063347623 -0.24741432 1.2550001 247 129 191 255
-0.034523807 -0.24404761 1.25 247 129 191 255
-0.032142855 -0.24404761 1.25 247 129 191 255
-0.029761905 -0.24404761 1.25 247 129 191 255
-0.027271429 -0.24307144 1.245 247 129 191 255
-0.024900001 -0.24307144 1.245 247 129 191 255
-0.022456191 -0.24229048 1.2410001 247 129 191 255
-0.020092381 -0.24229048 1.2410001 247 129 191 255
-0.017657144 -0.24131429 1.2360001 247 129 191 255
-0.015302857 -0.24131429 1.2360001 247 129 191 255
-0.012948572 -0.24131429 1.2360001 247 129 191 255
-0.010560001 -0.24053335 1.2320001 247 129 191 255
-0.0082133338 -0.24053335 1.2320001 247 129 191 255
-0.0058666673 -0.24053335 1.2320001 247 129 191 255
-0.0035057145 -0.23955716 1.2270001 247 129 191 255
-0.0011685715 -0.23955716 1.2270001 247 129 191 255
0.001164762 -0.23877619 1.223 247 129 191 255
0.0034942857 -0.23877619 1.223 247 129 191 255
0.0058238097 -0.23877619 1.223 247 129 191 255
0.0081533343 -0.23877619 1.223 247 129 191 255
0.010482857 -0.23877619 1.223 247 129 191 255
0.012812382 -0.23877619 1.223 247 129 191 255
0.015092382 -0.23799525 1.2190001 247 129 191 255
0.017414287 -0.23799525 1.2190001 247 129 191 255
0.019736191 -0.23799525 1.2190001 247 129 191 255
0.022130478 -0.23877619 1.223 247 129 191 255
0.024460001 -0.23877619 1.223 247 129 191 255
0.026877144 -0.23955716 1.2270001 247 129 191 255
0.029214289 -0.23955716 1.2270001 247 129 191 255
0.031551428 -0.23955716 1.2270001 247 129 191 255
0.034026671 -0.24053335 1.2320001 247 129 191 255
0.03637334 -0.24053335 1.2320001 247 129 191 255
0.038720001 -0.24053335 1.2320001 247 129 191 255
0.041066669 -0.24053335 1.2320001 247 129 191 255
0.043413337 -0.24053335 1.2320001 247 129 191 255
0.045908574 -0.24131429 1.2360001 247 129 191 255
0.048262861 -0.24131429 1.2360001 247 129 191 255
0.050821908 -0.24229048 1.2410001 247 129 191 255
0.053357143 -0.24307144 1.245 247 129 191 255
0.05572857 -0.24307144 1.245 247 129 191 255
0.058333334 -0.24404761 1.25 247 129 191 255
0.060957149 -0.24502383 1.2550001 247 129 191 255
0.063347623 -0.24502383 1.2550001 247 129 191 255
-0.034523807 -0.24166666 1.25 247 129 191 255
-0.032142855 -0.24166666 1.25 247 129 191 255
-0.029642858 -0.24069999 1.245 247 129 191 255
-0.027271429 -0.24069999 1.245 247 129 191 255
-0.024900001 -0.24069999 1.245 247 129 191 255
-0.022456191 -0.23992667 1.2410001 247 129 191 255
-0.020092381 -0.23992667 1.2410001 247 129 191 255
-0.017657144 -0.23896001 1.2360001 247 129 191 255
-0.015302857 -0.23896001 1.2360001 247 129 191 255
-0.012948572 -0.23896001 1.2360001 247 129 191 255
-0.010560001 -0.23818669 1.2320001 247 129 191 255
-0.0082133338 -0.23818669 1.2320001 247 129 191 255
-0.0058666673 -0.23818669 1.2320001 247 129 191 255
-0.0035200003 -0.23818669 1.2320001 247 129 191 255
-0.0011733334 -0.23818669 1.2320001 247 129 191 255
0.0011685715 -0.23722002 1.2270001 247 129 191 255
0.0035057145 -0.23722002 1.2270001 247 129 191 255
0.0058428575 -0.23722002 1.2270001 247 129 191 255
0.0081800008 -0.23722002 1.2270001 247 129 191 255
0.010517144 -0.23722002 1.2270001 247 129 191 255
0.012854287 -0.23722002 1.2270001 247 129 191 255
0.015191429 -0.23722002 1.2270001 247 129 191 255
0.017528573 -0.23722002 1.2270001 247 129 191 255
0.019865716 -0.23722002 1.2270001 247 129 191 255
0.022202859 -0.23722002 1.2270001 247 129 191 255
0.024640001 -0.23818669 1.2320001 247 129 191 255
0.026986668 -0.23818669 1.2320001 247 129 191 255
0.029333336 -0.23818669 1.2320001 247 129 191 255
0.031680003 -0.23818669 1.2320001 247 129 191 255
0.034026671 -0.23818669 1.2320001 247 129 191 255
0.03637334 -0.23818669 1.2320001 247 129 191 255
0.038720001 -0.23818669 1.2320001 247 129 191 255
0.041200001 -0.23896001 1.2360001 247 129 191 255
0.043554287 -0.23896001 1.2360001 247 129 191 255
0.045908574 -0.23896001 1.2360001 247 129 191 255
0.048262861 -0.23896001 1.2360001 247 129 191 255
0.050821908 -0.23992667 1.2410001 247 129 191 255
0.053357143 -0.24069999 1.245 247 129 191 255
0.05572857 -0.24069999 1.245 247 129 191 255
0.058333334 -0.24166666 1.25 247 129 191 255
0.060714286 -0.24166666 1.25 247 129 191 255
0.063347623 -0.24263336 1.2550001 247 129 191 255
-0.034523807 -0.23928571 1.25 247 129 191 255
-0.032142855 -0.23928571 1.25 247 129 191 255
-0.029642858 -0.23832856 1.245 247 129 191 255
-0.027271429 -0.23832856 1.245 247 129 191 255
-0.024900001 -0.23832856 1.245 247 129 191 255
-0.022456191 -0.23756287 1.2410001 247 129 191 255
-0.020092381 -0.23756287 1.2410001 247 129 191 255
-0.017657144 -0.23660572 1.2360001 247 129 191 255
-0.015302857 -0.23660572 1.2360001 247 129 191 255
-0.012948572 -0.23660572 1.2360001 247 129 191 255
-0.010594286 -0.23660572 1.2360001 247 129 191 255
-0.0082400003 -0.23660572 1.2360001 247 129 191 255
-0.0058666673 -0.23584002 1.2320001 247 129 191 255
-0.0035200003 -0.23584002 1.2320001 247 129 191 255
-0.0011733334 -0.23584002 1.2320001 247 129 191 255
0.0011733334 -0.23584002 1.2320001 247 129 191 255
0.0035200003 -0.23584002 1.2320001 247 129 191 255
0.0058666673 -0.23584002 1.2320001 247 129 191 255
0.0082133338 -0.23584002 1.2320001 247 129 191 255
0.010560001 -0.23584002 1.2320001 247 129 191 255
0.012906668 -0.23584002 1.2320001 247 129 191 255
0.015253334 -0.23584002 1.2320001 247 129 191 255
0.017600002 -0.23584002 1.2320001 247 129 191 255
0.019946668 -0.23584002 1.2320001 247 129 191 255
0.022293337 -0.23584002 1.2320001 247 129 191 255
0.024640001 -0.23584002 1.2320001 247 129 191 255
0.026986668 -0.23584002 1.2320001 247 129 191 255
0.029333336 -0.23584002 1.2320001 247 129 191 255
0.031680003 -0.23584002 1.2320001 247 129 191 255
0.034137145 -0.23660572 1.2360001 247 129 191 255
0.036491431 -0.23660572 1.2360001 247 129 191 255
0.038845714 -0.23660572 1.2360001 247 129 191 255
0.041200001 -0.23660572 1.2360001 247 129 191 255
0.043554287 -0.23660572 1.2360001 247 129 191 255
0.045908574 -0.23660572 1.2360001 247 129 191 255
0.048262861 -0.23660572 1.2360001 247 129 191 255
0.050821908 -0.23756287 1.2410001 247 129 191 255
0.053357143 -0.23832856 1.245 247 129 191 255
0.05572857 -0.23832856 1.245 247 129 191 255
0.058333334 -0.23928571 1.25 247 129 191 255
0.060714286 -0.23928571 1.25 247 129 191 255
0.063347623 -0.24024287 1.2550001 247 129 191 255
-0.034523807 -0.23690476 1.25 247 129 191 255
-0.032142855 -0.23690476 1.25 247 129 191 255
-0.029642858 -0.23595715 1.245 247 129 191 255
-0.027271429 -0.23595715 1.245 247 129 191 255
-0.024900001 -0.23595715 1.245 247 129 191 255
-0.022528572 -0.23595715 1.245 247 129 191 255
-0.020092381 -0.23519906 1.2410001 247 129 191 255
-0.017728573 -0.23519906 1.2410001 247 129 191 255
-0.015364763 -0.23519906 1.2410001 247 129 191 255
-0.013000953 -0.23519906 1.2410001 247 129 191 255
-0.010637144 -0.23519906 1.2410001 247 129 191 255
-0.0082733333 -0.23519906 1.2410001 247 129 191 255
-0.0058857147 -0.23425144 1.2360001 247 129 191 255
-0.0035314288 -0.23425144 1.2360001 247 129 191 255
-0.001177143 -0.23425144 1.2360001 247 129 191 255
0.0011733334 -0.23349336 1.2320001 247 129 191 255
0.0035200003 -0.23349336 1.2320001 247 129 191 255
0.0058857147 -0.23425144 1.2360001 247 129 191 255
0.0082400003 -0.23425144 1.2360001 247 129 191 255
0.010594286 -0.23425144 1.2360001 247 129 191 255
0.012948572 -0.23425144 1.2360001 247 129 191 255
0.015302857 -0.23425144 1.2360001 247 129 191 255
0.017657144 -0.23425144 1.2360001 247 129 191 255
0.020011429 -0.23425144 1.2360001 247 129 191 255
0.022365715 -0.23425144 1.2360001 247 129 191 255
0.02472 -0.23425144 1.2360001 247 129 191 255
0.027074287 -0.23425144 1.2360001 247 129 191 255
0.029428573 -0.23425144 1.2360001 247 129 191 255
0.031782858 -0.23425144 1.2360001 247 129 191 255
0.034137145 -0.23425144 1.2360001 247 129 191 255
0.036491431 -0.23425144 1.2360001 247 129 191 255
0.038845714 -0.23425144 1.2360001 247 129 191 255
0.041200001 -0.23425144 1.2360001 247 129 191 255
0.043554287 -0.23425144 1.2360001 247 129 191 255
0.046094287 -0.23519906 1.2410001 247 129 191 255
0.048458096 -0.23519906 1.2410001 247 129 191 255
0.050985713 -0.23595715 1.245 247 129 191 255
0.053357143 -0.23595715 1.245 247 129 191 255
0.05572857 -0.23595715 1.245 247 129 191 255
0.058333334 -0.23690476 1.25 247 129 191 255
0.060957149 -0.23785241 1.2550001 247 129 191 255
0.063347623 -0.23785241 1.2550001 247 129 191 255
-0.032142855 -0.2345238 1.25 247 129 191 255
-0.029761905 -0.2345238 1.25 247 129 191 255
-0.027271429 -0.23358572 1.245 247 129 191 255
-0.024900001 -0.23358572 1.245 247 129 191 255
-0.022528572 -0.23358572 1.245 247 129 191 255
-0.020157143 -0.23358572 1.245 247 129 191 255
-0.017785713 -0.23358572 1.245 247 129 191 255
-0.015414285 -0.23358572 1.245 247 129 191 255
-0.013042857 -0.23358572 1.245 247 129 191 255
-0.010637144 -0.23283523 1.2410001 247 129 191 255
-0.0082733333 -0.23283523 1.2410001 247 129 191 255
-0.0059095239 -0.23283523 1.2410001 247 129 191 255
-0.0035457143 -0.23283523 1.2410001 247 129 191 255
-0.0011819048 -0.23283523 1.2410001 247 129 191 255
0.001177143 -0.23189715 1.2360001 247 129 191 255
0.0035314288 -0.23189715 1.2360001 247 129 191 255
0.0059095239 -0.23283523 1.2410001 247 129 191 255
0.0082733333 -0.23283523 1.2410001 247 129 191 255
0.010637144 -0.23283523 1.2410001 247 129 191 255
0.013000953 -0.23283523 1.2410001 247 129 191 255
0.015364763 -0.23283523 1.2410001 247 129 191 255
0.017728573 -0.23283523 1.2410001 247 129 191 255
0.020092381 -0.23283523 1.2410001 247 129 191 255
0.022456191 -0.23283523 1.2410001 247 129 191 255
0.02472 -0.23189715 1.2360001 247 129 191 255
0.027074287 -0.23189715 1.2360001 247 129 191 255
0.029547621 -0.23283523 1.2410001 247 129 191 255
0.032014288 -0.23358572 1.245 247 129 191 255
0.034275241 -0.23283523 1.2410001 247 129 191 255
0.03663905 -0.23283523 1.2410001 247 129 191 255
0.039002858 -0.23283523 1.2410001 247 129 191 255
0.041499998 -0.23358572 1.245 247 129 191 255
0.043730479 -0.23283523 1.2410001 247 129 191 255
0.046094287 -0.23283523 1.2410001 247 129 191 255
0.048614286 -0.23358572 1.245 247 129 191 255
0.050985713 -0.23358572 1.245 247 129 191 255
0.053357143 -0.23358572 1.245 247 129 191 255
0.055952381 -0.2345238 1.25 247 129 191 255
0.058333334 -0.2345238 1.25 247 129 191 255
0.060957149 -0.23546192 1.2550001 247 129 191 255
0.063347623 -0.23546192 1.2550001 247 129 191 255
-0.032142855 -0.23214285 1.25 247 129 191 255
-0.029761905 -0.23214285 1.25 247 129 191 255
-0.027380953 -0.23214285 1.25 247 129 191 255
-0.025 -0.23214285 1.25 247 129 191 255
-0.022619048 -0.23214285 1.25 247 129 191 255
-0.020238096 -0.23214285 1.25 247 129 191 255
-0.017857142 -0.23214285 1.25 247 129 191 255
-0.01547619 -0.23214285 1.25 247 129 191 255
-0.013095238 -0.23214285 1.25 247 129 191 255
-0.010714286 -0.23214285 1.25 247 129 191 255
-0.0083333328 -0.23214285 1.25 247 129 191 255
-0.0059523811 -0.23214285 1.25 247 129 191 255
-0.0035714286 -0.23214285 1.25 247 129 191 255
-0.0011904761 -0.23214285 1.25 247 129 191 255
0.0011857143 -0.23121427 1.245 247 129 191 255
0.003557143 -0.23121427 1.245 247 129 191 255
0.0059523811 -0.23214285 1.25 247 129 191 255
0.0083333328 -0.23214285 1.25 247 129 191 255
0.010671428 -0.23121427 1.245 247 129 191 255
0.013042857 -0.23121427 1.245 247 129 191 255
0.015414285 -0.23121427 1.245 247 129 191 255
0.017785713 -0.23121427 1.245 247 129 191 255
0.020157143 -0.23121427 1.245 247 129 191 255
0.022456191 -0.23047143 1.2410001 247 129 191 255
0.02482 -0.23047143 1.2410001 247 129 191 255
0.02718381 -0.23047143 1.2410001 247 129 191 255
0.029642858 -0.23121427 1.245 247 129 191 255
0.032142855 -0.23214285 1.25 247 129 191 255
0.034523807 -0.23214285 1.25 247 129 191 255
0.036757145 -0.23121427 1.245 247 129 191 255
0.039128572 -0.23121427 1.245 247 129 191 255
0.041499998 -0.23121427 1.245 247 129 191 255
0.043871425 -0.23121427 1.245 247 129 191 255
0.046242855 -0.23121427 1.245 247 129 191 255
0.048614286 -0.23121427 1.245 247 129 191 255
0.050985713 -0.23121427 1.245 247 129 191 255
0.053571429 -0.23214285 1.25 247 129 191 255
0.055952381 -0.23214285 1.25 247 129 191 255
0.058566671 -0.23307145 1.2550001 247 129 191 255
0.060957149 -0.23307145 1.2550001 247 129 191 255
0.063347623 -0.23307145 1.2550001 247 129 191 255
-0.032142855 -0.2297619 1.25 247 129 191 255
-0.029761905 -0.2297619 1.25 247 129 191 255
-0.027380953 -0.2297619 1.25 247 129 191 255
-0.025 -0.2297619 1.25 247 129 191 255
-0.022619048 -0.2297619 1.25 247 129 191 255
-0.020238096 -0.2297619 1.25 247 129 191 255
-0.017857142 -0.2297619 1.25 247 129 191 255
-0.01547619 -0.2297619 1.25 247 129 191 255
-0.013095238 -0.2297619 1.25 247 129 191 255
-0.010714286 -0.2297619 1.25 247 129 191 255
-0.0083333328 -0.2297619 1.25 247 129 191 255
-0.0059523811 -0.2297619 1.25 247 129 191 255
-0.0035714286 -0.2297619 1.25 247 129 191 255
0.013095238 -0.2297619 1.25 247 129 191 255
0.01547619 -0.2297619 1.25 247 129 191 255
0.017857142 -0.2297619 1.25 247 129 191 255
0.020238096 -0.2297619 1.25 247 129 191 255
0.022528572 -0.22884285 1.245 247 129 191 255
0.024900001 -0.22884285 1.245 247 129 191 255
0.027271429 -0.22884285 1.245 247 129 191 255
0.029761905 -0.2297619 1.25 247 129 191 255
0.04404762 -0.2297619 1.25 247 129 191 255
0.046428572 -0.2297619 1.25 247 129 191 255
0.048809525 -0.2297619 1.25 247 129 191 255
0.051190477 -0.2297619 1.25 247 129 191 255
0.053571429 -0.2297619 1.25 247 129 191 255
0 0 0 1 0 0 0 1 0 0 0 1 0 0 0 0 0 904 1 0 0
