ply
format ascii 1.0
comment PCL generated
element vertex 838
property float x
property float y
property float z
property uchar red
property uchar green
property uchar blue
property uchar alpha
element camera 1
property float view_px
property float view_py
property float view_pz
property float x_axisx
property float x_axisy
property float x_axisz
property float y_axisx
property float y_axisy
property float y_axisz
property float z_axisx
property float z_axisy
property float z_axisz
property float focal
property float scalex
property float scaley
property float centerx
property float centery
property int viewportx
property int viewporty
property float k1
property float k2
end_header
0.075840004 -0.29252571 1.2640001 255 0 255 255
0.078247622 -0.29252571 1.2640001 255 0 255 255
0.080336191 -0.29136857 1.2590001 255 0 255 255
0.082734287 -0.29136857 1.2590001 255 0 255 255
0.08513239 -0.29136857 1.2590001 255 0 255 255
0.087530479 -0.29136857 1.2590001 255 0 255 255
0.090285718 -0.29252571 1.2640001 255 0 255 255
0.092693336 -0.29252571 1.2640001 255 0 255 255
0.095100954 -0.29252571 1.2640001 255 0 255 255
0.097508572 -0.29252571 1.2640001 255 0 255 255
0.073432386 -0.29011813 1.2640001 255 0 255 255
0.075840004 -0.29011813 1.2640001 255 0 255 255
0.077938102 -0.28897047 1.2590001 255 0 255 255
0.080080956 -0.28805238 1.2550001 255 0 255 255
0.082471438 -0.28805238 1.2550001 255 0 255 255
0.08513239 -0.28897047 1.2590001 255 0 255 255
0.087530479 -0.28897047 1.2590001 255 0 255 255
0.089928575 -0.28897047 1.2590001 255 0 255 255
0.092326671 -0.28897047 1.2590001 255 0 255 255
0.094724767 -0.28897047 1.2590001 255 0 255 255
0.097122863 -0.28897047 1.2590001 255 0 255 255
0.09991619 -0.29011813 1.2640001 255 0 255 255
0.071024768 -0.28771049 1.2640001 255 0 255 255
0.073432386 -0.28771049 1.2640001 255 0 255 255
0.075539999 -0.28657237 1.2590001 255 0 255 255
0.077938102 -0.28657237 1.2590001 255 0 255 255
0.080080956 -0.28566194 1.2550001 255 0 255 255
0.082471438 -0.28566194 1.2550001 255 0 255 255
0.08513239 -0.28657237 1.2590001 255 0 255 255
0.087530479 -0.28657237 1.2590001 255 0 255 255
0.089928575 -0.28657237 1.2590001 255 0 255 255
0.092033342 -0.28566194 1.2550001 255 0 255 255
0.094423823 -0.28566194 1.2550001 255 0 255 255
0.097122863 -0.28657237 1.2590001 255 0 255 255
0.099520952 -0.28657237 1.2590001 255 0 255 255
0.10232381 -0.28771049 1.2640001 255 0 255 255
0.10473143 -0.28771049 1.2640001 255 0 255 255
0.049160954 -0.28417429 1.2590001 255 0 255 255
0.05155905 -0.28417429 1.2590001 255 0 255 255
0.053957146 -0.28417429 1.2590001 255 0 255 255
0.056355242 -0.28417429 1.2590001 255 0 255 255
0.058753334 -0.28417429 1.2590001 255 0 255 255
0.061151426 -0.28417429 1.2590001 255 0 255 255
0.063549526 -0.28417429 1.2590001 255 0 255 255
0.065947622 -0.28417429 1.2590001 255 0 255 255
0.070743814 -0.28417429 1.2590001 255 0 255 255
0.07314191 -0.28417429 1.2590001 255 0 255 255
0.075539999 -0.28417429 1.2590001 255 0 255 255
0.077690482 -0.28327146 1.2550001 255 0 255 255
0.080080956 -0.28327146 1.2550001 255 0 255 255
0.082471438 -0.28327146 1.2550001 255 0 255 255
0.084861912 -0.28327146 1.2550001 255 0 255 255
0.087252386 -0.28327146 1.2550001 255 0 255 255
0.08964286 -0.28327146 1.2550001 255 0 255 255
0.092033342 -0.28327146 1.2550001 255 0 255 255
0.094423823 -0.28327146 1.2550001 255 0 255 255
0.09681429 -0.28327146 1.2550001 255 0 255 255
0.099204771 -0.28327146 1.2550001 255 0 255 255
0.10191905 -0.28417429 1.2590001 255 0 255 255
0.10431714 -0.28417429 1.2590001 255 0 255 255
0.10713905 -0.28530288 1.2640001 255 0 255 255
0.10954667 -0.28530288 1.2640001 255 0 255 255
0.049160954 -0.28177622 1.2590001 255 0 255 255
0.05155905 -0.28177622 1.2590001 255 0 255 255
0.053957146 -0.28177622 1.2590001 255 0 255 255
0.056176193 -0.28088096 1.2550001 255 0 255 255
0.058566671 -0.28088096 1.2550001 255 0 255 255
0.060957149 -0.28088096 1.2550001 255 0 255 255
0.063347623 -0.28088096 1.2550001 255 0 255 255
0.065738104 -0.28088096 1.2550001 255 0 255 255
0.068345711 -0.28177622 1.2590001 255 0 255 255
0.070519052 -0.28088096 1.2550001 255 0 255 255
0.072909534 -0.28088096 1.2550001 255 0 255 255
0.075300008 -0.28088096 1.2550001 255 0 255 255
0.077690482 -0.28088096 1.2550001 255 0 255 255
0.080080956 -0.28088096 1.2550001 255 0 255 255
0.082471438 -0.28088096 1.2550001 255 0 255 255
0.084861912 -0.28088096 1.2550001 255 0 255 255
0.087252386 -0.28088096 1.2550001 255 0 255 255
0.08964286 -0.28088096 1.2550001 255 0 255 255
0.092033342 -0.28088096 1.2550001 255 0 255 255
0.094423823 -0.28088096 1.2550001 255 0 255 255
0.09681429 -0.28088096 1.2550001 255 0 255 255
0.099204771 -0.28088096 1.2550001 255 0 255 255
0.10159525 -0.28088096 1.2550001 255 0 255 255
0.10398573 -0.28088096 1.2550001 255 0 255 255
0.10671524 -0.28177622 1.2590001 255 0 255 255
0.10954667 -0.28289524 1.2640001 255 0 255 255
0.049160954 -0.27937812 1.2590001 255 0 255 255
0.05155905 -0.27937812 1.2590001 255 0 255 255
0.053785719 -0.27849051 1.2550001 255 0 255 255
0.056176193 -0.27849051 1.2550001 255 0 255 255
0.058566671 -0.27849051 1.2550001 255 0 255 255
0.060957149 -0.27849051 1.2550001 255 0 255 255
0.063347623 -0.27849051 1.2550001 255 0 255 255
0.065738104 -0.27849051 1.2550001 255 0 255 255
0.068128571 -0.27849051 1.2550001 255 0 255 255
0.070519052 -0.27849051 1.2550001 255 0 255 255
0.072909534 -0.27849051 1.2550001 255 0 255 255
0.075300008 -0.27849051 1.2550001 255 0 255 255
0.077690482 -0.27849051 1.2550001 255 0 255 255
0.080080956 -0.27849051 1.2550001 255 0 255 255
0.082471438 -0.27849051 1.2550001 255 0 255 255
0.084861912 -0.27849051 1.2550001 255 0 255 255
0.087252386 -0.27849051 1.2550001 255 0 255 255
0.08964286 -0.27849051 1.2550001 255 0 255 255
0.092033342 -0.27849051 1.2550001 255 0 255 255
0.094423823 -0.27849051 1.2550001 255 0 255 255
0.09681429 -0.27849051 1.2550001 255 0 255 255
0.099204771 -0.27849051 1.2550001 255 0 255 255
0.10159525 -0.27849051 1.2550001 255 0 255 255
0.10398573 -0.27849051 1.2550001 255 0 255 255
0.10671524 -0.27937812 1.2590001 255 0 255 255
0.10911334 -0.27937812 1.2590001 255 0 255 255
0.11195429 -0.28048763 1.2640001 255 0 255 255
0.049160954 -0.27698001 1.2590001 255 0 255 255
0.05155905 -0.27698001 1.2590001 255 0 255 255
0.053785719 -0.27610004 1.2550001 255 0 255 255
0.056176193 -0.27610004 1.2550001 255 0 255 255
0.058566671 -0.27610004 1.2550001 255 0 255 255
0.060957149 -0.27610004 1.2550001 255 0 255 255
0.063095234 -0.27500001 1.25 255 0 255 255
0.065476187 -0.27500001 1.25 255 0 255 255
0.067857139 -0.27500001 1.25 255 0 255 255
0.070238091 -0.27500001 1.25 255 0 255 255
0.072909534 -0.27610004 1.2550001 255 0 255 255
0.075300008 -0.27610004 1.2550001 255 0 255 255
0.077690482 -0.27610004 1.2550001 255 0 255 255
0.080080956 -0.27610004 1.2550001 255 0 255 255
0.082471438 -0.27610004 1.2550001 255 0 255 255
0.084861912 -0.27610004 1.2550001 255 0 255 255
0.087252386 -0.27610004 1.2550001 255 0 255 255
0.08964286 -0.27610004 1.2550001 255 0 255 255
0.092033342 -0.27610004 1.2550001 255 0 255 255
0.094423823 -0.27610004 1.2550001 255 0 255 255
0.09681429 -0.27610004 1.2550001 255 0 255 255
0.099204771 -0.27610004 1.2550001 255 0 255 255
0.10159525 -0.27610004 1.2550001 255 0 255 255
0.10398573 -0.27610004 1.2550001 255 0 255 255
0.10671524 -0.27698001 1.2590001 255 0 255 255
0.10911334 -0.27698001 1.2590001 255 0 255 255
0.11151143 -0.27698001 1.2590001 255 0 255 255
0.1143619 -0.27808002 1.2640001 255 0 255 255
0.11676953 -0.27808002 1.2640001 255 0 255 255
0.049160954 -0.27458191 1.2590001 255 0 255 255
0.051395241 -0.27370954 1.2550001 255 0 255 255
0.053785719 -0.27370954 1.2550001 255 0 255 255
0.056176193 -0.27370954 1.2550001 255 0 255 255
0.058566671 -0.27370954 1.2550001 255 0 255 255
0.060957149 -0.27370954 1.2550001 255 0 255 255
0.063095234 -0.27261904 1.25 255 0 255 255
0.065476187 -0.27261904 1.25 255 0 255 255
0.067857139 -0.27261904 1.25 255 0 255 255
0.070238091 -0.27261904 1.25 255 0 255 255
0.072909534 -0.27370954 1.2550001 255 0 255 255
0.075300008 -0.27370954 1.2550001 255 0 255 255
0.077690482 -0.27370954 1.2550001 255 0 255 255
0.080080956 -0.27370954 1.2550001 255 0 255 255
0.082471438 -0.27370954 1.2550001 255 0 255 255
0.084861912 -0.27370954 1.2550001 255 0 255 255
0.087252386 -0.27370954 1.2550001 255 0 255 255
0.089285716 -0.27261904 1.25 255 0 255 255
0.091666669 -0.27261904 1.25 255 0 255 255
0.094047621 -0.27261904 1.25 255 0 255 255
0.09681429 -0.27370954 1.2550001 255 0 255 255
0.099204771 -0.27370954 1.2550001 255 0 255 255
0.10159525 -0.27370954 1.2550001 255 0 255 255
0.10398573 -0.27370954 1.2550001 255 0 255 255
0.10637619 -0.27370954 1.2550001 255 0 255 255
0.10876667 -0.27370954 1.2550001 255 0 255 255
0.11115715 -0.27370954 1.2550001 255 0 255 255
0.11390953 -0.27458191 1.2590001 255 0 255 255
0.11630762 -0.27458191 1.2590001 255 0 255 255
0.11917715 -0.27567241 1.2640001 255 0 255 255
0.12158477 -0.27567241 1.2640001 255 0 255 255
0.046762858 -0.27218381 1.2590001 255 0 255 255
0.049160954 -0.27218381 1.2590001 255 0 255 255
0.051395241 -0.27131909 1.2550001 255 0 255 255
0.053785719 -0.27131909 1.2550001 255 0 255 255
0.056176193 -0.27131909 1.2550001 255 0 255 255
0.058333334 -0.2702381 1.25 255 0 255 255
0.060714286 -0.2702381 1.25 255 0 255 255
0.063095234 -0.2702381 1.25 255 0 255 255
0.065476187 -0.2702381 1.25 255 0 255 255
0.067857139 -0.2702381 1.25 255 0 255 255
0.070238091 -0.2702381 1.25 255 0 255 255
0.072619043 -0.2702381 1.25 255 0 255 255
0.075300008 -0.27131909 1.2550001 255 0 255 255
0.077690482 -0.27131909 1.2550001 255 0 255 255
0.080080956 -0.27131909 1.2550001 255 0 255 255
0.082471438 -0.27131909 1.2550001 255 0 255 255
0.084861912 -0.27131909 1.2550001 255 0 255 255
0.086904764 -0.2702381 1.25 255 0 255 255
0.089285716 -0.2702381 1.25 255 0 255 255
0.091666669 -0.2702381 1.25 255 0 255 255
0.094047621 -0.2702381 1.25 255 0 255 255
0.096428573 -0.2702381 1.25 255 0 255 255
0.099204771 -0.27131909 1.2550001 255 0 255 255
0.10159525 -0.27131909 1.2550001 255 0 255 255
0.10398573 -0.27131909 1.2550001 255 0 255 255
0.10637619 -0.27131909 1.2550001 255 0 255 255
0.10876667 -0.27131909 1.2550001 255 0 255 255
0.11115715 -0.27131909 1.2550001 255 0 255 255
0.11354763 -0.27131909 1.2550001 255 0 255 255
0.1159381 -0.27131909 1.2550001 255 0 255 255
0.11870572 -0.27218381 1.2590001 255 0 255 255
0.046762858 -0.26978573 1.2590001 255 0 255 255
0.049160954 -0.26978573 1.2590001 255 0 255 255
0.051395241 -0.26892859 1.2550001 255 0 255 255
0.053785719 -0.26892859 1.2550001 255 0 255 255
0.056176193 -0.26892859 1.2550001 255 0 255 255
0.058333334 -0.26785713 1.25 255 0 255 255
0.060714286 -0.26785713 1.25 255 0 255 255
0.063095234 -0.26785713 1.25 255 0 255 255
0.065476187 -0.26785713 1.25 255 0 255 255
0.067857139 -0.26785713 1.25 255 0 255 255
0.070238091 -0.26785713 1.25 255 0 255 255
0.072619043 -0.26785713 1.25 255 0 255 255
0.074999996 -0.26785713 1.25 255 0 255 255
0.077380955 -0.26785713 1.25 255 0 255 255
0.080080956 -0.26892859 1.2550001 255 0 255 255
0.082471438 -0.26892859 1.2550001 255 0 255 255
0.084523812 -0.26785713 1.25 255 0 255 255
0.086904764 -0.26785713 1.25 255 0 255 255
0.089285716 -0.26785713 1.25 255 0 255 255
0.091666669 -0.26785713 1.25 255 0 255 255
0.094047621 -0.26785713 1.25 255 0 255 255
0.096428573 -0.26785713 1.25 255 0 255 255
0.098809525 -0.26785713 1.25 255 0 255 255
0.10159525 -0.26892859 1.2550001 255 0 255 255
0.10398573 -0.26892859 1.2550001 255 0 255 255
0.10637619 -0.26892859 1.2550001 255 0 255 255
0.10876667 -0.26892859 1.2550001 255 0 255 255
0.11115715 -0.26892859 1.2550001 255 0 255 255
0.11354763 -0.26892859 1.2550001 255 0 255 255
0.1159381 -0.26892859 1.2550001 255 0 255 255
0.11870572 -0.26978573 1.2590001 255 0 255 255
0.046762858 -0.26738763 1.2590001 255 0 255 255
0.049004767 -0.26653811 1.2550001 255 0 255 255
0.051395241 -0.26653811 1.2550001 255 0 255 255
0.053785719 -0.26653811 1.2550001 255 0 255 255
0.055952381 -0.2654762 1.25 255 0 255 255
0.058333334 -0.2654762 1.25 255 0 255 255
0.060714286 -0.2654762 1.25 255 0 255 255
0.063095234 -0.2654762 1.25 255 0 255 255
0.065476187 -0.2654762 1.25 255 0 255 255
0.067857139 -0.2654762 1.25 255 0 255 255
0.070238091 -0.2654762 1.25 255 0 255 255
0.072619043 -0.2654762 1.25 255 0 255 255
0.074999996 -0.2654762 1.25 255 0 255 255
0.077380955 -0.2654762 1.25 255 0 255 255
0.079761907 -0.2654762 1.25 255 0 255 255
0.08214286 -0.2654762 1.25 255 0 255 255
0.084523812 -0.2654762 1.25 255 0 255 255
0.086904764 -0.2654762 1.25 255 0 255 255
0.089285716 -0.2654762 1.25 255 0 255 255
0.091666669 -0.2654762 1.25 255 0 255 255
0.094047621 -0.2654762 1.25 255 0 255 255
0.096428573 -0.2654762 1.25 255 0 255 255
0.098809525 -0.2654762 1.25 255 0 255 255
0.10159525 -0.26653811 1.2550001 255 0 255 255
0.10398573 -0.26653811 1.2550001 255 0 255 255
0.10637619 -0.26653811 1.2550001 255 0 255 255
0.10876667 -0.26653811 1.2550001 255 0 255 255
0.11115715 -0.26653811 1.2550001 255 0 255 255
0.11354763 -0.26653811 1.2550001 255 0 255 255
0.1159381 -0.26653811 1.2550001 255 0 255 255
0.11870572 -0.26738763 1.2590001 255 0 255 255
0.046614289 -0.26414764 1.2550001 255 0 255 255
0.049004767 -0.26414764 1.2550001 255 0 255 255
0.051395241 -0.26414764 1.2550001 255 0 255 255
0.053571429 -0.26309523 1.25 255 0 255 255
0.055952381 -0.26309523 1.25 255 0 255 255
0.058333334 -0.26309523 1.25 255 0 255 255
0.060714286 -0.26309523 1.25 255 0 255 255
0.063095234 -0.26309523 1.25 255 0 255 255
0.065476187 -0.26309523 1.25 255 0 255 255
0.067857139 -0.26309523 1.25 255 0 255 255
0.070238091 -0.26309523 1.25 255 0 255 255
0.072619043 -0.26309523 1.25 255 0 255 255
0.074999996 -0.26309523 1.25 255 0 255 255
0.077380955 -0.26309523 1.25 255 0 255 255
0.079761907 -0.26309523 1.25 255 0 255 255
0.08214286 -0.26309523 1.25 255 0 255 255
0.084523812 -0.26309523 1.25 255 0 255 255
0.086904764 -0.26309523 1.25 255 0 255 255
0.089285716 -0.26309523 1.25 255 0 255 255
0.091666669 -0.26309523 1.25 255 0 255 255
0.094047621 -0.26309523 1.25 255 0 255 255
0.096428573 -0.26309523 1.25 255 0 255 255
0.098809525 -0.26309523 1.25 255 0 255 255
0.10119048 -0.26309523 1.25 255 0 255 255
0.10398573 -0.26414764 1.2550001 255 0 255 255
0.10637619 -0.26414764 1.2550001 255 0 255 255
0.10876667 -0.26414764 1.2550001 255 0 255 255
0.11115715 -0.26414764 1.2550001 255 0 255 255
0.11354763 -0.26414764 1.2550001 255 0 255 255
0.1159381 -0.26414764 1.2550001 255 0 255 255
0.11832858 -0.26414764 1.2550001 255 0 255 255
0.12110382 -0.26498953 1.2590001 255 0 255 255
0.041833337 -0.26175717 1.2550001 255 0 255 255
0.044223815 -0.26175717 1.2550001 255 0 255 255
0.046614289 -0.26175717 1.2550001 255 0 255 255
0.049004767 -0.26175717 1.2550001 255 0 255 255
0.051395241 -0.26175717 1.2550001 255 0 255 255
0.053571429 -0.26071429 1.25 255 0 255 255
0.055952381 -0.26071429 1.25 255 0 255 255
0.058333334 -0.26071429 1.25 255 0 255 255
0.060714286 -0.26071429 1.25 255 0 255 255
0.063095234 -0.26071429 1.25 255 0 255 255
0.065476187 -0.26071429 1.25 255 0 255 255
0.067857139 -0.26071429 1.25 255 0 255 255
0.070238091 -0.26071429 1.25 255 0 255 255
0.072619043 -0.26071429 1.25 255 0 255 255
0.074999996 -0.26071429 1.25 255 0 255 255
0.077380955 -0.26071429 1.25 255 0 255 255
0.079761907 -0.26071429 1.25 255 0 255 255
0.08214286 -0.26071429 1.25 255 0 255 255
0.084523812 -0.26071429 1.25 255 0 255 255
0.086904764 -0.26071429 1.25 255 0 255 255
0.089285716 -0.26071429 1.25 255 0 255 255
0.091666669 -0.26071429 1.25 255 0 255 255
0.094047621 -0.26071429 1.25 255 0 255 255
0.096428573 -0.26071429 1.25 255 0 255 255
0.098809525 -0.26071429 1.25 255 0 255 255
0.10119048 -0.26071429 1.25 255 0 255 255
0.10398573 -0.26175717 1.2550001 255 0 255 255
0.10637619 -0.26175717 1.2550001 255 0 255 255
0.10876667 -0.26175717 1.2550001 255 0 255 255
0.11115715 -0.26175717 1.2550001 255 0 255 255
0.11354763 -0.26175717 1.2550001 255 0 255 255
0.1159381 -0.26175717 1.2550001 255 0 255 255
0.11832858 -0.26175717 1.2550001 255 0 255 255
0.12110382 -0.26259142 1.2590001 255 0 255 255
0.1235019 -0.26259142 1.2590001 255 0 255 255
0.041833337 -0.25936669 1.2550001 255 0 255 255
0.044223815 -0.25936669 1.2550001 255 0 255 255
0.046614289 -0.25936669 1.2550001 255 0 255 255
0.049004767 -0.25936669 1.2550001 255 0 255 255
0.051395241 -0.25936669 1.2550001 255 0 255 255
0.053571429 -0.25833333 1.25 255 0 255 255
0.055952381 -0.25833333 1.25 255 0 255 255
0.058333334 -0.25833333 1.25 255 0 255 255
0.060714286 -0.25833333 1.25 255 0 255 255
0.063095234 -0.25833333 1.25 255 0 255 255
0.065476187 -0.25833333 1.25 255 0 255 255
0.067857139 -0.25833333 1.25 255 0 255 255
0.070238091 -0.25833333 1.25 255 0 255 255
0.072619043 -0.25833333 1.25 255 0 255 255
0.074999996 -0.25833333 1.25 255 0 255 255
0.077380955 -0.25833333 1.25 255 0 255 255
0.079761907 -0.25833333 1.25 255 0 255 255
0.08214286 -0.25833333 1.25 255 0 255 255
0.084523812 -0.25833333 1.25 255 0 255 255
0.086904764 -0.25833333 1.25 255 0 255 255
0.089285716 -0.25833333 1.25 255 0 255 255
0.091666669 -0.25833333 1.25 255 0 255 255
0.094047621 -0.25833333 1.25 255 0 255 255
0.096428573 -0.25833333 1.25 255 0 255 255
0.098809525 -0.25833333 1.25 255 0 255 255
0.10119048 -0.25833333 1.25 255 0 255 255
0.10357143 -0.25833333 1.25 255 0 255 255
0.10637619 -0.25936669 1.2550001 255 0 255 255
0.10876667 -0.25936669 1.2550001 255 0 255 255
0.11115715 -0.25936669 1.2550001 255 0 255 255
0.11354763 -0.25936669 1.2550001 255 0 255 255
0.1159381 -0.25936669 1.2550001 255 0 255 255
0.11832858 -0.25936669 1.2550001 255 0 255 255
0.12110382 -0.26019335 1.2590001 255 0 255 255
0.1235019 -0.26019335 1.2590001 255 0 255 255
0.041833337 -0.25697619 1.2550001 255 0 255 255
0.044223815 -0.25697619 1.2550001 255 0 255 255
0.046614289 -0.25697619 1.2550001 255 0 255 255
0.048809525 -0.25595239 1.25 255 0 255 255
0.051190477 -0.25595239 1.25 255 0 255 255
0.053571429 -0.25595239 1.25 255 0 255 255
0.055952381 -0.25595239 1.25 255 0 255 255
0.058333334 -0.25595239 1.25 255 0 255 255
0.060714286 -0.25595239 1.25 255 0 255 255
0.063095234 -0.25595239 1.25 255 0 255 255
0.065476187 -0.25595239 1.25 255 0 255 255
0.067857139 -0.25595239 1.25 255 0 255 255
0.070238091 -0.25595239 1.25 255 0 255 255
0.072619043 -0.25595239 1.25 255 0 255 255
0.074999996 -0.25595239 1.25 255 0 255 255
0.077380955 -0.25595239 1.25 255 0 255 255
0.079761907 -0.25595239 1.25 255 0 255 255
0.08214286 -0.25595239 1.25 255 0 255 255
0.084523812 -0.25595239 1.25 255 0 255 255
0.086904764 -0.25595239 1.25 255 0 255 255
0.089285716 -0.25595239 1.25 255 0 255 255
0.091666669 -0.25595239 1.25 255 0 255 255
0.094047621 -0.25595239 1.25 255 0 255 255
0.096428573 -0.25595239 1.25 255 0 255 255
0.098809525 -0.25595239 1.25 255 0 255 255
0.10119048 -0.25595239 1.25 255 0 255 255
0.10357143 -0.25595239 1.25 255 0 255 255
0.10637619 -0.25697619 1.2550001 255 0 255 255
0.10876667 -0.25697619 1.2550001 255 0 255 255
0.11115715 -0.25697619 1.2550001 255 0 255 255
0.11354763 -0.25697619 1.2550001 255 0 255 255
0.1159381 -0.25697619 1.2550001 255 0 255 255
0.11832858 -0.25697619 1.2550001 255 0 255 255
0.12110382 -0.25779527 1.2590001 255 0 255 255
0.1235019 -0.25779527 1.2590001 255 0 255 255
0.041833337 -0.25458574 1.2550001 255 0 255 255
0.044223815 -0.25458574 1.2550001 255 0 255 255
0.046614289 -0.25458574 1.2550001 255 0 255 255
0.048809525 -0.25357142 1.25 255 0 255 255
0.051190477 -0.25357142 1.25 255 0 255 255
0.053571429 -0.25357142 1.25 255 0 255 255
0.055952381 -0.25357142 1.25 255 0 255 255
0.058333334 -0.25357142 1.25 255 0 255 255
0.060714286 -0.25357142 1.25 255 0 255 255
0.063095234 -0.25357142 1.25 255 0 255 255
0.065214284 -0.25255713 1.245 255 0 255 255
0.067585714 -0.25255713 1.245 255 0 255 255
0.069957145 -0.25255713 1.245 255 0 255 255
0.072328568 -0.25255713 1.245 255 0 255 255
0.074699998 -0.25255713 1.245 255 0 255 255
0.077071428 -0.25255713 1.245 255 0 255 255
0.079761907 -0.25357142 1.25 255 0 255 255
0.08214286 -0.25357142 1.25 255 0 255 255
0.084523812 -0.25357142 1.25 255 0 255 255
0.086904764 -0.25357142 1.25 255 0 255 255
0.089285716 -0.25357142 1.25 255 0 255 255
0.091666669 -0.25357142 1.25 255 0 255 255
0.094047621 -0.25357142 1.25 255 0 255 255
0.096428573 -0.25357142 1.25 255 0 255 255
0.098809525 -0.25357142 1.25 255 0 255 255
0.10119048 -0.25357142 1.25 255 0 255 255
0.10398573 -0.25458574 1.2550001 255 0 255 255
0.10637619 -0.25458574 1.2550001 255 0 255 255
0.10876667 -0.25458574 1.2550001 255 0 255 255
0.11115715 -0.25458574 1.2550001 255 0 255 255
0.11354763 -0.25458574 1.2550001 255 0 255 255
0.1159381 -0.25458574 1.2550001 255 0 255 255
0.11832858 -0.25458574 1.2550001 255 0 255 255
0.12110382 -0.25539717 1.2590001 255 0 255 255
0.1235019 -0.25539717 1.2590001 255 0 255 255
0.03944286 -0.25219527 1.2550001 255 0 255 255
0.041833337 -0.25219527 1.2550001 255 0 255 255
0.044223815 -0.25219527 1.2550001 255 0 255 255
0.046428572 -0.25119048 1.25 255 0 255 255
0.048809525 -0.25119048 1.25 255 0 255 255
0.051190477 -0.25119048 1.25 255 0 255 255
0.053571429 -0.25119048 1.25 255 0 255 255
0.055952381 -0.25119048 1.25 255 0 255 255
0.058333334 -0.25119048 1.25 255 0 255 255
0.060471427 -0.25018573 1.245 255 0 255 255
0.062842853 -0.25018573 1.245 255 0 255 255
0.065214284 -0.25018573 1.245 255 0 255 255
0.067585714 -0.25018573 1.245 255 0 255 255
0.069957145 -0.25018573 1.245 255 0 255 255
0.072328568 -0.25018573 1.245 255 0 255 255
0.074699998 -0.25018573 1.245 255 0 255 255
0.077071428 -0.25018573 1.245 255 0 255 255
0.079442859 -0.25018573 1.245 255 0 255 255
0.081814282 -0.25018573 1.245 255 0 255 255
0.084185712 -0.25018573 1.245 255 0 255 255
0.086557142 -0.25018573 1.245 255 0 255 255
0.088928573 -0.25018573 1.245 255 0 255 255
0.091666669 -0.25119048 1.25 255 0 255 255
0.094047621 -0.25119048 1.25 255 0 255 255
0.096428573 -0.25119048 1.25 255 0 255 255
0.098809525 -0.25119048 1.25 255 0 255 255
0.10119048 -0.25119048 1.25 255 0 255 255
0.10398573 -0.25219527 1.2550001 255 0 255 255
0.10637619 -0.25219527 1.2550001 255 0 255 255
0.10876667 -0.25219527 1.2550001 255 0 255 255
0.11115715 -0.25219527 1.2550001 255 0 255 255
0.11354763 -0.25219527 1.2550001 255 0 255 255
0.1159381 -0.25219527 1.2550001 255 0 255 255
0.11832858 -0.25219527 1.2550001 255 0 255 255
0.12071906 -0.25219527 1.2550001 255 0 255 255
0.1235019 -0.25299907 1.2590001 255 0 255 255
0.1259 -0.25299907 1.2590001 255 0 255 255
0.03944286 -0.24980476 1.2550001 255 0 255 255
0.041833337 -0.24980476 1.2550001 255 0 255 255
0.044223815 -0.24980476 1.2550001 255 0 255 255
0.046428572 -0.24880952 1.25 255 0 255 255
0.048809525 -0.24880952 1.25 255 0 255 255
0.051190477 -0.24880952 1.25 255 0 255 255
0.053571429 -0.24880952 1.25 255 0 255 255
0.055952381 -0.24880952 1.25 255 0 255 255
0.0581 -0.24781427 1.245 255 0 255 255
0.060471427 -0.24781427 1.245 255 0 255 255
0.062842853 -0.24781427 1.245 255 0 255 255
0.065214284 -0.24781427 1.245 255 0 255 255
0.067585714 -0.24781427 1.245 255 0 255 255
0.069732383 -0.24701811 1.2410001 255 0 255 255
0.072096191 -0.24701811 1.2410001 255 0 255 255
0.074460007 -0.24701811 1.2410001 255 0 255 255
0.076823808 -0.24701811 1.2410001 255 0 255 255
0.079442859 -0.24781427 1.245 255 0 255 255
0.081814282 -0.24781427 1.245 255 0 255 255
0.084185712 -0.24781427 1.245 255 0 255 255
0.086557142 -0.24781427 1.245 255 0 255 255
0.088928573 -0.24781427 1.245 255 0 255 255
0.091299996 -0.24781427 1.245 255 0 255 255
0.093671434 -0.24781427 1.245 255 0 255 255
0.096428573 -0.24880952 1.25 255 0 255 255
0.098809525 -0.24880952 1.25 255 0 255 255
0.10119048 -0.24880952 1.25 255 0 255 255
0.10398573 -0.24980476 1.2550001 255 0 255 255
0.10637619 -0.24980476 1.2550001 255 0 255 255
0.10876667 -0.24980476 1.2550001 255 0 255 255
0.11115715 -0.24980476 1.2550001 255 0 255 255
0.11354763 -0.24980476 1.2550001 255 0 255 255
0.1159381 -0.24980476 1.2550001 255 0 255 255
0.11832858 -0.24980476 1.2550001 255 0 255 255
0.12071906 -0.24980476 1.2550001 255 0 255 255
0.1235019 -0.25060096 1.2590001 255 0 255 255
0.1259 -0.25060096 1.2590001 255 0 255 255
0.041833337 -0.24741432 1.2550001 255 0 255 255
0.044223815 -0.24741432 1.2550001 255 0 255 255
0.046428572 -0.24642856 1.25 255 0 255 255
0.048809525 -0.24642856 1.25 255 0 255 255
0.051190477 -0.24642856 1.25 255 0 255 255
0.053571429 -0.24642856 1.25 255 0 255 255
0.05572857 -0.24544285 1.245 255 0 255 255
0.0581 -0.24544285 1.245 255 0 255 255
0.060471427 -0.24544285 1.245 255 0 255 255
0.062842853 -0.24544285 1.245 255 0 255 255
0.065004766 -0.24465431 1.2410001 255 0 255 255
0.067368567 -0.24465431 1.2410001 255 0 255 255
0.069732383 -0.24465431 1.2410001 255 0 255 255
0.072096191 -0.24465431 1.2410001 255 0 255 255
0.074460007 -0.24465431 1.2410001 255 0 255 255
0.076823808 -0.24465431 1.2410001 255 0 255 255
0.079187624 -0.24465431 1.2410001 255 0 255 255
0.081551433 -0.24465431 1.2410001 255 0 255 255
0.083915241 -0.24465431 1.2410001 255 0 255 255
0.086557142 -0.24544285 1.245 255 0 255 255
0.088928573 -0.24544285 1.245 255 0 255 255
0.091299996 -0.24544285 1.245 255 0 255 255
0.093671434 -0.24544285 1.245 255 0 255 255
0.096428573 -0.24642856 1.25 255 0 255 255
0.098809525 -0.24642856 1.25 255 0 255 255
0.10119048 -0.24642856 1.25 255 0 255 255
0.10398573 -0.24741432 1.2550001 255 0 255 255
0.10637619 -0.24741432 1.2550001 255 0 255 255
0.10876667 -0.24741432 1.2550001 255 0 255 255
0.11115715 -0.24741432 1.2550001 255 0 255 255
0.11354763 -0.24741432 1.2550001 255 0 255 255
0.1159381 -0.24741432 1.2550001 255 0 255 255
0.11832858 -0.24741432 1.2550001 255 0 255 255
0.12071906 -0.24741432 1.2550001 255 0 255 255
0.1235019 -0.24820286 1.2590001 255 0 255 255
0.1259 -0.24820286 1.2590001 255 0 255 255
0.1282981 -0.24820286 1.2590001 255 0 255 255
0.048809525 -0.24404761 1.25 255 0 255 255
0.051190477 -0.24404761 1.25 255 0 255 255
0.053571429 -0.24404761 1.25 255 0 255 255
0.05572857 -0.24307144 1.245 255 0 255 255
0.0581 -0.24307144 1.245 255 0 255 255
0.060471427 -0.24307144 1.245 255 0 255 255
0.062842853 -0.24307144 1.245 255 0 255 255
0.065004766 -0.24229048 1.2410001 255 0 255 255
0.067368567 -0.24229048 1.2410001 255 0 255 255
0.069451429 -0.24131429 1.2360001 255 0 255 255
0.071805716 -0.24131429 1.2360001 255 0 255 255
0.074160002 -0.24131429 1.2360001 255 0 255 255
0.076514289 -0.24131429 1.2360001 255 0 255 255
0.078868575 -0.24131429 1.2360001 255 0 255 255
0.081551433 -0.24229048 1.2410001 255 0 255 255
0.083915241 -0.24229048 1.2410001 255 0 255 255
0.086557142 -0.24307144 1.245 255 0 255 255
0.088928573 -0.24307144 1.245 255 0 255 255
0.091299996 -0.24307144 1.245 255 0 255 255
0.093671434 -0.24307144 1.245 255 0 255 255
0.096042857 -0.24307144 1.245 255 0 255 255
0.098809525 -0.24404761 1.25 255 0 255 255
0.10119048 -0.24404761 1.25 255 0 255 255
0.10357143 -0.24404761 1.25 255 0 255 255
0.10637619 -0.24502383 1.2550001 255 0 255 255
0.10876667 -0.24502383 1.2550001 255 0 255 255
0.11115715 -0.24502383 1.2550001 255 0 255 255
0.11354763 -0.24502383 1.2550001 255 0 255 255
0.1159381 -0.24502383 1.2550001 255 0 255 255
0.11832858 -0.24502383 1.2550001 255 0 255 255
0.12071906 -0.24502383 1.2550001 255 0 255 255
0.048809525 -0.24166666 1.25 255 0 255 255
0.051190477 -0.24166666 1.25 255 0 255 255
0.053571429 -0.24166666 1.25 255 0 255 255
0.05572857 -0.24069999 1.245 255 0 255 255
0.0581 -0.24069999 1.245 255 0 255 255
0.060471427 -0.24069999 1.245 255 0 255 255
0.062842853 -0.24069999 1.245 255 0 255 255
0.065004766 -0.23992667 1.2410001 255 0 255 255
0.067368567 -0.23992667 1.2410001 255 0 255 255
0.069451429 -0.23896001 1.2360001 255 0 255 255
0.071805716 -0.23896001 1.2360001 255 0 255 255
0.074160002 -0.23896001 1.2360001 255 0 255 255
0.076514289 -0.23896001 1.2360001 255 0 255 255
0.078868575 -0.23896001 1.2360001 255 0 255 255
0.081551433 -0.23992667 1.2410001 255 0 255 255
0.083915241 -0.23992667 1.2410001 255 0 255 255
0.086557142 -0.24069999 1.245 255 0 255 255
0.088928573 -0.24069999 1.245 255 0 255 255
0.091299996 -0.24069999 1.245 255 0 255 255
0.093671434 -0.24069999 1.245 255 0 255 255
0.096042857 -0.24069999 1.245 255 0 255 255
0.098414287 -0.24069999 1.245 255 0 255 255
0.10119048 -0.24166666 1.25 255 0 255 255
0.10357143 -0.24166666 1.25 255 0 255 255
0.10637619 -0.24263336 1.2550001 255 0 255 255
0.10876667 -0.24263336 1.2550001 255 0 255 255
0.11115715 -0.24263336 1.2550001 255 0 255 255
0.11354763 -0.24263336 1.2550001 255 0 255 255
0.1159381 -0.24263336 1.2550001 255 0 255 255
0.11832858 -0.24263336 1.2550001 255 0 255 255
0.12071906 -0.24263336 1.2550001 255 0 255 255
0.048809525 -0.23928571 1.25 255 0 255 255
0.051190477 -0.23928571 1.25 255 0 255 255
0.053571429 -0.23928571 1.25 255 0 255 255
0.05572857 -0.23832856 1.245 255 0 255 255
0.0581 -0.23832856 1.245 255 0 255 255
0.060471427 -0.23832856 1.245 255 0 255 255
0.062842853 -0.23832856 1.245 255 0 255 255
0.065214284 -0.23832856 1.245 255 0 255 255
0.067585714 -0.23832856 1.245 255 0 255 255
0.069732383 -0.23756287 1.2410001 255 0 255 255
0.072096191 -0.23756287 1.2410001 255 0 255 255
0.074460007 -0.23756287 1.2410001 255 0 255 255
0.076823808 -0.23756287 1.2410001 255 0 255 255
0.079187624 -0.23756287 1.2410001 255 0 255 255
0.081814282 -0.23832856 1.245 255 0 255 255
0.084185712 -0.23832856 1.245 255 0 255 255
0.086557142 -0.23832856 1.245 255 0 255 255
0.088928573 -0.23832856 1.245 255 0 255 255
0.091299996 -0.23832856 1.245 255 0 255 255
0.093671434 -0.23832856 1.245 255 0 255 255
0.096042857 -0.23832856 1.245 255 0 255 255
0.098414287 -0.23832856 1.245 255 0 255 255
0.10119048 -0.23928571 1.25 255 0 255 255
0.10357143 -0.23928571 1.25 255 0 255 255
0.10637619 -0.24024287 1.2550001 255 0 255 255
0.10876667 -0.24024287 1.2550001 255 0 255 255
0.11115715 -0.24024287 1.2550001 255 0 255 255
0.11354763 -0.24024287 1.2550001 255 0 255 255
0.1159381 -0.24024287 1.2550001 255 0 255 255
0.11832858 -0.24024287 1.2550001 255 0 255 255
0.12071906 -0.24024287 1.2550001 255 0 255 255
0.051190477 -0.23690476 1.25 255 0 255 255
0.053571429 -0.23690476 1.25 255 0 255 255
0.055952381 -0.23690476 1.25 255 0 255 255
0.0581 -0.23595715 1.245 255 0 255 255
0.060471427 -0.23595715 1.245 255 0 255 255
0.062842853 -0.23595715 1.245 255 0 255 255
0.065214284 -0.23595715 1.245 255 0 255 255
0.067585714 -0.23595715 1.245 255 0 255 255
0.069957145 -0.23595715 1.245 255 0 255 255
0.072328568 -0.23595715 1.245 255 0 255 255
0.074699998 -0.23595715 1.245 255 0 255 255
0.077071428 -0.23595715 1.245 255 0 255 255
0.079442859 -0.23595715 1.245 255 0 255 255
0.081814282 -0.23595715 1.245 255 0 255 255
0.084185712 -0.23595715 1.245 255 0 255 255
0.086557142 -0.23595715 1.245 255 0 255 255
0.088928573 -0.23595715 1.245 255 0 255 255
0.091299996 -0.23595715 1.245 255 0 255 255
0.093671434 -0.23595715 1.245 255 0 255 255
0.096042857 -0.23595715 1.245 255 0 255 255
0.098414287 -0.23595715 1.245 255 0 255 255
0.10119048 -0.23690476 1.25 255 0 255 255
0.10357143 -0.23690476 1.25 255 0 255 255
0.10637619 -0.23785241 1.2550001 255 0 255 255
0.10876667 -0.23785241 1.2550001 255 0 255 255
0.11115715 -0.23785241 1.2550001 255 0 255 255
0.11354763 -0.23785241 1.2550001 255 0 255 255
0.1159381 -0.23785241 1.2550001 255 0 255 255
0.11832858 -0.23785241 1.2550001 255 0 255 255
0.051190477 -0.2345238 1.25 255 0 255 255
0.053571429 -0.2345238 1.25 255 0 255 255
0.055952381 -0.2345238 1.25 255 0 255 255
0.058333334 -0.2345238 1.25 255 0 255 255
0.060714286 -0.2345238 1.25 255 0 255 255
0.063095234 -0.2345238 1.25 255 0 255 255
0.065214284 -0.23358572 1.245 255 0 255 255
0.067585714 -0.23358572 1.245 255 0 255 255
0.069957145 -0.23358572 1.245 255 0 255 255
0.072328568 -0.23358572 1.245 255 0 255 255
0.074699998 -0.23358572 1.245 255 0 255 255
0.077071428 -0.23358572 1.245 255 0 255 255
0.079442859 -0.23358572 1.245 255 0 255 255
0.081814282 -0.23358572 1.245 255 0 255 255
0.084185712 -0.23358572 1.245 255 0 255 255
0.086557142 -0.23358572 1.245 255 0 255 255
0.088928573 -0.23358572 1.245 255 0 255 255
0.091299996 -0.23358572 1.245 255 0 255 255
0.093671434 -0.23358572 1.245 255 0 255 255
0.096042857 -0.23358572 1.245 255 0 255 255
0.098809525 -0.2345238 1.25 255 0 255 255
0.10119048 -0.2345238 1.25 255 0 255 255
0.10357143 -0.2345238 1.25 255 0 255 255
0.10637619 -0.23546192 1.2550001 255 0 255 255
0.10876667 -0.23546192 1.2550001 255 0 255 255
0.11115715 -0.23546192 1.2550001 255 0 255 255
0.11354763 -0.23546192 1.2550001 255 0 255 255
0.1159381 -0.23546192 1.2550001 255 0 255 255
0.11832858 -0.23546192 1.2550001 255 0 255 255
0.051190477 -0.23214285 1.25 255 0 255 255
0.053571429 -0.23214285 1.25 255 0 255 255
0.055952381 -0.23214285 1.25 255 0 255 255
0.058333334 -0.23214285 1.25 255 0 255 255
0.060714286 -0.23214285 1.25 255 0 255 255
0.063095234 -0.23214285 1.25 255 0 255 255
0.065476187 -0.23214285 1.25 255 0 255 255
0.067857139 -0.23214285 1.25 255 0 255 255
0.070238091 -0.23214285 1.25 255 0 255 255
0.072619043 -0.23214285 1.25 255 0 255 255
0.074999996 -0.23214285 1.25 255 0 255 255
0.077380955 -0.23214285 1.25 255 0 255 255
0.079442859 -0.23121427 1.245 255 0 255 255
0.081814282 -0.23121427 1.245 255 0 255 255
0.084185712 -0.23121427 1.245 255 0 255 255
0.086557142 -0.23121427 1.245 255 0 255 255
0.088928573 -0.23121427 1.245 255 0 255 255
0.091299996 -0.23121427 1.245 255 0 255 255
0.094047621 -0.23214285 1.25 255 0 255 255
0.096428573 -0.23214285 1.25 255 0 255 255
0.098809525 -0.23214285 1.25 255 0 255 255
0.10119048 -0.23214285 1.25 255 0 255 255
0.10357143 -0.23214285 1.25 255 0 255 255
0.10637619 -0.23307145 1.2550001 255 0 255 255
0.10876667 -0.23307145 1.2550001 255 0 255 255
0.11115715 -0.23307145 1.2550001 255 0 255 255
0.11354763 -0.23307145 1.2550001 255 0 255 255
0.1159381 -0.23307145 1.2550001 255 0 255 255
0.11832858 -0.23307145 1.2550001 255 0 255 255
0.051190477 -0.2297619 1.25 255 0 255 255
0.053571429 -0.2297619 1.25 255 0 255 255
0.055952381 -0.2297619 1.25 255 0 255 255
0.058333334 -0.2297619 1.25 255 0 255 255
0.060714286 -0.2297619 1.25 255 0 255 255
0.063095234 -0.2297619 1.25 255 0 255 255
0.065476187 -0.2297619 1.25 255 0 255 255
0.067857139 -0.2297619 1.25 255 0 255 255
0.070238091 -0.2297619 1.25 255 0 255 255
0.072619043 -0.2297619 1.25 255 0 255 255
0.074999996 -0.2297619 1.25 255 0 255 255
0.077380955 -0.2297619 1.25 255 0 255 255
0.079761907 -0.2297619 1.25 255 0 255 255
0.08214286 -0.2297619 1.25 255 0 255 255
0.084523812 -0.2297619 1.25 255 0 255 255
0.086904764 -0.2297619 1.25 255 0 255 255
0.089285716 -0.2297619 1.25 255 0 255 255
0.091666669 -0.2297619 1.25 255 0 255 255
0.094047621 -0.2297619 1.25 255 0 255 255
0.096428573 -0.2297619 1.25 255 0 255 255
0.098809525 -0.2297619 1.25 255 0 255 255
0.10119048 -0.2297619 1.25 255 0 255 255
0.10357143 -0.2297619 1.25 255 0 255 255
0.10876667 -0.23068097 1.2550001 255 0 255 255
0.11115715 -0.23068097 1.2550001 255 0 255 255
0.11354763 -0.23068097 1.2550001 255 0 255 255
0.1159381 -0.23068097 1.2550001 255 0 255 255
0.11832858 -0.23068097 1.2550001 255 0 255 255
0.051190477 -0.22738095 1.25 255 0 255 255
0.053571429 -0.22738095 1.25 255 0 255 255
0.055952381 -0.22738095 1.25 255 0 255 255
0.058333334 -0.22738095 1.25 255 0 255 255
0.060714286 -0.22738095 1.25 255 0 255 255
0.063095234 -0.22738095 1.25 255 0 255 255
0.065476187 -0.22738095 1.25 255 0 255 255
0.067857139 -0.22738095 1.25 255 0 255 255
0.070238091 -0.22738095 1.25 255 0 255 255
0.072619043 -0.22738095 1.25 255 0 255 255
0.074999996 -0.22738095 1.25 255 0 255 255
0.077380955 -0.22738095 1.25 255 0 255 255
0.079761907 -0.22738095 1.25 255 0 255 255
0.08214286 -0.22738095 1.25 255 0 255 255
0.084523812 -0.22738095 1.25 255 0 255 255
0.086904764 -0.22738095 1.25 255 0 255 255
0.089285716 -0.22738095 1.25 255 0 255 255
0.091666669 -0.22738095 1.25 255 0 255 255
0.094047621 -0.22738095 1.25 255 0 255 255
0.096428573 -0.22738095 1.25 255 0 255 255
0.098809525 -0.22738095 1.25 255 0 255 255
0.10119048 -0.22738095 1.25 255 0 255 255
0.058333334 -0.22499999 1.25 255 0 255 255
0.060714286 -0.22499999 1.25 255 0 255 255
0.063095234 -0.22499999 1.25 255 0 255 255
0.065476187 -0.22499999 1.25 255 0 255 255
0.067857139 -0.22499999 1.25 255 0 255 255
0.070238091 -0.22499999 1.25 255 0 255 255
0.072619043 -0.22499999 1.25 255 0 255 255
0.074999996 -0.22499999 1.25 255 0 255 255
0.077380955 -0.22499999 1.25 255 0 255 255
0.079761907 -0.22499999 1.25 255 0 255 255
0.08214286 -0.22499999 1.25 255 0 255 255
0.084523812 -0.22499999 1.25 255 0 255 255
0.086904764 -0.22499999 1.25 255 0 255 255
0.089285716 -0.22499999 1.25 255 0 255 255
0.091666669 -0.22499999 1.25 255 0 255 255
0.094047621 -0.22499999 1.25 255 0 255 255
0.096428573 -0.22499999 1.25 255 0 255 255
0.098809525 -0.22499999 1.25 255 0 255 255
0.10119048 -0.22499999 1.25 255 0 255 255
0.065476187 -0.22261904 1.25 255 0 255 255
0.067857139 -0.22261904 1.25 255 0 255 255
0.070238091 -0.22261904 1.25 255 0 255 255
0.072619043 -0.22261904 1.25 255 0 255 255
0.074999996 -0.22261904 1.25 255 0 255 255
0.077380955 -0.22261904 1.25 255 0 255 255
0.079761907 -0.22261904 1.25 255 0 255 255
0.08214286 -0.22261904 1.25 255 0 255 255
0.084523812 -0.22261904 1.25 255 0 255 255
0.086904764 -0.22261904 1.25 255 0 255 255
0.089285716 -0.22261904 1.25 255 0 255 255
0.091666669 -0.22261904 1.25 255 0 255 255
0.094047621 -0.22261904 1.25 255 0 255 255
0.067857139 -0.22023809 1.25 255 0 255 255
0.070238091 -0.22023809 1.25 255 0 255 255
0.072619043 -0.22023809 1.25 255 0 255 255
0.074999996 -0.22023809 1.25 255 0 255 255
0.077380955 -0.22023809 1.25 255 0 255 255
0.079761907 -0.22023809 1.25 255 0 255 255
0.08214286 -0.22023809 1.25 255 0 255 255
0.084523812 -0.22023809 1.25 255 0 255 255
0.086904764 -0.22023809 1.25 255 0 255 255
0.089285716 -0.22023809 1.25 255 0 255 255
0.091666669 -0.22023809 1.25 255 0 255 255
0.074999996 -0.21785714 1.25 255 0 255 255
0.077380955 -0.21785714 1.25 255 0 255 255
0.079761907 -0.21785714 1.25 255 0 255 255
0.08214286 -0.21785714 1.25 255 0 255 255
0.084523812 -0.21785714 1.25 255 0 255 255
0.086904764 -0.21785714 1.25 255 0 255 255
0.089285716 -0.21785714 1.25 255 0 255 255
0.091666669 -0.21785714 1.25 255 0 255 255
0.077380955 -0.21547619 1.25 255 0 255 255
0.079761907 -0.21547619 1.25 255 0 255 255
0.089285716 -0.21547619 1.25 255 0 255 255
0.091666669 -0.21547619 1.25 255 0 255 255
0.077380955 -0.21309523 1.25 255 0 255 255
0.079761907 -0.21309523 1.25 255 0 255 255
0 0 0 1 0 0 0 1 0 0 0 1 0 0 0 0 0 838 1 0 0
