ply
format ascii 1.0
comment PCL generated
element vertex 1008
property float x
property float y
property float z
property uchar red
property uchar green
property uchar blue
property uchar alpha
element camera 1
property float view_px
property float view_py
property float view_pz
property float x_axisx
property float x_axisy
property float x_axisz
property float y_axisx
property float y_axisy
property float y_axisz
property float z_axisx
property float z_axisy
property float z_axisz
property float focal
property float scalex
property float scaley
property float centerx
property float centery
property int viewportx
property int viewporty
property float k1
property float k2
end_header
0.30478573 -0.32390955 1.2550001 255 0 255 255
0.30717623 -0.32390955 1.2550001 255 0 255 255
0.30956671 -0.32390955 1.2550001 255 0 255 255
0.28327146 -0.32151908 1.2550001 255 0 255 255
0.28452381 -0.32023808 1.25 255 0 255 255
0.28575715 -0.31895715 1.245 255 0 255 255
0.28812858 -0.31895715 1.245 255 0 255 255
0.29049999 -0.31895715 1.245 255 0 255 255
0.29287145 -0.31895715 1.245 255 0 255 255
0.29524285 -0.31895715 1.245 255 0 255 255
0.29880953 -0.32023808 1.25 255 0 255 255
0.30119047 -0.32023808 1.25 255 0 255 255
0.30478573 -0.32151908 1.2550001 255 0 255 255
0.30717623 -0.32151908 1.2550001 255 0 255 255
0.30833334 -0.32023808 1.25 255 0 255 255
0.31071427 -0.32023808 1.25 255 0 255 255
0.31184286 -0.31895715 1.245 255 0 255 255
0.31421426 -0.31895715 1.245 255 0 255 255
0.27849051 -0.3191286 1.2550001 255 0 255 255
0.27976191 -0.31785715 1.25 255 0 255 255
0.28214285 -0.31785715 1.25 255 0 255 255
0.28338569 -0.31658572 1.245 255 0 255 255
0.28483906 -0.3155686 1.2410001 255 0 255 255
0.28720286 -0.3155686 1.2410001 255 0 255 255
0.28956667 -0.3155686 1.2410001 255 0 255 255
0.29287145 -0.31658572 1.245 255 0 255 255
0.29524285 -0.31658572 1.245 255 0 255 255
0.29761428 -0.31658572 1.245 255 0 255 255
0.29998574 -0.31658572 1.245 255 0 255 255
0.30235714 -0.31658572 1.245 255 0 255 255
0.30595237 -0.31785715 1.25 255 0 255 255
0.3071 -0.31658572 1.245 255 0 255 255
0.30947143 -0.31658572 1.245 255 0 255 255
0.31184286 -0.31658572 1.245 255 0 255 255
0.31320477 -0.3155686 1.2410001 255 0 255 255
0.3155686 -0.3155686 1.2410001 255 0 255 255
0.27610004 -0.31673813 1.2550001 255 0 255 255
0.27738094 -0.31547618 1.25 255 0 255 255
0.27864286 -0.31421426 1.245 255 0 255 255
0.28101429 -0.31421426 1.245 255 0 255 255
0.28338569 -0.31421426 1.245 255 0 255 255
0.28483906 -0.31320477 1.2410001 255 0 255 255
0.28720286 -0.31320477 1.2410001 255 0 255 255
0.28956667 -0.31320477 1.2410001 255 0 255 255
0.29287145 -0.31421426 1.245 255 0 255 255
0.29524285 -0.31421426 1.245 255 0 255 255
0.29761428 -0.31421426 1.245 255 0 255 255
0.29998574 -0.31421426 1.245 255 0 255 255
0.30235714 -0.31421426 1.245 255 0 255 255
0.30595237 -0.31547618 1.25 255 0 255 255
0.3071 -0.31421426 1.245 255 0 255 255
0.30947143 -0.31421426 1.245 255 0 255 255
0.31184286 -0.31421426 1.245 255 0 255 255
0.31320477 -0.31320477 1.2410001 255 0 255 255
0.3155686 -0.31320477 1.2410001 255 0 255 255
0.31895715 -0.31421426 1.245 255 0 255 255
0.32132855 -0.31421426 1.245 255 0 255 255
0.27370954 -0.31434765 1.2550001 255 0 255 255
0.27610004 -0.31434765 1.2550001 255 0 255 255
0.27738094 -0.31309524 1.25 255 0 255 255
0.27864286 -0.31184286 1.245 255 0 255 255
0.28101429 -0.31184286 1.245 255 0 255 255
0.28247523 -0.31084096 1.2410001 255 0 255 255
0.28483906 -0.31084096 1.2410001 255 0 255 255
0.28720286 -0.31084096 1.2410001 255 0 255 255
0.28956667 -0.31084096 1.2410001 255 0 255 255
0.29193047 -0.31084096 1.2410001 255 0 255 255
0.2942943 -0.31084096 1.2410001 255 0 255 255
0.29665813 -0.31084096 1.2410001 255 0 255 255
0.29902193 -0.31084096 1.2410001 255 0 255 255
0.30235714 -0.31184286 1.245 255 0 255 255
0.30595237 -0.31309524 1.25 255 0 255 255
0.3071 -0.31184286 1.245 255 0 255 255
0.30947143 -0.31184286 1.245 255 0 255 255
0.31184286 -0.31184286 1.245 255 0 255 255
0.31421426 -0.31184286 1.245 255 0 255 255
0.31658572 -0.31184286 1.245 255 0 255 255
0.31895715 -0.31184286 1.245 255 0 255 255
0.32132855 -0.31184286 1.245 255 0 255 255
0.32370001 -0.31184286 1.245 255 0 255 255
0.32607141 -0.31184286 1.245 255 0 255 255
0.32844284 -0.31184286 1.245 255 0 255 255
0.27218381 -0.31295145 1.2590001 255 0 255 255
0.27370954 -0.31195715 1.2550001 255 0 255 255
0.27500001 -0.31071427 1.25 255 0 255 255
0.2762714 -0.30947143 1.245 255 0 255 255
0.27864286 -0.30947143 1.245 255 0 255 255
0.28101429 -0.30947143 1.245 255 0 255 255
0.28247523 -0.30847713 1.2410001 255 0 255 255
0.28483906 -0.30847713 1.2410001 255 0 255 255
0.28720286 -0.30847713 1.2410001 255 0 255 255
0.28956667 -0.30847713 1.2410001 255 0 255 255
0.29193047 -0.30847713 1.2410001 255 0 255 255
0.2942943 -0.30847713 1.2410001 255 0 255 255
0.29665813 -0.30847713 1.2410001 255 0 255 255
0.29902193 -0.30847713 1.2410001 255 0 255 255
0.30235714 -0.30947143 1.245 255 0 255 255
0.30472857 -0.30947143 1.245 255 0 255 255
0.3071 -0.30947143 1.245 255 0 255 255
0.30947143 -0.30947143 1.245 255 0 255 255
0.31184286 -0.30947143 1.245 255 0 255 255
0.31421426 -0.30947143 1.245 255 0 255 255
0.3155686 -0.30847713 1.2410001 255 0 255 255
0.3179324 -0.30847713 1.2410001 255 0 255 255
0.3202962 -0.30847713 1.2410001 255 0 255 255
0.32266003 -0.30847713 1.2410001 255 0 255 255
0.32502383 -0.30847713 1.2410001 255 0 255 255
0.32738763 -0.30847713 1.2410001 255 0 255 255
0.27131909 -0.30956671 1.2550001 255 0 255 255
0.27261904 -0.30833334 1.25 255 0 255 255
0.27500001 -0.30833334 1.25 255 0 255 255
0.2762714 -0.3071 1.245 255 0 255 255
0.27864286 -0.3071 1.245 255 0 255 255
0.28101429 -0.3071 1.245 255 0 255 255
0.28247523 -0.30611333 1.2410001 255 0 255 255
0.28483906 -0.30611333 1.2410001 255 0 255 255
0.28720286 -0.30611333 1.2410001 255 0 255 255
0.28956667 -0.30611333 1.2410001 255 0 255 255
0.29193047 -0.30611333 1.2410001 255 0 255 255
0.2942943 -0.30611333 1.2410001 255 0 255 255
0.29665813 -0.30611333 1.2410001 255 0 255 255
0.29902193 -0.30611333 1.2410001 255 0 255 255
0.30235714 -0.3071 1.245 255 0 255 255
0.30472857 -0.3071 1.245 255 0 255 255
0.3071 -0.3071 1.245 255 0 255 255
0.30947143 -0.3071 1.245 255 0 255 255
0.31184286 -0.3071 1.245 255 0 255 255
0.31421426 -0.3071 1.245 255 0 255 255
0.3155686 -0.30611333 1.2410001 255 0 255 255
0.3179324 -0.30611333 1.2410001 255 0 255 255
0.3202962 -0.30611333 1.2410001 255 0 255 255
0.32266003 -0.30611333 1.2410001 255 0 255 255
0.32502383 -0.30611333 1.2410001 255 0 255 255
0.32738763 -0.30611333 1.2410001 255 0 255 255
0.32975143 -0.30611333 1.2410001 255 0 255 255
0.27131909 -0.30717623 1.2550001 255 0 255 255
0.27261904 -0.30595237 1.25 255 0 255 255
0.27500001 -0.30595237 1.25 255 0 255 255
0.2762714 -0.30472857 1.245 255 0 255 255
0.27864286 -0.30472857 1.245 255 0 255 255
0.28101429 -0.30472857 1.245 255 0 255 255
0.28247523 -0.30374953 1.2410001 255 0 255 255
0.28483906 -0.30374953 1.2410001 255 0 255 255
0.28720286 -0.30374953 1.2410001 255 0 255 255
0.28956667 -0.30374953 1.2410001 255 0 255 255
0.29193047 -0.30374953 1.2410001 255 0 255 255
0.2942943 -0.30374953 1.2410001 255 0 255 255
0.29665813 -0.30374953 1.2410001 255 0 255 255
0.29902193 -0.30374953 1.2410001 255 0 255 255
0.30235714 -0.30472857 1.245 255 0 255 255
0.30472857 -0.30472857 1.245 255 0 255 255
0.3071 -0.30472857 1.245 255 0 255 255
0.30947143 -0.30472857 1.245 255 0 255 255
0.31184286 -0.30472857 1.245 255 0 255 255
0.31421426 -0.30472857 1.245 255 0 255 255
0.3155686 -0.30374953 1.2410001 255 0 255 255
0.3179324 -0.30374953 1.2410001 255 0 255 255
0.3202962 -0.30374953 1.2410001 255 0 255 255
0.32266003 -0.30374953 1.2410001 255 0 255 255
0.32502383 -0.30374953 1.2410001 255 0 255 255
0.32738763 -0.30374953 1.2410001 255 0 255 255
0.32975143 -0.30374953 1.2410001 255 0 255 255
0.27131909 -0.30478573 1.2550001 255 0 255 255
0.27261904 -0.30357143 1.25 255 0 255 255
0.27500001 -0.30357143 1.25 255 0 255 255
0.2762714 -0.30235714 1.245 255 0 255 255
0.27864286 -0.30235714 1.245 255 0 255 255
0.28101429 -0.30235714 1.245 255 0 255 255
0.28247523 -0.30138573 1.2410001 255 0 255 255
0.28483906 -0.30138573 1.2410001 255 0 255 255
0.28720286 -0.30138573 1.2410001 255 0 255 255
0.28956667 -0.30138573 1.2410001 255 0 255 255
0.29193047 -0.30138573 1.2410001 255 0 255 255
0.2942943 -0.30138573 1.2410001 255 0 255 255
0.29665813 -0.30138573 1.2410001 255 0 255 255
0.29902193 -0.30138573 1.2410001 255 0 255 255
0.30235714 -0.30235714 1.245 255 0 255 255
0.30472857 -0.30235714 1.245 255 0 255 255
0.3071 -0.30235714 1.245 255 0 255 255
0.30947143 -0.30235714 1.245 255 0 255 255
0.31184286 -0.30235714 1.245 255 0 255 255
0.31421426 -0.30235714 1.245 255 0 255 255
0.3155686 -0.30138573 1.2410001 255 0 255 255
0.3179324 -0.30138573 1.2410001 255 0 255 255
0.3202962 -0.30138573 1.2410001 255 0 255 255
0.32266003 -0.30138573 1.2410001 255 0 255 255
0.32502383 -0.30138573 1.2410001 255 0 255 255
0.32738763 -0.30138573 1.2410001 255 0 255 255
0.32975143 -0.30138573 1.2410001 255 0 255 255
0.3331857 -0.30235714 1.245 255 0 255 255
0.27171427 -0.30552763 1.268 255 0 255 255
0.27218381 -0.30335906 1.2590001 255 0 255 255
0.27370954 -0.30239525 1.2550001 255 0 255 255
0.27500001 -0.30119047 1.25 255 0 255 255
0.27738094 -0.30119047 1.25 255 0 255 255
0.27864286 -0.29998574 1.245 255 0 255 255
0.28101429 -0.29998574 1.245 255 0 255 255
0.28247523 -0.29902193 1.2410001 255 0 255 255
0.28483906 -0.29902193 1.2410001 255 0 255 255
0.28720286 -0.29902193 1.2410001 255 0 255 255
0.28956667 -0.29902193 1.2410001 255 0 255 255
0.29075432 -0.29781714 1.2360001 255 0 255 255
0.29310858 -0.29781714 1.2360001 255 0 255 255
0.29665813 -0.29902193 1.2410001 255 0 255 255
0.29902193 -0.29902193 1.2410001 255 0 255 255
0.30138573 -0.29902193 1.2410001 255 0 255 255
0.30374953 -0.29902193 1.2410001 255 0 255 255
0.30611333 -0.29902193 1.2410001 255 0 255 255
0.30847713 -0.29902193 1.2410001 255 0 255 255
0.31084096 -0.29902193 1.2410001 255 0 255 255
0.31320477 -0.29902193 1.2410001 255 0 255 255
0.3155686 -0.29902193 1.2410001 255 0 255 255
0.3179324 -0.29902193 1.2410001 255 0 255 255
0.3202962 -0.29902193 1.2410001 255 0 255 255
0.32266003 -0.29902193 1.2410001 255 0 255 255
0.32502383 -0.29902193 1.2410001 255 0 255 255
0.32738763 -0.29902193 1.2410001 255 0 255 255
0.32975143 -0.29902193 1.2410001 255 0 255 255
0.3331857 -0.29998574 1.245 255 0 255 255
0.27171427 -0.30311239 1.268 255 0 255 255
0.27218381 -0.30096096 1.2590001 255 0 255 255
0.27370954 -0.30000478 1.2550001 255 0 255 255
0.27610004 -0.30000478 1.2550001 255 0 255 255
0.27738094 -0.29880953 1.25 255 0 255 255
0.27864286 -0.29761428 1.245 255 0 255 255
0.28101429 -0.29761428 1.245 255 0 255 255
0.28247523 -0.29665813 1.2410001 255 0 255 255
0.28483906 -0.29665813 1.2410001 255 0 255 255
0.28720286 -0.29665813 1.2410001 255 0 255 255
0.28956667 -0.29665813 1.2410001 255 0 255 255
0.29075432 -0.29546288 1.2360001 255 0 255 255
0.29310858 -0.29546288 1.2360001 255 0 255 255
0.29665813 -0.29665813 1.2410001 255 0 255 255
0.29902193 -0.29665813 1.2410001 255 0 255 255
0.30138573 -0.29665813 1.2410001 255 0 255 255
0.30374953 -0.29665813 1.2410001 255 0 255 255
0.30611333 -0.29665813 1.2410001 255 0 255 255
0.30847713 -0.29665813 1.2410001 255 0 255 255
0.31084096 -0.29665813 1.2410001 255 0 255 255
0.31320477 -0.29665813 1.2410001 255 0 255 255
0.3155686 -0.29665813 1.2410001 255 0 255 255
0.3179324 -0.29665813 1.2410001 255 0 255 255
0.3202962 -0.29665813 1.2410001 255 0 255 255
0.32266003 -0.29665813 1.2410001 255 0 255 255
0.32502383 -0.29665813 1.2410001 255 0 255 255
0.32738763 -0.29665813 1.2410001 255 0 255 255
0.32975143 -0.29665813 1.2410001 255 0 255 255
0.3331857 -0.29761428 1.245 255 0 255 255
0.27171427 -0.30069715 1.268 255 0 255 255
0.27326477 -0.2997486 1.2640001 255 0 255 255
0.27458191 -0.29856288 1.2590001 255 0 255 255
0.27610004 -0.29761431 1.2550001 255 0 255 255
0.27738094 -0.29642856 1.25 255 0 255 255
0.27976191 -0.29642856 1.25 255 0 255 255
0.28101429 -0.29524285 1.245 255 0 255 255
0.28247523 -0.2942943 1.2410001 255 0 255 255
0.28483906 -0.2942943 1.2410001 255 0 255 255
0.28720286 -0.2942943 1.2410001 255 0 255 255
0.28956667 -0.2942943 1.2410001 255 0 255 255
0.29075432 -0.29310858 1.2360001 255 0 255 255
0.29310858 -0.29310858 1.2360001 255 0 255 255
0.29665813 -0.2942943 1.2410001 255 0 255 255
0.29902193 -0.2942943 1.2410001 255 0 255 255
0.30138573 -0.2942943 1.2410001 255 0 255 255
0.30374953 -0.2942943 1.2410001 255 0 255 255
0.30611333 -0.2942943 1.2410001 255 0 255 255
0.30847713 -0.2942943 1.2410001 255 0 255 255
0.31084096 -0.2942943 1.2410001 255 0 255 255
0.31320477 -0.2942943 1.2410001 255 0 255 255
0.31429717 -0.29310858 1.2360001 255 0 255 255
0.31665143 -0.29310858 1.2360001 255 0 255 255
0.31900573 -0.29310858 1.2360001 255 0 255 255
0.32135999 -0.29310858 1.2360001 255 0 255 255
0.32371432 -0.29310858 1.2360001 255 0 255 255
0.32606858 -0.29310858 1.2360001 255 0 255 255
0.32975143 -0.2942943 1.2410001 255 0 255 255
0.3331857 -0.29524285 1.245 255 0 255 255
0.27142286 -0.30063429 1.2780001 255 0 255 255
0.27171427 -0.29828191 1.268 255 0 255 255
0.27326477 -0.29734096 1.2640001 255 0 255 255
0.27458191 -0.29616478 1.2590001 255 0 255 255
0.27610004 -0.29522383 1.2550001 255 0 255 255
0.27738094 -0.29404762 1.25 255 0 255 255
0.27976191 -0.29404762 1.25 255 0 255 255
0.28101429 -0.29287145 1.245 255 0 255 255
0.28247523 -0.29193047 1.2410001 255 0 255 255
0.28369144 -0.29075432 1.2360001 255 0 255 255
0.28604573 -0.29075432 1.2360001 255 0 255 255
0.28839999 -0.29075432 1.2360001 255 0 255 255
0.29075432 -0.29075432 1.2360001 255 0 255 255
0.29310858 -0.29075432 1.2360001 255 0 255 255
0.29665813 -0.29193047 1.2410001 255 0 255 255
0.29902193 -0.29193047 1.2410001 255 0 255 255
0.30138573 -0.29193047 1.2410001 255 0 255 255
0.30374953 -0.29193047 1.2410001 255 0 255 255
0.30611333 -0.29193047 1.2410001 255 0 255 255
0.30847713 -0.29193047 1.2410001 255 0 255 255
0.31084096 -0.29193047 1.2410001 255 0 255 255
0.31320477 -0.29193047 1.2410001 255 0 255 255
0.31429717 -0.29075432 1.2360001 255 0 255 255
0.31665143 -0.29075432 1.2360001 255 0 255 255
0.31900573 -0.29075432 1.2360001 255 0 255 255
0.32135999 -0.29075432 1.2360001 255 0 255 255
0.32371432 -0.29075432 1.2360001 255 0 255 255
0.32606858 -0.29075432 1.2360001 255 0 255 255
0.32842287 -0.29075432 1.2360001 255 0 255 255
0.27142286 -0.29820001 1.2780001 255 0 255 255
0.27171427 -0.29586667 1.268 255 0 255 255
0.27326477 -0.29493335 1.2640001 255 0 255 255
0.27458191 -0.29376668 1.2590001 255 0 255 255
0.27610004 -0.29283336 1.2550001 255 0 255 255
0.27738094 -0.29166666 1.25 255 0 255 255
0.27976191 -0.29166666 1.25 255 0 255 255
0.28101429 -0.29049999 1.245 255 0 255 255
0.28247523 -0.28956667 1.2410001 255 0 255 255
0.28369144 -0.28839999 1.2360001 255 0 255 255
0.28604573 -0.28839999 1.2360001 255 0 255 255
0.28839999 -0.28839999 1.2360001 255 0 255 255
0.29193047 -0.28956667 1.2410001 255 0 255 255
0.2942943 -0.28956667 1.2410001 255 0 255 255
0.29665813 -0.28956667 1.2410001 255 0 255 255
0.29902193 -0.28956667 1.2410001 255 0 255 255
0.30138573 -0.28956667 1.2410001 255 0 255 255
0.30374953 -0.28956667 1.2410001 255 0 255 255
0.30488002 -0.28839999 1.2360001 255 0 255 255
0.30723429 -0.28839999 1.2360001 255 0 255 255
0.30958858 -0.28839999 1.2360001 255 0 255 255
0.31194288 -0.28839999 1.2360001 255 0 255 255
0.31429717 -0.28839999 1.2360001 255 0 255 255
0.31665143 -0.28839999 1.2360001 255 0 255 255
0.31900573 -0.28839999 1.2360001 255 0 255 255
0.32135999 -0.28839999 1.2360001 255 0 255 255
0.32371432 -0.28839999 1.2360001 255 0 255 255
0.32606858 -0.28839999 1.2360001 255 0 255 255
0.32842287 -0.28839999 1.2360001 255 0 255 255
0.33077714 -0.28839999 1.2360001 255 0 255 255
0.27142286 -0.29576573 1.2780001 255 0 255 255
0.27171427 -0.29345143 1.268 255 0 255 255
0.27412951 -0.29345143 1.268 255 0 255 255
0.27567241 -0.29252571 1.2640001 255 0 255 255
0.27610004 -0.29044288 1.2550001 255 0 255 255
0.27849051 -0.29044288 1.2550001 255 0 255 255
0.27976191 -0.28928572 1.25 255 0 255 255
0.28101429 -0.28812858 1.245 255 0 255 255
0.28247523 -0.28720286 1.2410001 255 0 255 255
0.28369144 -0.28604573 1.2360001 255 0 255 255
0.28604573 -0.28604573 1.2360001 255 0 255 255
0.28839999 -0.28604573 1.2360001 255 0 255 255
0.29193047 -0.28720286 1.2410001 255 0 255 255
0.2942943 -0.28720286 1.2410001 255 0 255 255
0.29665813 -0.28720286 1.2410001 255 0 255 255
0.29902193 -0.28720286 1.2410001 255 0 255 255
0.30138573 -0.28720286 1.2410001 255 0 255 255
0.30374953 -0.28720286 1.2410001 255 0 255 255
0.30488002 -0.28604573 1.2360001 255 0 255 255
0.30723429 -0.28604573 1.2360001 255 0 255 255
0.30958858 -0.28604573 1.2360001 255 0 255 255
0.31194288 -0.28604573 1.2360001 255 0 255 255
0.31429717 -0.28604573 1.2360001 255 0 255 255
0.31665143 -0.28604573 1.2360001 255 0 255 255
0.31900573 -0.28604573 1.2360001 255 0 255 255
0.32135999 -0.28604573 1.2360001 255 0 255 255
0.32371432 -0.28604573 1.2360001 255 0 255 255
0.32606858 -0.28604573 1.2360001 255 0 255 255
0.32842287 -0.28604573 1.2360001 255 0 255 255
0.33077714 -0.28604573 1.2360001 255 0 255 255
0.27142286 -0.29333144 1.2780001 255 0 255 255
0.27278569 -0.29218382 1.273 255 0 255 255
0.27521047 -0.29218382 1.273 255 0 255 255
0.27654478 -0.29103619 1.268 255 0 255 255
0.27698001 -0.28897047 1.2590001 255 0 255 255
0.27849051 -0.28805238 1.2550001 255 0 255 255
0.27976191 -0.28690475 1.25 255 0 255 255
0.28101429 -0.28575715 1.245 255 0 255 255
0.28247523 -0.28483906 1.2410001 255 0 255 255
0.28369144 -0.28369144 1.2360001 255 0 255 255
0.28604573 -0.28369144 1.2360001 255 0 255 255
0.28839999 -0.28369144 1.2360001 255 0 255 255
0.29193047 -0.28483906 1.2410001 255 0 255 255
0.2942943 -0.28483906 1.2410001 255 0 255 255
0.29665813 -0.28483906 1.2410001 255 0 255 255
0.29902193 -0.28483906 1.2410001 255 0 255 255
0.30138573 -0.28483906 1.2410001 255 0 255 255
0.30374953 -0.28483906 1.2410001 255 0 255 255
0.30611333 -0.28483906 1.2410001 255 0 255 255
0.30723429 -0.28369144 1.2360001 255 0 255 255
0.30958858 -0.28369144 1.2360001 255 0 255 255
0.31194288 -0.28369144 1.2360001 255 0 255 255
0.31429717 -0.28369144 1.2360001 255 0 255 255
0.31665143 -0.28369144 1.2360001 255 0 255 255
0.31900573 -0.28369144 1.2360001 255 0 255 255
0.32135999 -0.28369144 1.2360001 255 0 255 255
0.32371432 -0.28369144 1.2360001 255 0 255 255
0.32606858 -0.28369144 1.2360001 255 0 255 255
0.32842287 -0.28369144 1.2360001 255 0 255 255
0.33077714 -0.28369144 1.2360001 255 0 255 255
0.27142286 -0.29089716 1.2780001 255 0 255 255
0.27385715 -0.29089716 1.2780001 255 0 255 255
0.27521047 -0.28975904 1.273 255 0 255 255
0.27654478 -0.28862095 1.268 255 0 255 255
0.27808002 -0.28771049 1.2640001 255 0 255 255
0.27849051 -0.28566194 1.2550001 255 0 255 255
0.27864286 -0.28338569 1.245 255 0 255 255
0.28011143 -0.28247523 1.2410001 255 0 255 255
0.28133717 -0.28133717 1.2360001 255 0 255 255
0.28369144 -0.28133717 1.2360001 255 0 255 255
0.28604573 -0.28133717 1.2360001 255 0 255 255
0.28839999 -0.28133717 1.2360001 255 0 255 255
0.29193047 -0.28247523 1.2410001 255 0 255 255
0.2942943 -0.28247523 1.2410001 255 0 255 255
0.29665813 -0.28247523 1.2410001 255 0 255 255
0.29902193 -0.28247523 1.2410001 255 0 255 255
0.30138573 -0.28247523 1.2410001 255 0 255 255
0.30374953 -0.28247523 1.2410001 255 0 255 255
0.30611333 -0.28247523 1.2410001 255 0 255 255
0.30723429 -0.28133717 1.2360001 255 0 255 255
0.30958858 -0.28133717 1.2360001 255 0 255 255
0.31194288 -0.28133717 1.2360001 255 0 255 255
0.31429717 -0.28133717 1.2360001 255 0 255 255
0.31665143 -0.28133717 1.2360001 255 0 255 255
0.31900573 -0.28133717 1.2360001 255 0 255 255
0.32135999 -0.28133717 1.2360001 255 0 255 255
0.32371432 -0.28133717 1.2360001 255 0 255 255
0.32606858 -0.28133717 1.2360001 255 0 255 255
0.32842287 -0.28133717 1.2360001 255 0 255 255
0.33077714 -0.28133717 1.2360001 255 0 255 255
0.27142286 -0.28846288 1.2780001 255 0 255 255
0.27278569 -0.28733426 1.273 255 0 255 255
0.27412951 -0.28620571 1.268 255 0 255 255
0.27567241 -0.28530288 1.2640001 255 0 255 255
0.27698001 -0.28417429 1.2590001 255 0 255 255
0.27849051 -0.28327146 1.2550001 255 0 255 255
0.27864286 -0.28101429 1.245 255 0 255 255
0.28011143 -0.28011143 1.2410001 255 0 255 255
0.28133717 -0.27898285 1.2360001 255 0 255 255
0.28369144 -0.27898285 1.2360001 255 0 255 255
0.28604573 -0.27898285 1.2360001 255 0 255 255
0.28839999 -0.27898285 1.2360001 255 0 255 255
0.29075432 -0.27898285 1.2360001 255 0 255 255
0.29310858 -0.27898285 1.2360001 255 0 255 255
0.29665813 -0.28011143 1.2410001 255 0 255 255
0.29902193 -0.28011143 1.2410001 255 0 255 255
0.30138573 -0.28011143 1.2410001 255 0 255 255
0.30374953 -0.28011143 1.2410001 255 0 255 255
0.30611333 -0.28011143 1.2410001 255 0 255 255
0.30847713 -0.28011143 1.2410001 255 0 255 255
0.30958858 -0.27898285 1.2360001 255 0 255 255
0.31194288 -0.27898285 1.2360001 255 0 255 255
0.31429717 -0.27898285 1.2360001 255 0 255 255
0.31665143 -0.27898285 1.2360001 255 0 255 255
0.31900573 -0.27898285 1.2360001 255 0 255 255
0.32135999 -0.27898285 1.2360001 255 0 255 255
0.32371432 -0.27898285 1.2360001 255 0 255 255
0.32606858 -0.27898285 1.2360001 255 0 255 255
0.32842287 -0.27898285 1.2360001 255 0 255 255
0.33077714 -0.27898285 1.2360001 255 0 255 255
0.27142286 -0.28602859 1.2780001 255 0 255 255
0.27278569 -0.28490952 1.273 255 0 255 255
0.27412951 -0.28379047 1.268 255 0 255 255
0.27567241 -0.28289524 1.2640001 255 0 255 255
0.27698001 -0.28177622 1.2590001 255 0 255 255
0.27849051 -0.28088096 1.2550001 255 0 255 255
0.27864286 -0.27864286 1.245 255 0 255 255
0.28011143 -0.27774763 1.2410001 255 0 255 255
0.28133717 -0.27662858 1.2360001 255 0 255 255
0.28369144 -0.27662858 1.2360001 255 0 255 255
0.28604573 -0.27662858 1.2360001 255 0 255 255
0.28839999 -0.27662858 1.2360001 255 0 255 255
0.29075432 -0.27662858 1.2360001 255 0 255 255
0.29310858 -0.27662858 1.2360001 255 0 255 255
0.29546288 -0.27662858 1.2360001 255 0 255 255
0.29902193 -0.27774763 1.2410001 255 0 255 255
0.30138573 -0.27774763 1.2410001 255 0 255 255
0.30374953 -0.27774763 1.2410001 255 0 255 255
0.30611333 -0.27774763 1.2410001 255 0 255 255
0.30847713 -0.27774763 1.2410001 255 0 255 255
0.31084096 -0.27774763 1.2410001 255 0 255 255
0.31320477 -0.27774763 1.2410001 255 0 255 255
0.3155686 -0.27774763 1.2410001 255 0 255 255
0.31665143 -0.27662858 1.2360001 255 0 255 255
0.31900573 -0.27662858 1.2360001 255 0 255 255
0.32135999 -0.27662858 1.2360001 255 0 255 255
0.32371432 -0.27662858 1.2360001 255 0 255 255
0.32606858 -0.27662858 1.2360001 255 0 255 255
0.32842287 -0.27662858 1.2360001 255 0 255 255
0.33077714 -0.27662858 1.2360001 255 0 255 255
0.27278569 -0.28248477 1.273 255 0 255 255
0.27412951 -0.28137523 1.268 255 0 255 255
0.27567241 -0.28048763 1.2640001 255 0 255 255
0.27698001 -0.27937812 1.2590001 255 0 255 255
0.27849051 -0.27849051 1.2550001 255 0 255 255
0.27976191 -0.27738094 1.25 255 0 255 255
0.28011143 -0.27538383 1.2410001 255 0 255 255
0.28133717 -0.27427429 1.2360001 255 0 255 255
0.28369144 -0.27427429 1.2360001 255 0 255 255
0.28604573 -0.27427429 1.2360001 255 0 255 255
0.28839999 -0.27427429 1.2360001 255 0 255 255
0.29075432 -0.27427429 1.2360001 255 0 255 255
0.29310858 -0.27427429 1.2360001 255 0 255 255
0.29546288 -0.27427429 1.2360001 255 0 255 255
0.29781714 -0.27427429 1.2360001 255 0 255 255
0.30017143 -0.27427429 1.2360001 255 0 255 255
0.30252573 -0.27427429 1.2360001 255 0 255 255
0.30488002 -0.27427429 1.2360001 255 0 255 255
0.30723429 -0.27427429 1.2360001 255 0 255 255
0.30958858 -0.27427429 1.2360001 255 0 255 255
0.31194288 -0.27427429 1.2360001 255 0 255 255
0.31429717 -0.27427429 1.2360001 255 0 255 255
0.31665143 -0.27427429 1.2360001 255 0 255 255
0.31900573 -0.27427429 1.2360001 255 0 255 255
0.32135999 -0.27427429 1.2360001 255 0 255 255
0.32371432 -0.27427429 1.2360001 255 0 255 255
0.32606858 -0.27427429 1.2360001 255 0 255 255
0.32842287 -0.27427429 1.2360001 255 0 255 255
0.33077714 -0.27427429 1.2360001 255 0 255 255
0.27278569 -0.28005999 1.273 255 0 255 255
0.27412951 -0.27895999 1.268 255 0 255 255
0.27567241 -0.27808002 1.2640001 255 0 255 255
0.27698001 -0.27698001 1.2590001 255 0 255 255
0.27849051 -0.27610004 1.2550001 255 0 255 255
0.27976191 -0.27500001 1.25 255 0 255 255
0.28011143 -0.27302003 1.2410001 255 0 255 255
0.28133717 -0.27192003 1.2360001 255 0 255 255
0.28369144 -0.27192003 1.2360001 255 0 255 255
0.28604573 -0.27192003 1.2360001 255 0 255 255
0.28839999 -0.27192003 1.2360001 255 0 255 255
0.29075432 -0.27192003 1.2360001 255 0 255 255
0.29310858 -0.27192003 1.2360001 255 0 255 255
0.29546288 -0.27192003 1.2360001 255 0 255 255
0.29781714 -0.27192003 1.2360001 255 0 255 255
0.30017143 -0.27192003 1.2360001 255 0 255 255
0.30252573 -0.27192003 1.2360001 255 0 255 255
0.30488002 -0.27192003 1.2360001 255 0 255 255
0.30723429 -0.27192003 1.2360001 255 0 255 255
0.30958858 -0.27192003 1.2360001 255 0 255 255
0.31194288 -0.27192003 1.2360001 255 0 255 255
0.31429717 -0.27192003 1.2360001 255 0 255 255
0.31665143 -0.27192003 1.2360001 255 0 255 255
0.31900573 -0.27192003 1.2360001 255 0 255 255
0.32135999 -0.27192003 1.2360001 255 0 255 255
0.32371432 -0.27192003 1.2360001 255 0 255 255
0.32738763 -0.27302003 1.2410001 255 0 255 255
0.32842287 -0.27192003 1.2360001 255 0 255 255
0.33077714 -0.27192003 1.2360001 255 0 255 255
0.27278569 -0.27763525 1.273 255 0 255 255
0.27412951 -0.27654478 1.268 255 0 255 255
0.27567241 -0.27567241 1.2640001 255 0 255 255
0.27610004 -0.27370954 1.2550001 255 0 255 255
0.27738094 -0.27261904 1.25 255 0 255 255
0.27864286 -0.27152857 1.245 255 0 255 255
0.28011143 -0.2706562 1.2410001 255 0 255 255
0.28133717 -0.26956573 1.2360001 255 0 255 255
0.28369144 -0.26956573 1.2360001 255 0 255 255
0.28604573 -0.26956573 1.2360001 255 0 255 255
0.28839999 -0.26956573 1.2360001 255 0 255 255
0.29075432 -0.26956573 1.2360001 255 0 255 255
0.29310858 -0.26956573 1.2360001 255 0 255 255
0.29546288 -0.26956573 1.2360001 255 0 255 255
0.29781714 -0.26956573 1.2360001 255 0 255 255
0.30017143 -0.26956573 1.2360001 255 0 255 255
0.30252573 -0.26956573 1.2360001 255 0 255 255
0.30488002 -0.26956573 1.2360001 255 0 255 255
0.30723429 -0.26956573 1.2360001 255 0 255 255
0.30958858 -0.26956573 1.2360001 255 0 255 255
0.31194288 -0.26956573 1.2360001 255 0 255 255
0.31429717 -0.26956573 1.2360001 255 0 255 255
0.31665143 -0.26956573 1.2360001 255 0 255 255
0.31900573 -0.26956573 1.2360001 255 0 255 255
0.32135999 -0.26956573 1.2360001 255 0 255 255
0.32371432 -0.26956573 1.2360001 255 0 255 255
0.32738763 -0.2706562 1.2410001 255 0 255 255
0.32842287 -0.26956573 1.2360001 255 0 255 255
0.33077714 -0.26956573 1.2360001 255 0 255 255
0.27171427 -0.27412951 1.268 255 0 255 255
0.27218381 -0.27218381 1.2590001 255 0 255 255
0.27458191 -0.27218381 1.2590001 255 0 255 255
0.27610004 -0.27131909 1.2550001 255 0 255 255
0.27738094 -0.2702381 1.25 255 0 255 255
0.27864286 -0.26915714 1.245 255 0 255 255
0.28011143 -0.26829237 1.2410001 255 0 255 255
0.28133717 -0.26721144 1.2360001 255 0 255 255
0.28369144 -0.26721144 1.2360001 255 0 255 255
0.28604573 -0.26721144 1.2360001 255 0 255 255
0.28839999 -0.26721144 1.2360001 255 0 255 255
0.28981334 -0.26634669 1.2320001 255 0 255 255
0.29216003 -0.26634669 1.2320001 255 0 255 255
0.2945067 -0.26634669 1.2320001 255 0 255 255
0.29781714 -0.26721144 1.2360001 255 0 255 255
0.30017143 -0.26721144 1.2360001 255 0 255 255
0.30252573 -0.26721144 1.2360001 255 0 255 255
0.30488002 -0.26721144 1.2360001 255 0 255 255
0.30723429 -0.26721144 1.2360001 255 0 255 255
0.30958858 -0.26721144 1.2360001 255 0 255 255
0.31194288 -0.26721144 1.2360001 255 0 255 255
0.31429717 -0.26721144 1.2360001 255 0 255 255
0.31665143 -0.26721144 1.2360001 255 0 255 255
0.31900573 -0.26721144 1.2360001 255 0 255 255
0.32135999 -0.26721144 1.2360001 255 0 255 255
0.32371432 -0.26721144 1.2360001 255 0 255 255
0.32606858 -0.26721144 1.2360001 255 0 255 255
0.32842287 -0.26721144 1.2360001 255 0 255 255
0.27171427 -0.27171427 1.268 255 0 255 255
0.27218381 -0.26978573 1.2590001 255 0 255 255
0.27458191 -0.26978573 1.2590001 255 0 255 255
0.27610004 -0.26892859 1.2550001 255 0 255 255
0.27738094 -0.26785713 1.25 255 0 255 255
0.27864286 -0.26678571 1.245 255 0 255 255
0.28011143 -0.26592857 1.2410001 255 0 255 255
0.28133717 -0.26485714 1.2360001 255 0 255 255
0.28369144 -0.26485714 1.2360001 255 0 255 255
0.28604573 -0.26485714 1.2360001 255 0 255 255
0.28746668 -0.264 1.2320001 255 0 255 255
0.28981334 -0.264 1.2320001 255 0 255 255
0.29216003 -0.264 1.2320001 255 0 255 255
0.2945067 -0.264 1.2320001 255 0 255 255
0.29781714 -0.26485714 1.2360001 255 0 255 255
0.30017143 -0.26485714 1.2360001 255 0 255 255
0.30252573 -0.26485714 1.2360001 255 0 255 255
0.30488002 -0.26485714 1.2360001 255 0 255 255
0.30723429 -0.26485714 1.2360001 255 0 255 255
0.30958858 -0.26485714 1.2360001 255 0 255 255
0.31194288 -0.26485714 1.2360001 255 0 255 255
0.31429717 -0.26485714 1.2360001 255 0 255 255
0.31665143 -0.26485714 1.2360001 255 0 255 255
0.31900573 -0.26485714 1.2360001 255 0 255 255
0.32135999 -0.26485714 1.2360001 255 0 255 255
0.32371432 -0.26485714 1.2360001 255 0 255 255
0.32606858 -0.26485714 1.2360001 255 0 255 255
0.32842287 -0.26485714 1.2360001 255 0 255 255
0.27171427 -0.26929906 1.268 255 0 255 255
0.27218381 -0.26738763 1.2590001 255 0 255 255
0.27458191 -0.26738763 1.2590001 255 0 255 255
0.27610004 -0.26653811 1.2550001 255 0 255 255
0.27738094 -0.2654762 1.25 255 0 255 255
0.27864286 -0.26441428 1.245 255 0 255 255
0.28011143 -0.26356477 1.2410001 255 0 255 255
0.28133717 -0.26250288 1.2360001 255 0 255 255
0.28369144 -0.26250288 1.2360001 255 0 255 255
0.28604573 -0.26250288 1.2360001 255 0 255 255
0.28746668 -0.26165336 1.2320001 255 0 255 255
0.28981334 -0.26165336 1.2320001 255 0 255 255
0.29216003 -0.26165336 1.2320001 255 0 255 255
0.2945067 -0.26165336 1.2320001 255 0 255 255
0.29781714 -0.26250288 1.2360001 255 0 255 255
0.30017143 -0.26250288 1.2360001 255 0 255 255
0.30252573 -0.26250288 1.2360001 255 0 255 255
0.30488002 -0.26250288 1.2360001 255 0 255 255
0.30723429 -0.26250288 1.2360001 255 0 255 255
0.30958858 -0.26250288 1.2360001 255 0 255 255
0.31194288 -0.26250288 1.2360001 255 0 255 255
0.31429717 -0.26250288 1.2360001 255 0 255 255
0.31665143 -0.26250288 1.2360001 255 0 255 255
0.31900573 -0.26250288 1.2360001 255 0 255 255
0.32135999 -0.26250288 1.2360001 255 0 255 255
0.32371432 -0.26250288 1.2360001 255 0 255 255
0.32606858 -0.26250288 1.2360001 255 0 255 255
0.32842287 -0.26250288 1.2360001 255 0 255 255
0.27412951 -0.26688379 1.268 255 0 255 255
0.27370954 -0.26414764 1.2550001 255 0 255 255
0.2739 -0.26204285 1.245 255 0 255 255
0.2762714 -0.26204285 1.245 255 0 255 255
0.27774763 -0.26120096 1.2410001 255 0 255 255
0.27898285 -0.26014858 1.2360001 255 0 255 255
0.28133717 -0.26014858 1.2360001 255 0 255 255
0.28369144 -0.26014858 1.2360001 255 0 255 255
0.28604573 -0.26014858 1.2360001 255 0 255 255
0.28839999 -0.26014858 1.2360001 255 0 255 255
0.28981334 -0.2593067 1.2320001 255 0 255 255
0.29216003 -0.2593067 1.2320001 255 0 255 255
0.29546288 -0.26014858 1.2360001 255 0 255 255
0.29781714 -0.26014858 1.2360001 255 0 255 255
0.30017143 -0.26014858 1.2360001 255 0 255 255
0.30252573 -0.26014858 1.2360001 255 0 255 255
0.30488002 -0.26014858 1.2360001 255 0 255 255
0.30723429 -0.26014858 1.2360001 255 0 255 255
0.30958858 -0.26014858 1.2360001 255 0 255 255
0.31194288 -0.26014858 1.2360001 255 0 255 255
0.31429717 -0.26014858 1.2360001 255 0 255 255
0.31665143 -0.26014858 1.2360001 255 0 255 255
0.31900573 -0.26014858 1.2360001 255 0 255 255
0.32135999 -0.26014858 1.2360001 255 0 255 255
0.32371432 -0.26014858 1.2360001 255 0 255 255
0.32606858 -0.26014858 1.2360001 255 0 255 255
0.32842287 -0.26014858 1.2360001 255 0 255 255
0.27521047 -0.26551142 1.273 255 0 255 255
0.27370954 -0.26175717 1.2550001 255 0 255 255
0.2739 -0.25967142 1.245 255 0 255 255
0.2762714 -0.25967142 1.245 255 0 255 255
0.27774763 -0.25883716 1.2410001 255 0 255 255
0.27898285 -0.25779429 1.2360001 255 0 255 255
0.28133717 -0.25779429 1.2360001 255 0 255 255
0.28369144 -0.25779429 1.2360001 255 0 255 255
0.28604573 -0.25779429 1.2360001 255 0 255 255
0.28839999 -0.25779429 1.2360001 255 0 255 255
0.29075432 -0.25779429 1.2360001 255 0 255 255
0.29310858 -0.25779429 1.2360001 255 0 255 255
0.29546288 -0.25779429 1.2360001 255 0 255 255
0.29781714 -0.25779429 1.2360001 255 0 255 255
0.30017143 -0.25779429 1.2360001 255 0 255 255
0.30252573 -0.25779429 1.2360001 255 0 255 255
0.30488002 -0.25779429 1.2360001 255 0 255 255
0.30723429 -0.25779429 1.2360001 255 0 255 255
0.30958858 -0.25779429 1.2360001 255 0 255 255
0.31194288 -0.25779429 1.2360001 255 0 255 255
0.31429717 -0.25779429 1.2360001 255 0 255 255
0.31665143 -0.25779429 1.2360001 255 0 255 255
0.31900573 -0.25779429 1.2360001 255 0 255 255
0.32135999 -0.25779429 1.2360001 255 0 255 255
0.32371432 -0.25779429 1.2360001 255 0 255 255
0.32606858 -0.25779429 1.2360001 255 0 255 255
0.32842287 -0.25779429 1.2360001 255 0 255 255
0.27654478 -0.26205334 1.268 255 0 255 255
0.27500001 -0.25833333 1.25 255 0 255 255
0.27738094 -0.25833333 1.25 255 0 255 255
0.27774763 -0.25647333 1.2410001 255 0 255 255
0.27898285 -0.25544 1.2360001 255 0 255 255
0.28133717 -0.25544 1.2360001 255 0 255 255
0.28369144 -0.25544 1.2360001 255 0 255 255
0.28604573 -0.25544 1.2360001 255 0 255 255
0.28839999 -0.25544 1.2360001 255 0 255 255
0.28981334 -0.25461334 1.2320001 255 0 255 255
0.29216003 -0.25461334 1.2320001 255 0 255 255
0.29546288 -0.25544 1.2360001 255 0 255 255
0.29781714 -0.25544 1.2360001 255 0 255 255
0.30017143 -0.25544 1.2360001 255 0 255 255
0.30252573 -0.25544 1.2360001 255 0 255 255
0.30488002 -0.25544 1.2360001 255 0 255 255
0.30723429 -0.25544 1.2360001 255 0 255 255
0.30958858 -0.25544 1.2360001 255 0 255 255
0.31194288 -0.25544 1.2360001 255 0 255 255
0.31429717 -0.25544 1.2360001 255 0 255 255
0.31665143 -0.25544 1.2360001 255 0 255 255
0.31900573 -0.25544 1.2360001 255 0 255 255
0.32135999 -0.25544 1.2360001 255 0 255 255
0.32371432 -0.25544 1.2360001 255 0 255 255
0.32606858 -0.25544 1.2360001 255 0 255 255
0.32842287 -0.25544 1.2360001 255 0 255 255
0.27567241 -0.25881904 1.2640001 255 0 255 255
0.27610004 -0.25697619 1.2550001 255 0 255 255
0.27738094 -0.25595239 1.25 255 0 255 255
0.27864286 -0.25492856 1.245 255 0 255 255
0.27898285 -0.25308573 1.2360001 255 0 255 255
0.28133717 -0.25308573 1.2360001 255 0 255 255
0.28369144 -0.25308573 1.2360001 255 0 255 255
0.28604573 -0.25308573 1.2360001 255 0 255 255
0.28839999 -0.25308573 1.2360001 255 0 255 255
0.28981334 -0.25226671 1.2320001 255 0 255 255
0.29216003 -0.25226671 1.2320001 255 0 255 255
0.29546288 -0.25308573 1.2360001 255 0 255 255
0.29781714 -0.25308573 1.2360001 255 0 255 255
0.30017143 -0.25308573 1.2360001 255 0 255 255
0.30252573 -0.25308573 1.2360001 255 0 255 255
0.30488002 -0.25308573 1.2360001 255 0 255 255
0.30723429 -0.25308573 1.2360001 255 0 255 255
0.30958858 -0.25308573 1.2360001 255 0 255 255
0.31194288 -0.25308573 1.2360001 255 0 255 255
0.31429717 -0.25308573 1.2360001 255 0 255 255
0.31665143 -0.25308573 1.2360001 255 0 255 255
0.31900573 -0.25308573 1.2360001 255 0 255 255
0.32135999 -0.25308573 1.2360001 255 0 255 255
0.32371432 -0.25308573 1.2360001 255 0 255 255
0.32606858 -0.25308573 1.2360001 255 0 255 255
0.32842287 -0.25308573 1.2360001 255 0 255 255
0.27567241 -0.25641146 1.2640001 255 0 255 255
0.27610004 -0.25458574 1.2550001 255 0 255 255
0.27738094 -0.25357142 1.25 255 0 255 255
0.27864286 -0.25255713 1.245 255 0 255 255
0.27898285 -0.25073144 1.2360001 255 0 255 255
0.28133717 -0.25073144 1.2360001 255 0 255 255
0.28369144 -0.25073144 1.2360001 255 0 255 255
0.28604573 -0.25073144 1.2360001 255 0 255 255
0.28839999 -0.25073144 1.2360001 255 0 255 255
0.28981334 -0.24992001 1.2320001 255 0 255 255
0.29216003 -0.24992001 1.2320001 255 0 255 255
0.29546288 -0.25073144 1.2360001 255 0 255 255
0.29781714 -0.25073144 1.2360001 255 0 255 255
0.30017143 -0.25073144 1.2360001 255 0 255 255
0.30252573 -0.25073144 1.2360001 255 0 255 255
0.30488002 -0.25073144 1.2360001 255 0 255 255
0.30723429 -0.25073144 1.2360001 255 0 255 255
0.30958858 -0.25073144 1.2360001 255 0 255 255
0.31194288 -0.25073144 1.2360001 255 0 255 255
0.31429717 -0.25073144 1.2360001 255 0 255 255
0.31665143 -0.25073144 1.2360001 255 0 255 255
0.31900573 -0.25073144 1.2360001 255 0 255 255
0.32135999 -0.25073144 1.2360001 255 0 255 255
0.32371432 -0.25073144 1.2360001 255 0 255 255
0.32606858 -0.25073144 1.2360001 255 0 255 255
0.32842287 -0.25073144 1.2360001 255 0 255 255
0.33077714 -0.25073144 1.2360001 255 0 255 255
0.27654478 -0.25480762 1.268 255 0 255 255
0.27610004 -0.25219527 1.2550001 255 0 255 255
0.27738094 -0.25119048 1.25 255 0 255 255
0.27864286 -0.25018573 1.245 255 0 255 255
0.28011143 -0.24938191 1.2410001 255 0 255 255
0.28133717 -0.24837716 1.2360001 255 0 255 255
0.28369144 -0.24837716 1.2360001 255 0 255 255
0.28604573 -0.24837716 1.2360001 255 0 255 255
0.28839999 -0.24837716 1.2360001 255 0 255 255
0.28981334 -0.24757336 1.2320001 255 0 255 255
0.29216003 -0.24757336 1.2320001 255 0 255 255
0.29546288 -0.24837716 1.2360001 255 0 255 255
0.29781714 -0.24837716 1.2360001 255 0 255 255
0.30017143 -0.24837716 1.2360001 255 0 255 255
0.30252573 -0.24837716 1.2360001 255 0 255 255
0.30488002 -0.24837716 1.2360001 255 0 255 255
0.30723429 -0.24837716 1.2360001 255 0 255 255
0.30958858 -0.24837716 1.2360001 255 0 255 255
0.31194288 -0.24837716 1.2360001 255 0 255 255
0.31429717 -0.24837716 1.2360001 255 0 255 255
0.31665143 -0.24837716 1.2360001 255 0 255 255
0.31900573 -0.24837716 1.2360001 255 0 255 255
0.32135999 -0.24837716 1.2360001 255 0 255 255
0.32371432 -0.24837716 1.2360001 255 0 255 255
0.32606858 -0.24837716 1.2360001 255 0 255 255
0.32842287 -0.24837716 1.2360001 255 0 255 255
0.33077714 -0.24837716 1.2360001 255 0 255 255
0.27654478 -0.25239238 1.268 255 0 255 255
0.27698001 -0.25060096 1.2590001 255 0 255 255
0.27849051 -0.24980476 1.2550001 255 0 255 255
0.27976191 -0.24880952 1.25 255 0 255 255
0.28011143 -0.24701811 1.2410001 255 0 255 255
0.28133717 -0.24602287 1.2360001 255 0 255 255
0.28369144 -0.24602287 1.2360001 255 0 255 255
0.28604573 -0.24602287 1.2360001 255 0 255 255
0.28839999 -0.24602287 1.2360001 255 0 255 255
0.28981334 -0.2452267 1.2320001 255 0 255 255
0.29216003 -0.2452267 1.2320001 255 0 255 255
0.2945067 -0.2452267 1.2320001 255 0 255 255
0.29781714 -0.24602287 1.2360001 255 0 255 255
0.30017143 -0.24602287 1.2360001 255 0 255 255
0.30252573 -0.24602287 1.2360001 255 0 255 255
0.30488002 -0.24602287 1.2360001 255 0 255 255
0.30723429 -0.24602287 1.2360001 255 0 255 255
0.30958858 -0.24602287 1.2360001 255 0 255 255
0.31194288 -0.24602287 1.2360001 255 0 255 255
0.31429717 -0.24602287 1.2360001 255 0 255 255
0.31665143 -0.24602287 1.2360001 255 0 255 255
0.31900573 -0.24602287 1.2360001 255 0 255 255
0.32135999 -0.24602287 1.2360001 255 0 255 255
0.32371432 -0.24602287 1.2360001 255 0 255 255
0.32606858 -0.24602287 1.2360001 255 0 255 255
0.32842287 -0.24602287 1.2360001 255 0 255 255
0.32970667 -0.2452267 1.2320001 255 0 255 255
0.33205336 -0.2452267 1.2320001 255 0 255 255
0.27654478 -0.24997716 1.268 255 0 255 255
0.27698001 -0.24820286 1.2590001 255 0 255 255
0.27849051 -0.24741432 1.2550001 255 0 255 255
0.27976191 -0.24642856 1.25 255 0 255 255
0.28011143 -0.24465431 1.2410001 255 0 255 255
0.28133717 -0.24366859 1.2360001 255 0 255 255
0.28369144 -0.24366859 1.2360001 255 0 255 255
0.28604573 -0.24366859 1.2360001 255 0 255 255
0.28839999 -0.24366859 1.2360001 255 0 255 255
0.28981334 -0.24288002 1.2320001 255 0 255 255
0.29216003 -0.24288002 1.2320001 255 0 255 255
0.2945067 -0.24288002 1.2320001 255 0 255 255
0.29781714 -0.24366859 1.2360001 255 0 255 255
0.30017143 -0.24366859 1.2360001 255 0 255 255
0.30252573 -0.24366859 1.2360001 255 0 255 255
0.30488002 -0.24366859 1.2360001 255 0 255 255
0.30723429 -0.24366859 1.2360001 255 0 255 255
0.30958858 -0.24366859 1.2360001 255 0 255 255
0.31194288 -0.24366859 1.2360001 255 0 255 255
0.31429717 -0.24366859 1.2360001 255 0 255 255
0.31665143 -0.24366859 1.2360001 255 0 255 255
0.31900573 -0.24366859 1.2360001 255 0 255 255
0.32135999 -0.24366859 1.2360001 255 0 255 255
0.32371432 -0.24366859 1.2360001 255 0 255 255
0.32606858 -0.24366859 1.2360001 255 0 255 255
0.32842287 -0.24366859 1.2360001 255 0 255 255
0.32970667 -0.24288002 1.2320001 255 0 255 255
0.33205336 -0.24288002 1.2320001 255 0 255 255
0.27567241 -0.24678098 1.2640001 255 0 255 255
0.27698001 -0.24580476 1.2590001 255 0 255 255
0.27937812 -0.24580476 1.2590001 255 0 255 255
0.28088096 -0.24502383 1.2550001 255 0 255 255
0.28214285 -0.24404761 1.25 255 0 255 255
0.28247523 -0.24229048 1.2410001 255 0 255 255
0.28369144 -0.24131429 1.2360001 255 0 255 255
0.28604573 -0.24131429 1.2360001 255 0 255 255
0.28839999 -0.24131429 1.2360001 255 0 255 255
0.29075432 -0.24131429 1.2360001 255 0 255 255
0.29310858 -0.24131429 1.2360001 255 0 255 255
0.29546288 -0.24131429 1.2360001 255 0 255 255
0.29781714 -0.24131429 1.2360001 255 0 255 255
0.30017143 -0.24131429 1.2360001 255 0 255 255
0.30252573 -0.24131429 1.2360001 255 0 255 255
0.30488002 -0.24131429 1.2360001 255 0 255 255
0.30723429 -0.24131429 1.2360001 255 0 255 255
0.30958858 -0.24131429 1.2360001 255 0 255 255
0.31194288 -0.24131429 1.2360001 255 0 255 255
0.31429717 -0.24131429 1.2360001 255 0 255 255
0.31665143 -0.24131429 1.2360001 255 0 255 255
0.31900573 -0.24131429 1.2360001 255 0 255 255
0.32135999 -0.24131429 1.2360001 255 0 255 255
0.32371432 -0.24131429 1.2360001 255 0 255 255
0.32606858 -0.24131429 1.2360001 255 0 255 255
0.32842287 -0.24131429 1.2360001 255 0 255 255
0.33077714 -0.24131429 1.2360001 255 0 255 255
0.27567241 -0.24437334 1.2640001 255 0 255 255
0.27698001 -0.24340667 1.2590001 255 0 255 255
0.27937812 -0.24340667 1.2590001 255 0 255 255
0.28088096 -0.24263336 1.2550001 255 0 255 255
0.28214285 -0.24166666 1.25 255 0 255 255
0.28452381 -0.24166666 1.25 255 0 255 255
0.28483906 -0.23992667 1.2410001 255 0 255 255
0.28604573 -0.23896001 1.2360001 255 0 255 255
0.28839999 -0.23896001 1.2360001 255 0 255 255
0.29075432 -0.23896001 1.2360001 255 0 255 255
0.29310858 -0.23896001 1.2360001 255 0 255 255
0.29546288 -0.23896001 1.2360001 255 0 255 255
0.29781714 -0.23896001 1.2360001 255 0 255 255
0.30138573 -0.23992667 1.2410001 255 0 255 255
0.30374953 -0.23992667 1.2410001 255 0 255 255
0.30611333 -0.23992667 1.2410001 255 0 255 255
0.30847713 -0.23992667 1.2410001 255 0 255 255
0.31084096 -0.23992667 1.2410001 255 0 255 255
0.31320477 -0.23992667 1.2410001 255 0 255 255
0.3155686 -0.23992667 1.2410001 255 0 255 255
0.31895715 -0.24069999 1.245 255 0 255 255
0.3202962 -0.23992667 1.2410001 255 0 255 255
0.32266003 -0.23992667 1.2410001 255 0 255 255
0.32371432 -0.23896001 1.2360001 255 0 255 255
0.32606858 -0.23896001 1.2360001 255 0 255 255
0.3308143 -0.24069999 1.245 255 0 255 255
0.27654478 -0.24273142 1.268 255 0 255 255
0.27808002 -0.24196573 1.2640001 255 0 255 255
0.28048763 -0.24196573 1.2640001 255 0 255 255
0.28088096 -0.24024287 1.2550001 255 0 255 255
0.28327146 -0.24024287 1.2550001 255 0 255 255
0.28452381 -0.23928571 1.25 255 0 255 255
0.28690475 -0.23928571 1.25 255 0 255 255
0.28720286 -0.23756287 1.2410001 255 0 255 255
0.28956667 -0.23756287 1.2410001 255 0 255 255
0.29193047 -0.23756287 1.2410001 255 0 255 255
0.2942943 -0.23756287 1.2410001 255 0 255 255
0.29665813 -0.23756287 1.2410001 255 0 255 255
0.29902193 -0.23756287 1.2410001 255 0 255 255
0.30138573 -0.23756287 1.2410001 255 0 255 255
0.30374953 -0.23756287 1.2410001 255 0 255 255
0.3071 -0.23832856 1.245 255 0 255 255
0.31071427 -0.23928571 1.25 255 0 255 255
0.31309524 -0.23928571 1.25 255 0 255 255
0.31421426 -0.23832856 1.245 255 0 255 255
0.31658572 -0.23832856 1.245 255 0 255 255
0.32023808 -0.23928571 1.25 255 0 255 255
0.32261905 -0.23928571 1.25 255 0 255 255
0.32370001 -0.23832856 1.245 255 0 255 255
0.32607141 -0.23832856 1.245 255 0 255 255
0.32844284 -0.23832856 1.245 255 0 255 255
0.3308143 -0.23832856 1.245 255 0 255 255
0.27895999 -0.24031618 1.268 255 0 255 255
0.28137523 -0.24031618 1.268 255 0 255 255
0.28379047 -0.24031618 1.268 255 0 255 255
0.28530288 -0.2395581 1.2640001 255 0 255 255
0.28657237 -0.23861049 1.2590001 255 0 255 255
0.28805238 -0.23785241 1.2550001 255 0 255 255
0.29044288 -0.23785241 1.2550001 255 0 255 255
0.29049999 -0.23595715 1.245 255 0 255 255
0.29287145 -0.23595715 1.245 255 0 255 255
0.29524285 -0.23595715 1.245 255 0 255 255
0.29880953 -0.23690476 1.25 255 0 255 255
0.30119047 -0.23690476 1.25 255 0 255 255
0.30357143 -0.23690476 1.25 255 0 255 255
0.30717623 -0.23785241 1.2550001 255 0 255 255
0.30956671 -0.23785241 1.2550001 255 0 255 255
0.31195715 -0.23785241 1.2550001 255 0 255 255
0.31434765 -0.23785241 1.2550001 255 0 255 255
0.31673813 -0.23785241 1.2550001 255 0 255 255
0.3191286 -0.23785241 1.2550001 255 0 255 255
0.32151908 -0.23785241 1.2550001 255 0 255 255
0.32390955 -0.23785241 1.2550001 255 0 255 255
0.32630002 -0.23785241 1.2550001 255 0 255 255
0.32973811 -0.23861049 1.2590001 255 0 255 255
0.27895999 -0.23790096 1.268 255 0 255 255
0.28137523 -0.23790096 1.268 255 0 255 255
0.28620571 -0.23790096 1.268 255 0 255 255
0.28657237 -0.23621239 1.2590001 255 0 255 255
0.28897047 -0.23621239 1.2590001 255 0 255 255
0.29136857 -0.23621239 1.2590001 255 0 255 255
0.29376668 -0.23621239 1.2590001 255 0 255 255
0.29522383 -0.23546192 1.2550001 255 0 255 255
0.29761431 -0.23546192 1.2550001 255 0 255 255
0.30215618 -0.23715049 1.2640001 255 0 255 255
0.30456382 -0.23715049 1.2640001 255 0 255 255
0.30697143 -0.23715049 1.2640001 255 0 255 255
0.30937907 -0.23715049 1.2640001 255 0 255 255
0.31178668 -0.23715049 1.2640001 255 0 255 255
0.31419429 -0.23715049 1.2640001 255 0 255 255
0.3166019 -0.23715049 1.2640001 255 0 255 255
0.31900954 -0.23715049 1.2640001 255 0 255 255
0.32141715 -0.23715049 1.2640001 255 0 255 255
0.32382479 -0.23715049 1.2640001 255 0 255 255
0.32623237 -0.23715049 1.2640001 255 0 255 255
0.27895999 -0.2354857 1.268 255 0 255 255
0.28137523 -0.2354857 1.268 255 0 255 255
0.28620571 -0.2354857 1.268 255 0 255 255
0.28657237 -0.23381428 1.2590001 255 0 255 255
0.28897047 -0.23381428 1.2590001 255 0 255 255
0.29136857 -0.23381428 1.2590001 255 0 255 255
0.29586667 -0.2354857 1.268 255 0 255 255
0.29828191 -0.2354857 1.268 255 0 255 255
0.30069715 -0.2354857 1.268 255 0 255 255
0.30311239 -0.2354857 1.268 255 0 255 255
0.32243428 -0.2354857 1.268 255 0 255 255
0.32484952 -0.2354857 1.268 255 0 255 255
0.28137523 -0.23307048 1.268 255 0 255 255
0 0 0 1 0 0 0 1 0 0 0 1 0 0 0 0 0 1008 1 0 0
