ply
format ascii 1.0
comment PCL generated
element vertex 849
property float x
property float y
property float z
property uchar red
property uchar green
property uchar blue
property uchar alpha
element camera 1
property float view_px
property float view_py
property float view_pz
property float x_axisx
property float x_axisy
property float x_axisz
property float y_axisx
property float y_axisy
property float y_axisz
property float z_axisx
property float z_axisy
property float z_axisz
property float focal
property float scalex
property float scaley
property float centerx
property float centery
property int viewportx
property int viewporty
property float k1
property float k2
end_header
0.13510287 -0.32010862 1.2780001 255 255 180 255
0.13753715 -0.32010862 1.2780001 255 255 180 255
0.14484002 -0.32010862 1.2780001 255 255 180 255
0.1472743 -0.32010862 1.2780001 255 255 180 255
0.14970858 -0.32010862 1.2780001 255 255 180 255
0.15214287 -0.32010862 1.2780001 255 255 180 255
0.15457715 -0.32010862 1.2780001 255 255 180 255
0.15701143 -0.32010862 1.2780001 255 255 180 255
0.1302343 -0.31767434 1.2780001 255 255 180 255
0.13266858 -0.31767434 1.2780001 255 255 180 255
0.13510287 -0.31767434 1.2780001 255 255 180 255
0.13753715 -0.31767434 1.2780001 255 255 180 255
0.13997145 -0.31767434 1.2780001 255 255 180 255
0.14240573 -0.31767434 1.2780001 255 255 180 255
0.14484002 -0.31767434 1.2780001 255 255 180 255
0.1466981 -0.3164314 1.273 255 255 180 255
0.14912285 -0.3164314 1.273 255 255 180 255
0.15214287 -0.31767434 1.2780001 255 255 180 255
0.15457715 -0.31767434 1.2780001 255 255 180 255
0.15701143 -0.31767434 1.2780001 255 255 180 255
0.15944573 -0.31767434 1.2780001 255 255 180 255
0.12293144 -0.31524003 1.2780001 255 255 180 255
0.12536573 -0.31524003 1.2780001 255 255 180 255
0.12780002 -0.31524003 1.2780001 255 255 180 255
0.12972476 -0.31400666 1.273 255 255 180 255
0.13214953 -0.31400666 1.273 255 255 180 255
0.13457428 -0.31400666 1.273 255 255 180 255
0.13699904 -0.31400666 1.273 255 255 180 255
0.13942382 -0.31400666 1.273 255 255 180 255
0.14184856 -0.31400666 1.273 255 255 180 255
0.14427333 -0.31400666 1.273 255 255 180 255
0.1466981 -0.31400666 1.273 255 255 180 255
0.14912285 -0.31400666 1.273 255 255 180 255
0.15154761 -0.31400666 1.273 255 255 180 255
0.15397239 -0.31400666 1.273 255 255 180 255
0.15639713 -0.31400666 1.273 255 255 180 255
0.15944573 -0.31524003 1.2780001 255 255 180 255
0.16188002 -0.31524003 1.2780001 255 255 180 255
0.1643143 -0.31524003 1.2780001 255 255 180 255
0.12049715 -0.31280574 1.2780001 255 255 180 255
0.12245047 -0.31158191 1.273 255 255 180 255
0.12487524 -0.31158191 1.273 255 255 180 255
0.12729999 -0.31158191 1.273 255 255 180 255
0.12972476 -0.31158191 1.273 255 255 180 255
0.13214953 -0.31158191 1.273 255 255 180 255
0.13457428 -0.31158191 1.273 255 255 180 255
0.13699904 -0.31158191 1.273 255 255 180 255
0.13942382 -0.31158191 1.273 255 255 180 255
0.14184856 -0.31158191 1.273 255 255 180 255
0.14427333 -0.31158191 1.273 255 255 180 255
0.1466981 -0.31158191 1.273 255 255 180 255
0.14912285 -0.31158191 1.273 255 255 180 255
0.15154761 -0.31158191 1.273 255 255 180 255
0.15397239 -0.31158191 1.273 255 255 180 255
0.15639713 -0.31158191 1.273 255 255 180 255
0.15882191 -0.31158191 1.273 255 255 180 255
0.16188002 -0.31280574 1.2780001 255 255 180 255
0.1643143 -0.31280574 1.2780001 255 255 180 255
0.16674858 -0.31280574 1.2780001 255 255 180 255
0.16918287 -0.31280574 1.2780001 255 255 180 255
0.17648572 -0.31280574 1.2780001 255 255 180 255
0.17892002 -0.31280574 1.2780001 255 255 180 255
0.12002572 -0.30915713 1.273 255 255 180 255
0.12245047 -0.30915713 1.273 255 255 180 255
0.12487524 -0.30915713 1.273 255 255 180 255
0.12729999 -0.30915713 1.273 255 255 180 255
0.12972476 -0.30915713 1.273 255 255 180 255
0.13214953 -0.30915713 1.273 255 255 180 255
0.13457428 -0.30915713 1.273 255 255 180 255
0.13646095 -0.30794284 1.268 255 255 180 255
0.1388762 -0.30794284 1.268 255 255 180 255
0.14184856 -0.30915713 1.273 255 255 180 255
0.14427333 -0.30915713 1.273 255 255 180 255
0.1466981 -0.30915713 1.273 255 255 180 255
0.14912285 -0.30915713 1.273 255 255 180 255
0.15154761 -0.30915713 1.273 255 255 180 255
0.15397239 -0.30915713 1.273 255 255 180 255
0.15639713 -0.30915713 1.273 255 255 180 255
0.15882191 -0.30915713 1.273 255 255 180 255
0.16124667 -0.30915713 1.273 255 255 180 255
0.16367142 -0.30915713 1.273 255 255 180 255
0.16674858 -0.31037143 1.2780001 255 255 180 255
0.16918287 -0.31037143 1.2780001 255 255 180 255
0.17161715 -0.31037143 1.2780001 255 255 180 255
0.17405143 -0.31037143 1.2780001 255 255 180 255
0.17648572 -0.31037143 1.2780001 255 255 180 255
0.17892002 -0.31037143 1.2780001 255 255 180 255
0.1813543 -0.31037143 1.2780001 255 255 180 255
0.11275142 -0.30673239 1.273 255 255 180 255
0.11517619 -0.30673239 1.273 255 255 180 255
0.11760096 -0.30673239 1.273 255 255 180 255
0.12002572 -0.30673239 1.273 255 255 180 255
0.12245047 -0.30673239 1.273 255 255 180 255
0.12487524 -0.30673239 1.273 255 255 180 255
0.12729999 -0.30673239 1.273 255 255 180 255
0.12921523 -0.30552763 1.268 255 255 180 255
0.13163048 -0.30552763 1.268 255 255 180 255
0.13404572 -0.30552763 1.268 255 255 180 255
0.13646095 -0.30552763 1.268 255 255 180 255
0.1388762 -0.30552763 1.268 255 255 180 255
0.14129142 -0.30552763 1.268 255 255 180 255
0.14370666 -0.30552763 1.268 255 255 180 255
0.1466981 -0.30673239 1.273 255 255 180 255
0.14912285 -0.30673239 1.273 255 255 180 255
0.15154761 -0.30673239 1.273 255 255 180 255
0.15397239 -0.30673239 1.273 255 255 180 255
0.15639713 -0.30673239 1.273 255 255 180 255
0.15882191 -0.30673239 1.273 255 255 180 255
0.16124667 -0.30673239 1.273 255 255 180 255
0.16367142 -0.30673239 1.273 255 255 180 255
0.1660962 -0.30673239 1.273 255 255 180 255
0.16852096 -0.30673239 1.273 255 255 180 255
0.1709457 -0.30673239 1.273 255 255 180 255
0.17405143 -0.30793715 1.2780001 255 255 180 255
0.17648572 -0.30793715 1.2780001 255 255 180 255
0.17892002 -0.30793715 1.2780001 255 255 180 255
0.1813543 -0.30793715 1.2780001 255 255 180 255
0.18378858 -0.30793715 1.2780001 255 255 180 255
0.11032667 -0.30430764 1.273 255 255 180 255
0.11275142 -0.30430764 1.273 255 255 180 255
0.11517619 -0.30430764 1.273 255 255 180 255
0.11760096 -0.30430764 1.273 255 255 180 255
0.12002572 -0.30430764 1.273 255 255 180 255
0.12245047 -0.30430764 1.273 255 255 180 255
0.12487524 -0.30430764 1.273 255 255 180 255
0.12729999 -0.30430764 1.273 255 255 180 255
0.12921523 -0.30311239 1.268 255 255 180 255
0.13163048 -0.30311239 1.268 255 255 180 255
0.13404572 -0.30311239 1.268 255 255 180 255
0.13646095 -0.30311239 1.268 255 255 180 255
0.1388762 -0.30311239 1.268 255 255 180 255
0.14129142 -0.30311239 1.268 255 255 180 255
0.14370666 -0.30311239 1.268 255 255 180 255
0.1466981 -0.30430764 1.273 255 255 180 255
0.14912285 -0.30430764 1.273 255 255 180 255
0.15154761 -0.30430764 1.273 255 255 180 255
0.15397239 -0.30430764 1.273 255 255 180 255
0.15639713 -0.30430764 1.273 255 255 180 255
0.15882191 -0.30430764 1.273 255 255 180 255
0.16124667 -0.30430764 1.273 255 255 180 255
0.16367142 -0.30430764 1.273 255 255 180 255
0.1660962 -0.30430764 1.273 255 255 180 255
0.16852096 -0.30430764 1.273 255 255 180 255
0.1709457 -0.30430764 1.273 255 255 180 255
0.17405143 -0.30550286 1.2780001 255 255 180 255
0.17648572 -0.30550286 1.2780001 255 255 180 255
0.17892002 -0.30550286 1.2780001 255 255 180 255
0.1813543 -0.30550286 1.2780001 255 255 180 255
0.18378858 -0.30550286 1.2780001 255 255 180 255
0.18622287 -0.30550286 1.2780001 255 255 180 255
0.18865715 -0.30550286 1.2780001 255 255 180 255
0.11032667 -0.30188283 1.273 255 255 180 255
0.11275142 -0.30188283 1.273 255 255 180 255
0.11517619 -0.30188283 1.273 255 255 180 255
0.11760096 -0.30188283 1.273 255 255 180 255
0.12002572 -0.30188283 1.273 255 255 180 255
0.12245047 -0.30188283 1.273 255 255 180 255
0.12487524 -0.30188283 1.273 255 255 180 255
0.12729999 -0.30188283 1.273 255 255 180 255
0.12972476 -0.30188283 1.273 255 255 180 255
0.13214953 -0.30188283 1.273 255 255 180 255
0.13457428 -0.30188283 1.273 255 255 180 255
0.13699904 -0.30188283 1.273 255 255 180 255
0.1388762 -0.30069715 1.268 255 255 180 255
0.14129142 -0.30069715 1.268 255 255 180 255
0.14370666 -0.30069715 1.268 255 255 180 255
0.1466981 -0.30188283 1.273 255 255 180 255
0.14912285 -0.30188283 1.273 255 255 180 255
0.15154761 -0.30188283 1.273 255 255 180 255
0.15397239 -0.30188283 1.273 255 255 180 255
0.15639713 -0.30188283 1.273 255 255 180 255
0.15882191 -0.30188283 1.273 255 255 180 255
0.16124667 -0.30188283 1.273 255 255 180 255
0.16367142 -0.30188283 1.273 255 255 180 255
0.1660962 -0.30188283 1.273 255 255 180 255
0.16852096 -0.30188283 1.273 255 255 180 255
0.1709457 -0.30188283 1.273 255 255 180 255
0.17337048 -0.30188283 1.273 255 255 180 255
0.17579524 -0.30188283 1.273 255 255 180 255
0.17821999 -0.30188283 1.273 255 255 180 255
0.18064477 -0.30188283 1.273 255 255 180 255
0.18306953 -0.30188283 1.273 255 255 180 255
0.18549427 -0.30188283 1.273 255 255 180 255
0.18865715 -0.30306858 1.2780001 255 255 180 255
0.19109143 -0.30306858 1.2780001 255 255 180 255
0.19352572 -0.30306858 1.2780001 255 255 180 255
0.11032667 -0.29945809 1.273 255 255 180 255
0.11275142 -0.29945809 1.273 255 255 180 255
0.11517619 -0.29945809 1.273 255 255 180 255
0.11760096 -0.29945809 1.273 255 255 180 255
0.12002572 -0.29945809 1.273 255 255 180 255
0.12245047 -0.29945809 1.273 255 255 180 255
0.12487524 -0.29945809 1.273 255 255 180 255
0.12729999 -0.29945809 1.273 255 255 180 255
0.12972476 -0.29945809 1.273 255 255 180 255
0.13214953 -0.29945809 1.273 255 255 180 255
0.13457428 -0.29945809 1.273 255 255 180 255
0.13699904 -0.29945809 1.273 255 255 180 255
0.13942382 -0.29945809 1.273 255 255 180 255
0.14184856 -0.29945809 1.273 255 255 180 255
0.14427333 -0.29945809 1.273 255 255 180 255
0.1466981 -0.29945809 1.273 255 255 180 255
0.14912285 -0.29945809 1.273 255 255 180 255
0.15154761 -0.29945809 1.273 255 255 180 255
0.15397239 -0.29945809 1.273 255 255 180 255
0.15639713 -0.29945809 1.273 255 255 180 255
0.15882191 -0.29945809 1.273 255 255 180 255
0.16124667 -0.29945809 1.273 255 255 180 255
0.16367142 -0.29945809 1.273 255 255 180 255
0.1660962 -0.29945809 1.273 255 255 180 255
0.16852096 -0.29945809 1.273 255 255 180 255
0.1709457 -0.29945809 1.273 255 255 180 255
0.17337048 -0.29945809 1.273 255 255 180 255
0.17579524 -0.29945809 1.273 255 255 180 255
0.17821999 -0.29945809 1.273 255 255 180 255
0.18064477 -0.29945809 1.273 255 255 180 255
0.18306953 -0.29945809 1.273 255 255 180 255
0.18549427 -0.29945809 1.273 255 255 180 255
0.18791905 -0.29945809 1.273 255 255 180 255
0.19109143 -0.30063429 1.2780001 255 255 180 255
0.19352572 -0.30063429 1.2780001 255 255 180 255
0.11032667 -0.29703334 1.273 255 255 180 255
0.11275142 -0.29703334 1.273 255 255 180 255
0.11517619 -0.29703334 1.273 255 255 180 255
0.11760096 -0.29703334 1.273 255 255 180 255
0.11955428 -0.29586667 1.268 255 255 180 255
0.12196951 -0.29586667 1.268 255 255 180 255
0.12438476 -0.29586667 1.268 255 255 180 255
0.1268 -0.29586667 1.268 255 255 180 255
0.12972476 -0.29703334 1.273 255 255 180 255
0.13214953 -0.29703334 1.273 255 255 180 255
0.13457428 -0.29703334 1.273 255 255 180 255
0.13699904 -0.29703334 1.273 255 255 180 255
0.13942382 -0.29703334 1.273 255 255 180 255
0.14184856 -0.29703334 1.273 255 255 180 255
0.14427333 -0.29703334 1.273 255 255 180 255
0.1466981 -0.29703334 1.273 255 255 180 255
0.14912285 -0.29703334 1.273 255 255 180 255
0.15154761 -0.29703334 1.273 255 255 180 255
0.15397239 -0.29703334 1.273 255 255 180 255
0.15639713 -0.29703334 1.273 255 255 180 255
0.15882191 -0.29703334 1.273 255 255 180 255
0.16124667 -0.29703334 1.273 255 255 180 255
0.16367142 -0.29703334 1.273 255 255 180 255
0.1660962 -0.29703334 1.273 255 255 180 255
0.16852096 -0.29703334 1.273 255 255 180 255
0.1709457 -0.29703334 1.273 255 255 180 255
0.17337048 -0.29703334 1.273 255 255 180 255
0.17579524 -0.29703334 1.273 255 255 180 255
0.17821999 -0.29703334 1.273 255 255 180 255
0.18064477 -0.29703334 1.273 255 255 180 255
0.18306953 -0.29703334 1.273 255 255 180 255
0.18549427 -0.29703334 1.273 255 255 180 255
0.18791905 -0.29703334 1.273 255 255 180 255
0.19109143 -0.29820001 1.2780001 255 255 180 255
0.19352572 -0.29820001 1.2780001 255 255 180 255
0.11032667 -0.29460856 1.273 255 255 180 255
0.11275142 -0.29460856 1.273 255 255 180 255
0.11517619 -0.29460856 1.273 255 255 180 255
0.11760096 -0.29460856 1.273 255 255 180 255
0.11955428 -0.29345143 1.268 255 255 180 255
0.12196951 -0.29345143 1.268 255 255 180 255
0.12438476 -0.29345143 1.268 255 255 180 255
0.1268 -0.29345143 1.268 255 255 180 255
0.12972476 -0.29460856 1.273 255 255 180 255
0.13214953 -0.29460856 1.273 255 255 180 255
0.13457428 -0.29460856 1.273 255 255 180 255
0.13699904 -0.29460856 1.273 255 255 180 255
0.13942382 -0.29460856 1.273 255 255 180 255
0.14184856 -0.29460856 1.273 255 255 180 255
0.14370666 -0.29345143 1.268 255 255 180 255
0.1461219 -0.29345143 1.268 255 255 180 255
0.14912285 -0.29460856 1.273 255 255 180 255
0.15095238 -0.29345143 1.268 255 255 180 255
0.15336761 -0.29345143 1.268 255 255 180 255
0.15639713 -0.29460856 1.273 255 255 180 255
0.15882191 -0.29460856 1.273 255 255 180 255
0.16124667 -0.29460856 1.273 255 255 180 255
0.16367142 -0.29460856 1.273 255 255 180 255
0.1660962 -0.29460856 1.273 255 255 180 255
0.16852096 -0.29460856 1.273 255 255 180 255
0.1709457 -0.29460856 1.273 255 255 180 255
0.17337048 -0.29460856 1.273 255 255 180 255
0.17579524 -0.29460856 1.273 255 255 180 255
0.17821999 -0.29460856 1.273 255 255 180 255
0.18064477 -0.29460856 1.273 255 255 180 255
0.18306953 -0.29460856 1.273 255 255 180 255
0.18549427 -0.29460856 1.273 255 255 180 255
0.18791905 -0.29460856 1.273 255 255 180 255
0.19034381 -0.29460856 1.273 255 255 180 255
0.11032667 -0.29218382 1.273 255 255 180 255
0.11275142 -0.29218382 1.273 255 255 180 255
0.11517619 -0.29218382 1.273 255 255 180 255
0.11713905 -0.29103619 1.268 255 255 180 255
0.11955428 -0.29103619 1.268 255 255 180 255
0.12196951 -0.29103619 1.268 255 255 180 255
0.12438476 -0.29103619 1.268 255 255 180 255
0.1268 -0.29103619 1.268 255 255 180 255
0.12972476 -0.29218382 1.273 255 255 180 255
0.13214953 -0.29218382 1.273 255 255 180 255
0.13457428 -0.29218382 1.273 255 255 180 255
0.13699904 -0.29218382 1.273 255 255 180 255
0.13942382 -0.29218382 1.273 255 255 180 255
0.14184856 -0.29218382 1.273 255 255 180 255
0.14370666 -0.29103619 1.268 255 255 180 255
0.1461219 -0.29103619 1.268 255 255 180 255
0.14853714 -0.29103619 1.268 255 255 180 255
0.15095238 -0.29103619 1.268 255 255 180 255
0.15336761 -0.29103619 1.268 255 255 180 255
0.15578286 -0.29103619 1.268 255 255 180 255
0.15882191 -0.29218382 1.273 255 255 180 255
0.16124667 -0.29218382 1.273 255 255 180 255
0.16367142 -0.29218382 1.273 255 255 180 255
0.1660962 -0.29218382 1.273 255 255 180 255
0.16852096 -0.29218382 1.273 255 255 180 255
0.1709457 -0.29218382 1.273 255 255 180 255
0.17337048 -0.29218382 1.273 255 255 180 255
0.17579524 -0.29218382 1.273 255 255 180 255
0.17821999 -0.29218382 1.273 255 255 180 255
0.18064477 -0.29218382 1.273 255 255 180 255
0.18306953 -0.29218382 1.273 255 255 180 255
0.18549427 -0.29218382 1.273 255 255 180 255
0.18791905 -0.29218382 1.273 255 255 180 255
0.19034381 -0.29218382 1.273 255 255 180 255
0.11032667 -0.28975904 1.273 255 255 180 255
0.11275142 -0.28975904 1.273 255 255 180 255
0.11517619 -0.28975904 1.273 255 255 180 255
0.11713905 -0.28862095 1.268 255 255 180 255
0.11955428 -0.28862095 1.268 255 255 180 255
0.12196951 -0.28862095 1.268 255 255 180 255
0.12438476 -0.28862095 1.268 255 255 180 255
0.1268 -0.28862095 1.268 255 255 180 255
0.12972476 -0.28975904 1.273 255 255 180 255
0.13214953 -0.28975904 1.273 255 255 180 255
0.13457428 -0.28975904 1.273 255 255 180 255
0.13699904 -0.28975904 1.273 255 255 180 255
0.13942382 -0.28975904 1.273 255 255 180 255
0.14184856 -0.28975904 1.273 255 255 180 255
0.14370666 -0.28862095 1.268 255 255 180 255
0.1461219 -0.28862095 1.268 255 255 180 255
0.14853714 -0.28862095 1.268 255 255 180 255
0.15095238 -0.28862095 1.268 255 255 180 255
0.15336761 -0.28862095 1.268 255 255 180 255
0.15578286 -0.28862095 1.268 255 255 180 255
0.15882191 -0.28975904 1.273 255 255 180 255
0.16124667 -0.28975904 1.273 255 255 180 255
0.16367142 -0.28975904 1.273 255 255 180 255
0.1660962 -0.28975904 1.273 255 255 180 255
0.16852096 -0.28975904 1.273 255 255 180 255
0.1709457 -0.28975904 1.273 255 255 180 255
0.17337048 -0.28975904 1.273 255 255 180 255
0.17579524 -0.28975904 1.273 255 255 180 255
0.17821999 -0.28975904 1.273 255 255 180 255
0.18064477 -0.28975904 1.273 255 255 180 255
0.18306953 -0.28975904 1.273 255 255 180 255
0.18549427 -0.28975904 1.273 255 255 180 255
0.18791905 -0.28975904 1.273 255 255 180 255
0.11032667 -0.28733426 1.273 255 255 180 255
0.11275142 -0.28733426 1.273 255 255 180 255
0.11517619 -0.28733426 1.273 255 255 180 255
0.11713905 -0.28620571 1.268 255 255 180 255
0.11955428 -0.28620571 1.268 255 255 180 255
0.12196951 -0.28620571 1.268 255 255 180 255
0.12438476 -0.28620571 1.268 255 255 180 255
0.1268 -0.28620571 1.268 255 255 180 255
0.12972476 -0.28733426 1.273 255 255 180 255
0.13214953 -0.28733426 1.273 255 255 180 255
0.13457428 -0.28733426 1.273 255 255 180 255
0.13699904 -0.28733426 1.273 255 255 180 255
0.13942382 -0.28733426 1.273 255 255 180 255
0.14184856 -0.28733426 1.273 255 255 180 255
0.14427333 -0.28733426 1.273 255 255 180 255
0.1466981 -0.28733426 1.273 255 255 180 255
0.14853714 -0.28620571 1.268 255 255 180 255
0.15095238 -0.28620571 1.268 255 255 180 255
0.15336761 -0.28620571 1.268 255 255 180 255
0.15639713 -0.28733426 1.273 255 255 180 255
0.15882191 -0.28733426 1.273 255 255 180 255
0.16124667 -0.28733426 1.273 255 255 180 255
0.16367142 -0.28733426 1.273 255 255 180 255
0.1660962 -0.28733426 1.273 255 255 180 255
0.16852096 -0.28733426 1.273 255 255 180 255
0.1709457 -0.28733426 1.273 255 255 180 255
0.17337048 -0.28733426 1.273 255 255 180 255
0.17579524 -0.28733426 1.273 255 255 180 255
0.17821999 -0.28733426 1.273 255 255 180 255
0.18064477 -0.28733426 1.273 255 255 180 255
0.18306953 -0.28733426 1.273 255 255 180 255
0.18549427 -0.28733426 1.273 255 255 180 255
0.18791905 -0.28733426 1.273 255 255 180 255
0.11713905 -0.28379047 1.268 255 255 180 255
0.11955428 -0.28379047 1.268 255 255 180 255
0.12196951 -0.28379047 1.268 255 255 180 255
0.12438476 -0.28379047 1.268 255 255 180 255
0.1268 -0.28379047 1.268 255 255 180 255
0.12972476 -0.28490952 1.273 255 255 180 255
0.13214953 -0.28490952 1.273 255 255 180 255
0.13457428 -0.28490952 1.273 255 255 180 255
0.13699904 -0.28490952 1.273 255 255 180 255
0.13942382 -0.28490952 1.273 255 255 180 255
0.14184856 -0.28490952 1.273 255 255 180 255
0.14427333 -0.28490952 1.273 255 255 180 255
0.1466981 -0.28490952 1.273 255 255 180 255
0.14853714 -0.28379047 1.268 255 255 180 255
0.15095238 -0.28379047 1.268 255 255 180 255
0.15336761 -0.28379047 1.268 255 255 180 255
0.15639713 -0.28490952 1.273 255 255 180 255
0.15882191 -0.28490952 1.273 255 255 180 255
0.16124667 -0.28490952 1.273 255 255 180 255
0.16367142 -0.28490952 1.273 255 255 180 255
0.1660962 -0.28490952 1.273 255 255 180 255
0.16852096 -0.28490952 1.273 255 255 180 255
0.1709457 -0.28490952 1.273 255 255 180 255
0.17337048 -0.28490952 1.273 255 255 180 255
0.17579524 -0.28490952 1.273 255 255 180 255
0.17821999 -0.28490952 1.273 255 255 180 255
0.18064477 -0.28490952 1.273 255 255 180 255
0.18306953 -0.28490952 1.273 255 255 180 255
0.18549427 -0.28490952 1.273 255 255 180 255
0.18791905 -0.28490952 1.273 255 255 180 255
0.11713905 -0.28137523 1.268 255 255 180 255
0.11955428 -0.28137523 1.268 255 255 180 255
0.12196951 -0.28137523 1.268 255 255 180 255
0.12438476 -0.28137523 1.268 255 255 180 255
0.1268 -0.28137523 1.268 255 255 180 255
0.13699904 -0.28248477 1.273 255 255 180 255
0.13942382 -0.28248477 1.273 255 255 180 255
0.14184856 -0.28248477 1.273 255 255 180 255
0.14427333 -0.28248477 1.273 255 255 180 255
0.1466981 -0.28248477 1.273 255 255 180 255
0.14853714 -0.28137523 1.268 255 255 180 255
0.15095238 -0.28137523 1.268 255 255 180 255
0.15336761 -0.28137523 1.268 255 255 180 255
0.15639713 -0.28248477 1.273 255 255 180 255
0.15882191 -0.28248477 1.273 255 255 180 255
0.16124667 -0.28248477 1.273 255 255 180 255
0.16367142 -0.28248477 1.273 255 255 180 255
0.1660962 -0.28248477 1.273 255 255 180 255
0.16852096 -0.28248477 1.273 255 255 180 255
0.1709457 -0.28248477 1.273 255 255 180 255
0.17337048 -0.28248477 1.273 255 255 180 255
0.17579524 -0.28248477 1.273 255 255 180 255
0.17821999 -0.28248477 1.273 255 255 180 255
0.18064477 -0.28248477 1.273 255 255 180 255
0.18306953 -0.28248477 1.273 255 255 180 255
0.18549427 -0.28248477 1.273 255 255 180 255
0.18791905 -0.28248477 1.273 255 255 180 255
0.11713905 -0.27895999 1.268 255 255 180 255
0.11955428 -0.27895999 1.268 255 255 180 255
0.12196951 -0.27895999 1.268 255 255 180 255
0.12438476 -0.27895999 1.268 255 255 180 255
0.1268 -0.27895999 1.268 255 255 180 255
0.1461219 -0.27895999 1.268 255 255 180 255
0.14853714 -0.27895999 1.268 255 255 180 255
0.15095238 -0.27895999 1.268 255 255 180 255
0.15336761 -0.27895999 1.268 255 255 180 255
0.15578286 -0.27895999 1.268 255 255 180 255
0.15882191 -0.28005999 1.273 255 255 180 255
0.16124667 -0.28005999 1.273 255 255 180 255
0.16367142 -0.28005999 1.273 255 255 180 255
0.1660962 -0.28005999 1.273 255 255 180 255
0.16852096 -0.28005999 1.273 255 255 180 255
0.1709457 -0.28005999 1.273 255 255 180 255
0.17337048 -0.28005999 1.273 255 255 180 255
0.17579524 -0.28005999 1.273 255 255 180 255
0.17821999 -0.28005999 1.273 255 255 180 255
0.18064477 -0.28005999 1.273 255 255 180 255
0.18306953 -0.28005999 1.273 255 255 180 255
0.18549427 -0.28005999 1.273 255 255 180 255
0.18791905 -0.28005999 1.273 255 255 180 255
0.11713905 -0.27654478 1.268 255 255 180 255
0.11955428 -0.27654478 1.268 255 255 180 255
0.12196951 -0.27654478 1.268 255 255 180 255
0.12438476 -0.27654478 1.268 255 255 180 255
0.1268 -0.27654478 1.268 255 255 180 255
0.1461219 -0.27654478 1.268 255 255 180 255
0.14853714 -0.27654478 1.268 255 255 180 255
0.15095238 -0.27654478 1.268 255 255 180 255
0.15336761 -0.27654478 1.268 255 255 180 255
0.15578286 -0.27654478 1.268 255 255 180 255
0.1660962 -0.27763525 1.273 255 255 180 255
0.16852096 -0.27763525 1.273 255 255 180 255
0.1709457 -0.27763525 1.273 255 255 180 255
0.17337048 -0.27763525 1.273 255 255 180 255
0.17579524 -0.27763525 1.273 255 255 180 255
0.17821999 -0.27763525 1.273 255 255 180 255
0.18064477 -0.27763525 1.273 255 255 180 255
0.18306953 -0.27763525 1.273 255 255 180 255
0.18549427 -0.27763525 1.273 255 255 180 255
0.18791905 -0.27763525 1.273 255 255 180 255
0.19034381 -0.27763525 1.273 255 255 180 255
0.11472381 -0.27412951 1.268 255 255 180 255
0.11713905 -0.27412951 1.268 255 255 180 255
0.11955428 -0.27412951 1.268 255 255 180 255
0.12196951 -0.27412951 1.268 255 255 180 255
0.12438476 -0.27412951 1.268 255 255 180 255
0.1268 -0.27412951 1.268 255 255 180 255
0.12921523 -0.27412951 1.268 255 255 180 255
0.14370666 -0.27412951 1.268 255 255 180 255
0.1461219 -0.27412951 1.268 255 255 180 255
0.14853714 -0.27412951 1.268 255 255 180 255
0.15095238 -0.27412951 1.268 255 255 180 255
0.15336761 -0.27412951 1.268 255 255 180 255
0.15578286 -0.27412951 1.268 255 255 180 255
0.18064477 -0.27521047 1.273 255 255 180 255
0.18306953 -0.27521047 1.273 255 255 180 255
0.18549427 -0.27521047 1.273 255 255 180 255
0.18791905 -0.27521047 1.273 255 255 180 255
0.19034381 -0.27521047 1.273 255 255 180 255
0.19276857 -0.27521047 1.273 255 255 180 255
0.11472381 -0.27171427 1.268 255 255 180 255
0.11713905 -0.27171427 1.268 255 255 180 255
0.11955428 -0.27171427 1.268 255 255 180 255
0.12196951 -0.27171427 1.268 255 255 180 255
0.12438476 -0.27171427 1.268 255 255 180 255
0.1268 -0.27171427 1.268 255 255 180 255
0.12921523 -0.27171427 1.268 255 255 180 255
0.14370666 -0.27171427 1.268 255 255 180 255
0.1461219 -0.27171427 1.268 255 255 180 255
0.14853714 -0.27171427 1.268 255 255 180 255
0.15095238 -0.27171427 1.268 255 255 180 255
0.15336761 -0.27171427 1.268 255 255 180 255
0.15578286 -0.27171427 1.268 255 255 180 255
0.16544381 -0.27171427 1.268 255 255 180 255
0.16785905 -0.27171427 1.268 255 255 180 255
0.17268953 -0.27171427 1.268 255 255 180 255
0.17510477 -0.27171427 1.268 255 255 180 255
0.17751999 -0.27171427 1.268 255 255 180 255
0.17993525 -0.27171427 1.268 255 255 180 255
0.11472381 -0.26929906 1.268 255 255 180 255
0.11713905 -0.26929906 1.268 255 255 180 255
0.11955428 -0.26929906 1.268 255 255 180 255
0.12196951 -0.26929906 1.268 255 255 180 255
0.12438476 -0.26929906 1.268 255 255 180 255
0.1268 -0.26929906 1.268 255 255 180 255
0.12921523 -0.26929906 1.268 255 255 180 255
0.13163048 -0.26929906 1.268 255 255 180 255
0.14370666 -0.26929906 1.268 255 255 180 255
0.1461219 -0.26929906 1.268 255 255 180 255
0.14853714 -0.26929906 1.268 255 255 180 255
0.15095238 -0.26929906 1.268 255 255 180 255
0.15336761 -0.26929906 1.268 255 255 180 255
0.15578286 -0.26929906 1.268 255 255 180 255
0.15819809 -0.26929906 1.268 255 255 180 255
0.16061333 -0.26929906 1.268 255 255 180 255
0.16544381 -0.26929906 1.268 255 255 180 255
0.16785905 -0.26929906 1.268 255 255 180 255
0.17268953 -0.26929906 1.268 255 255 180 255
0.17510477 -0.26929906 1.268 255 255 180 255
0.17751999 -0.26929906 1.268 255 255 180 255
0.17993525 -0.26929906 1.268 255 255 180 255
0.18235047 -0.26929906 1.268 255 255 180 255
0.11472381 -0.26688379 1.268 255 255 180 255
0.11713905 -0.26688379 1.268 255 255 180 255
0.11955428 -0.26688379 1.268 255 255 180 255
0.12196951 -0.26688379 1.268 255 255 180 255
0.12438476 -0.26688379 1.268 255 255 180 255
0.1268 -0.26688379 1.268 255 255 180 255
0.12921523 -0.26688379 1.268 255 255 180 255
0.13163048 -0.26688379 1.268 255 255 180 255
0.14370666 -0.26688379 1.268 255 255 180 255
0.1461219 -0.26688379 1.268 255 255 180 255
0.14853714 -0.26688379 1.268 255 255 180 255
0.15095238 -0.26688379 1.268 255 255 180 255
0.15336761 -0.26688379 1.268 255 255 180 255
0.15578286 -0.26688379 1.268 255 255 180 255
0.15819809 -0.26688379 1.268 255 255 180 255
0.16061333 -0.26688379 1.268 255 255 180 255
0.17268953 -0.26688379 1.268 255 255 180 255
0.17510477 -0.26688379 1.268 255 255 180 255
0.17751999 -0.26688379 1.268 255 255 180 255
0.17993525 -0.26688379 1.268 255 255 180 255
0.18235047 -0.26688379 1.268 255 255 180 255
0.18476571 -0.26688379 1.268 255 255 180 255
0.11472381 -0.26446858 1.268 255 255 180 255
0.11713905 -0.26446858 1.268 255 255 180 255
0.11955428 -0.26446858 1.268 255 255 180 255
0.12196951 -0.26446858 1.268 255 255 180 255
0.12438476 -0.26446858 1.268 255 255 180 255
0.1268 -0.26446858 1.268 255 255 180 255
0.12921523 -0.26446858 1.268 255 255 180 255
0.13163048 -0.26446858 1.268 255 255 180 255
0.14129142 -0.26446858 1.268 255 255 180 255
0.14370666 -0.26446858 1.268 255 255 180 255
0.1461219 -0.26446858 1.268 255 255 180 255
0.14853714 -0.26446858 1.268 255 255 180 255
0.15095238 -0.26446858 1.268 255 255 180 255
0.15336761 -0.26446858 1.268 255 255 180 255
0.15578286 -0.26446858 1.268 255 255 180 255
0.15819809 -0.26446858 1.268 255 255 180 255
0.16061333 -0.26446858 1.268 255 255 180 255
0.17510477 -0.26446858 1.268 255 255 180 255
0.17751999 -0.26446858 1.268 255 255 180 255
0.17993525 -0.26446858 1.268 255 255 180 255
0.18235047 -0.26446858 1.268 255 255 180 255
0.18476571 -0.26446858 1.268 255 255 180 255
0.18718095 -0.26446858 1.268 255 255 180 255
0.11230858 -0.26205334 1.268 255 255 180 255
0.11472381 -0.26205334 1.268 255 255 180 255
0.11713905 -0.26205334 1.268 255 255 180 255
0.11955428 -0.26205334 1.268 255 255 180 255
0.12196951 -0.26205334 1.268 255 255 180 255
0.12438476 -0.26205334 1.268 255 255 180 255
0.1268 -0.26205334 1.268 255 255 180 255
0.12921523 -0.26205334 1.268 255 255 180 255
0.13163048 -0.26205334 1.268 255 255 180 255
0.13404572 -0.26205334 1.268 255 255 180 255
0.13646095 -0.26205334 1.268 255 255 180 255
0.1388762 -0.26205334 1.268 255 255 180 255
0.14129142 -0.26205334 1.268 255 255 180 255
0.14370666 -0.26205334 1.268 255 255 180 255
0.1461219 -0.26205334 1.268 255 255 180 255
0.14853714 -0.26205334 1.268 255 255 180 255
0.15095238 -0.26205334 1.268 255 255 180 255
0.15336761 -0.26205334 1.268 255 255 180 255
0.15578286 -0.26205334 1.268 255 255 180 255
0.15819809 -0.26205334 1.268 255 255 180 255
0.16061333 -0.26205334 1.268 255 255 180 255
0.17268953 -0.26205334 1.268 255 255 180 255
0.17510477 -0.26205334 1.268 255 255 180 255
0.17751999 -0.26205334 1.268 255 255 180 255
0.17993525 -0.26205334 1.268 255 255 180 255
0.18235047 -0.26205334 1.268 255 255 180 255
0.18476571 -0.26205334 1.268 255 255 180 255
0.18718095 -0.26205334 1.268 255 255 180 255
0.1268 -0.2596381 1.268 255 255 180 255
0.12921523 -0.2596381 1.268 255 255 180 255
0.13163048 -0.2596381 1.268 255 255 180 255
0.13404572 -0.2596381 1.268 255 255 180 255
0.13646095 -0.2596381 1.268 255 255 180 255
0.1388762 -0.2596381 1.268 255 255 180 255
0.14129142 -0.2596381 1.268 255 255 180 255
0.14370666 -0.2596381 1.268 255 255 180 255
0.1461219 -0.2596381 1.268 255 255 180 255
0.14853714 -0.2596381 1.268 255 255 180 255
0.15095238 -0.2596381 1.268 255 255 180 255
0.15336761 -0.2596381 1.268 255 255 180 255
0.15578286 -0.2596381 1.268 255 255 180 255
0.15819809 -0.2596381 1.268 255 255 180 255
0.16061333 -0.2596381 1.268 255 255 180 255
0.17027427 -0.2596381 1.268 255 255 180 255
0.17268953 -0.2596381 1.268 255 255 180 255
0.17510477 -0.2596381 1.268 255 255 180 255
0.17751999 -0.2596381 1.268 255 255 180 255
0.17993525 -0.2596381 1.268 255 255 180 255
0.18235047 -0.2596381 1.268 255 255 180 255
0.18476571 -0.2596381 1.268 255 255 180 255
0.18718095 -0.2596381 1.268 255 255 180 255
0.18959619 -0.2596381 1.268 255 255 180 255
0.19201143 -0.2596381 1.268 255 255 180 255
0.14129142 -0.25722286 1.268 255 255 180 255
0.14370666 -0.25722286 1.268 255 255 180 255
0.1461219 -0.25722286 1.268 255 255 180 255
0.14853714 -0.25722286 1.268 255 255 180 255
0.15095238 -0.25722286 1.268 255 255 180 255
0.15336761 -0.25722286 1.268 255 255 180 255
0.15578286 -0.25722286 1.268 255 255 180 255
0.15819809 -0.25722286 1.268 255 255 180 255
0.16061333 -0.25722286 1.268 255 255 180 255
0.16544381 -0.25722286 1.268 255 255 180 255
0.16785905 -0.25722286 1.268 255 255 180 255
0.17027427 -0.25722286 1.268 255 255 180 255
0.17268953 -0.25722286 1.268 255 255 180 255
0.17510477 -0.25722286 1.268 255 255 180 255
0.17751999 -0.25722286 1.268 255 255 180 255
0.17993525 -0.25722286 1.268 255 255 180 255
0.18235047 -0.25722286 1.268 255 255 180 255
0.18476571 -0.25722286 1.268 255 255 180 255
0.18718095 -0.25722286 1.268 255 255 180 255
0.18959619 -0.25722286 1.268 255 255 180 255
0.19201143 -0.25722286 1.268 255 255 180 255
0.15578286 -0.25480762 1.268 255 255 180 255
0.15819809 -0.25480762 1.268 255 255 180 255
0.16061333 -0.25480762 1.268 255 255 180 255
0.16544381 -0.25480762 1.268 255 255 180 255
0.16785905 -0.25480762 1.268 255 255 180 255
0.17027427 -0.25480762 1.268 255 255 180 255
0.17268953 -0.25480762 1.268 255 255 180 255
0.17510477 -0.25480762 1.268 255 255 180 255
0.17751999 -0.25480762 1.268 255 255 180 255
0.17993525 -0.25480762 1.268 255 255 180 255
0.18235047 -0.25480762 1.268 255 255 180 255
0.18476571 -0.25480762 1.268 255 255 180 255
0.18718095 -0.25480762 1.268 255 255 180 255
0.18959619 -0.25480762 1.268 255 255 180 255
0.19201143 -0.25480762 1.268 255 255 180 255
0.16785905 -0.25239238 1.268 255 255 180 255
0.17027427 -0.25239238 1.268 255 255 180 255
0.17268953 -0.25239238 1.268 255 255 180 255
0.17510477 -0.25239238 1.268 255 255 180 255
0.17751999 -0.25239238 1.268 255 255 180 255
0.17993525 -0.25239238 1.268 255 255 180 255
0.18235047 -0.25239238 1.268 255 255 180 255
0.18476571 -0.25239238 1.268 255 255 180 255
0.18718095 -0.25239238 1.268 255 255 180 255
0.18959619 -0.25239238 1.268 255 255 180 255
0.19201143 -0.25239238 1.268 255 255 180 255
0.19442666 -0.25239238 1.268 255 255 180 255
0.18235047 -0.24997716 1.268 255 255 180 255
0.18476571 -0.24997716 1.268 255 255 180 255
0.18718095 -0.24997716 1.268 255 255 180 255
0.18959619 -0.24997716 1.268 255 255 180 255
0.19201143 -0.24997716 1.268 255 255 180 255
0.19442666 -0.24997716 1.268 255 255 180 255
0.19684191 -0.24997716 1.268 255 255 180 255
0.19684191 -0.2475619 1.268 255 255 180 255
0.14566095 -0.24437334 1.2640001 255 255 180 255
0.14806858 -0.24437334 1.2640001 255 255 180 255
0.15288381 -0.24437334 1.2640001 255 255 180 255
0.15529144 -0.24437334 1.2640001 255 255 180 255
0.15769906 -0.24437334 1.2640001 255 255 180 255
0.16010667 -0.24437334 1.2640001 255 255 180 255
0.1625143 -0.24437334 1.2640001 255 255 180 255
0.16492191 -0.24437334 1.2640001 255 255 180 255
0.16732953 -0.24437334 1.2640001 255 255 180 255
0.16973716 -0.24437334 1.2640001 255 255 180 255
0.17214477 -0.24437334 1.2640001 255 255 180 255
0.14566095 -0.24196573 1.2640001 255 255 180 255
0.14806858 -0.24196573 1.2640001 255 255 180 255
0.15047619 -0.24196573 1.2640001 255 255 180 255
0.15288381 -0.24196573 1.2640001 255 255 180 255
0.15529144 -0.24196573 1.2640001 255 255 180 255
0.15769906 -0.24196573 1.2640001 255 255 180 255
0.16010667 -0.24196573 1.2640001 255 255 180 255
0.1625143 -0.24196573 1.2640001 255 255 180 255
0.16492191 -0.24196573 1.2640001 255 255 180 255
0.16732953 -0.24196573 1.2640001 255 255 180 255
0.16973716 -0.24196573 1.2640001 255 255 180 255
0.17214477 -0.24196573 1.2640001 255 255 180 255
0.14566095 -0.2395581 1.2640001 255 255 180 255
0.14806858 -0.2395581 1.2640001 255 255 180 255
0.15047619 -0.2395581 1.2640001 255 255 180 255
0.15288381 -0.2395581 1.2640001 255 255 180 255
0.15529144 -0.2395581 1.2640001 255 255 180 255
0.15769906 -0.2395581 1.2640001 255 255 180 255
0.16010667 -0.2395581 1.2640001 255 255 180 255
0.1625143 -0.2395581 1.2640001 255 255 180 255
0.16492191 -0.2395581 1.2640001 255 255 180 255
0.16732953 -0.2395581 1.2640001 255 255 180 255
0.16973716 -0.2395581 1.2640001 255 255 180 255
0.17214477 -0.2395581 1.2640001 255 255 180 255
0.17696001 -0.2395581 1.2640001 255 255 180 255
0.17936763 -0.2395581 1.2640001 255 255 180 255
0.18659049 -0.2395581 1.2640001 255 255 180 255
0.1889981 -0.2395581 1.2640001 255 255 180 255
0.19140573 -0.2395581 1.2640001 255 255 180 255
0.14084572 -0.23715049 1.2640001 255 255 180 255
0.14325333 -0.23715049 1.2640001 255 255 180 255
0.14566095 -0.23715049 1.2640001 255 255 180 255
0.14806858 -0.23715049 1.2640001 255 255 180 255
0.15047619 -0.23715049 1.2640001 255 255 180 255
0.15227905 -0.23621239 1.2590001 255 255 180 255
0.15467715 -0.23621239 1.2590001 255 255 180 255
0.15707524 -0.23621239 1.2590001 255 255 180 255
0.15947334 -0.23621239 1.2590001 255 255 180 255
0.16187143 -0.23621239 1.2590001 255 255 180 255
0.16426952 -0.23621239 1.2590001 255 255 180 255
0.16732953 -0.23715049 1.2640001 255 255 180 255
0.16906573 -0.23621239 1.2590001 255 255 180 255
0.17146382 -0.23621239 1.2590001 255 255 180 255
0.1745524 -0.23715049 1.2640001 255 255 180 255
0.17696001 -0.23715049 1.2640001 255 255 180 255
0.17936763 -0.23715049 1.2640001 255 255 180 255
0.18177524 -0.23715049 1.2640001 255 255 180 255
0.18418287 -0.23715049 1.2640001 255 255 180 255
0.18659049 -0.23715049 1.2640001 255 255 180 255
0.1889981 -0.23715049 1.2640001 255 255 180 255
0.19140573 -0.23715049 1.2640001 255 255 180 255
0.15227905 -0.23381428 1.2590001 255 255 180 255
0.15467715 -0.23381428 1.2590001 255 255 180 255
0.15707524 -0.23381428 1.2590001 255 255 180 255
0.15947334 -0.23381428 1.2590001 255 255 180 255
0.16187143 -0.23381428 1.2590001 255 255 180 255
0.16426952 -0.23381428 1.2590001 255 255 180 255
0.16666763 -0.23381428 1.2590001 255 255 180 255
0.16906573 -0.23381428 1.2590001 255 255 180 255
0.17146382 -0.23381428 1.2590001 255 255 180 255
0.17386191 -0.23381428 1.2590001 255 255 180 255
0.17626001 -0.23381428 1.2590001 255 255 180 255
0.1786581 -0.23381428 1.2590001 255 255 180 255
0.18177524 -0.23474286 1.2640001 255 255 180 255
0.18418287 -0.23474286 1.2640001 255 255 180 255
0.18659049 -0.23474286 1.2640001 255 255 180 255
0.1889981 -0.23474286 1.2640001 255 255 180 255
0.19140573 -0.23474286 1.2640001 255 255 180 255
0.19381334 -0.23474286 1.2640001 255 255 180 255
0.15707524 -0.2314162 1.2590001 255 255 180 255
0.15947334 -0.2314162 1.2590001 255 255 180 255
0.16187143 -0.2314162 1.2590001 255 255 180 255
0.16426952 -0.2314162 1.2590001 255 255 180 255
0.16666763 -0.2314162 1.2590001 255 255 180 255
0.16906573 -0.2314162 1.2590001 255 255 180 255
0.17146382 -0.2314162 1.2590001 255 255 180 255
0.17386191 -0.2314162 1.2590001 255 255 180 255
0.17626001 -0.2314162 1.2590001 255 255 180 255
0.1786581 -0.2314162 1.2590001 255 255 180 255
0.18177524 -0.23233524 1.2640001 255 255 180 255
0.18418287 -0.23233524 1.2640001 255 255 180 255
0.18659049 -0.23233524 1.2640001 255 255 180 255
0.1889981 -0.23233524 1.2640001 255 255 180 255
0.19140573 -0.23233524 1.2640001 255 255 180 255
0.19381334 -0.23233524 1.2640001 255 255 180 255
0.1330943 -0.22901811 1.2590001 255 255 180 255
0.1354924 -0.22901811 1.2590001 255 255 180 255
0.13789047 -0.22901811 1.2590001 255 255 180 255
0.14508477 -0.22901811 1.2590001 255 255 180 255
0.14748287 -0.22901811 1.2590001 255 255 180 255
0.14988096 -0.22901811 1.2590001 255 255 180 255
0.15467715 -0.22901811 1.2590001 255 255 180 255
0.15707524 -0.22901811 1.2590001 255 255 180 255
0.15947334 -0.22901811 1.2590001 255 255 180 255
0.16187143 -0.22901811 1.2590001 255 255 180 255
0.16426952 -0.22901811 1.2590001 255 255 180 255
0.16666763 -0.22901811 1.2590001 255 255 180 255
0.16906573 -0.22901811 1.2590001 255 255 180 255
0.17146382 -0.22901811 1.2590001 255 255 180 255
0.17386191 -0.22901811 1.2590001 255 255 180 255
0.17626001 -0.22901811 1.2590001 255 255 180 255
0.1786581 -0.22901811 1.2590001 255 255 180 255
0.18418287 -0.22992763 1.2640001 255 255 180 255
0.18659049 -0.22992763 1.2640001 255 255 180 255
0.1889981 -0.22992763 1.2640001 255 255 180 255
0.1330943 -0.22662002 1.2590001 255 255 180 255
0.1354924 -0.22662002 1.2590001 255 255 180 255
0.13789047 -0.22662002 1.2590001 255 255 180 255
0.14508477 -0.22662002 1.2590001 255 255 180 255
0.14748287 -0.22662002 1.2590001 255 255 180 255
0.14988096 -0.22662002 1.2590001 255 255 180 255
0.15467715 -0.22662002 1.2590001 255 255 180 255
0.15707524 -0.22662002 1.2590001 255 255 180 255
0.15947334 -0.22662002 1.2590001 255 255 180 255
0.16187143 -0.22662002 1.2590001 255 255 180 255
0.16426952 -0.22662002 1.2590001 255 255 180 255
0.16666763 -0.22662002 1.2590001 255 255 180 255
0.16906573 -0.22662002 1.2590001 255 255 180 255
0.17146382 -0.22662002 1.2590001 255 255 180 255
0.17386191 -0.22662002 1.2590001 255 255 180 255
0.14508477 -0.22422192 1.2590001 255 255 180 255
0.14748287 -0.22422192 1.2590001 255 255 180 255
0.15707524 -0.22422192 1.2590001 255 255 180 255
0.15947334 -0.22422192 1.2590001 255 255 180 255
0.16187143 -0.22422192 1.2590001 255 255 180 255
0.16426952 -0.22422192 1.2590001 255 255 180 255
0.16906573 -0.22422192 1.2590001 255 255 180 255
0.17146382 -0.22422192 1.2590001 255 255 180 255
0.17386191 -0.22422192 1.2590001 255 255 180 255
0.1354924 -0.21942572 1.2590001 255 255 180 255
0.13789047 -0.21942572 1.2590001 255 255 180 255
0.13789047 -0.21702763 1.2590001 255 255 180 255
0 0 0 1 0 0 0 1 0 0 0 1 0 0 0 0 0 849 1 0 0
