ply
format ascii 1.0
comment PCL generated
element vertex 379
property float x
property float y
property float z
property uchar red
property uchar green
property uchar blue
property uchar alpha
element camera 1
property float view_px
property float view_py
property float view_pz
property float x_axisx
property float x_axisy
property float x_axisz
property float y_axisx
property float y_axisy
property float y_axisz
property float z_axisx
property float z_axisy
property float z_axisz
property float focal
property float scalex
property float scaley
property float centerx
property float centery
property int viewportx
property int viewporty
property float k1
property float k2
end_header
-0.11215048 -0.054340959 1.2140001 255 0 114 255
-0.10983811 -0.054340959 1.2140001 255 0 114 255
-0.10752572 -0.054340959 1.2140001 255 0 114 255
-0.10521334 -0.054340959 1.2140001 255 0 114 255
-0.10290097 -0.054340959 1.2140001 255 0 114 255
-0.10058858 -0.054340959 1.2140001 255 0 114 255
-0.098276198 -0.054340959 1.2140001 255 0 114 255
-0.11677525 -0.052028574 1.2140001 255 0 114 255
-0.11446287 -0.052028574 1.2140001 255 0 114 255
-0.11215048 -0.052028574 1.2140001 255 0 114 255
-0.10983811 -0.052028574 1.2140001 255 0 114 255
-0.10717143 -0.051857144 1.21 255 0 114 255
-0.10486667 -0.051857144 1.21 255 0 114 255
-0.10256191 -0.051857144 1.21 255 0 114 255
-0.10025714 -0.051857144 1.21 255 0 114 255
-0.097952388 -0.051857144 1.21 255 0 114 255
-0.095647618 -0.051857144 1.21 255 0 114 255
-0.093651436 -0.052028574 1.2140001 255 0 114 255
-0.091339052 -0.052028574 1.2140001 255 0 114 255
-0.089026667 -0.052028574 1.2140001 255 0 114 255
-0.086714298 -0.052028574 1.2140001 255 0 114 255
-0.11908762 -0.049716193 1.2140001 255 0 114 255
-0.11639048 -0.049552381 1.21 255 0 114 255
-0.11370859 -0.049388576 1.2060001 255 0 114 255
-0.11141144 -0.049388576 1.2060001 255 0 114 255
-0.10911429 -0.049388576 1.2060001 255 0 114 255
-0.10681715 -0.049388576 1.2060001 255 0 114 255
-0.10452001 -0.049388576 1.2060001 255 0 114 255
-0.10222286 -0.049388576 1.2060001 255 0 114 255
-0.099925719 -0.049388576 1.2060001 255 0 114 255
-0.097628579 -0.049388576 1.2060001 255 0 114 255
-0.095331438 -0.049388576 1.2060001 255 0 114 255
-0.093342856 -0.049552381 1.21 255 0 114 255
-0.0910381 -0.049552381 1.21 255 0 114 255
-0.088733338 -0.049552381 1.21 255 0 114 255
-0.086428568 -0.049552381 1.21 255 0 114 255
-0.11869524 -0.047247618 1.21 255 0 114 255
-0.11600572 -0.047091432 1.2060001 255 0 114 255
-0.11333143 -0.046935238 1.202 255 0 114 255
-0.1110419 -0.046935238 1.202 255 0 114 255
-0.10875238 -0.046935238 1.202 255 0 114 255
-0.10646286 -0.046935238 1.202 255 0 114 255
-0.10417333 -0.046935238 1.202 255 0 114 255
-0.10188381 -0.046935238 1.202 255 0 114 255
-0.099594288 -0.046935238 1.202 255 0 114 255
-0.097304761 -0.046935238 1.202 255 0 114 255
-0.095015235 -0.046935238 1.202 255 0 114 255
-0.09303429 -0.047091432 1.2060001 255 0 114 255
-0.090737149 -0.047091432 1.2060001 255 0 114 255
-0.088440008 -0.047091432 1.2060001 255 0 114 255
-0.086428568 -0.047247618 1.21 255 0 114 255
-0.084401913 -0.047403816 1.2140001 255 0 114 255
-0.12330476 -0.04494286 1.21 255 0 114 255
-0.12060001 -0.044794288 1.2060001 255 0 114 255
-0.11791047 -0.044645716 1.202 255 0 114 255
-0.11562095 -0.044645716 1.202 255 0 114 255
-0.11333143 -0.044645716 1.202 255 0 114 255
-0.1110419 -0.044645716 1.202 255 0 114 255
-0.10875238 -0.044645716 1.202 255 0 114 255
-0.10646286 -0.044645716 1.202 255 0 114 255
-0.10417333 -0.044645716 1.202 255 0 114 255
-0.10188381 -0.044645716 1.202 255 0 114 255
-0.099594288 -0.044645716 1.202 255 0 114 255
-0.097304761 -0.044645716 1.202 255 0 114 255
-0.095015235 -0.044645716 1.202 255 0 114 255
-0.09303429 -0.044794288 1.2060001 255 0 114 255
-0.090737149 -0.044794288 1.2060001 255 0 114 255
-0.088440008 -0.044794288 1.2060001 255 0 114 255
-0.08614286 -0.044794288 1.2060001 255 0 114 255
-0.084123813 -0.04494286 1.21 255 0 114 255
-0.082089528 -0.045091432 1.2140001 255 0 114 255
-0.12560952 -0.042638097 1.21 255 0 114 255
-0.12289715 -0.042497143 1.2060001 255 0 114 255
-0.1202 -0.042356189 1.202 255 0 114 255
-0.11791047 -0.042356189 1.202 255 0 114 255
-0.11562095 -0.042356189 1.202 255 0 114 255
-0.11286 -0.042180002 1.197 255 0 114 255
-0.11058 -0.042180002 1.197 255 0 114 255
-0.10875238 -0.042356189 1.202 255 0 114 255
-0.10646286 -0.042356189 1.202 255 0 114 255
-0.10417333 -0.042356189 1.202 255 0 114 255
-0.10188381 -0.042356189 1.202 255 0 114 255
-0.099594288 -0.042356189 1.202 255 0 114 255
-0.097304761 -0.042356189 1.202 255 0 114 255
-0.095015235 -0.042356189 1.202 255 0 114 255
-0.09303429 -0.042497143 1.2060001 255 0 114 255
-0.09043619 -0.042356189 1.202 255 0 114 255
-0.088146664 -0.042356189 1.202 255 0 114 255
-0.08614286 -0.042497143 1.2060001 255 0 114 255
-0.08384572 -0.042497143 1.2060001 255 0 114 255
-0.08181905 -0.042638097 1.21 255 0 114 255
-0.079777151 -0.042779051 1.2140001 255 0 114 255
-0.077464767 -0.042779051 1.2140001 255 0 114 255
-0.075152382 -0.042779051 1.2140001 255 0 114 255
-0.12560952 -0.040333334 1.21 255 0 114 255
-0.12248952 -0.040066667 1.202 255 0 114 255
-0.1202 -0.040066667 1.202 255 0 114 255
-0.11791047 -0.040066667 1.202 255 0 114 255
-0.11514 -0.039900001 1.197 255 0 114 255
-0.11286 -0.039900001 1.197 255 0 114 255
-0.11058 -0.039900001 1.197 255 0 114 255
-0.10875238 -0.040066667 1.202 255 0 114 255
-0.10646286 -0.040066667 1.202 255 0 114 255
-0.10417333 -0.040066667 1.202 255 0 114 255
-0.10188381 -0.040066667 1.202 255 0 114 255
-0.099594288 -0.040066667 1.202 255 0 114 255
-0.097304761 -0.040066667 1.202 255 0 114 255
-0.095015235 -0.040066667 1.202 255 0 114 255
-0.092725717 -0.040066667 1.202 255 0 114 255
-0.09043619 -0.040066667 1.202 255 0 114 255
-0.088146664 -0.040066667 1.202 255 0 114 255
-0.085857145 -0.040066667 1.202 255 0 114 255
-0.08384572 -0.040200002 1.2060001 255 0 114 255
-0.08181905 -0.040333334 1.21 255 0 114 255
-0.079777151 -0.04046667 1.2140001 255 0 114 255
-0.077464767 -0.04046667 1.2140001 255 0 114 255
-0.075152382 -0.04046667 1.2140001 255 0 114 255
-0.1251943 -0.037902862 1.2060001 255 0 114 255
-0.12248952 -0.037777144 1.202 255 0 114 255
-0.1202 -0.037777144 1.202 255 0 114 255
-0.11742 -0.037620001 1.197 255 0 114 255
-0.11514 -0.037620001 1.197 255 0 114 255
-0.11286 -0.037620001 1.197 255 0 114 255
-0.11058 -0.037620001 1.197 255 0 114 255
-0.1083 -0.037620001 1.197 255 0 114 255
-0.10646286 -0.037777144 1.202 255 0 114 255
-0.10417333 -0.037777144 1.202 255 0 114 255
-0.10188381 -0.037777144 1.202 255 0 114 255
-0.099594288 -0.037777144 1.202 255 0 114 255
-0.097304761 -0.037777144 1.202 255 0 114 255
-0.095015235 -0.037777144 1.202 255 0 114 255
-0.092725717 -0.037777144 1.202 255 0 114 255
-0.09043619 -0.037777144 1.202 255 0 114 255
-0.088146664 -0.037777144 1.202 255 0 114 255
-0.085857145 -0.037777144 1.202 255 0 114 255
-0.08384572 -0.037902862 1.2060001 255 0 114 255
-0.081548579 -0.037902862 1.2060001 255 0 114 255
-0.079777151 -0.038154289 1.2140001 255 0 114 255
-0.077464767 -0.038154289 1.2140001 255 0 114 255
-0.075152382 -0.038154289 1.2140001 255 0 114 255
-0.12791428 -0.035723813 1.21 255 0 114 255
-0.1251943 -0.035605714 1.2060001 255 0 114 255
-0.12248952 -0.035487618 1.202 255 0 114 255
-0.1202 -0.035487618 1.202 255 0 114 255
-0.11742 -0.03534 1.197 255 0 114 255
-0.11514 -0.03534 1.197 255 0 114 255
-0.11286 -0.03534 1.197 255 0 114 255
-0.11058 -0.03534 1.197 255 0 114 255
-0.1083 -0.03534 1.197 255 0 114 255
-0.10646286 -0.035487618 1.202 255 0 114 255
-0.10417333 -0.035487618 1.202 255 0 114 255
-0.10188381 -0.035487618 1.202 255 0 114 255
-0.099594288 -0.035487618 1.202 255 0 114 255
-0.097304761 -0.035487618 1.202 255 0 114 255
-0.095015235 -0.035487618 1.202 255 0 114 255
-0.092725717 -0.035487618 1.202 255 0 114 255
-0.09043619 -0.035487618 1.202 255 0 114 255
-0.088146664 -0.035487618 1.202 255 0 114 255
-0.085857145 -0.035487618 1.202 255 0 114 255
-0.083567619 -0.035487618 1.202 255 0 114 255
-0.081548579 -0.035605714 1.2060001 255 0 114 255
-0.079514287 -0.035723813 1.21 255 0 114 255
-0.077464767 -0.035841908 1.2140001 255 0 114 255
-0.075152382 -0.035841908 1.2140001 255 0 114 255
-0.13021906 -0.033419047 1.21 255 0 114 255
-0.12749144 -0.033308573 1.2060001 255 0 114 255
-0.12477905 -0.033198096 1.202 255 0 114 255
-0.12248952 -0.033198096 1.202 255 0 114 255
-0.11970001 -0.033059999 1.197 255 0 114 255
-0.11742 -0.033059999 1.197 255 0 114 255
-0.11514 -0.033059999 1.197 255 0 114 255
-0.11286 -0.033059999 1.197 255 0 114 255
-0.11058 -0.033059999 1.197 255 0 114 255
-0.1083 -0.033059999 1.197 255 0 114 255
-0.10602 -0.033059999 1.197 255 0 114 255
-0.10374 -0.033059999 1.197 255 0 114 255
-0.10188381 -0.033198096 1.202 255 0 114 255
-0.099594288 -0.033198096 1.202 255 0 114 255
-0.097304761 -0.033198096 1.202 255 0 114 255
-0.095015235 -0.033198096 1.202 255 0 114 255
-0.092725717 -0.033198096 1.202 255 0 114 255
-0.09043619 -0.033198096 1.202 255 0 114 255
-0.088146664 -0.033198096 1.202 255 0 114 255
-0.085857145 -0.033198096 1.202 255 0 114 255
-0.083567619 -0.033198096 1.202 255 0 114 255
-0.081548579 -0.033308573 1.2060001 255 0 114 255
-0.079514287 -0.033419047 1.21 255 0 114 255
-0.12749144 -0.031011432 1.2060001 255 0 114 255
-0.12477905 -0.030908573 1.202 255 0 114 255
-0.12248952 -0.030908573 1.202 255 0 114 255
-0.11970001 -0.030780001 1.197 255 0 114 255
-0.11742 -0.030780001 1.197 255 0 114 255
-0.11514 -0.030780001 1.197 255 0 114 255
-0.11286 -0.030780001 1.197 255 0 114 255
-0.11058 -0.030780001 1.197 255 0 114 255
-0.1083 -0.030780001 1.197 255 0 114 255
-0.10602 -0.030780001 1.197 255 0 114 255
-0.10374 -0.030780001 1.197 255 0 114 255
-0.10146 -0.030780001 1.197 255 0 114 255
-0.099594288 -0.030908573 1.202 255 0 114 255
-0.097304761 -0.030908573 1.202 255 0 114 255
-0.095015235 -0.030908573 1.202 255 0 114 255
-0.092725717 -0.030908573 1.202 255 0 114 255
-0.09043619 -0.030908573 1.202 255 0 114 255
-0.088146664 -0.030908573 1.202 255 0 114 255
-0.085857145 -0.030908573 1.202 255 0 114 255
-0.083567619 -0.030908573 1.202 255 0 114 255
-0.081278101 -0.030908573 1.202 255 0 114 255
-0.079514287 -0.031114288 1.21 255 0 114 255
-0.12749144 -0.028714286 1.2060001 255 0 114 255
-0.12477905 -0.028619049 1.202 255 0 114 255
-0.12248952 -0.028619049 1.202 255 0 114 255
-0.11970001 -0.0285 1.197 255 0 114 255
-0.11742 -0.0285 1.197 255 0 114 255
-0.11514 -0.0285 1.197 255 0 114 255
-0.11286 -0.0285 1.197 255 0 114 255
-0.11058 -0.0285 1.197 255 0 114 255
-0.1083 -0.0285 1.197 255 0 114 255
-0.10602 -0.0285 1.197 255 0 114 255
-0.10374 -0.0285 1.197 255 0 114 255
-0.10146 -0.0285 1.197 255 0 114 255
-0.099179998 -0.0285 1.197 255 0 114 255
-0.096900001 -0.0285 1.197 255 0 114 255
-0.095015235 -0.028619049 1.202 255 0 114 255
-0.092725717 -0.028619049 1.202 255 0 114 255
-0.09043619 -0.028619049 1.202 255 0 114 255
-0.088146664 -0.028619049 1.202 255 0 114 255
-0.085857145 -0.028619049 1.202 255 0 114 255
-0.083567619 -0.028619049 1.202 255 0 114 255
-0.081278101 -0.028619049 1.202 255 0 114 255
-0.079514287 -0.028809523 1.21 255 0 114 255
-0.1251943 -0.026417146 1.2060001 255 0 114 255
-0.12248952 -0.026329523 1.202 255 0 114 255
-0.1202 -0.026329523 1.202 255 0 114 255
-0.11791047 -0.026329523 1.202 255 0 114 255
-0.11514 -0.026219999 1.197 255 0 114 255
-0.11286 -0.026219999 1.197 255 0 114 255
-0.11058 -0.026219999 1.197 255 0 114 255
-0.1083 -0.026219999 1.197 255 0 114 255
-0.10602 -0.026219999 1.197 255 0 114 255
-0.10374 -0.026219999 1.197 255 0 114 255
-0.10146 -0.026219999 1.197 255 0 114 255
-0.099179998 -0.026219999 1.197 255 0 114 255
-0.096900001 -0.026219999 1.197 255 0 114 255
-0.094620004 -0.026219999 1.197 255 0 114 255
-0.092725717 -0.026329523 1.202 255 0 114 255
-0.09043619 -0.026329523 1.202 255 0 114 255
-0.088146664 -0.026329523 1.202 255 0 114 255
-0.085857145 -0.026329523 1.202 255 0 114 255
-0.083567619 -0.026329523 1.202 255 0 114 255
-0.081278101 -0.026329523 1.202 255 0 114 255
-0.079514287 -0.026504762 1.21 255 0 114 255
-0.1251943 -0.024120001 1.2060001 255 0 114 255
-0.12248952 -0.024040001 1.202 255 0 114 255
-0.1202 -0.024040001 1.202 255 0 114 255
-0.11791047 -0.024040001 1.202 255 0 114 255
-0.11514 -0.023940001 1.197 255 0 114 255
-0.11286 -0.023940001 1.197 255 0 114 255
-0.11058 -0.023940001 1.197 255 0 114 255
-0.1083 -0.023940001 1.197 255 0 114 255
-0.10602 -0.023940001 1.197 255 0 114 255
-0.10374 -0.023940001 1.197 255 0 114 255
-0.10146 -0.023940001 1.197 255 0 114 255
-0.099179998 -0.023940001 1.197 255 0 114 255
-0.096900001 -0.023940001 1.197 255 0 114 255
-0.094620004 -0.023940001 1.197 255 0 114 255
-0.092725717 -0.024040001 1.202 255 0 114 255
-0.09043619 -0.024040001 1.202 255 0 114 255
-0.088146664 -0.024040001 1.202 255 0 114 255
-0.085857145 -0.024040001 1.202 255 0 114 255
-0.083567619 -0.024040001 1.202 255 0 114 255
-0.081548579 -0.024120001 1.2060001 255 0 114 255
-0.079514287 -0.0242 1.21 255 0 114 255
-0.1251943 -0.021822859 1.2060001 255 0 114 255
-0.12289715 -0.021822859 1.2060001 255 0 114 255
-0.1202 -0.021750478 1.202 255 0 114 255
-0.11791047 -0.021750478 1.202 255 0 114 255
-0.11562095 -0.021750478 1.202 255 0 114 255
-0.11286 -0.02166 1.197 255 0 114 255
-0.11058 -0.02166 1.197 255 0 114 255
-0.1083 -0.02166 1.197 255 0 114 255
-0.10602 -0.02166 1.197 255 0 114 255
-0.10374 -0.02166 1.197 255 0 114 255
-0.10146 -0.02166 1.197 255 0 114 255
-0.099179998 -0.02166 1.197 255 0 114 255
-0.096900001 -0.02166 1.197 255 0 114 255
-0.094620004 -0.02166 1.197 255 0 114 255
-0.092725717 -0.021750478 1.202 255 0 114 255
-0.09043619 -0.021750478 1.202 255 0 114 255
-0.088146664 -0.021750478 1.202 255 0 114 255
-0.085857145 -0.021750478 1.202 255 0 114 255
-0.083567619 -0.021750478 1.202 255 0 114 255
-0.081548579 -0.021822859 1.2060001 255 0 114 255
-0.079514287 -0.021895239 1.21 255 0 114 255
-0.12060001 -0.019525714 1.2060001 255 0 114 255
-0.11791047 -0.019460952 1.202 255 0 114 255
-0.11562095 -0.019460952 1.202 255 0 114 255
-0.11333143 -0.019460952 1.202 255 0 114 255
-0.11058 -0.019380001 1.197 255 0 114 255
-0.1083 -0.019380001 1.197 255 0 114 255
-0.10602 -0.019380001 1.197 255 0 114 255
-0.10374 -0.019380001 1.197 255 0 114 255
-0.10146 -0.019380001 1.197 255 0 114 255
-0.099179998 -0.019380001 1.197 255 0 114 255
-0.096900001 -0.019380001 1.197 255 0 114 255
-0.094620004 -0.019380001 1.197 255 0 114 255
-0.092725717 -0.019460952 1.202 255 0 114 255
-0.09043619 -0.019460952 1.202 255 0 114 255
-0.088146664 -0.019460952 1.202 255 0 114 255
-0.085857145 -0.019460952 1.202 255 0 114 255
-0.083567619 -0.019460952 1.202 255 0 114 255
-0.081548579 -0.019525714 1.2060001 255 0 114 255
-0.079514287 -0.019590477 1.21 255 0 114 255
-0.12060001 -0.017228574 1.2060001 255 0 114 255
-0.11830287 -0.017228574 1.2060001 255 0 114 255
-0.11562095 -0.017171429 1.202 255 0 114 255
-0.11333143 -0.017171429 1.202 255 0 114 255
-0.11058 -0.017099999 1.197 255 0 114 255
-0.1083 -0.017099999 1.197 255 0 114 255
-0.10602 -0.017099999 1.197 255 0 114 255
-0.10374 -0.017099999 1.197 255 0 114 255
-0.10146 -0.017099999 1.197 255 0 114 255
-0.099179998 -0.017099999 1.197 255 0 114 255
-0.096900001 -0.017099999 1.197 255 0 114 255
-0.094620004 -0.017099999 1.197 255 0 114 255
-0.092725717 -0.017171429 1.202 255 0 114 255
-0.09043619 -0.017171429 1.202 255 0 114 255
-0.088146664 -0.017171429 1.202 255 0 114 255
-0.08614286 -0.017228574 1.2060001 255 0 114 255
-0.08384572 -0.017228574 1.2060001 255 0 114 255
-0.08181905 -0.017285716 1.21 255 0 114 255
-0.11600572 -0.01493143 1.2060001 255 0 114 255
-0.11333143 -0.014881905 1.202 255 0 114 255
-0.1110419 -0.014881905 1.202 255 0 114 255
-0.10875238 -0.014881905 1.202 255 0 114 255
-0.10602 -0.014820001 1.197 255 0 114 255
-0.10374 -0.014820001 1.197 255 0 114 255
-0.10146 -0.014820001 1.197 255 0 114 255
-0.099179998 -0.014820001 1.197 255 0 114 255
-0.096900001 -0.014820001 1.197 255 0 114 255
-0.094620004 -0.014820001 1.197 255 0 114 255
-0.092725717 -0.014881905 1.202 255 0 114 255
-0.090737149 -0.01493143 1.2060001 255 0 114 255
-0.088440008 -0.01493143 1.2060001 255 0 114 255
-0.08614286 -0.01493143 1.2060001 255 0 114 255
-0.11600572 -0.012634287 1.2060001 255 0 114 255
-0.11370859 -0.012634287 1.2060001 255 0 114 255
-0.1110419 -0.012592381 1.202 255 0 114 255
-0.10875238 -0.012592381 1.202 255 0 114 255
-0.10646286 -0.012592381 1.202 255 0 114 255
-0.10417333 -0.012592381 1.202 255 0 114 255
-0.10188381 -0.012592381 1.202 255 0 114 255
-0.099179998 -0.01254 1.197 255 0 114 255
-0.096900001 -0.01254 1.197 255 0 114 255
-0.095015235 -0.012592381 1.202 255 0 114 255
-0.09303429 -0.012634287 1.2060001 255 0 114 255
-0.090737149 -0.012634287 1.2060001 255 0 114 255
-0.088440008 -0.012634287 1.2060001 255 0 114 255
-0.11370859 -0.010337144 1.2060001 255 0 114 255
-0.1110419 -0.010302857 1.202 255 0 114 255
-0.10875238 -0.010302857 1.202 255 0 114 255
-0.10646286 -0.010302857 1.202 255 0 114 255
-0.10417333 -0.010302857 1.202 255 0 114 255
-0.10188381 -0.010302857 1.202 255 0 114 255
-0.099594288 -0.010302857 1.202 255 0 114 255
-0.097304761 -0.010302857 1.202 255 0 114 255
-0.095331438 -0.010337144 1.2060001 255 0 114 255
-0.11141144 -0.0080400007 1.2060001 255 0 114 255
-0.10911429 -0.0080400007 1.2060001 255 0 114 255
-0.10681715 -0.0080400007 1.2060001 255 0 114 255
-0.10452001 -0.0080400007 1.2060001 255 0 114 255
-0.10188381 -0.0080133341 1.202 255 0 114 255
-0.099594288 -0.0080133341 1.202 255 0 114 255
-0.097304761 -0.0080133341 1.202 255 0 114 255
-0.10681715 -0.0057428577 1.2060001 255 0 114 255
-0.10452001 -0.0057428577 1.2060001 255 0 114 255
-0.10222286 -0.0057428577 1.2060001 255 0 114 255
-0.099925719 -0.0057428577 1.2060001 255 0 114 255
-0.097628579 -0.0057428577 1.2060001 255 0 114 255
0 0 0 1 0 0 0 1 0 0 0 1 0 0 0 0 0 379 1 0 0
